<?xml version="1.0" encoding="utf-8"?>
<svg version="1.1" xmlns="http://www.w3.org/2000/svg" xmlns:xlink="http://www.w3.org/1999/xlink" x="0px" y="0px"
	 viewBox="0 0 1920 1080" style="enable-background:new 0 0 1920 1080;" xml:space="preserve">
<style type="text/css">
	.st0{fill:#F0F0F0;}
	.st1{fill:none;stroke:#000000;stroke-miterlimit:10;}
	.st2{fill:#8B8BF2;}
	.st3{fill:none;stroke:#FFFFFF;stroke-width:2;stroke-miterlimit:10;}
	.st4{fill:#FFFFFF;stroke:#000000;stroke-miterlimit:10;}
	.st5{clip-path:url(#SVGID_2_);}
	.st6{clip-path:url(#SVGID_2_);fill:#000116;}
	.st7{clip-path:url(#SVGID_2_);fill:#EDE7D1;}
	.st8{fill:none;stroke:#232323;stroke-width:0.75;stroke-miterlimit:10;}
	.st9{fill:#EEEEEE;}
	.st10{fill:#FFFFFF;}
	.st11{clip-path:url(#SVGID_2_);fill:none;stroke:#56A1A3;stroke-miterlimit:10;}
	.st12{clip-path:url(#SVGID_2_);fill:none;stroke:#FFFFFF;stroke-miterlimit:10;}
	.st13{clip-path:url(#SVGID_5_);}
	.st14{fill:#684357;}
	.st15{fill:#603C51;}
	.st16{fill:#EF73D8;}
	.st17{fill:none;stroke:#0A0A0A;stroke-miterlimit:10;}
	.st18{fill:#111926;}
	.st19{fill:#203049;}
	.st20{fill:#F99E82;}
	.st21{opacity:0.15;}
	.st22{fill:none;stroke:#000000;stroke-width:0.5;stroke-miterlimit:10;}
	.st23{clip-path:url(#SVGID_7_);}
	.st24{clip-path:url(#SVGID_9_);}
	.st25{clip-path:url(#SVGID_11_);fill:none;stroke:#AF403A;stroke-miterlimit:10;}
	.st26{clip-path:url(#SVGID_13_);fill:none;stroke:#AF403A;stroke-miterlimit:10;}
	.st27{clip-path:url(#SVGID_15_);fill:none;stroke:#AF403A;stroke-miterlimit:10;}
	.st28{clip-path:url(#SVGID_17_);fill:none;stroke:#AF403A;stroke-miterlimit:10;}
	.st29{clip-path:url(#SVGID_19_);}
	.st30{clip-path:url(#SVGID_21_);fill:none;stroke:#AF403A;stroke-miterlimit:10;}
	.st31{clip-path:url(#SVGID_23_);fill:none;stroke:#AF403A;stroke-miterlimit:10;}
	.st32{opacity:0.38;fill:#FFFFFF;}
	.st33{fill:none;stroke:#FFFFFF;stroke-width:4;stroke-miterlimit:10;}
</style>
<g id="Bg">
	<path class="st0" d="M322.4,931.7c-17.1-26.1-20.1-58.9-20.4-90.1c-0.8-78.5,13.2-159.1,54.6-225.8s113.1-117.4,191.6-119.9
		c24.6-0.8,50.2,3,73.4-5.5c25.8-9.4,44-32.1,61.2-53.5C729,379.6,779,324.2,839.1,281.6c151.4-107.6,364.5-120.7,528-32.7
		c57.9,31.2,112.2,77.8,130.4,141c8.3,28.9,8.6,59.5,8.8,89.6c0.2,32.1,0.4,64.2,0.7,96.4c0.1,9,0.3,18.6,5.6,25.9
		c5,6.9,13.4,10.2,21.2,13.6c55.4,24.5,99.1,74,116.6,132c17.5,58,8.5,135.4-24,186.5"/>
	<ellipse transform="matrix(0.7124 -0.7017 0.7017 0.7124 -55.168 494.2657)" class="st0" cx="575.5" cy="314.4" rx="133" ry="61"/>
</g>
<g id="Line_2_">
	<path class="st1" d="M405,491.3c20.5-161.2,172.6-286.4,357.2-286.4c198.6,0,359.5,144.9,359.5,323.6c0,26.5-3.6,52.3-10.2,77"/>
	<circle class="st2" cx="877.5" cy="221.5" r="9.5"/>
	<circle class="st2" cx="1107.5" cy="615.5" r="9.5"/>
</g>
<g id="Icon">
	<circle class="st2" cx="405" cy="532" r="43"/>
	<circle class="st3" cx="411.2" cy="513.5" r="5.5"/>
	<circle class="st3" cx="411.2" cy="549" r="5.5"/>
	<circle class="st3" cx="387.5" cy="529.2" r="5.5"/>
	<line class="st3" x1="391" y1="534" x2="407" y2="547"/>
	<line class="st3" x1="393" y1="527" x2="405" y2="518"/>
</g>
<g id="Chart_1_">
	<g>
		<g>
			<path class="st4" d="M1356.3,370.5H1000c-7.9,0-14.3-6.4-14.3-14.3V249.5c0-7.9,6.4-14.3,14.3-14.3h356.4
				c7.9,0,14.3,6.4,14.3,14.3v106.7C1370.6,364.1,1364.2,370.5,1356.3,370.5z"/>
		</g>
		<g>
			<defs>
				<rect id="SVGID_1_" x="1006.9" y="254.2" width="90.8" height="90.8"/>
			</defs>
			<clipPath id="SVGID_2_">
				<use xlink:href="#SVGID_1_"  style="overflow:visible;"/>
			</clipPath>
			<path class="st5" d="M1101.2,344.5c3,6.4,8.1,15.6,12.2,27.2c4.1,11.6,11.8,27.2,11.8,27.2s-19.1,1.5-24.8,1.1
				c-5.6-0.4-10.5-1.1-10.5-1.1l-13.1-57.4c-1.5-9.8-0.2-19.7-0.2-19.7S1092.4,325.5,1101.2,344.5z"/>
			<path class="st6" d="M961.2,326.3c-0.9,0.7-1.9,1.6-1.8,2.7c0.1,1,1.1,1.7,2.1,2c1.7,0.5,3.5,0.4,5.2,0.1
				c3.2-0.4,6.3-0.9,9.4-1.4c7-1.2,14.4-2.5,19.7-7.3c1.1-1,2.2-2.4,1.7-3.8c-0.6-1.6-2.7-1.9-4.4-1.9c-5.2,0.2-10.2,1.6-15.3,2.7
				C971.8,320.7,966.2,322.6,961.2,326.3z"/>
			<g class="st5">
				<polygon class="st4" points="1041.8,325.8 1065.7,325.3 1064.2,301.8 1043.1,302.3 				"/>
			</g>
			<g class="st5">
				<path d="M1064.7,316.5c0,0-0.3,2.9-8.7,1.9c-3.5-0.4-13.5-6.3-13.5-6.3l-20.3,4.8c-1.2,1.4-6.8,7.3-9.6,18.2
					c-4.1,16.1-6.4,41.6-6.4,41.6l-10.5,61.9c0,0,48.9,5.4,67,3.9c18-1.5,35.3-4.5,35.3-4.5s-13.1-109.1-15.4-112.1
					C1080.4,322.9,1070.8,316.8,1064.7,316.5z"/>
			</g>
			<path class="st7" d="M1006,376.1c1-8.4,2-16.8,3-25.3c3.6-1,8.4-1.7,12.1-1.2c0.5,0.1,1.2,0.2,1.5,0.8c0.2,0.4,0.2,1,0.1,1.5
				c-0.7,7.2-2.7,14.2-5.7,20.3c-2.8,5.7-6.8,10.9-12,12.6C1004.7,382.2,1005.7,378.9,1006,376.1z"/>
			<path class="st5" d="M1023.6,316.7l-13.2,3.4c0,0-48.8,16.9-48.8,23.3s10.9,22.1,15.4,22.5c4.5,0.4,42.8-2.3,43.9-4.1
				C1022,359.8,1036.1,338.7,1023.6,316.7z"/>
			<g class="st5">
				<path class="st4" d="M1053.1,307.1h4.1c6.3,0,11.5-5.1,11.5-11.5v-13.9c0-6.3-5.1-11.5-11.5-11.5h-4.1
					c-6.3,0-11.5,5.1-11.5,11.5v13.9C1041.6,301.9,1046.7,307.1,1053.1,307.1z"/>
				<path d="M1068.4,287.1c0,0-0.1,0.1-0.3,0.4c-0.8,0.9-2.9,3.1-3.7,3.5c-1.1,0.5-13.9-0.1-13.9-0.1l-5.6-4.8c0,0-3.4,1.3-3.3,1.6
					s0.3,11.9,0.5,12.6c0.1,0.1,0.3,3.8,0.5,4.1c1.9,3.3,4.1,4.5,6.8,4.6h9.2c7-0.5,10.2-4.8,10.3-9.2L1068.4,287.1z"/>
				<path d="M1054.7,283.2c0.2,0.6,0.8,0.9,1.4,0.8c0.6-0.2,1-0.8,0.8-1.3c-0.2-0.6-0.8-0.9-1.4-0.8
					C1054.9,282,1054.5,282.6,1054.7,283.2z"/>
				<path d="M1064.8,282.2c0.2,0.6,0.8,0.9,1.4,0.8c0.6-0.2,1-0.8,0.8-1.3c-0.2-0.6-0.8-0.9-1.4-0.8
					C1065.1,281,1064.7,281.6,1064.8,282.2z"/>
				<path class="st8" d="M1062.1,281c0.4,3.4,2.2,4.9,2.3,5.7c0.3,1.3-2.4,1.8-3.5,1"/>
				<g>
					<path class="st9" d="M1063.3,296c0.5-1,0.7-2,0.7-2c-2.1,0.3-3.1-0.4-6.6-1.2c0,0,0,0.3,0,0.7
						C1058.9,294.9,1061.1,295.8,1063.3,296z"/>
					<path class="st9" d="M1057.4,293.4c0,1.4,0.2,4.3,2.5,4.9c1.7,0.4,2.8-1,3.4-2.3C1061.1,295.8,1058.9,294.9,1057.4,293.4z"/>
				</g>
				<path class="st8" d="M1067.2,279.3c-0.6-0.3-1.3-0.5-1.9-0.3c-0.6,0.1-1.2,0.5-1.6,1.1"/>
				<path class="st8" d="M1057.1,279.9c-0.6-0.3-1.3-0.5-1.9-0.3c-0.6,0.1-1.2,0.5-1.6,1.1"/>
				<path d="M1049.6,275.4c0.7,0.5,1.3-0.1,2.2,0.1c7.8,2.1,16.2,2.6,24.1,1.1c1.3-0.3,2.9-0.8,3.2-2c0.4-1.3-0.8-2.6-2-3.2
					c-1.1-0.6-2.5-0.9-3.8-0.9c1.6,0,3.3-0.9,4.4-2c0.4-0.4,0.8-1,0.7-1.6c-0.1-0.4-0.5-0.8-0.9-1.1c-2.5-1.8-5.6-2.6-8.7-3
					c-4.3-0.6-8.7-0.4-13-0.2c-3.5,0.2-7.4,0.2-10.6,1.4c-2.9,1.1-3.4,7.3-3.5,9.8c-0.4,5.3-1,8,0,13.3c0.1,0.3,2,1.5,2.1,1.8
					c0.9-2.7,2-5.1,2.7-7.8c0.8,0.1,1.5-0.4,2-0.9c0.5-0.6,0.9-1.2,1.1-1.9C1050,277.2,1049.9,276.7,1049.6,275.4z"/>
				<g>
					<path class="st10" d="M1046.2,284.7c0.3,2.4-1.3,4-3.6,3.7c-2.3-0.4-4.3-2.6-4.6-5c-0.3-2.4,1.3-4,3.6-3.7
						C1043.8,280.1,1045.9,282.3,1046.2,284.7z"/>
					<path class="st8" d="M1039.1,283.7c0.1-1,1-1.6,1.9-1.6c0.9,0,1.8,0.5,2.4,1.2c0.7,0.6,1.2,1.4,1.6,2.3"/>
					<path class="st8" d="M1041.7,285.9c-0.3-0.6-0.3-1.3,0.1-1.9c0.4-0.5,1-0.7,1.6-0.6"/>
				</g>
			</g>
			<path class="st11" d="M997.3,331.8c1.3,2.1,2.3,4.3,3.2,6.6c0.8,2,1.4,4.2,0.8,6.2"/>
			<path class="st12" d="M1022.1,320.9c5.7,5.5,7.1,14.1,6.6,22c-0.5,6.4-2.2,12.9-6.3,17.7"/>
			<path class="st11" d="M1096.5,342.3c0,1.4-0.6,2.7-1.2,4c-2,4.6-3.5,8.2-7.8,10.8"/>
			<path class="st12" d="M1096.3,341.6c-0.7,5.7-3.3,11.2-7.4,15.3"/>
			<path class="st5" d="M1042.3,310.6c0,0-2.8,0.2-7.6,5.8c0,0,7.8,6.7,15,8.4c0,0,6.3-3.5,8.5-6L1042.3,310.6z"/>
			<path class="st5" d="M1065.8,314.4l-3.8,5.6c0,0,3.8,2.9,5.1,6.3c0,0,2.6-4.3,2.4-6.5C1069.5,319.7,1067.8,315.1,1065.8,314.4z"
				/>
		</g>
	</g>
</g>
<g id="Line_1_">
	<g>
		<g>
			<rect x="1111.9" y="283.9" class="st9" width="233.4" height="2.7"/>
			<rect x="1111.9" y="296.6" class="st9" width="233.4" height="2.7"/>
			<rect x="1111.9" y="309.5" class="st9" width="233.4" height="2.7"/>
		</g>
		<rect x="1111.9" y="256.5" class="st9" width="145.6" height="2.4"/>
		<rect x="1111.9" y="270.4" class="st9" width="145.6" height="2.4"/>
	</g>
</g>
<g id="Star_1_">
	<polygon class="st2" points="1154,354.1 1144.1,348.9 1134.2,354.2 1136,343.1 1128,335.3 1139.1,333.7 1144,323.6 1149,333.6 
		1160.1,335.2 1152.1,343.1 	"/>
	<polygon class="st2" points="1207.2,354.1 1197.3,348.9 1187.4,354.2 1189.2,343.1 1181.1,335.3 1192.2,333.7 1197.1,323.6 
		1202.1,333.6 1213.3,335.2 1205.3,343.1 	"/>
	<polygon points="1260.4,354.1 1250.4,348.9 1240.5,354.2 1242.4,343.1 1234.3,335.3 1245.4,333.7 1250.3,323.6 1255.3,333.6 
		1266.4,335.2 1258.4,343.1 	"/>
	<polygon points="1313.5,354.1 1303.6,348.9 1293.7,354.2 1295.5,343.1 1287.4,335.3 1298.5,333.7 1303.5,323.6 1308.5,333.6 
		1319.6,335.2 1311.6,343.1 	"/>
</g>
<g id="Chart">
	<g>
		<g>
			<path class="st4" d="M1471.1,566.6H1062c-9,0-16.4-7.3-16.4-16.4V427.8c0-9,7.3-16.4,16.4-16.4h409.2c9,0,16.4,7.3,16.4,16.4
				v122.5C1487.5,559.3,1480.2,566.6,1471.1,566.6z"/>
			<g>
				<defs>
					<rect id="SVGID_3_" x="1067.9" y="432.9" width="105.8" height="105.8"/>
				</defs>
				<use xlink:href="#SVGID_3_"  style="overflow:visible;fill:#FFFFFF;"/>
				<clipPath id="SVGID_5_">
					<use xlink:href="#SVGID_3_"  style="overflow:visible;"/>
				</clipPath>
				<g class="st13">
					<path d="M1176.8,548.4c0,0,27.2,40.7,26.7,44.8c-0.4,4.1-22.2,19.6-24.6,18.5c-5.8-2.5-21-36.2-25.1-46.1
						C1149.7,555.8,1166.5,538.5,1176.8,548.4z"/>
					<g>
						<polygon class="st4" points="1104.4,519.8 1130.9,519.2 1129,486.9 1104.7,487.5 						"/>
						<path d="M1110.6,502.2c10.7,7.1,19.6,3.4,19.6,3.4l-1.6-19.7l-23.5,3.4C1105.1,489.2,1104.9,498.4,1110.6,502.2z"/>
					</g>
					<g>
						<path d="M1116.5,450.1c-0.2-1-0.7-2.1-1.7-2.2c-0.8-0.1-1.6,0.8-1.4,1.6c-0.6-0.5-1.1-1-1.7-1.5c-0.2,0.9-0.2,1.8-0.2,2.8
							c-2-2.1-4.1-4-6.3-5.9c-0.5-0.4-1-0.8-1.6-0.9c-1.3-0.1-2.1,1.5-1.8,2.7c0.3,1.2,1.4,2.1,2.3,2.9c-1.6-1-3.3-1.8-5.1-2.3
							c1,1.7,2.1,3.4,3.4,5c-1.2-0.1-2.5-0.2-3.7-0.3c-0.3,0-0.6,0-0.9,0.2c-0.3,0.3-0.2,0.7,0,1.1c0.3,0.7,0.5,1.5,0.8,2.2
							c-0.8,0.2-1.6,0-2.4,0c-0.8,0-1.7,0.4-1.8,1.2c-0.1,0.6,0.3,1.1,0.7,1.5c1.3,1.4,2.9,2.5,4.7,3.1c-0.9,0.2-1.3,1.3-1,2.1
							c0.3,0.8,1.1,1.4,1.8,1.9c0.5,0.4,1.1,0.7,1.8,0.8c1.6,0.3,3-1.1,4.2-2.3c2.8-2.7,6.1-3.6,9.1-5.7
							C1118.2,456.6,1117.2,453,1116.5,450.1z"/>
						<path class="st4" d="M1118.3,501.9l4.1,0.3c8.9,0,12.6-8.2,13.9-18.1l1-17.1c0-8.9-9.1-8.6-18-8.6l0,0
							c-8.9,0-16.2,7.2-16.2,16.2l1.1,11.7C1104.2,495.2,1109.4,501.9,1118.3,501.9z"/>
						<path d="M1117.9,478.2c0.2,0.7,1,1.1,1.7,0.9s1.2-0.9,1-1.6c-0.2-0.7-1-1.1-1.7-0.9C1118.1,476.8,1117.7,477.5,1117.9,478.2z"
							/>
						<path d="M1130.4,478.3c0.2,0.7,1,1.1,1.7,0.9c0.7-0.2,1.2-0.9,1-1.6c-0.2-0.7-1-1.1-1.7-0.9
							C1130.6,476.9,1130.2,477.6,1130.4,478.3z"/>
						<path class="st8" d="M1125.2,477.5c0.5,4,2.6,5.9,2.8,6.8c0.3,1.5-2.9,2.1-4.2,1.2"/>
						<g>
							<path d="M1129.6,473.9c-0.1,0-0.2,0-0.3-0.1c-0.2-0.1-0.3-0.5-0.2-0.7c0.5-0.8,1.3-1.3,2.2-1.5c0.9-0.2,1.9,0,2.6,0.4
								c0.2,0.1,0.3,0.5,0.2,0.7c-0.1,0.2-0.5,0.3-0.7,0.2c-0.5-0.3-1.2-0.5-1.9-0.3c-0.6,0.1-1.2,0.5-1.5,1.1
								C1129.9,473.8,1129.7,473.9,1129.6,473.9z"/>
						</g>
						<g>
							<path d="M1115.3,472.6c-0.1,0-0.2,0-0.3-0.1c-0.2-0.1-0.3-0.5-0.2-0.7c0.5-0.8,1.3-1.3,2.2-1.5c0.9-0.2,1.9,0,2.6,0.4
								c0.2,0.1,0.3,0.5,0.2,0.7c-0.1,0.2-0.5,0.3-0.7,0.2c-0.5-0.3-1.3-0.5-1.9-0.3c-0.6,0.1-1.2,0.5-1.5,1.1
								C1115.6,472.5,1115.5,472.6,1115.3,472.6z"/>
						</g>
						<path d="M1127.3,490.6c-2.5,0.7-5.4-1-6.1-3.5c0,0-1.4,5.1,1.5,6.1C1125.6,494.2,1127.3,490.6,1127.3,490.6z"/>
						<path d="M1133.4,464.4c-1.3-0.8-2.8-1-4.2-1.3c-4.1-0.6-8.2-0.8-12.4-0.8c-1.5,0-3,0.1-4.3,0.8c-1.9,1.1-2.8,3.4-3,5.6
							c-0.3,2.2,0,4.4-0.5,6.6c-0.6,0-1.2,0-1.8,0.1c-0.5,4.1-1.2,8.1-2.3,12.1c-1.3-0.1-1.9-1.6-2.3-2.8
							c-1.7-6.7-1.9-13.7-0.8-20.6c0.2-1.3,0.5-2.6,1.1-3.8c1-1.8,2.9-3,4.8-3.8c4.8-1.9,10.1-1.7,15.3-1.5
							c3.6,0.2,7.3,0.3,10.6,1.7c1.8,0.7,3.5,1.9,4.3,3.7c0.4,1,0.4,2.1,0.4,3.2c0,2.9,0,6.3-1,9
							C1136.6,469.8,1136.4,466.3,1133.4,464.4z"/>
						<g>
							<g>
								<circle class="st8" cx="1133.5" cy="479.3" r="6.3"/>
							</g>
							<g>
								<circle class="st8" cx="1116.7" cy="479.4" r="6.6"/>
							</g>
							<line class="st8" x1="1127.8" y1="475.9" x2="1122.2" y2="475.9"/>
							<line class="st8" x1="1110.7" y1="476.3" x2="1103.3" y2="475.6"/>
						</g>
						<g>
							<path class="st10" d="M1109,479.7c0.3,2.8-1.6,4.8-4.3,4.4c-2.7-0.4-5.2-3.1-5.5-5.9c-0.3-2.8,1.6-4.8,4.3-4.4
								C1106.2,474.1,1108.6,476.8,1109,479.7z"/>
							<path class="st8" d="M1100.6,478.4c0.1-1.2,1.2-2,2.3-2c1.1,0,2.1,0.6,2.9,1.4c0.8,0.8,1.4,1.7,1.9,2.7"/>
							<path class="st8" d="M1103.6,481.1c-0.4-0.7-0.3-1.6,0.1-2.2c0.4-0.6,1.2-0.9,1.9-0.7"/>
						</g>
					</g>
					<path class="st14" d="M1078.9,632.3"/>
					<path d="M1154.6,517.5c0,0,6.4,0.1,12.6,5.4c6.2,5.3,32.3,51.3,31.1,53.8c-1.2,2.5-26.6,26.1-29.1,23.2
						c-2.5-2.9-16.2-15-22.7-23.6C1139.8,567.7,1147.1,518,1154.6,517.5z"/>
					<g>
						<path class="st15" d="M1157.9,640.1"/>
					</g>
					<g>
						<path class="st14" d="M1075.2,639.8"/>
					</g>
					<path d="M1107.3,636.4c13.6-0.8,61.7,5.3,61.7,5.3"/>
					<g>
						<path d="M1146,645.5c15.1,0.3,27.6,0.8,27.6,0.8s-7-42.8-7.4-44.8c-2.5-11.9,7-67.5-4.9-81.9c-1.2-1.4-23.8-10-31-10
							c0,0-1.5,7.5-11.4,5.8c-9.9-1.6-14.6-6.2-14.6-6.2s-20.5,3.8-38.6,14.5c-3.8,2.3,7.1,62.8,6.7,67.4"/>
						<path d="M1082.1,561.7l-10,16.5l-0.4,40.7c0,0,6.6-17.7,7.8-26.3C1080.8,584,1082.1,561.7,1082.1,561.7z"/>
					</g>
					<path class="st16" d="M1191.4,573.8"/>
					<g>
						<path d="M1055.4,547c0,0-30.8,38.9-30.3,43c0.4,4.1,19.8,16.2,21.9,14.7c2.1-1.5,31.1-26.4,35.4-36
							C1086.7,559.1,1066.1,537.9,1055.4,547z"/>
						<path d="M1076.3,520.5c0,0-0.7-1.6-9.5,2.4c-9.9,4.6-32.8,40.9-32,44.3c0.9,3.4,27.8,28,27.8,28s18.4-18.4,24.8-32.7
							S1076.3,520.5,1076.3,520.5z"/>
						<path class="st17" d="M1086.1,567.6c-12.2,16.5-17.7,20.4-23.6,27.5"/>
					</g>
					<path class="st17" d="M1159.2,553.4c3.4,22.4,6.8,44.8,10.2,67.1"/>
					<path class="st17" d="M1133.9,513.8c-1,2.7-3.7,4.4-6.5,5.4c-8.1,2.9-18,1.1-23.7-5.4"/>
					<path class="st17" d="M1076.7,588.1c0.6,20.3-1.1,36.5,0,56.8"/>
					<path class="st17" d="M1064.1,588.4c-7.5-7.5-18.1-16.1-24.3-21"/>
					<path class="st17" d="M1182.7,583c-2.2,4.1-6,7.4-10.4,9"/>
				</g>
			</g>
		</g>
	</g>
</g>
<g id="Line">
	<g>
		<g>
			<rect x="1193.5" y="471.3" class="st9" width="268" height="3.1"/>
			<rect x="1193.5" y="485.9" class="st9" width="268" height="3.1"/>
			<rect x="1193.5" y="500.7" class="st9" width="268" height="3.1"/>
		</g>
		<rect x="1193.5" y="439.9" class="st9" width="167.1" height="2.8"/>
		<rect x="1193.5" y="455.8" class="st9" width="167.1" height="2.8"/>
	</g>
</g>
<g id="Star">
	<polygon class="st2" points="1238.9,547.9 1227.4,541.9 1216.1,548 1218.2,535.3 1208.9,526.3 1221.7,524.4 1227.3,512.8 
		1233.1,524.4 1245.8,526.1 1236.6,535.2 	"/>
	<polygon class="st2" points="1299.9,547.9 1288.5,541.9 1277.1,548 1279.2,535.3 1270,526.3 1282.7,524.4 1288.3,512.8 
		1294.1,524.4 1306.8,526.1 1297.7,535.2 	"/>
	<polygon class="st2" points="1360.9,547.9 1349.5,541.9 1338.1,548 1340.2,535.3 1331,526.3 1343.7,524.4 1349.4,512.8 
		1355.1,524.4 1367.9,526.1 1358.7,535.2 	"/>
	<polygon points="1421.9,547.9 1410.5,541.9 1399.2,548 1401.3,535.3 1392,526.3 1404.8,524.4 1410.4,512.8 1416.1,524.4 
		1428.9,526.1 1419.7,535.2 	"/>
</g>
<g id="Chair">
	<g>
		<g>
			<g>
				<g>
					<g>
						<path class="st18" d="M549.9,1177.6l-1.2-0.7c-41.6-26.2-80.5-62.6-112.4-105.2c-32.9-44-58-94-72.4-144.8
							c-13.1-46-17.2-90.2-12.1-131.2c4.8-39.3,18.4-74.7,39.1-102.1c15.6-20.7,35-36.8,57.6-47.8c23.3-11.4,49.6-17.2,78-17.2
							c33.2,0,67.7,7.9,102.4,23.4c33.4,14.9,65.6,36.3,95.8,63.5c30.1,27.2,56.7,58.8,79,94c23.1,36.4,40.5,75.2,51.9,115.1
							c26,91.6,15.5,187.1-26.8,243.3l-1.3,1.8l-2.2,0.1L549.9,1177.6z M526.5,637.5c-53.6,0-98,21.3-128.3,61.5
							c-41.4,54.8-50.7,136.9-25.5,225.4c28.3,99.4,95.4,190.5,179.7,244.1l270.3-8c39.6-54.3,49-145.6,24-233.6
							C801.4,767.3,657.7,637.5,526.5,637.5z"/>
					</g>
					<g>
						<rect x="502.9" y="1160.5" class="st18" width="399.9" height="23.1"/>
					</g>
				</g>
				<g>
					<rect x="355.1" y="803.5" class="st18" width="442.3" height="9.1"/>
				</g>
				<g>
					<rect x="361.7" y="875.3" class="st18" width="468.5" height="9.1"/>
				</g>
				<g>
					
						<rect x="631.3" y="791.2" transform="matrix(1.377355e-02 -0.9999 0.9999 1.377355e-02 -393.403 1642.2479)" class="st18" width="9.1" height="458.7"/>
				</g>
				<g>
					<rect x="446.3" y="1072.7" class="st18" width="414.3" height="9.1"/>
				</g>
			</g>
		</g>
	</g>
	<g>
		<path class="st19" d="M788.6,868.6c0,0,74,95.9,72.3,107.9c-1.7,12-94.8,181.8-94.8,181.8s-239.3-2.9-255.4-15.6
			c-48-37.7-37.6-111.1-8.4-173.2c21-44.7,58.4-89.1,58.4-89.1L788.6,868.6z"/>
		<path class="st1" d="M725,875.3c17.7,80.3,32.6,161.2,44.6,242.6"/>
		<polyline class="st1" points="744.8,883.6 758.8,964.7 748.7,988.8 		"/>
		<path class="st1" d="M598.2,945.3c8.3,2.7,17.8-0.7,24.9-5.1c16.8-10.3,27.3-27,27.8-44.1"/>
		<path class="st17" d="M782.5,889.2c3.5,20,18.8,37.6,38.2,43.8"/>
		<path class="st1" d="M600.6,913.6c-14.9,35.3-24.2,77.2-30.6,114.9"/>
		<polygon points="560.6,880.4 788.6,868.6 796.8,879.9 543.3,904.3 		"/>
	</g>
</g>
<g id="R_Arm">
	<g>
		<path class="st20" d="M873.5,579.4L915.1,771c0,0-1.2,71.3-14,76.3c-12.7,5-38.9,3.5-43.7,3.6c-4.8,0.1-67.1-260.6-67.1-260.6
			L873.5,579.4z"/>
		<polygon class="st21" points="902,717 908.2,747.8 840.3,791.7 827.8,742.6 		"/>
		<path class="st2" d="M781.6,540.8c0,0,28.2-18.4,67.8,6.2c25.9,16,85.9,181.1,85.9,181.1l-133.3,55.7
			C802.1,783.8,756.3,559.5,781.6,540.8z"/>
		<path class="st21" d="M802.1,783.8l92.2-39.2c0,0-15.8-46.9-27.8-78.9c-16.1-42.6-35.6-62.2-41-64.6c-9.5-4.3-48.2-30.8-49.6,3.2
			C774.4,638.4,802.1,783.8,802.1,783.8z"/>
	</g>
</g>
<g id="R_HAdn">
	<path class="st20" d="M914.6,775.1c0,0,204.4,77,210.9,84.3c6.6,7.3-5.6,49.4-17.2,49.2c-11.6-0.2-212.2-31.5-239.8-45.3
		c-26.1-13-35.9-74.2-15.6-87.3C873.3,763.1,914.6,775.1,914.6,775.1z"/>
</g>
<g id="R_Finger">
	<g>
		<path class="st20" d="M1071.1,856.1c0,0,13.4-19.5,50.1-36.4c0,0,19.4-9.1,25.7-17.6c0,0,4-8.2,9.2-2.4c0,0,9.9,9.1-27.6,37.9
			c0,0,28.4,12.6,52.7,7.1c0,0,27.6-6.4,33.3-7c0,0,6.2-1.5,7.2,5.6c0,0,0.8,3.9-9.3,6.1c0,0-29.5,9.6-40,10.5c0,0-5.7,0.6-5.5,3.7
			c0,0,0.1,4.4,8.7,3.3c0,0,29.2-1.5,50.1-5.5c0,0,8.9-3,10.7,2.9c0,0,0.6,7.9-5.5,8.8c0,0,6.2,0.8,4.5,7.2c0,0,1,7.1-38,14.6
			c0,0-24.8,4.5-35.9,3.4c0,0,17.1,4.7,30.9,6c0,0,8-0.1,7.7,4.8c0,0,0.7,4.2-10.7,5.3c0,0-76.8,0.6-112.3-14
			C1077,900.3,1052.3,883.7,1071.1,856.1z"/>
		<path class="st22" d="M1099.8,879.1c0,0,14.3-11.2,53.7,14.1c0,0,6.2,4.3,9.2,5.3"/>
		<path class="st22" d="M1098.5,868.9c22.6-12,24.5-25.4,24.5-25.4s1-3,5.5-5.9"/>
		<path class="st22" d="M1230.9,873c0,0-43,11.8-66.2,5.8"/>
	</g>
</g>
<g id="Body">
	<g>
		<path class="st20" d="M715.8,493.9c-3.7-0.5-45.1,1.8-73.4,6.6c-28.4,4.7-44.9,9.9-44.5,13c0.7,6.2,117,71.6,140.3,79.1
			c23.4,7.6,74.8-49.8,77.1-55.6C817.5,531.3,715.8,493.9,715.8,493.9z"/>
		<g>
			<path class="st2" d="M608.3,503.5c0,0,68.1,64.3,99.4,67.6c66.3,7,100.3-40.7,100.3-40.7l31.7,17.4c0,0-0.6,31.7,8.5,52.8
				c12.5,29,23.4,54.4,11.7,83.7c-5.9,14.9-18.9,27.3-28.9,51c-24.1,56.6-39.2,135.8-39.2,135.8l-241.3,8.8l21-64.5
				c0,0-16.8-179.2-16.5-217.2c0.2-25.1-16-52.3,0.8-70.1C564.3,518.9,608.3,503.5,608.3,503.5z"/>
			<path class="st1" d="M857,623.1c9.8,22.7,11.2,47.4-0.8,69.1c-6.2,11.1-10.6,21.5-18.4,31.6c-7.7,10-15.3,38.5-19.7,50.2
				c-13,34.4-17.3,62.3-25.5,98.2"/>
			<path class="st1" d="M607.4,508.1c0,0,73.3,63.5,108.2,65.7c55.8,3.5,92.5-43.6,92.5-43.6"/>
			<path class="st1" d="M605.5,522.6c0,0,58.1,66.9,108.3,70.4c50.6,3.5,97.8-50.5,97.8-50.5"/>
			<path class="st21" d="M555.9,558.8c0,0-7,38.4-1.8,89c5.2,50.6,17.3,167.5,17.3,167.5s72.9-195.3,52.9-191.9
				C604.4,626.8,555.9,558.8,555.9,558.8z"/>
		</g>
	</g>
</g>
<g id="L_Arm">
	<g>
		<path class="st20" d="M640.7,633.1c1.1,5.7,41.4,200.2,45.8,213c4.5,12.8-1.4,30.6-13.8,45c-12.5,14.4-30.3,49-49.8,37.4
			c-19.5-11.6-95.1-225.9-91.9-258C534.2,638.4,640.7,633.1,640.7,633.1z"/>
		<path class="st2" d="M580.2,524.7c0,0-87.5-32.8-75.8,128.6l57.2,177.3l111.2-41.7C672.7,788.9,662.2,535,580.2,524.7z"/>
		<polyline class="st1" points="649.9,627.9 672.2,793.9 561.4,832.8 		"/>
	</g>
</g>
<g id="L_Hand">
	<path class="st20" d="M623,850.8c0,0,122.5-180.8,131.1-185.5c8.6-4.7,46.7,17,43.8,28.2c-2.9,11.2-80,199-99.8,222.6
		c-18.7,22.4-80.5,17.7-88.5-5.1C601.7,888.2,623,850.8,623,850.8z"/>
	<line class="st1" x1="625" y1="850.8" x2="717.7" y2="703.1"/>
</g>
<g id="L_Finger">
	<g>
		<path class="st20" d="M828.7,657.4L828.7,657.4c-8.6,24.4-50.3,57.5-50.3,57.5c-10.1,5.8-51,5.8-38.8-33.8l22.1-55.8
			c3.3-8.3,10.3-14.6,18.9-17.1l50.3-14.1c0,0,15.1,2.2,15.1,22.3c0,0,2.1,9.1,1.9,22.2C847.7,649,839.1,657.4,828.7,657.4z"/>
		<line class="st1" x1="810.7" y1="620" x2="848.1" y2="615.7"/>
		<line class="st1" x1="815.1" y1="633.7" x2="848.1" y2="629.3"/>
		<line class="st1" x1="815.8" y1="647.3" x2="848.1" y2="643"/>
	</g>
</g>
<g id="Neck">
	<path class="st20" d="M662.4,516.7c32.7,34,82.7,22.8,86.5-2.1l-4.2-74.8l-81.2,1.7l-0.7,75.1h-2.7"/>
	<path d="M685.4,477c35.6,23.8,64.5,21.8,64.5,21.8l-3.4-61.3l-82.4,12C664.1,449.3,666.3,464.3,685.4,477z"/>
</g>
<g id="face">
	<g>
		<g>
			<defs>
				<path id="SVGID_6_" d="M622.1,310.9c0,0-27.2-29.7-71.1-9.1c0,0-59.4,18.2-46.6,111.1c0,0,13,144.8-46.6,155.1
					c0,0,115.1,34.8,142.1-77.5c0,0,3.9,42.7-37.5,76.3c0,0,67.2-10.3,72.4-119C635.1,448.1,645.4,349.7,622.1,310.9z"/>
			</defs>
			<clipPath id="SVGID_7_">
				<use xlink:href="#SVGID_6_"  style="overflow:visible;"/>
			</clipPath>
			<path class="st23" d="M622.1,310.9c0,0-27.2-29.7-71.1-9.1c0,0-59.4,18.2-46.6,111.1c0,0,13,144.8-46.6,155.1
				c0,0,115.1,34.8,142.1-77.5c0,0,3.9,42.7-37.5,76.3c0,0,67.2-10.3,72.4-119C635.1,448.1,645.4,349.7,622.1,310.9z"/>
		</g>
		<g>
			<defs>
				<path id="SVGID_8_" d="M622.1,310.9c0,0-27.2-29.7-71.1-9.1c0,0-59.4,18.2-46.6,111.1c0,0,13,144.8-46.6,155.1
					c0,0,115.1,34.8,142.1-77.5c0,0,3.9,42.7-37.5,76.3c0,0,67.2-10.3,72.4-119C635.1,448.1,645.4,349.7,622.1,310.9z"/>
			</defs>
			<clipPath id="SVGID_9_">
				<use xlink:href="#SVGID_8_"  style="overflow:visible;"/>
			</clipPath>
			<path class="st24" d="M606.2,300.4c0,0-32.9,41.7-30.4,90.8l0,0c0,0,2.7,54.2,58.4,66.7c0,0,14-100.3-11.8-146.7
				C622.1,310.9,613.3,302.3,606.2,300.4z"/>
		</g>
		<g>
			<defs>
				<path id="SVGID_10_" d="M622.1,310.9c0,0-27.2-29.7-71.1-9.1c0,0-59.4,18.2-46.6,111.1c0,0,13,144.8-46.6,155.1
					c0,0,115.1,34.8,142.1-77.5c0,0,3.9,42.7-37.5,76.3c0,0,67.2-10.3,72.4-119C635.1,448.1,645.4,349.7,622.1,310.9z"/>
			</defs>
			<clipPath id="SVGID_11_">
				<use xlink:href="#SVGID_10_"  style="overflow:visible;"/>
			</clipPath>
			<path class="st25" d="M417.3,559.5"/>
		</g>
		<g>
			<defs>
				<path id="SVGID_12_" d="M622.1,310.9c0,0-27.2-29.7-71.1-9.1c0,0-59.4,18.2-46.6,111.1c0,0,13,144.8-46.6,155.1
					c0,0,115.1,34.8,142.1-77.5c0,0,3.9,42.7-37.5,76.3c0,0,67.2-10.3,72.4-119C635.1,448.1,645.4,349.7,622.1,310.9z"/>
			</defs>
			<clipPath id="SVGID_13_">
				<use xlink:href="#SVGID_12_"  style="overflow:visible;"/>
			</clipPath>
			<path class="st26" d="M624.8,320"/>
		</g>
		<g>
			<defs>
				<path id="SVGID_14_" d="M622.1,310.9c0,0-27.2-29.7-71.1-9.1c0,0-59.4,18.2-46.6,111.1c0,0,13,144.8-46.6,155.1
					c0,0,115.1,34.8,142.1-77.5c0,0,3.9,42.7-37.5,76.3c0,0,67.2-10.3,72.4-119C635.1,448.1,645.4,349.7,622.1,310.9z"/>
			</defs>
			<clipPath id="SVGID_15_">
				<use xlink:href="#SVGID_14_"  style="overflow:visible;"/>
			</clipPath>
			<path class="st27" d="M425.8,594"/>
		</g>
		<g>
			<defs>
				<path id="SVGID_16_" d="M622.1,310.9c0,0-27.2-29.7-71.1-9.1c0,0-59.4,18.2-46.6,111.1c0,0,13,144.8-46.6,155.1
					c0,0,115.1,34.8,142.1-77.5c0,0,3.9,42.7-37.5,76.3c0,0,67.2-10.3,72.4-119C635.1,448.1,645.4,349.7,622.1,310.9z"/>
			</defs>
			<clipPath id="SVGID_17_">
				<use xlink:href="#SVGID_16_"  style="overflow:visible;"/>
			</clipPath>
			<path class="st28" d="M617,326.6"/>
		</g>
	</g>
	<g>
		<path class="st20" d="M782.1,415.4c0,28.7-19.6,54-47.6,60.4c-4.7,1-9.6,1.7-15,1.5c0,0-52.7-0.7-57.2-45.1
			c0,0-13.7-36.3-19.4-67.2c-3.7-7.4-5.6-15.2-5.6-23.8c0-32.6,30.2-58.9,67.5-58.9c33.4,0,61.3,21.1,66.5,49.1h2.9
			C774.2,331.3,782.3,374.2,782.1,415.4z"/>
	</g>
	<g>
		<path d="M735.7,292.5c0,0,34.8,20.6,43.7,66.5c0,0,13.5-43.7-8.1-62.8c0,0-16.7-15.2-33.9-12.3L735.7,292.5z"/>
		<path class="st1" d="M734.5,283c0,0,11.3,61.6-56.2,95.9"/>
		<g>
			<g>
				<path id="SVGID_4_" d="M735.7,292.5c-21.8,72.9-58.9,95.2-58.9,95.2c3.7,30.2-13.5,89.8-13.5,89.8c-28-12.3-54.7-42.2-54.7-42.2
					c-29.4-22.6-20.9-54.5-20.9-54.5c7.1-53,40.2-89.5,40.2-89.5c21.1-27,94.2-22.6,94.2-22.6c17.4,1,15.5,14.7,15.5,14.7
					L735.7,292.5z"/>
			</g>
			<g>
				<defs>
					<path id="SVGID_18_" d="M735.7,292.5c-21.8,72.9-58.9,95.2-58.9,95.2c3.7,30.2-13.5,89.8-13.5,89.8
						c-28-12.3-54.7-42.2-54.7-42.2c-29.4-22.6-20.9-54.5-20.9-54.5c7.1-53,40.2-89.5,40.2-89.5c21.1-27,94.2-22.6,94.2-22.6
						c17.4,1,15.5,14.7,15.5,14.7L735.7,292.5z"/>
				</defs>
				<clipPath id="SVGID_19_">
					<use xlink:href="#SVGID_18_"  style="overflow:visible;"/>
				</clipPath>
				<path class="st29" d="M735.7,292.5c-21.8,72.9-58.9,95.2-58.9,95.2c3.7,30.2-14.7,64.3-14.7,64.3c-18.9,7.9-26.7-7.9-26.7-7.9
					c-29.4-22.6-36.6-72.4-36.6-72.4c7.1-53,29-80.2,29-80.2c21.1-27,94.2-22.6,94.2-22.6c17.4,1,15.5,14.7,15.5,14.7L735.7,292.5z"
					/>
			</g>
			<g>
				<defs>
					<path id="SVGID_20_" d="M735.7,292.5c-21.8,72.9-58.9,95.2-58.9,95.2c3.7,30.2-13.5,89.8-13.5,89.8
						c-28-12.3-54.7-42.2-54.7-42.2c-29.4-22.6-20.9-54.5-20.9-54.5c7.1-53,40.2-89.5,40.2-89.5c21.1-27,94.2-22.6,94.2-22.6
						c17.4,1,15.5,14.7,15.5,14.7L735.7,292.5z"/>
				</defs>
				<clipPath id="SVGID_21_">
					<use xlink:href="#SVGID_20_"  style="overflow:visible;"/>
				</clipPath>
				<path class="st30" d="M652,444.6"/>
			</g>
			<g>
				<defs>
					<path id="SVGID_22_" d="M735.7,292.5c-21.8,72.9-58.9,95.2-58.9,95.2c3.7,30.2-13.5,89.8-13.5,89.8
						c-28-12.3-54.7-42.2-54.7-42.2c-29.4-22.6-20.9-54.5-20.9-54.5c7.1-53,40.2-89.5,40.2-89.5c21.1-27,94.2-22.6,94.2-22.6
						c17.4,1,15.5,14.7,15.5,14.7L735.7,292.5z"/>
				</defs>
				<use xlink:href="#SVGID_22_"  style="overflow:visible;"/>
				<clipPath id="SVGID_23_">
					<use xlink:href="#SVGID_22_"  style="overflow:visible;"/>
				</clipPath>
				<path class="st31" d="M640,279.3"/>
			</g>
		</g>
	</g>
	
		<ellipse transform="matrix(0.7702 -0.6378 0.6378 0.7702 -103.7998 513.9317)" class="st20" cx="661.3" cy="401" rx="22.1" ry="31.2"/>
	<path class="st1" d="M646.2,398.5c0,0-3.2-8.1,2.2-12c0,0,11.8-8.1,23.6,11"/>
	<circle class="st2" cx="669" cy="416.7" r="6.4"/>
	<path class="st1" d="M747.7,363.9c2.9,9.1,5.9,18.4,11.3,26.3c1,1.7,2.2,3.2,2.7,5.2c1,4.4-3.2,8.6-7.9,9.6
		c-3.9,0.7-8.6-0.5-9.8-4.4"/>
	<path class="st1" d="M777.7,354.3c-3.2-2.2-7.4-2.9-11.3-2s-7.1,3.4-9.1,6.6"/>
	<path class="st1" d="M720.4,356.8c-3.2-2.2-7.4-2.9-11.3-2c-3.9,1-7.1,3.4-9.1,6.6"/>
	<g>
		<g>
			<circle class="st2" cx="650.5" cy="398.5" r="30.5"/>
			<circle class="st32" cx="649" cy="399" r="15"/>
		</g>
		<path class="st33" d="M649,399c0,0,23,32,62,30"/>
		<circle class="st2" cx="710.5" cy="429.5" r="8.5"/>
		<path class="st2" d="M641.4,377c0,0-16.5-78.5,17-101.2l16.9-4.7c0,0-37.4,12.9-25.4,96.9L641.4,377z"/>
	</g>
</g>
<g id="R_Eeys">
	<path d="M763.2,372.8c0.7,3.2,4.2,5.2,7.4,4.4c3.2-0.7,5.2-4.2,4.4-7.4c-0.7-3.2-4.2-5.2-7.4-4.4
		C764.4,366.1,762.2,369.6,763.2,372.8z"/>
</g>
<g id="L_Eyes">
	<path d="M710.7,378.4c0.7,3.2,4.2,5.2,7.4,4.4c3.2-0.7,5.2-4.2,4.4-7.4c-0.7-3.2-4.2-5.2-7.4-4.4C711.9,372,710,375.2,710.7,378.4z
		"/>
</g>
<g id="Mouth">
	<path class="st10" d="M733.5,422.5l25.3,4C758.8,426.5,747.9,454.1,733.5,422.5z"/>
</g>
<g id="Laptop">
	<g>
		<g>
			<g>
				<polygon class="st19" points="1391.2,926.8 1152.6,912.2 821.9,925.9 820.2,931.5 1070.4,931.7 				"/>
			</g>
			<polygon class="st19" points="1389.4,924.7 1070.4,932 1140,636 1453,636.1 			"/>
		</g>
		<circle class="st10" cx="1266.2" cy="788.2" r="26.3"/>
	</g>
</g>
<g id="Shape">
	<rect x="168.4" y="940.7" class="st10" width="1861" height="392.4"/>
	<line class="st1" x1="214" y1="938" x2="1746" y2="935"/>
</g>
</svg>
