<?xml version="1.0" encoding="utf-8"?>
<svg version="1.1" xmlns="http://www.w3.org/2000/svg" xmlns:xlink="http://www.w3.org/1999/xlink" x="0px" y="0px"
	 viewBox="0 0 1920 1080" style="enable-background:new 0 0 1920 1080;" xml:space="preserve">
<style type="text/css">
	.st0{fill:#E5F3FF;}
	.st1{fill:none;stroke:#444AB4;stroke-miterlimit:10;}
	.st2{fill:none;stroke:#444AB4;stroke-miterlimit:10;stroke-dasharray:12.5022,12.5022;}
	.st3{fill:#D7D7FF;}
	.st4{fill:#FFFFFF;}
	.st5{fill:#259BFF;}
	.st6{fill:#FCAE1D;}
	.st7{fill:#FDC93A;}
	.st8{fill:none;stroke:#FCAE1D;stroke-width:0.6287;stroke-miterlimit:10;}
	.st9{font-family:'Anybody-Bold';}
	.st10{font-size:103.0214px;}
	.st11{font-size:56.8194px;}
	.st12{fill:#BFCA33;}
	.st13{fill:#767D13;}
	.st14{fill:#A9A9FF;}
	.st15{fill:#F8F8FF;}
	.st16{fill:#E9E7FC;}
	.st17{fill:#444AB4;}
	.st18{fill:#1F2E48;}
	.st19{fill:#D2D5DA;}
	.st20{fill:none;stroke:#FFFFFF;stroke-width:4;stroke-miterlimit:10;}
	.st21{fill:#FF9A63;}
	.st22{fill:none;stroke:#1F2E48;stroke-miterlimit:10;}
	.st23{fill:#A4C4FF;}
	.st24{fill:#091014;}
	.st25{fill:#B26033;}
	.st26{fill:none;stroke:#000100;stroke-width:0.3547;stroke-miterlimit:10;}
	.st27{fill:none;stroke:#35281F;stroke-width:0.3547;stroke-miterlimit:10;}
	.st28{fill:none;stroke:#FFFFFF;stroke-width:0.8767;stroke-miterlimit:10;}
	.st29{fill:none;stroke:#D2D5DA;stroke-width:1.3695;stroke-miterlimit:10;}
	.st30{fill:none;stroke:#FFFFFF;stroke-width:1.3695;stroke-miterlimit:10;}
	.st31{fill:#000100;}
</style>
<g id="Bg">
	<g>
		<path class="st0" d="M456.17,991.66C381,966.43,333.58,891.32,309.01,815.93c-27.12-83.24-33.11-176.91,3.16-256.59
			S433.66,419.19,520.59,429.6c46.23,5.53,87.93,29.31,131.71,45.16s95.73,22.89,134.48-2.91c21.68-14.44,36.1-37.15,52.33-57.53
			c59.24-74.38,147.64-121.43,239.62-145.54c50.05-13.12,103.4-19.93,153.31-6.29c49.92,13.64,95.68,51.17,107.43,101.56
			c18.68,80.1-49.67,166.04-18.5,242.16c18.49,45.15,65.83,69.98,108.1,94.35c58.66,33.81,116.75,76.99,142,139.82
			c10.2,25.39,14.4,54.31,5.39,80.15c-13.19,37.86-50.63,60.83-85.43,80.73"/>
	</g>
</g>
<g id="Line">
	<g>
		<g>
			<path class="st1" d="M906.7,204.53c-2.06,0.32-4.12,0.66-6.18,1.01"/>
			<path class="st2" d="M888.22,207.73c-198.53,37.49-376.77,172.08-466.23,353.4c-19.15,38.81-34.62,80.41-36.2,123.65
				c-1.58,43.24,12.31,88.56,44.29,117.71c33.23,30.29,80.9,39.35,125.85,38.58c147.55-2.52,277.18-94.57,390.66-188.91
				c88.05-73.19,175.78-154.08,218.42-260.34c3.03-7.56,5.82-16.12,2.69-23.64c-5.09-12.24-21.83-13.75-34.88-11.42
				c-59.7,10.65-105.35,58.15-142.98,105.71c-30.91,39.08-59.77,80.5-77.9,126.91c-18.13,46.41-24.92,98.52-11.14,146.4
				c14.36,49.9,50.46,92.03,94.71,119.19c44.26,27.16,96.18,40.15,148.01,43.33c114.75,7.03,228.97-32.92,325.12-95.93
				c92.67-60.72,170.1-141.92,240.06-227.93"/>
			<path class="st1" d="M1712.65,569.57c1.31-1.62,2.62-3.25,3.93-4.88"/>
		</g>
	</g>
</g>
<g id="Icon">
	<g>
		<g>
			<g>
				<path class="st3" d="M469.42,359.25c21.66,27.58,14.32,68.08-14.05,88.7c-28.37,20.61-68.08,14.32-88.7-14.05
					c-20.61-28.37-14.58-68.45,14.05-88.7C408.78,325.35,448.23,332.28,469.42,359.25z"/>
			</g>
		</g>
		<g>
			<g>
				<g>
					<g>
						<path class="st4" d="M439.95,368.78c-12.62-2.12-25.33,0.82-35.79,8.27c-10.45,7.45-17.38,18.5-19.49,31.13
							c-0.3,1.77-1.97,2.97-3.74,2.67c-1.77-0.3-2.97-1.97-2.67-3.74c2.4-14.34,10.26-26.89,22.13-35.34
							c11.87-8.46,26.3-11.79,40.63-9.39c1.77,0.3,2.97,1.97,2.67,3.74C443.4,367.88,441.72,369.08,439.95,368.78z"/>
					</g>
				</g>
			</g>
			<g>
				<g>
					<g>
						<path class="st4" d="M437.78,381.71c-18.97-3.18-37,9.66-40.18,28.64c-0.3,1.77-1.97,2.97-3.74,2.67
							c-1.77-0.3-2.97-1.97-2.67-3.74c3.78-22.51,25.17-37.75,47.67-33.97c1.77,0.3,2.97,1.97,2.67,3.74
							C441.23,380.81,439.56,382.01,437.78,381.71z"/>
					</g>
				</g>
			</g>
			<g>
				<g>
					<g>
						<path class="st4" d="M435.61,394.64c-5.73-0.96-11.49,0.37-16.24,3.75c-4.74,3.38-7.88,8.4-8.84,14.12
							c-0.3,1.77-1.97,2.97-3.74,2.67c-1.77-0.3-2.97-1.97-2.67-3.74c1.25-7.44,5.33-13.96,11.48-18.34
							c6.16-4.39,13.65-6.12,21.09-4.87c1.77,0.3,2.97,1.97,2.67,3.74C439.06,393.74,437.39,394.93,435.61,394.64z"/>
					</g>
				</g>
			</g>
			<g>
				<g>
					<g>
						<path class="st4" d="M437.87,408.56c2.95,4.14,1.99,9.86-2.13,12.79c-4.13,2.95-9.86,1.99-12.81-2.15
							c-2.95-4.13-1.99-9.86,2.15-12.8C429.2,403.46,434.92,404.43,437.87,408.56z"/>
					</g>
				</g>
			</g>
		</g>
	</g>
</g>
<g id="Icon_1_">
	<g>
		<g>
			<g>
				<path class="st5" d="M1451.9,296.49l27.43-12.06h49c4.45,0,8.06-3.61,8.06-8.06v-39.14c0-4.45-3.61-8.06-8.06-8.06h-61.73
					c-4.48,0-8.15,3.67-8.15,8.15v41.02L1451.9,296.49z"/>
			</g>
		</g>
		<g>
			<g>
				<path class="st4" d="M1494.14,254.14c-2.91,0-5.28-2.37-5.28-5.28c0-2.89,2.34-5.24,5.22-5.27c0.02,0,0.04,0.01,0.06,0.01
					c0.02,0,0.04-0.01,0.06-0.01c2.88,0.03,5.22,2.38,5.22,5.27c0,0.71,0.57,1.28,1.28,1.28c0.71,0,1.28-0.57,1.28-1.28
					c0-3.89-2.85-7.11-6.56-7.73v-1.96c0-0.71-0.57-1.28-1.28-1.28c-0.71,0-1.28,0.57-1.28,1.28v1.96
					c-3.72,0.61-6.56,3.84-6.56,7.73c0,4.32,3.52,7.84,7.84,7.84c2.91,0,5.28,2.37,5.28,5.28c0,2.89-2.34,5.24-5.22,5.28
					c-0.02,0-0.04-0.01-0.06-0.01c-0.02,0-0.04,0.01-0.06,0.01c-2.88-0.03-5.22-2.38-5.22-5.28c0-0.71-0.57-1.28-1.28-1.28
					s-1.28,0.57-1.28,1.28c0,3.89,2.85,7.11,6.56,7.73v1.96c0,0.71,0.57,1.28,1.28,1.28c0.71,0,1.28-0.57,1.28-1.28v-1.96
					c3.71-0.61,6.56-3.84,6.56-7.73C1501.98,257.66,1498.46,254.14,1494.14,254.14z"/>
			</g>
		</g>
	</g>
</g>
<g id="Dollar">
	<g>
		<ellipse class="st6" cx="967.21" cy="313.16" rx="68.21" ry="66.84"/>
		<ellipse class="st7" cx="967.45" cy="304.84" rx="68.21" ry="66.84"/>
		<ellipse class="st8" cx="967.21" cy="306.41" rx="55.75" ry="54.63"/>
		<g>
			<text transform="matrix(0.4043 0 0 1 954.1484 342.8257)" class="st6 st9 st10">$</text>
		</g>
	</g>
</g>
<g id="Dollar_1_">
	<g>
		<ellipse class="st6" cx="1605.05" cy="710.96" rx="36.78" ry="36.87"/>
		<ellipse class="st7" cx="1605.18" cy="706.37" rx="36.78" ry="36.87"/>
		<ellipse class="st8" cx="1605.05" cy="707.23" rx="30.06" ry="30.13"/>
		<g>
			<text transform="matrix(0.3953 0 0 1 1598.0088 727.3184)" class="st6 st9 st11">$</text>
		</g>
	</g>
</g>
<g id="Leaf">
	<g>
		<g>
			<path class="st12" d="M516.49,978.6c-21.27-57.66-80.87-131.66-116.61-181.66c-4.77-6.68-11.65-14.08-19.66-12.26
				c-9.38,2.13-11.31,14.46-11.24,24.07c-28.49-39.75-62.67-83.01-111.25-88.66c11.65,52.99,52.68,93.79,91.84,131.35
				c-11.08-3.14-22.72-4.31-34.2-3.44c-3.1,0.23-6.38,0.69-8.78,2.67c-5.6,4.6-3,13.63,0.64,19.9
				c19.88,34.27,55.5,55.87,89.91,75.51c26.47,15.11,53.12,29.92,79.92,44.43"/>
		</g>
		<g>
			<g>
				<path class="st13" d="M493.44,970.11c-11.03-12.63-22.18-25.16-33.44-37.58c-11.27-12.43-22.67-24.76-34.16-36.98
					c-11.47-12.19-23.03-24.29-34.67-36.32c-11.64-12.03-23.34-24-35.07-35.94c-11.78-11.98-23.6-23.92-35.42-35.86
					c-1.47-1.48-2.93-2.96-4.4-4.44c-0.47-0.48-1.21,0.26-0.74,0.74c11.82,11.94,23.64,23.88,35.43,35.85
					c11.79,11.97,23.55,23.97,35.24,36.03c11.65,12.02,23.24,24.1,34.73,36.27c11.48,12.16,22.86,24.41,34.13,36.78
					c11.29,12.4,22.47,24.9,33.53,37.5c1.37,1.56,2.74,3.13,4.11,4.7C493.14,971.36,493.88,970.62,493.44,970.11L493.44,970.11z"/>
			</g>
		</g>
		<g>
			<g>
				<path class="st13" d="M450.98,935.23c-11.36-7.92-22.88-15.6-34.55-23.04c-11.61-7.4-23.37-14.56-35.27-21.48
					c-6.74-3.92-13.53-7.76-20.36-11.52c-0.59-0.32-1.12,0.58-0.53,0.9c12.13,6.68,24.12,13.6,35.96,20.77
					c11.77,7.13,23.4,14.5,34.87,22.11c6.5,4.31,12.95,8.7,19.34,13.16C451,936.52,451.53,935.62,450.98,935.23L450.98,935.23z"/>
			</g>
		</g>
		<g>
			<g>
				<path class="st13" d="M387.17,903.75c-10.73,1.22-21.6,1.14-32.3-0.27c-3.07-0.4-6.12-0.92-9.15-1.54
					c-0.66-0.13-0.94,0.87-0.28,1.01c10.66,2.17,21.59,3.05,32.46,2.58c3.1-0.13,6.19-0.38,9.27-0.73
					C387.83,904.72,387.84,903.67,387.17,903.75L387.17,903.75z"/>
			</g>
		</g>
		<g>
			<g>
				<path class="st13" d="M438.68,900.82c-6.56-11.67-13.12-23.34-19.67-35.01c-6.54-11.63-13.08-23.27-19.61-34.9
					c-3.69-6.56-7.37-13.12-11.06-19.68c-0.33-0.59-1.23-0.06-0.9,0.53c6.56,11.67,13.12,23.34,19.67,35.01
					c6.54,11.63,13.08,23.27,19.61,34.9c3.69,6.56,7.37,13.12,11.06,19.68C438.11,901.94,439.01,901.41,438.68,900.82L438.68,900.82
					z"/>
			</g>
		</g>
		<g>
			<g>
				<path class="st13" d="M403.21,842.27c-7.18-6.2-14.36-12.4-21.54-18.6c-0.51-0.44-1.25,0.3-0.74,0.74
					c7.18,6.2,14.36,12.4,21.54,18.6C402.98,843.45,403.72,842.71,403.21,842.27L403.21,842.27z"/>
			</g>
		</g>
	</g>
</g>
<g id="Card">
	<g>
		<g>
			<g>
				<g>
					<path class="st14" d="M1351.26,490.27v468.89c0,0.33,0,0.66-0.03,0.98c-0.49,21.85-18.38,39.44-40.39,39.44H486.59
						c-22.35,0-40.43-18.11-40.43-40.43V490.27c0-22.35,18.08-40.43,40.43-40.43h824.24
						C1333.18,449.84,1351.26,467.92,1351.26,490.27z"/>
				</g>
			</g>
		</g>
		<g>
			<g>
				<g>
					<path class="st7" d="M649.57,525.95v86.79c0,11.03-8.96,19.98-20.02,19.98h-86.79c-11.03,0-19.98-8.96-19.98-19.98v-86.79
						c0-11.06,8.96-20.02,19.98-20.02h86.79C640.61,505.94,649.57,514.9,649.57,525.95z"/>
				</g>
			</g>
			<g>
				<g>
					<path class="st14" d="M603.5,603.45h-34.67c-9.25,0-16.78-7.53-16.78-16.78v-34.67c0-9.25,7.53-16.78,16.78-16.78h34.67
						c9.25,0,16.78,7.53,16.78,16.78v34.67C620.28,595.93,612.75,603.45,603.5,603.45z M568.84,541.79
						c-5.63,0-10.21,4.58-10.21,10.21v34.67c0,5.63,4.58,10.21,10.21,10.21h34.67c5.63,0,10.21-4.58,10.21-10.21v-34.67
						c0-5.63-4.58-10.21-10.21-10.21H568.84z"/>
				</g>
			</g>
			<g>
				<g>
					<rect x="582.88" y="600.17" class="st14" width="6.56" height="32.58"/>
				</g>
			</g>
			<g>
				<g>
					<rect x="522.76" y="566.07" class="st14" width="32.58" height="6.56"/>
				</g>
			</g>
			<g>
				<g>
					<rect x="617" y="566.07" class="st14" width="32.58" height="6.56"/>
				</g>
			</g>
			<g>
				<g>
					<rect x="580.98" y="505.94" class="st14" width="6.56" height="32.58"/>
				</g>
			</g>
		</g>
		<g>
			<g>
				<g>
					<path class="st4" d="M1298.49,879.92c0,5.74-4.23,10.54-9.58,10.54h-166.14c-5.28,0-9.58-4.73-9.58-10.54
						c0-5.6,4.09-10.54,9.58-10.54h166.14C1294.21,869.38,1298.49,874.09,1298.49,879.92z"/>
				</g>
			</g>
			<g>
				<g>
					<path class="st4" d="M702.17,879.92c0,5.74-4.23,10.54-9.58,10.54H526.44c-5.28,0-9.58-4.73-9.58-10.54
						c0-5.57,4.07-10.54,9.58-10.54h166.14C697.89,869.38,702.17,874.09,702.17,879.92z"/>
				</g>
			</g>
			<g>
				<g>
					<path class="st4" d="M932.95,933.46c0,5.74-4.23,10.54-9.58,10.54H526.44c-5.28,0-9.58-4.73-9.58-10.54
						c0-5.57,4.07-10.54,9.58-10.54h396.93C928.67,922.92,932.95,927.63,932.95,933.46z"/>
				</g>
			</g>
			<g>
				<g>
					<path class="st4" d="M1099.71,879.92c0,5.72-4.22,10.54-9.58,10.54H924c-5.3,0-9.58-4.73-9.58-10.54
						c0-5.58,4.08-10.54,9.58-10.54h166.12C1095.43,869.38,1099.71,874.09,1099.71,879.92z"/>
				</g>
			</g>
			<g>
				<g>
					<path class="st4" d="M900.95,879.92c0,5.72-4.22,10.54-9.58,10.54H725.22c-5.3,0-9.58-4.73-9.58-10.54
						c0-5.57,4.07-10.54,9.58-10.54h166.14C896.65,869.38,900.95,874.09,900.95,879.92z"/>
				</g>
			</g>
		</g>
		<g>
			<g>
				<g>
					<g>
						<path class="st4" d="M527.11,788.77c-0.54-0.58-0.8-1.36-0.8-2.33c0-0.7,0.23-1.35,0.7-1.95l10.79-12.73L527,758.61
							c-0.51-0.65-0.76-1.32-0.76-2.02c0-0.93,0.3-1.68,0.9-2.26c0.6-0.58,1.34-0.87,2.23-0.87c1.11,0,1.95,0.39,2.5,1.18
							l9.74,12.04l9.67-12.04c0.56-0.79,1.37-1.18,2.44-1.18c0.93,0,1.69,0.29,2.3,0.87c0.6,0.58,0.9,1.29,0.9,2.12
							c0,0.7-0.23,1.35-0.7,1.95l-10.99,12.94l10.85,13.08c0.51,0.56,0.77,1.23,0.77,2.02c0,0.88-0.28,1.63-0.83,2.26
							c-0.56,0.63-1.35,0.94-2.36,0.94c-1.02,0-1.83-0.42-2.44-1.25l-9.88-11.83l-9.32,11.69c-0.7,0.93-1.6,1.39-2.71,1.39
							C528.37,789.64,527.64,789.35,527.11,788.77z"/>
						<path class="st4" d="M553.65,789.86c-1.09,0-1.97-0.45-2.62-1.34l-9.7-11.61l-9.15,11.47c-0.74,0.98-1.71,1.47-2.89,1.47
							c-0.99,0-1.78-0.32-2.36-0.94l0,0c-0.57-0.62-0.86-1.45-0.86-2.48c0-0.74,0.25-1.44,0.74-2.08l10.67-12.6l-10.67-13.01
							c-0.54-0.69-0.81-1.41-0.81-2.16c0-0.99,0.33-1.8,0.97-2.42c0.64-0.62,1.45-0.93,2.38-0.93c1.18,0,2.09,0.43,2.69,1.28
							l9.56,11.81l9.49-11.82c0.59-0.84,1.47-1.27,2.61-1.27c0.98,0,1.81,0.31,2.45,0.93c0.65,0.62,0.97,1.39,0.97,2.28
							c0,0.74-0.25,1.44-0.74,2.08l-10.88,12.81l10.73,12.94c0.54,0.59,0.82,1.32,0.82,2.16c0,0.93-0.3,1.74-0.89,2.41
							C555.59,789.52,554.73,789.86,553.65,789.86z M541.33,776.21l10.06,12.04c0.57,0.79,1.31,1.17,2.26,1.17
							c0.96,0,1.68-0.28,2.2-0.86c0.52-0.59,0.78-1.28,0.78-2.11c0-0.74-0.23-1.35-0.71-1.87l-10.98-13.23l0.12-0.14l10.99-12.94
							c0.42-0.55,0.64-1.16,0.64-1.8c0-0.78-0.27-1.42-0.84-1.96c-0.57-0.54-1.27-0.81-2.14-0.81c-1,0-1.74,0.36-2.25,1.09
							l-9.85,12.26l-0.17-0.21l-9.74-12.04c-0.53-0.74-1.29-1.1-2.33-1.1c-0.83,0-1.51,0.26-2.07,0.81
							c-0.56,0.54-0.84,1.23-0.84,2.1c0,0.64,0.24,1.28,0.72,1.88l10.9,13.29l-0.12,0.14l-10.79,12.73
							c-0.42,0.55-0.64,1.16-0.64,1.8c0,0.91,0.25,1.65,0.74,2.18l0,0c0.49,0.54,1.16,0.8,2.03,0.8c1.05,0,1.88-0.42,2.54-1.3
							L541.33,776.21z"/>
					</g>
					<g>
						<path class="st4" d="M565.72,788.77c-0.54-0.58-0.8-1.36-0.8-2.33c0-0.7,0.23-1.35,0.7-1.95l10.79-12.73l-10.79-13.15
							c-0.51-0.65-0.76-1.32-0.76-2.02c0-0.93,0.3-1.68,0.9-2.26s1.34-0.87,2.23-0.87c1.11,0,1.95,0.39,2.5,1.18l9.74,12.04
							l9.67-12.04c0.56-0.79,1.37-1.18,2.44-1.18c0.93,0,1.69,0.29,2.3,0.87c0.6,0.58,0.9,1.29,0.9,2.12c0,0.7-0.23,1.35-0.7,1.95
							l-10.99,12.94l10.85,13.08c0.51,0.56,0.77,1.23,0.77,2.02c0,0.88-0.28,1.63-0.83,2.26c-0.56,0.63-1.35,0.94-2.36,0.94
							c-1.02,0-1.83-0.42-2.44-1.25l-9.88-11.83l-9.32,11.69c-0.7,0.93-1.6,1.39-2.71,1.39
							C566.98,789.64,566.25,789.35,565.72,788.77z"/>
						<path class="st4" d="M592.26,789.86c-1.09,0-1.97-0.45-2.62-1.34l-9.7-11.61l-9.15,11.47c-0.74,0.98-1.71,1.47-2.89,1.47
							c-0.99,0-1.78-0.32-2.36-0.94l0,0c-0.57-0.62-0.86-1.45-0.86-2.48c0-0.74,0.25-1.44,0.74-2.08l10.67-12.6l-10.67-13.01
							c-0.54-0.69-0.81-1.41-0.81-2.16c0-0.99,0.33-1.8,0.97-2.42c0.64-0.62,1.45-0.93,2.38-0.93c1.18,0,2.09,0.43,2.69,1.28
							l9.56,11.81l9.49-11.82c0.59-0.84,1.47-1.27,2.61-1.27c0.98,0,1.81,0.31,2.45,0.93c0.65,0.62,0.97,1.39,0.97,2.28
							c0,0.74-0.25,1.44-0.74,2.08l-10.88,12.81l10.73,12.94c0.54,0.59,0.82,1.32,0.82,2.16c0,0.93-0.3,1.74-0.89,2.41
							C594.2,789.52,593.34,789.86,592.26,789.86z M579.94,776.21L590,788.25c0.57,0.79,1.31,1.17,2.26,1.17
							c0.96,0,1.68-0.28,2.2-0.86c0.52-0.59,0.78-1.28,0.78-2.11c0-0.74-0.23-1.35-0.71-1.87l-10.98-13.23l0.12-0.14l10.99-12.94
							c0.42-0.55,0.64-1.16,0.64-1.8c0-0.78-0.27-1.42-0.84-1.96c-0.57-0.54-1.27-0.81-2.14-0.81c-1,0-1.74,0.36-2.25,1.09
							l-9.85,12.26l-0.17-0.21l-9.74-12.04c-0.53-0.74-1.29-1.1-2.33-1.1c-0.83,0-1.51,0.26-2.07,0.81
							c-0.56,0.54-0.84,1.23-0.84,2.1c0,0.64,0.24,1.28,0.72,1.88l10.9,13.29l-0.12,0.14l-10.79,12.73
							c-0.42,0.55-0.64,1.16-0.64,1.8c0,0.91,0.25,1.65,0.74,2.18l0,0c0.49,0.54,1.16,0.8,2.03,0.8c1.05,0,1.88-0.42,2.54-1.3
							L579.94,776.21z"/>
					</g>
					<g>
						<path class="st4" d="M604.33,788.77c-0.54-0.58-0.8-1.36-0.8-2.33c0-0.7,0.23-1.35,0.7-1.95l10.79-12.73l-10.79-13.15
							c-0.51-0.65-0.76-1.32-0.76-2.02c0-0.93,0.3-1.68,0.9-2.26c0.6-0.58,1.34-0.87,2.23-0.87c1.11,0,1.95,0.39,2.5,1.18
							l9.74,12.04l9.67-12.04c0.56-0.79,1.37-1.18,2.44-1.18c0.93,0,1.69,0.29,2.3,0.87c0.6,0.58,0.9,1.29,0.9,2.12
							c0,0.7-0.23,1.35-0.7,1.95l-10.99,12.94l10.85,13.08c0.51,0.56,0.77,1.23,0.77,2.02c0,0.88-0.28,1.63-0.83,2.26
							c-0.56,0.63-1.35,0.94-2.36,0.94c-1.02,0-1.83-0.42-2.44-1.25l-9.88-11.83l-9.32,11.69c-0.7,0.93-1.6,1.39-2.71,1.39
							C605.59,789.64,604.86,789.35,604.33,788.77z"/>
						<path class="st4" d="M630.88,789.86c-1.09,0-1.97-0.45-2.62-1.34l-9.7-11.61l-9.15,11.47c-0.74,0.98-1.71,1.47-2.89,1.47
							c-0.99,0-1.78-0.32-2.36-0.94l0,0c-0.57-0.62-0.86-1.45-0.86-2.48c0-0.74,0.25-1.44,0.74-2.08l10.67-12.6l-10.67-13.01
							c-0.54-0.69-0.81-1.41-0.81-2.16c0-0.99,0.33-1.8,0.97-2.42c0.64-0.62,1.45-0.93,2.38-0.93c1.18,0,2.09,0.43,2.69,1.28
							l9.56,11.81l9.49-11.82c0.59-0.84,1.47-1.27,2.61-1.27c0.98,0,1.81,0.31,2.45,0.93c0.65,0.62,0.97,1.39,0.97,2.28
							c0,0.74-0.25,1.44-0.74,2.08l-10.88,12.81l10.73,12.94c0.54,0.59,0.82,1.32,0.82,2.16c0,0.93-0.3,1.74-0.89,2.41
							C632.81,789.52,631.96,789.86,630.88,789.86z M618.56,776.21l10.06,12.04c0.57,0.79,1.31,1.17,2.26,1.17
							c0.96,0,1.68-0.28,2.2-0.86c0.52-0.59,0.78-1.28,0.78-2.11c0-0.74-0.23-1.35-0.71-1.87l-10.98-13.23l0.12-0.14l10.99-12.94
							c0.42-0.55,0.64-1.16,0.64-1.8c0-0.78-0.27-1.42-0.84-1.96c-0.57-0.54-1.27-0.81-2.14-0.81c-1,0-1.74,0.36-2.25,1.09
							l-9.85,12.26l-0.17-0.21l-9.74-12.04c-0.53-0.74-1.29-1.1-2.33-1.1c-0.83,0-1.51,0.26-2.07,0.81
							c-0.56,0.54-0.84,1.23-0.84,2.1c0,0.64,0.24,1.28,0.72,1.88l10.9,13.29l-0.12,0.14l-10.79,12.73
							c-0.42,0.55-0.64,1.16-0.64,1.8c0,0.91,0.25,1.65,0.74,2.18l0,0c0.49,0.54,1.16,0.8,2.03,0.8c1.05,0,1.88-0.42,2.54-1.3
							L618.56,776.21z"/>
					</g>
					<g>
						<path class="st4" d="M642.94,788.77c-0.54-0.58-0.8-1.36-0.8-2.33c0-0.7,0.23-1.35,0.7-1.95l10.79-12.73l-10.79-13.15
							c-0.51-0.65-0.76-1.32-0.76-2.02c0-0.93,0.3-1.68,0.9-2.26s1.34-0.87,2.23-0.87c1.11,0,1.95,0.39,2.5,1.18l9.74,12.04
							l9.67-12.04c0.56-0.79,1.37-1.18,2.44-1.18c0.93,0,1.69,0.29,2.3,0.87c0.6,0.58,0.9,1.29,0.9,2.12c0,0.7-0.23,1.35-0.7,1.95
							l-10.99,12.94l10.85,13.08c0.51,0.56,0.77,1.23,0.77,2.02c0,0.88-0.28,1.63-0.83,2.26c-0.56,0.63-1.35,0.94-2.36,0.94
							c-1.02,0-1.83-0.42-2.44-1.25l-9.88-11.83l-9.32,11.69c-0.7,0.93-1.6,1.39-2.71,1.39
							C644.21,789.64,643.48,789.35,642.94,788.77z"/>
						<path class="st4" d="M669.49,789.86c-1.09,0-1.97-0.45-2.62-1.34l-9.7-11.61l-9.15,11.47c-0.74,0.98-1.71,1.47-2.89,1.47
							c-0.99,0-1.78-0.32-2.36-0.94l0,0c-0.57-0.62-0.86-1.45-0.86-2.48c0-0.74,0.25-1.44,0.74-2.08l10.67-12.6l-10.67-13.01
							c-0.54-0.69-0.81-1.41-0.81-2.16c0-0.99,0.33-1.8,0.97-2.42c0.64-0.62,1.45-0.93,2.38-0.93c1.18,0,2.09,0.43,2.69,1.28
							l9.56,11.81l9.49-11.82c0.59-0.84,1.47-1.27,2.61-1.27c0.98,0,1.81,0.31,2.45,0.93c0.65,0.62,0.97,1.39,0.97,2.28
							c0,0.74-0.25,1.44-0.74,2.08l-10.88,12.81l10.73,12.94c0.54,0.59,0.82,1.32,0.82,2.16c0,0.93-0.3,1.74-0.89,2.41
							C671.42,789.52,670.57,789.86,669.49,789.86z M657.17,776.21l10.06,12.04c0.57,0.79,1.31,1.17,2.26,1.17
							c0.96,0,1.68-0.28,2.2-0.86c0.52-0.59,0.78-1.28,0.78-2.11c0-0.74-0.23-1.35-0.71-1.87l-10.98-13.23l0.12-0.14l10.99-12.94
							c0.42-0.55,0.64-1.16,0.64-1.8c0-0.78-0.27-1.42-0.84-1.96c-0.57-0.54-1.27-0.81-2.14-0.81c-1,0-1.74,0.36-2.25,1.09
							l-9.85,12.26l-0.17-0.21l-9.74-12.04c-0.53-0.74-1.29-1.1-2.33-1.1c-0.83,0-1.51,0.26-2.07,0.81
							c-0.56,0.54-0.84,1.23-0.84,2.1c0,0.64,0.24,1.28,0.72,1.88l10.9,13.29l-0.12,0.14l-10.79,12.73
							c-0.42,0.55-0.64,1.16-0.64,1.8c0,0.91,0.25,1.65,0.74,2.18l0,0c0.49,0.54,1.16,0.8,2.03,0.8c1.05,0,1.88-0.42,2.54-1.3
							L657.17,776.21z"/>
					</g>
				</g>
			</g>
			<g>
				<g>
					<g>
						<path class="st4" d="M735.35,788.77c-0.54-0.58-0.8-1.36-0.8-2.33c0-0.7,0.23-1.35,0.7-1.95l10.79-12.73l-10.79-13.15
							c-0.51-0.65-0.76-1.32-0.76-2.02c0-0.93,0.3-1.68,0.9-2.26s1.34-0.87,2.23-0.87c1.11,0,1.95,0.39,2.5,1.18l9.74,12.04
							l9.67-12.04c0.56-0.79,1.37-1.18,2.44-1.18c0.93,0,1.69,0.29,2.3,0.87c0.6,0.58,0.9,1.29,0.9,2.12c0,0.7-0.23,1.35-0.7,1.95
							l-10.99,12.94l10.85,13.08c0.51,0.56,0.77,1.23,0.77,2.02c0,0.88-0.28,1.63-0.83,2.26c-0.56,0.63-1.35,0.94-2.36,0.94
							c-1.02,0-1.83-0.42-2.44-1.25l-9.88-11.83l-9.32,11.69c-0.7,0.93-1.6,1.39-2.71,1.39
							C736.62,789.64,735.89,789.35,735.35,788.77z"/>
						<path class="st4" d="M761.9,789.86c-1.09,0-1.97-0.45-2.62-1.34l-9.7-11.61l-9.15,11.47c-0.74,0.98-1.71,1.47-2.89,1.47
							c-0.99,0-1.78-0.32-2.36-0.94l0,0c-0.57-0.62-0.86-1.45-0.86-2.48c0-0.74,0.25-1.44,0.74-2.08l10.67-12.6l-10.67-13.01
							c-0.54-0.69-0.81-1.41-0.81-2.16c0-0.99,0.33-1.8,0.97-2.42c0.64-0.62,1.45-0.93,2.38-0.93c1.18,0,2.09,0.43,2.69,1.28
							l9.56,11.81l9.49-11.82c0.59-0.84,1.47-1.27,2.61-1.27c0.98,0,1.81,0.31,2.45,0.93c0.65,0.62,0.97,1.39,0.97,2.28
							c0,0.74-0.25,1.44-0.74,2.08l-10.88,12.81l10.73,12.94c0.54,0.59,0.82,1.32,0.82,2.16c0,0.93-0.3,1.74-0.89,2.41
							C763.83,789.52,762.98,789.86,761.9,789.86z M749.58,776.21l10.06,12.04c0.57,0.79,1.31,1.17,2.26,1.17
							c0.96,0,1.68-0.28,2.2-0.86c0.52-0.59,0.78-1.28,0.78-2.11c0-0.74-0.23-1.35-0.71-1.87l-10.98-13.23l0.12-0.14l10.99-12.94
							c0.42-0.55,0.64-1.16,0.64-1.8c0-0.78-0.27-1.42-0.84-1.96c-0.57-0.54-1.27-0.81-2.14-0.81c-1,0-1.74,0.36-2.25,1.09
							l-9.85,12.26l-0.17-0.21l-9.74-12.04c-0.53-0.74-1.29-1.1-2.33-1.1c-0.83,0-1.51,0.26-2.07,0.81
							c-0.56,0.54-0.84,1.23-0.84,2.1c0,0.64,0.24,1.28,0.72,1.88l10.9,13.29l-0.12,0.14l-10.79,12.73
							c-0.42,0.55-0.64,1.16-0.64,1.8c0,0.91,0.25,1.65,0.74,2.18l0,0c0.49,0.54,1.16,0.8,2.03,0.8c1.05,0,1.88-0.42,2.54-1.3
							L749.58,776.21z"/>
					</g>
					<g>
						<path class="st4" d="M773.96,788.77c-0.54-0.58-0.8-1.36-0.8-2.33c0-0.7,0.23-1.35,0.7-1.95l10.79-12.73l-10.79-13.15
							c-0.51-0.65-0.76-1.32-0.76-2.02c0-0.93,0.3-1.68,0.9-2.26c0.6-0.58,1.34-0.87,2.23-0.87c1.11,0,1.95,0.39,2.5,1.18
							l9.74,12.04l9.67-12.04c0.56-0.79,1.37-1.18,2.44-1.18c0.93,0,1.69,0.29,2.3,0.87c0.6,0.58,0.9,1.29,0.9,2.12
							c0,0.7-0.23,1.35-0.7,1.95l-10.99,12.94l10.85,13.08c0.51,0.56,0.77,1.23,0.77,2.02c0,0.88-0.28,1.63-0.83,2.26
							c-0.56,0.63-1.35,0.94-2.36,0.94c-1.02,0-1.83-0.42-2.44-1.25l-9.88-11.83l-9.32,11.69c-0.7,0.93-1.6,1.39-2.71,1.39
							C775.23,789.64,774.5,789.35,773.96,788.77z"/>
						<path class="st4" d="M800.51,789.86c-1.09,0-1.97-0.45-2.62-1.34l-9.7-11.61l-9.15,11.47c-0.74,0.98-1.71,1.47-2.89,1.47
							c-0.99,0-1.78-0.32-2.36-0.94l0,0c-0.57-0.62-0.86-1.45-0.86-2.48c0-0.74,0.25-1.44,0.74-2.08l10.67-12.6l-10.67-13.01
							c-0.54-0.69-0.81-1.41-0.81-2.16c0-0.99,0.33-1.8,0.97-2.42c0.64-0.62,1.45-0.93,2.38-0.93c1.18,0,2.09,0.43,2.69,1.28
							l9.56,11.81l9.49-11.82c0.59-0.84,1.47-1.27,2.61-1.27c0.98,0,1.81,0.31,2.45,0.93c0.65,0.62,0.97,1.39,0.97,2.28
							c0,0.74-0.25,1.44-0.74,2.08l-10.88,12.81l10.73,12.94c0.54,0.59,0.82,1.32,0.82,2.16c0,0.93-0.3,1.74-0.89,2.41
							C802.44,789.52,801.59,789.86,800.51,789.86z M788.19,776.21l10.06,12.04c0.57,0.79,1.31,1.17,2.26,1.17
							c0.96,0,1.68-0.28,2.2-0.86c0.52-0.59,0.78-1.28,0.78-2.11c0-0.74-0.23-1.35-0.71-1.87l-10.98-13.23l0.12-0.14l10.99-12.94
							c0.42-0.55,0.64-1.16,0.64-1.8c0-0.78-0.27-1.42-0.84-1.96c-0.57-0.54-1.27-0.81-2.14-0.81c-1,0-1.74,0.36-2.25,1.09
							l-9.85,12.26l-0.17-0.21l-9.74-12.04c-0.53-0.74-1.29-1.1-2.33-1.1c-0.83,0-1.51,0.26-2.07,0.81
							c-0.56,0.54-0.84,1.23-0.84,2.1c0,0.64,0.24,1.28,0.72,1.88l10.9,13.29l-0.12,0.14l-10.79,12.73
							c-0.42,0.55-0.64,1.16-0.64,1.8c0,0.91,0.25,1.65,0.74,2.18l0,0c0.49,0.54,1.16,0.8,2.03,0.8c1.05,0,1.88-0.42,2.54-1.3
							L788.19,776.21z"/>
					</g>
					<g>
						<path class="st4" d="M812.58,788.77c-0.54-0.58-0.8-1.36-0.8-2.33c0-0.7,0.23-1.35,0.7-1.95l10.79-12.73l-10.79-13.15
							c-0.51-0.65-0.76-1.32-0.76-2.02c0-0.93,0.3-1.68,0.9-2.26s1.34-0.87,2.23-0.87c1.11,0,1.95,0.39,2.5,1.18l9.74,12.04
							l9.67-12.04c0.56-0.79,1.37-1.18,2.44-1.18c0.93,0,1.69,0.29,2.3,0.87c0.6,0.58,0.9,1.29,0.9,2.12c0,0.7-0.23,1.35-0.7,1.95
							l-10.99,12.94l10.85,13.08c0.51,0.56,0.77,1.23,0.77,2.02c0,0.88-0.28,1.63-0.83,2.26c-0.56,0.63-1.35,0.94-2.36,0.94
							c-1.02,0-1.83-0.42-2.44-1.25l-9.88-11.83l-9.32,11.69c-0.7,0.93-1.6,1.39-2.71,1.39
							C813.84,789.64,813.11,789.35,812.58,788.77z"/>
						<path class="st4" d="M839.12,789.86c-1.09,0-1.97-0.45-2.62-1.34l-9.7-11.61l-9.15,11.47c-0.74,0.98-1.71,1.47-2.89,1.47
							c-0.99,0-1.78-0.32-2.36-0.94l0,0c-0.57-0.62-0.86-1.45-0.86-2.48c0-0.74,0.25-1.44,0.74-2.08l10.67-12.6l-10.67-13.01
							c-0.54-0.69-0.81-1.41-0.81-2.16c0-0.99,0.33-1.8,0.97-2.42c0.64-0.62,1.45-0.93,2.38-0.93c1.18,0,2.09,0.43,2.69,1.28
							l9.56,11.81l9.49-11.82c0.59-0.84,1.47-1.27,2.61-1.27c0.98,0,1.81,0.31,2.45,0.93c0.65,0.62,0.97,1.39,0.97,2.28
							c0,0.74-0.25,1.44-0.74,2.08l-10.88,12.81l10.73,12.94c0.54,0.59,0.82,1.32,0.82,2.16c0,0.93-0.3,1.74-0.89,2.41
							C841.05,789.52,840.2,789.86,839.12,789.86z M826.8,776.21l10.06,12.04c0.57,0.79,1.31,1.17,2.26,1.17
							c0.96,0,1.68-0.28,2.2-0.86c0.52-0.59,0.78-1.28,0.78-2.11c0-0.74-0.23-1.35-0.71-1.87l-10.98-13.23l0.12-0.14l10.99-12.94
							c0.42-0.55,0.64-1.16,0.64-1.8c0-0.78-0.27-1.42-0.84-1.96c-0.57-0.54-1.27-0.81-2.14-0.81c-1,0-1.74,0.36-2.25,1.09
							l-9.85,12.26l-0.17-0.21l-9.74-12.04c-0.53-0.74-1.29-1.1-2.33-1.1c-0.83,0-1.51,0.26-2.07,0.81
							c-0.56,0.54-0.84,1.23-0.84,2.1c0,0.64,0.24,1.28,0.72,1.88l10.9,13.29l-0.12,0.14l-10.79,12.73
							c-0.42,0.55-0.64,1.16-0.64,1.8c0,0.91,0.25,1.65,0.74,2.18l0,0c0.49,0.54,1.16,0.8,2.03,0.8c1.05,0,1.88-0.42,2.54-1.3
							L826.8,776.21z"/>
					</g>
					<g>
						<path class="st4" d="M851.19,788.77c-0.54-0.58-0.8-1.36-0.8-2.33c0-0.7,0.23-1.35,0.7-1.95l10.79-12.73l-10.79-13.15
							c-0.51-0.65-0.76-1.32-0.76-2.02c0-0.93,0.3-1.68,0.9-2.26c0.6-0.58,1.34-0.87,2.23-0.87c1.11,0,1.95,0.39,2.5,1.18
							l9.74,12.04l9.67-12.04c0.56-0.79,1.37-1.18,2.44-1.18c0.93,0,1.69,0.29,2.3,0.87c0.6,0.58,0.9,1.29,0.9,2.12
							c0,0.7-0.23,1.35-0.7,1.95l-10.99,12.94l10.85,13.08c0.51,0.56,0.77,1.23,0.77,2.02c0,0.88-0.28,1.63-0.83,2.26
							c-0.56,0.63-1.35,0.94-2.36,0.94c-1.02,0-1.83-0.42-2.44-1.25l-9.88-11.83l-9.32,11.69c-0.7,0.93-1.6,1.39-2.71,1.39
							C852.45,789.64,851.72,789.35,851.19,788.77z"/>
						<path class="st4" d="M877.73,789.86c-1.09,0-1.97-0.45-2.62-1.34l-9.7-11.61l-9.15,11.47c-0.74,0.98-1.71,1.47-2.89,1.47
							c-0.99,0-1.78-0.32-2.36-0.94l0,0c-0.57-0.62-0.86-1.45-0.86-2.48c0-0.74,0.25-1.44,0.74-2.08l10.67-12.6l-10.67-13.01
							c-0.54-0.69-0.81-1.41-0.81-2.16c0-0.99,0.33-1.8,0.97-2.42c0.64-0.62,1.45-0.93,2.38-0.93c1.18,0,2.09,0.43,2.69,1.28
							l9.56,11.81l9.49-11.82c0.59-0.84,1.47-1.27,2.61-1.27c0.98,0,1.81,0.31,2.45,0.93c0.65,0.62,0.97,1.39,0.97,2.28
							c0,0.74-0.25,1.44-0.74,2.08l-10.88,12.81l10.73,12.94c0.54,0.59,0.82,1.32,0.82,2.16c0,0.93-0.3,1.74-0.89,2.41
							C879.67,789.52,878.81,789.86,877.73,789.86z M865.41,776.21l10.06,12.04c0.57,0.79,1.31,1.17,2.26,1.17
							c0.96,0,1.68-0.28,2.2-0.86c0.52-0.59,0.78-1.28,0.78-2.11c0-0.74-0.23-1.35-0.71-1.87l-10.98-13.23l0.12-0.14l10.99-12.94
							c0.42-0.55,0.64-1.16,0.64-1.8c0-0.78-0.27-1.42-0.84-1.96c-0.57-0.54-1.27-0.81-2.14-0.81c-1,0-1.74,0.36-2.25,1.09
							l-9.85,12.26l-0.17-0.21l-9.74-12.04c-0.53-0.74-1.29-1.1-2.33-1.1c-0.83,0-1.51,0.26-2.07,0.81
							c-0.56,0.54-0.84,1.23-0.84,2.1c0,0.64,0.24,1.28,0.72,1.88l10.9,13.29l-0.12,0.14l-10.79,12.73
							c-0.42,0.55-0.64,1.16-0.64,1.8c0,0.91,0.25,1.65,0.74,2.18l0,0c0.49,0.54,1.16,0.8,2.03,0.8c1.05,0,1.88-0.42,2.54-1.3
							L865.41,776.21z"/>
					</g>
				</g>
			</g>
			<g>
				<g>
					<g>
						<path class="st4" d="M943.6,788.77c-0.54-0.58-0.8-1.36-0.8-2.33c0-0.7,0.23-1.35,0.7-1.95l10.79-12.73l-10.79-13.15
							c-0.51-0.65-0.76-1.32-0.76-2.02c0-0.93,0.3-1.68,0.9-2.26c0.6-0.58,1.34-0.87,2.23-0.87c1.11,0,1.95,0.39,2.5,1.18
							l9.74,12.04l9.67-12.04c0.56-0.79,1.37-1.18,2.44-1.18c0.93,0,1.69,0.29,2.3,0.87c0.6,0.58,0.9,1.29,0.9,2.12
							c0,0.7-0.23,1.35-0.7,1.95l-10.99,12.94l10.85,13.08c0.51,0.56,0.77,1.23,0.77,2.02c0,0.88-0.28,1.63-0.83,2.26
							c-0.56,0.63-1.35,0.94-2.36,0.94c-1.02,0-1.83-0.42-2.44-1.25l-9.88-11.83l-9.32,11.69c-0.7,0.93-1.6,1.39-2.71,1.39
							C944.86,789.64,944.13,789.35,943.6,788.77z"/>
						<path class="st4" d="M970.14,789.86c-1.09,0-1.97-0.45-2.62-1.34l-9.7-11.61l-9.15,11.47c-0.74,0.98-1.71,1.47-2.89,1.47
							c-0.99,0-1.78-0.32-2.36-0.94l0,0c-0.57-0.62-0.86-1.45-0.86-2.48c0-0.74,0.25-1.44,0.74-2.08l10.67-12.6l-10.67-13.01
							c-0.54-0.69-0.81-1.41-0.81-2.16c0-0.99,0.33-1.8,0.97-2.42c0.64-0.62,1.45-0.93,2.38-0.93c1.18,0,2.09,0.43,2.69,1.28
							l9.56,11.81l9.49-11.82c0.59-0.84,1.47-1.27,2.61-1.27c0.98,0,1.81,0.31,2.45,0.93c0.65,0.62,0.97,1.39,0.97,2.28
							c0,0.74-0.25,1.44-0.74,2.08l-10.88,12.81l10.73,12.94c0.54,0.59,0.82,1.32,0.82,2.16c0,0.93-0.3,1.74-0.89,2.41
							C972.08,789.52,971.23,789.86,970.14,789.86z M957.82,776.21l10.06,12.04c0.57,0.79,1.31,1.17,2.26,1.17
							c0.96,0,1.68-0.28,2.2-0.86c0.52-0.59,0.78-1.28,0.78-2.11c0-0.74-0.23-1.35-0.71-1.87l-10.98-13.23l0.12-0.14l10.99-12.94
							c0.42-0.55,0.64-1.16,0.64-1.8c0-0.78-0.27-1.42-0.84-1.96c-0.57-0.54-1.27-0.81-2.14-0.81c-1,0-1.74,0.36-2.25,1.09
							l-9.85,12.26l-0.17-0.21l-9.74-12.04c-0.53-0.74-1.29-1.1-2.33-1.1c-0.83,0-1.51,0.26-2.07,0.81
							c-0.56,0.54-0.84,1.23-0.84,2.1c0,0.64,0.24,1.28,0.72,1.88l10.9,13.29l-0.12,0.14l-10.79,12.73
							c-0.42,0.55-0.64,1.16-0.64,1.8c0,0.91,0.25,1.65,0.74,2.18l0,0c0.49,0.54,1.16,0.8,2.03,0.8c1.05,0,1.88-0.42,2.54-1.3
							L957.82,776.21z"/>
					</g>
					<g>
						<path class="st4" d="M982.21,788.77c-0.54-0.58-0.8-1.36-0.8-2.33c0-0.7,0.23-1.35,0.7-1.95l10.79-12.73l-10.79-13.15
							c-0.51-0.65-0.76-1.32-0.76-2.02c0-0.93,0.3-1.68,0.9-2.26s1.34-0.87,2.23-0.87c1.11,0,1.95,0.39,2.5,1.18l9.74,12.04
							l9.67-12.04c0.56-0.79,1.37-1.18,2.44-1.18c0.93,0,1.69,0.29,2.3,0.87c0.6,0.58,0.9,1.29,0.9,2.12c0,0.7-0.23,1.35-0.7,1.95
							l-10.99,12.94l10.85,13.08c0.51,0.56,0.77,1.23,0.77,2.02c0,0.88-0.28,1.63-0.83,2.26c-0.56,0.63-1.35,0.94-2.36,0.94
							c-1.02,0-1.83-0.42-2.44-1.25l-9.88-11.83l-9.32,11.69c-0.7,0.93-1.6,1.39-2.71,1.39
							C983.48,789.64,982.75,789.35,982.21,788.77z"/>
						<path class="st4" d="M1008.76,789.86c-1.09,0-1.97-0.45-2.62-1.34l-9.7-11.61l-9.15,11.47c-0.74,0.98-1.71,1.47-2.89,1.47
							c-0.99,0-1.78-0.32-2.36-0.94l0,0c-0.57-0.62-0.86-1.45-0.86-2.48c0-0.74,0.25-1.44,0.74-2.08l10.67-12.6l-10.67-13.01
							c-0.54-0.69-0.81-1.41-0.81-2.16c0-0.99,0.33-1.8,0.97-2.42c0.64-0.62,1.45-0.93,2.38-0.93c1.18,0,2.09,0.43,2.69,1.28
							l9.56,11.81l9.49-11.82c0.59-0.84,1.47-1.27,2.61-1.27c0.98,0,1.81,0.31,2.45,0.93c0.65,0.62,0.97,1.39,0.97,2.28
							c0,0.74-0.25,1.44-0.74,2.08l-10.88,12.81l10.73,12.94c0.54,0.59,0.82,1.32,0.82,2.16c0,0.93-0.3,1.74-0.89,2.41
							C1010.69,789.52,1009.84,789.86,1008.76,789.86z M996.44,776.21l10.06,12.04c0.57,0.79,1.31,1.17,2.26,1.17
							c0.96,0,1.68-0.28,2.2-0.86c0.52-0.59,0.78-1.28,0.78-2.11c0-0.74-0.23-1.35-0.71-1.87l-10.98-13.23l0.12-0.14l10.99-12.94
							c0.42-0.55,0.64-1.16,0.64-1.8c0-0.78-0.27-1.42-0.84-1.96c-0.57-0.54-1.27-0.81-2.14-0.81c-1,0-1.74,0.36-2.25,1.09
							l-9.85,12.26l-0.17-0.21l-9.74-12.04c-0.53-0.74-1.29-1.1-2.33-1.1c-0.83,0-1.51,0.26-2.07,0.81
							c-0.56,0.54-0.84,1.23-0.84,2.1c0,0.64,0.24,1.28,0.72,1.88l10.9,13.29l-0.12,0.14l-10.79,12.73
							c-0.42,0.55-0.64,1.16-0.64,1.8c0,0.91,0.25,1.65,0.74,2.18l0,0c0.49,0.54,1.16,0.8,2.03,0.8c1.05,0,1.88-0.42,2.54-1.3
							L996.44,776.21z"/>
					</g>
					<g>
						<path class="st4" d="M1020.82,788.77c-0.54-0.58-0.8-1.36-0.8-2.33c0-0.7,0.23-1.35,0.7-1.95l10.79-12.73l-10.79-13.15
							c-0.51-0.65-0.76-1.32-0.76-2.02c0-0.93,0.3-1.68,0.9-2.26c0.6-0.58,1.34-0.87,2.23-0.87c1.11,0,1.95,0.39,2.5,1.18
							l9.74,12.04l9.67-12.04c0.56-0.79,1.37-1.18,2.44-1.18c0.93,0,1.69,0.29,2.3,0.87c0.6,0.58,0.9,1.29,0.9,2.12
							c0,0.7-0.23,1.35-0.7,1.95l-10.99,12.94l10.85,13.08c0.51,0.56,0.77,1.23,0.77,2.02c0,0.88-0.28,1.63-0.83,2.26
							c-0.56,0.63-1.35,0.94-2.36,0.94c-1.02,0-1.83-0.42-2.44-1.25l-9.88-11.83l-9.32,11.69c-0.7,0.93-1.6,1.39-2.71,1.39
							C1022.09,789.64,1021.36,789.35,1020.82,788.77z"/>
						<path class="st4" d="M1047.37,789.86c-1.09,0-1.97-0.45-2.62-1.34l-9.69-11.61l-9.15,11.47c-0.74,0.98-1.71,1.47-2.89,1.47
							c-0.99,0-1.78-0.32-2.36-0.94l0,0c-0.57-0.62-0.86-1.45-0.86-2.48c0-0.74,0.25-1.44,0.74-2.08l10.67-12.6l-10.67-13.01
							c-0.54-0.69-0.81-1.41-0.81-2.16c0-0.99,0.33-1.8,0.97-2.42c0.64-0.62,1.44-0.93,2.38-0.93c1.18,0,2.09,0.43,2.69,1.28
							l9.56,11.81l9.5-11.82c0.59-0.84,1.47-1.27,2.61-1.27c0.98,0,1.81,0.31,2.45,0.93c0.65,0.62,0.97,1.39,0.97,2.28
							c0,0.74-0.25,1.44-0.74,2.08l-10.88,12.81l10.73,12.94c0.54,0.59,0.82,1.32,0.82,2.16c0,0.93-0.3,1.74-0.89,2.41
							C1049.3,789.52,1048.45,789.86,1047.37,789.86z M1035.05,776.21l10.06,12.04c0.57,0.79,1.31,1.17,2.26,1.17
							c0.96,0,1.68-0.28,2.2-0.86c0.52-0.59,0.78-1.28,0.78-2.11c0-0.74-0.23-1.35-0.7-1.87l-10.98-13.23l0.12-0.14l10.99-12.94
							c0.42-0.55,0.64-1.16,0.64-1.8c0-0.78-0.27-1.42-0.83-1.96c-0.57-0.54-1.27-0.81-2.14-0.81c-1,0-1.73,0.36-2.25,1.09
							l-9.85,12.26l-0.17-0.21l-9.74-12.04c-0.53-0.74-1.29-1.1-2.33-1.1c-0.83,0-1.51,0.26-2.07,0.81
							c-0.56,0.54-0.83,1.23-0.83,2.1c0,0.64,0.24,1.28,0.71,1.88l10.9,13.29l-0.12,0.14l-10.79,12.73
							c-0.42,0.55-0.64,1.16-0.64,1.8c0,0.91,0.25,1.65,0.74,2.18v0c0.49,0.54,1.16,0.8,2.03,0.8c1.05,0,1.87-0.42,2.53-1.3
							L1035.05,776.21z"/>
					</g>
					<g>
						<path class="st4" d="M1059.44,788.77c-0.54-0.58-0.8-1.36-0.8-2.33c0-0.7,0.23-1.35,0.7-1.95l10.79-12.73l-10.79-13.15
							c-0.51-0.65-0.76-1.32-0.76-2.02c0-0.93,0.3-1.68,0.9-2.26c0.6-0.58,1.34-0.87,2.23-0.87c1.11,0,1.95,0.39,2.5,1.18
							l9.74,12.04l9.67-12.04c0.56-0.79,1.37-1.18,2.44-1.18c0.93,0,1.69,0.29,2.3,0.87c0.6,0.58,0.9,1.29,0.9,2.12
							c0,0.7-0.23,1.35-0.7,1.95l-10.99,12.94l10.85,13.08c0.51,0.56,0.77,1.23,0.77,2.02c0,0.88-0.28,1.63-0.83,2.26
							c-0.56,0.63-1.35,0.94-2.36,0.94c-1.02,0-1.83-0.42-2.44-1.25l-9.88-11.83l-9.32,11.69c-0.7,0.93-1.6,1.39-2.71,1.39
							C1060.7,789.64,1059.97,789.35,1059.44,788.77z"/>
						<path class="st4" d="M1085.98,789.86c-1.09,0-1.97-0.45-2.62-1.34l-9.69-11.61l-9.15,11.47c-0.74,0.98-1.71,1.47-2.89,1.47
							c-0.99,0-1.78-0.32-2.36-0.94l0,0c-0.57-0.62-0.86-1.45-0.86-2.48c0-0.74,0.25-1.44,0.74-2.08l10.67-12.6l-10.67-13.01
							c-0.54-0.69-0.81-1.41-0.81-2.16c0-0.99,0.33-1.8,0.97-2.42c0.64-0.62,1.44-0.93,2.38-0.93c1.18,0,2.09,0.43,2.69,1.28
							l9.56,11.81l9.5-11.82c0.59-0.84,1.47-1.27,2.61-1.27c0.98,0,1.81,0.31,2.45,0.93c0.65,0.62,0.97,1.39,0.97,2.28
							c0,0.74-0.25,1.44-0.74,2.08l-10.88,12.81l10.73,12.94c0.54,0.59,0.82,1.32,0.82,2.16c0,0.93-0.3,1.74-0.89,2.41
							C1087.91,789.52,1087.06,789.86,1085.98,789.86z M1073.66,776.21l10.06,12.04c0.57,0.79,1.31,1.17,2.26,1.17
							c0.96,0,1.68-0.28,2.2-0.86c0.52-0.59,0.78-1.28,0.78-2.11c0-0.74-0.23-1.35-0.71-1.87l-10.98-13.23l0.12-0.14l10.99-12.94
							c0.42-0.55,0.64-1.16,0.64-1.8c0-0.78-0.27-1.42-0.83-1.96c-0.57-0.54-1.27-0.81-2.14-0.81c-1,0-1.73,0.36-2.25,1.09
							l-9.85,12.26l-0.17-0.21l-9.74-12.04c-0.53-0.74-1.28-1.1-2.33-1.1c-0.83,0-1.51,0.26-2.07,0.81
							c-0.56,0.54-0.83,1.23-0.83,2.1c0,0.64,0.24,1.28,0.71,1.88l10.9,13.29l-0.12,0.14l-10.79,12.73
							c-0.42,0.55-0.64,1.16-0.64,1.8c0,0.91,0.25,1.65,0.74,2.18v0c0.49,0.54,1.16,0.8,2.03,0.8c1.05,0,1.87-0.42,2.53-1.3
							L1073.66,776.21z"/>
					</g>
				</g>
			</g>
			<g>
				<g>
					<g>
						<path class="st4" d="M1151.85,788.77c-0.54-0.58-0.8-1.36-0.8-2.33c0-0.7,0.23-1.35,0.7-1.95l10.79-12.73l-10.79-13.15
							c-0.51-0.65-0.76-1.32-0.76-2.02c0-0.93,0.3-1.68,0.9-2.26c0.6-0.58,1.34-0.87,2.23-0.87c1.11,0,1.95,0.39,2.5,1.18
							l9.74,12.04l9.67-12.04c0.56-0.79,1.37-1.18,2.44-1.18c0.93,0,1.69,0.29,2.3,0.87c0.6,0.58,0.9,1.29,0.9,2.12
							c0,0.7-0.23,1.35-0.7,1.95l-10.99,12.94l10.85,13.08c0.51,0.56,0.77,1.23,0.77,2.02c0,0.88-0.28,1.63-0.83,2.26
							c-0.56,0.63-1.35,0.94-2.36,0.94c-1.02,0-1.83-0.42-2.44-1.25l-9.88-11.83l-9.32,11.69c-0.7,0.93-1.6,1.39-2.71,1.39
							C1153.12,789.64,1152.38,789.35,1151.85,788.77z"/>
						<path class="st4" d="M1178.4,789.86c-1.09,0-1.97-0.45-2.62-1.34l-9.69-11.61l-9.15,11.47c-0.74,0.98-1.71,1.47-2.89,1.47
							c-0.99,0-1.78-0.32-2.36-0.94l0,0c-0.57-0.62-0.86-1.45-0.86-2.48c0-0.74,0.25-1.44,0.74-2.08l10.67-12.6l-10.67-13.01
							c-0.54-0.69-0.81-1.41-0.81-2.16c0-0.99,0.33-1.8,0.97-2.42c0.64-0.62,1.44-0.93,2.38-0.93c1.18,0,2.09,0.43,2.69,1.28
							l9.56,11.81l9.5-11.82c0.59-0.84,1.47-1.27,2.61-1.27c0.98,0,1.81,0.31,2.45,0.93c0.65,0.62,0.97,1.39,0.97,2.28
							c0,0.74-0.25,1.44-0.74,2.08l-10.88,12.81l10.73,12.94c0.54,0.59,0.82,1.32,0.82,2.16c0,0.93-0.3,1.74-0.89,2.41
							C1180.33,789.52,1179.48,789.86,1178.4,789.86z M1166.08,776.21l10.06,12.04c0.57,0.79,1.31,1.17,2.26,1.17
							c0.96,0,1.68-0.28,2.2-0.86c0.52-0.59,0.78-1.28,0.78-2.11c0-0.74-0.23-1.35-0.71-1.87l-10.98-13.23l0.12-0.14l10.99-12.94
							c0.42-0.55,0.64-1.16,0.64-1.8c0-0.78-0.27-1.42-0.83-1.96c-0.57-0.54-1.27-0.81-2.14-0.81c-1,0-1.73,0.36-2.25,1.09
							l-9.85,12.26l-0.17-0.21l-9.74-12.04c-0.53-0.74-1.29-1.1-2.33-1.1c-0.83,0-1.51,0.26-2.07,0.81
							c-0.56,0.54-0.83,1.23-0.83,2.1c0,0.64,0.24,1.28,0.71,1.88l10.9,13.29l-0.12,0.14l-10.79,12.73
							c-0.42,0.55-0.64,1.16-0.64,1.8c0,0.91,0.25,1.65,0.74,2.18v0c0.49,0.54,1.16,0.8,2.03,0.8c1.05,0,1.87-0.42,2.53-1.3
							L1166.08,776.21z"/>
					</g>
					<g>
						<path class="st4" d="M1190.46,788.77c-0.54-0.58-0.8-1.36-0.8-2.33c0-0.7,0.23-1.35,0.7-1.95l10.79-12.73l-10.79-13.15
							c-0.51-0.65-0.76-1.32-0.76-2.02c0-0.93,0.3-1.68,0.9-2.26c0.6-0.58,1.34-0.87,2.23-0.87c1.11,0,1.95,0.39,2.5,1.18
							l9.74,12.04l9.67-12.04c0.56-0.79,1.37-1.18,2.44-1.18c0.93,0,1.69,0.29,2.3,0.87c0.6,0.58,0.9,1.29,0.9,2.12
							c0,0.7-0.23,1.35-0.7,1.95l-10.99,12.94l10.85,13.08c0.51,0.56,0.77,1.23,0.77,2.02c0,0.88-0.28,1.63-0.83,2.26
							c-0.56,0.63-1.35,0.94-2.36,0.94c-1.02,0-1.83-0.42-2.44-1.25l-9.88-11.83l-9.32,11.69c-0.7,0.93-1.6,1.39-2.71,1.39
							C1191.73,789.64,1191,789.35,1190.46,788.77z"/>
						<path class="st4" d="M1217.01,789.86c-1.09,0-1.97-0.45-2.62-1.34l-9.69-11.61l-9.15,11.47c-0.74,0.98-1.71,1.47-2.89,1.47
							c-0.99,0-1.78-0.32-2.36-0.94l0,0c-0.57-0.62-0.86-1.45-0.86-2.48c0-0.74,0.25-1.44,0.74-2.08l10.67-12.6l-10.67-13.01
							c-0.54-0.69-0.81-1.41-0.81-2.16c0-0.99,0.33-1.8,0.97-2.42c0.64-0.62,1.44-0.93,2.38-0.93c1.18,0,2.09,0.43,2.69,1.28
							l9.56,11.81l9.49-11.82c0.59-0.84,1.47-1.27,2.61-1.27c0.98,0,1.81,0.31,2.45,0.93c0.65,0.62,0.97,1.39,0.97,2.28
							c0,0.74-0.25,1.44-0.74,2.08l-10.88,12.81l10.73,12.94c0.54,0.59,0.82,1.32,0.82,2.16c0,0.93-0.3,1.74-0.89,2.41
							C1218.94,789.52,1218.09,789.86,1217.01,789.86z M1204.69,776.21l10.06,12.04c0.57,0.79,1.31,1.17,2.26,1.17
							c0.96,0,1.68-0.28,2.2-0.86c0.52-0.59,0.78-1.28,0.78-2.11c0-0.74-0.23-1.35-0.71-1.87l-10.98-13.23l0.12-0.14l10.99-12.94
							c0.42-0.55,0.64-1.16,0.64-1.8c0-0.78-0.27-1.42-0.83-1.96c-0.57-0.54-1.27-0.81-2.14-0.81c-1,0-1.73,0.36-2.25,1.09
							l-9.85,12.26l-0.17-0.21l-9.74-12.04c-0.53-0.74-1.29-1.1-2.33-1.1c-0.83,0-1.51,0.26-2.07,0.81
							c-0.56,0.54-0.83,1.23-0.83,2.1c0,0.64,0.24,1.28,0.71,1.88l10.9,13.29l-0.12,0.14l-10.79,12.73
							c-0.42,0.55-0.64,1.16-0.64,1.8c0,0.91,0.25,1.65,0.74,2.18v0c0.49,0.54,1.16,0.8,2.03,0.8c1.05,0,1.87-0.42,2.53-1.3
							L1204.69,776.21z"/>
					</g>
					<g>
						<path class="st4" d="M1229.08,788.77c-0.54-0.58-0.8-1.36-0.8-2.33c0-0.7,0.23-1.35,0.7-1.95l10.79-12.73l-10.79-13.15
							c-0.51-0.65-0.76-1.32-0.76-2.02c0-0.93,0.3-1.68,0.9-2.26s1.34-0.87,2.23-0.87c1.11,0,1.95,0.39,2.5,1.18l9.74,12.04
							l9.67-12.04c0.56-0.79,1.37-1.18,2.44-1.18c0.93,0,1.69,0.29,2.3,0.87c0.6,0.58,0.9,1.29,0.9,2.12c0,0.7-0.23,1.35-0.7,1.95
							l-10.99,12.94l10.85,13.08c0.51,0.56,0.77,1.23,0.77,2.02c0,0.88-0.28,1.63-0.83,2.26c-0.56,0.63-1.35,0.94-2.36,0.94
							c-1.02,0-1.83-0.42-2.44-1.25l-9.88-11.83l-9.32,11.69c-0.7,0.93-1.6,1.39-2.71,1.39
							C1230.34,789.64,1229.61,789.35,1229.08,788.77z"/>
						<path class="st4" d="M1255.62,789.86c-1.09,0-1.97-0.45-2.62-1.34l-9.69-11.61l-9.15,11.47c-0.74,0.98-1.71,1.47-2.89,1.47
							c-0.99,0-1.78-0.32-2.36-0.94l0,0c-0.57-0.62-0.86-1.45-0.86-2.48c0-0.74,0.25-1.44,0.74-2.08l10.67-12.6l-10.67-13.01
							c-0.54-0.69-0.81-1.41-0.81-2.16c0-0.99,0.33-1.8,0.97-2.42c0.64-0.62,1.44-0.93,2.38-0.93c1.18,0,2.09,0.43,2.69,1.28
							l9.56,11.81l9.5-11.82c0.59-0.84,1.47-1.27,2.61-1.27c0.98,0,1.81,0.31,2.45,0.93c0.65,0.62,0.97,1.39,0.97,2.28
							c0,0.74-0.25,1.44-0.74,2.08l-10.88,12.81l10.73,12.94c0.54,0.59,0.82,1.32,0.82,2.16c0,0.93-0.3,1.74-0.89,2.41
							C1257.55,789.52,1256.7,789.86,1255.62,789.86z M1243.3,776.21l10.06,12.04c0.57,0.79,1.31,1.17,2.26,1.17
							c0.96,0,1.68-0.28,2.2-0.86c0.52-0.59,0.78-1.28,0.78-2.11c0-0.74-0.23-1.35-0.7-1.87l-10.98-13.23l0.12-0.14l10.99-12.94
							c0.42-0.55,0.64-1.16,0.64-1.8c0-0.78-0.27-1.42-0.83-1.96c-0.57-0.54-1.27-0.81-2.14-0.81c-1,0-1.73,0.36-2.25,1.09
							l-9.85,12.26l-0.17-0.21l-9.74-12.04c-0.53-0.74-1.29-1.1-2.33-1.1c-0.83,0-1.51,0.26-2.07,0.81
							c-0.56,0.54-0.83,1.23-0.83,2.1c0,0.64,0.24,1.28,0.71,1.88l10.9,13.29l-0.12,0.14l-10.79,12.73
							c-0.42,0.55-0.64,1.16-0.64,1.8c0,0.91,0.25,1.65,0.74,2.18v0c0.49,0.54,1.16,0.8,2.03,0.8c1.05,0,1.87-0.42,2.53-1.3
							L1243.3,776.21z"/>
					</g>
					<g>
						<path class="st4" d="M1267.69,788.77c-0.54-0.58-0.8-1.36-0.8-2.33c0-0.7,0.23-1.35,0.7-1.95l10.79-12.73l-10.79-13.15
							c-0.51-0.65-0.76-1.32-0.76-2.02c0-0.93,0.3-1.68,0.9-2.26s1.34-0.87,2.23-0.87c1.11,0,1.95,0.39,2.5,1.18l9.74,12.04
							l9.67-12.04c0.56-0.79,1.37-1.18,2.44-1.18c0.93,0,1.69,0.29,2.3,0.87c0.6,0.58,0.9,1.29,0.9,2.12c0,0.7-0.23,1.35-0.7,1.95
							l-10.99,12.94l10.85,13.08c0.51,0.56,0.77,1.23,0.77,2.02c0,0.88-0.28,1.63-0.83,2.26c-0.56,0.63-1.35,0.94-2.36,0.94
							c-1.02,0-1.83-0.42-2.44-1.25l-9.88-11.83l-9.32,11.69c-0.7,0.93-1.6,1.39-2.71,1.39
							C1268.95,789.64,1268.22,789.35,1267.69,788.77z"/>
						<path class="st4" d="M1294.23,789.86c-1.09,0-1.97-0.45-2.62-1.34l-9.69-11.61l-9.15,11.47c-0.74,0.98-1.71,1.47-2.89,1.47
							c-0.99,0-1.78-0.32-2.36-0.94l0,0c-0.57-0.62-0.86-1.45-0.86-2.48c0-0.74,0.25-1.44,0.74-2.08l10.67-12.6l-10.67-13.01
							c-0.54-0.69-0.81-1.41-0.81-2.16c0-0.99,0.33-1.8,0.97-2.42c0.64-0.62,1.44-0.93,2.38-0.93c1.18,0,2.09,0.43,2.69,1.28
							l9.56,11.81l9.5-11.82c0.59-0.84,1.47-1.27,2.61-1.27c0.98,0,1.81,0.31,2.45,0.93c0.65,0.62,0.97,1.39,0.97,2.28
							c0,0.74-0.25,1.44-0.74,2.08l-10.88,12.81l10.73,12.94c0.54,0.59,0.82,1.32,0.82,2.16c0,0.93-0.3,1.74-0.89,2.41
							C1296.16,789.52,1295.31,789.86,1294.23,789.86z M1281.91,776.21l10.06,12.04c0.57,0.79,1.31,1.17,2.26,1.17
							c0.96,0,1.68-0.28,2.2-0.86c0.52-0.59,0.78-1.28,0.78-2.11c0-0.74-0.23-1.35-0.7-1.87l-10.98-13.23l0.12-0.14l10.99-12.94
							c0.42-0.55,0.64-1.16,0.64-1.8c0-0.78-0.27-1.42-0.83-1.96c-0.57-0.54-1.27-0.81-2.14-0.81c-1,0-1.73,0.36-2.25,1.09
							l-9.85,12.26l-0.17-0.21l-9.74-12.04c-0.53-0.74-1.29-1.1-2.33-1.1c-0.83,0-1.51,0.26-2.07,0.81
							c-0.56,0.54-0.83,1.23-0.83,2.1c0,0.64,0.24,1.28,0.71,1.88l10.9,13.29l-0.12,0.14l-10.79,12.73
							c-0.42,0.55-0.64,1.16-0.64,1.8c0,0.91,0.25,1.65,0.74,2.18v0c0.49,0.54,1.16,0.8,2.03,0.8c1.05,0,1.87-0.42,2.53-1.3
							L1281.91,776.21z"/>
					</g>
				</g>
			</g>
		</g>
		<g>
			<g>
				<g>
					<g>
						<path class="st15" d="M1280.52,563.19l-131.57,0.03c-3.42,0-4.98-4.25-2.41-6.47l65.75-57.17c1.4-1.22,3.45-1.22,4.86,0
							l65.78,57.14C1285.5,558.97,1283.91,563.19,1280.52,563.19z"/>
					</g>
				</g>
				<g>
					<g>
						<path class="st16" d="M1257.98,552.14l-86.5,0.01c-2.24,0-3.28-2.78-1.59-4.25l43.24-37.6c0.91-0.79,2.27-0.79,3.18,0
							l43.26,37.59C1261.27,549.36,1260.23,552.14,1257.98,552.14z"/>
					</g>
				</g>
				<g>
					<g>
						<path class="st15" d="M1286.02,640.39v5.16c0,1.47-1.19,2.66-2.66,2.66h-137.25c-1.5,0-2.69-1.19-2.69-2.66v-5.16
							c0-1.5,1.19-2.69,2.69-2.69h137.25C1284.83,637.7,1286.02,638.89,1286.02,640.39z"/>
					</g>
				</g>
				<g>
					<g>
						<path class="st3" d="M1185.95,628.79v7.36c0,0.86-0.7,1.56-1.59,1.56h-27.09c-0.86,0-1.59-0.7-1.59-1.56v-7.36
							c0-0.89,0.73-1.59,1.59-1.59h27.09C1185.25,627.2,1185.95,627.9,1185.95,628.79z"/>
					</g>
				</g>
				<g>
					<g>
						<path class="st3" d="M1185.95,564.77v7.36c0,0.89-0.7,1.59-1.59,1.59h-27.09c-0.86,0-1.59-0.7-1.59-1.59v-7.36
							c0-0.86,0.73-1.56,1.59-1.56h27.09C1185.25,563.22,1185.95,563.92,1185.95,564.77z"/>
					</g>
				</g>
				<g>
					<g>
						<path class="st3" d="M1229.87,564.77v7.36c0,0.89-0.7,1.59-1.59,1.59h-27.09c-0.86,0-1.56-0.7-1.56-1.59v-7.36
							c0-0.86,0.7-1.56,1.56-1.56h27.09C1229.17,563.22,1229.87,563.92,1229.87,564.77z"/>
					</g>
				</g>
				<g>
					<g>
						<path class="st3" d="M1229.87,628.79v7.36c0,0.86-0.7,1.56-1.59,1.56h-27.09c-0.86,0-1.56-0.7-1.56-1.56v-7.36
							c0-0.89,0.7-1.59,1.56-1.59h27.09C1229.17,627.2,1229.87,627.9,1229.87,628.79z"/>
					</g>
				</g>
				<g>
					<g>
						<path class="st3" d="M1273.79,564.77v7.36c0,0.89-0.7,1.59-1.56,1.59h-27.09c-0.89,0-1.59-0.7-1.59-1.59v-7.36
							c0-0.86,0.7-1.56,1.59-1.56h27.09C1273.09,563.22,1273.79,563.92,1273.79,564.77z"/>
					</g>
				</g>
				<g>
					<g>
						<path class="st3" d="M1273.77,628.79v7.36c0,0.86-0.7,1.56-1.56,1.56h-27.09c-0.89,0-1.59-0.7-1.59-1.56v-7.36
							c0-0.89,0.7-1.59,1.59-1.59h27.09C1273.07,627.2,1273.77,627.9,1273.77,628.79z"/>
					</g>
				</g>
				<g>
					<g>
						<rect x="1204.81" y="573.72" class="st15" width="19.82" height="53.48"/>
					</g>
				</g>
				<g>
					<g>
						<rect x="1248.76" y="573.72" class="st15" width="19.82" height="53.48"/>
					</g>
				</g>
				<g>
					<g>
						<rect x="1160.9" y="573.72" class="st15" width="19.82" height="53.48"/>
					</g>
				</g>
			</g>
			<g>
				<g>
					<path class="st14" d="M1214.73,532.58c-1.78,0-3.22-1.45-3.22-3.22c0-1.76,1.43-3.2,3.19-3.22c0.01,0,0.02,0.01,0.03,0.01
						c0.01,0,0.02-0.01,0.04-0.01c1.76,0.02,3.19,1.45,3.19,3.22c0,0.43,0.35,0.78,0.78,0.78s0.78-0.35,0.78-0.78
						c0-2.37-1.74-4.34-4-4.72v-1.2c0-0.43-0.35-0.78-0.78-0.78s-0.78,0.35-0.78,0.78v1.2c-2.27,0.38-4,2.34-4,4.72
						c0,2.64,2.15,4.79,4.79,4.79c1.78,0,3.22,1.45,3.22,3.22c0,1.77-1.43,3.2-3.19,3.22c-0.01,0-0.02-0.01-0.04-0.01
						c-0.01,0-0.02,0.01-0.04,0.01c-1.76-0.02-3.19-1.46-3.19-3.22c0-0.43-0.35-0.78-0.78-0.78s-0.78,0.35-0.78,0.78
						c0,2.37,1.74,4.34,4,4.72v1.2c0,0.43,0.35,0.78,0.78,0.78s0.78-0.35,0.78-0.78v-1.2c2.27-0.37,4-2.34,4-4.72
						C1219.52,534.72,1217.37,532.58,1214.73,532.58z"/>
				</g>
			</g>
		</g>
	</g>
</g>
<g id="L_Thigh">
	<path class="st17" d="M1347.27,579.05l40.59,165.8c16.04,35.36,67.46,31.1,72.84-7.45l-5.25-167.09L1347.27,579.05"/>
</g>
<g id="L_Leg">
	<g>
		<path class="st18" d="M1484.84,939.64l8.54,39.13c1.34,6.16-1.44,15.2-6.96,18.26c-17.9,9.94-31.39,4.46-39.89-0.07
			c-6.58-3.51-10.17-10.84-9.06-18.22l7.19-36.91C1444.67,941.84,1460.87,968.05,1484.84,939.64z"/>
		<path class="st19" d="M1436.9,978.7c0-0.89,30.18,45.28,56.82,0c0,0,7.1,36.4-29.74,35.27
			C1463.98,1013.97,1436.9,1012.43,1436.9,978.7z"/>
		<line class="st20" x1="1455.54" y1="970.71" x2="1475.96" y2="970.71"/>
		<line class="st20" x1="1455.54" y1="978.7" x2="1475.96" y2="978.7"/>
	</g>
	<g>
		<path class="st21" d="M1472.06,953.67c-0.35,0.13-0.7,0.25-1.05,0.37c-14.31,4.68-25.04-4.48-28.23-19.19l-2.63-20.31l37.16-9.42
			l5.07,27.43C1484.28,941.38,1480.51,950.49,1472.06,953.67z"/>
		<path class="st17" d="M1383.37,726.5l48.29,200.45l57.84-7.46l-28.79-192.81c0,0-6.41-27.85-37.47-31.09
			S1383.37,726.5,1383.37,726.5"/>
	</g>
</g>
<g id="R_Thigh">
	<g>
		<path class="st17" d="M1417.6,595.84l53,162.26c18.67,34.04,69.61,25.92,72.07-12.93l-21.4-165.33L1417.6,595.84"/>
		<line class="st22" x1="1419.59" y1="602.74" x2="1470.64" y2="758.54"/>
	</g>
</g>
<g id="R_Finger">
	<g>
		<path class="st21" d="M1536.07,571.29c1.6,5.52,3.19,11.03,4.79,16.55c0.6,2.09,1.21,4.2,1.29,6.37c0.09,2.51-0.53,4.98-1.17,7.4
			c-1.89,7.14-3.98,14.23-6.28,21.25c-1.45,4.41-3.62,9.42-8.12,10.54c-0.59,0.15-1.22,0.21-1.8,0.02
			c-1.53-0.53-1.87-2.51-1.95-4.13c-0.26-5.35-0.52-10.7-0.78-16.05c-0.11-2.24-0.58-4.99-2.71-5.68c-3.29-1.07-5.95,4.06-9.36,3.52
			c-1.74-0.28-2.92-2.05-3.11-3.8c-0.19-1.75,0.38-3.48,0.94-5.15c1.95-5.79,3.9-11.58,5.85-17.37c1.28-3.8,2.6-7.67,5.04-10.84
			s6.26-5.58,10.25-5.26c3.99,0.32,7.72,4.07,7.06,8.02"/>
	</g>
</g>
<g id="R_Hand">
	<path class="st21" d="M1521.24,461.14l15.98,118.07c-4.73,8.71-11.06,13.36-23.08,3.55l-22.23-102.71c0,0-8.84-18.91,0.92-26.9
		c9.77-7.99,25.09,0.06,25.09,0.06"/>
</g>
<g id="R_Arm">
	<g>
		<path class="st21" d="M1503.48,418.53l15.8,38.38c2.54,6.17,2.34,13.22-0.92,19.04c-2.25,4.02-5.52,6.85-10.25,7.95
			c-8.26,1.92-16.69-2.6-20.16-10.35l-19.09-42.59L1503.48,418.53z"/>
		<path class="st23" d="M1447.55,414.09l23.08,51.49l54.15-22.62l-31.43-59.25c-7.78-20.62-33.31-28.33-50.82-14.95
			c-0.41,0.31-0.82,0.64-1.23,0.97c-0.77,0.63-2.35,1.53-2.59,2.5C1438.68,372.37,1433.83,396.25,1447.55,414.09z"/>
	</g>
</g>
<g id="Layer_2">
	<path class="st24" d="M1412.93,262.76c0,0-4.44,27.52-9.77,28.41c-5.33,0.89,0-26.63,0-26.63L1412.93,262.76z"/>
</g>
<g id="L_Arm">
	<path class="st23" d="M1319.72,363.49l-69.4,36.44l32.88,56.39l83.31-28.77c0,0,6.69-19.69-7.49-45.14
		C1344.84,356.96,1319.72,363.49,1319.72,363.49z"/>
	<g>
		<g>
			<path class="st18" d="M1327.47,405.61c0.29-3.1,0.57-6.21,0.86-9.31c-0.33,0.04-0.65,0.09-0.98,0.13
				c1.71,5.02,1.64,10.5-0.18,15.48c-0.16,0.44,0.38,0.75,0.73,0.56c2.49-1.26,4.49-3.38,5.59-5.95c0.25-0.59-0.61-1.1-0.86-0.5
				c-1.04,2.43-2.87,4.4-5.23,5.59c0.24,0.19,0.49,0.38,0.73,0.56c1.88-5.13,1.94-10.84,0.18-16.02c-0.19-0.55-0.93-0.43-0.98,0.13
				c-0.29,3.1-0.57,6.21-0.86,9.31C1326.41,406.25,1327.41,406.25,1327.47,405.61L1327.47,405.61z"/>
		</g>
	</g>
</g>
<g id="Neck">
	<g>
		<path class="st21" d="M1394.82,338.54l5.28,16.49c2.32,4.75-1.95,9.79-5.42,13.78c-4.14,4.75-9.39,6.32-14.9,7.48
			c-8.28,1.74-17.55-0.82-21.26-8.43l-7.54-23.33l-5.07-15.81l40.99,2.32L1394.82,338.54z"/>
		<path class="st25" d="M1396.95,346.63c-4.44,8.88-34.78,8.58-35.12-3.05c12.86,4.63,32.98-5.03,32.98-5.03L1396.95,346.63z"/>
	</g>
</g>
<g id="Body">
	<g>
		<path class="st23" d="M1322.38,363.49l87.24-10.2c46.81,4.87,5.09-0.45,31.72,3.1c10.12,1.35,24.48,4.72,29.3,8.88l16.87,85.22
			l35.51,136.71c0,0-125.9,31.54-176.9,9.48l-8.32-114.3l-36.44-87.55L1322.38,363.49z"/>
		<path class="st21" d="M1354.42,359.31c0,14,49.64,49.55,48.75-5.58l-42.5,4.82"/>
		<g>
			<path class="st4" d="M1353.07,359.97c1.22,5.15,3.82,10.02,7.02,14.21c3.36,4.4,7.49,8.41,12.46,10.95
				c2.36,1.2,4.84,2.03,7.47,2.36c3.22,0.4,6.68,0.13,9.76-0.9c5.49-1.84,9.96-6.08,12.63-11.16c3.54-6.73,3.91-14.52,2.87-21.92
				c-0.13-0.92-1.35-1.51-2.18-1.24c-1.01,0.33-1.38,1.19-1.24,2.18c0.06,0.45,0.18,1.41,0.24,2.11c0.07,0.8,0.12,1.6,0.15,2.4
				c0.05,1.53,0.03,3.07-0.1,4.59c-0.07,0.82-0.14,1.44-0.25,2.1c-0.13,0.78-0.28,1.56-0.47,2.34c-0.17,0.71-0.37,1.41-0.59,2.1
				c-0.12,0.38-0.25,0.75-0.39,1.13c-0.07,0.19-0.14,0.37-0.22,0.56c0,0-0.24,0.56-0.09,0.22c-0.53,1.22-1.16,2.4-1.88,3.52
				c-0.33,0.51-0.68,1.02-1.05,1.5c0.22-0.28-0.12,0.15-0.13,0.16c-0.1,0.13-0.21,0.26-0.32,0.38c-0.21,0.25-0.44,0.5-0.66,0.75
				c-0.45,0.49-0.92,0.95-1.42,1.4c-0.2,0.18-0.41,0.36-0.63,0.54c-0.13,0.11-0.26,0.21-0.38,0.31c0.27-0.21-0.25,0.18-0.3,0.22
				c-1.02,0.74-2.11,1.38-3.26,1.91c-0.03,0.01-0.53,0.23-0.18,0.08c-0.15,0.06-0.31,0.12-0.46,0.18c-0.31,0.12-0.62,0.23-0.94,0.32
				c-0.78,0.24-1.58,0.43-2.38,0.57c-0.65,0.11-1.22,0.17-2,0.21c-0.83,0.05-1.67,0.05-2.5,0.01c-0.35-0.01-0.7-0.03-1.05-0.07
				c-0.14-0.01-0.28-0.03-0.42-0.04c-0.48-0.05,0.38,0.07-0.09-0.01c-0.57-0.1-1.13-0.2-1.7-0.35c-0.52-0.13-1.04-0.29-1.54-0.46
				c-0.28-0.1-0.56-0.2-0.84-0.31c-0.14-0.05-0.28-0.11-0.42-0.17c0.29,0.12-0.01-0.01-0.13-0.06c-1.13-0.51-2.21-1.1-3.26-1.76
				c-1.09-0.69-1.99-1.35-2.76-1.97c-2.02-1.64-3.85-3.51-5.51-5.51c-0.25-0.3-0.49-0.61-0.73-0.92c0.22,0.28-0.12-0.16-0.13-0.17
				c-0.1-0.13-0.2-0.27-0.3-0.4c-0.46-0.63-0.91-1.26-1.34-1.91c-0.78-1.19-1.51-2.41-2.16-3.67c-0.32-0.61-0.62-1.23-0.91-1.86
				c-0.07-0.14-0.13-0.29-0.19-0.43c-0.03-0.06-0.28-0.67-0.13-0.29c-0.12-0.29-0.23-0.57-0.34-0.86c-0.48-1.24-0.88-2.51-1.18-3.8
				c-0.21-0.9-1.29-1.53-2.18-1.24C1353.37,358.09,1352.84,359,1353.07,359.97L1353.07,359.97z"/>
		</g>
	</g>
</g>
<g id="L_Hand">
	<path class="st21" d="M1272.28,402.59c-11.57-3.09-23.81,2.07-29.58,12.56c-3.44,6.26-6.34,13.06-6.4,18.25
		c-0.14,12.9,22.08,23.09,22.08,23.09l122.46-14.28c5.23-6.17-1.71-23.5-1.71-23.5l-96.55-13.38L1272.28,402.59z"/>
</g>
<g id="L_Finger">
	<g>
		<path class="st25" d="M1384.11,455.6l-11.78,36.56c0,0,7.85,2.02,13.03-8.36l8.35-12.91L1384.11,455.6z"/>
		<path class="st21" d="M1379.35,418.4c0,0-21.95,15.78,1.87,25.69c0,0,1.02,21.57,7.22,32.93l7.73,17.69l-4.7,23.97
			c0,0,15.21,17.15,23.62-29.64l-2.75-37.73c-0.52-7.17-3.44-13.99-8.4-19.19C1398.35,426.29,1389.94,419.78,1379.35,418.4z"/>
	</g>
</g>
<g id="Layer_1">
	<g>
		<path class="st21" d="M1364.34,345.94c5.82,1.08,10.86,1.05,15.28,0.99c22.66-0.31,26.86-29.67,26.08-45.56
			c-0.43-8.62,2.29-27.99,2.29-27.99l-16.47-18.75l-52.13,7.58l2.34,53.29C1342.34,329.32,1351.29,341.37,1364.34,345.94
			L1364.34,345.94z"/>
		<path class="st24" d="M1372.94,266.39l-15.04,8.59c-5.68,3.25-9.58,8.96-10.36,15.46c-0.02,0.16-0.04,0.31-0.05,0.46l-1.96,19.76
			l-5.33,0.25l-7.04-34.82c-1.35-6.65-0.87-13.58,1.63-19.89c3.84-9.7,12.95-20.14,34.56-16.03c29.16,5.55,9.67,20.53,5.37,24.69
			C1374.16,265.41,1373.56,265.91,1372.94,266.39z"/>
		<g>
			
				<ellipse transform="matrix(0.1865 -0.9825 0.9825 0.1865 789.0596 1565.822)" class="st21" cx="1340" cy="306.46" rx="7.8" ry="7.8"/>
			<line class="st26" x1="1341.51" y1="311.68" x2="1336.45" y2="302.71"/>
			<line class="st26" x1="1342.52" y1="303.55" x2="1339.4" y2="307.12"/>
		</g>
	</g>
	<path class="st27" d="M1382.2,307.44c0,0-0.08,5.75,4,5.79c4.09,0.03,2.38,5.21-0.53,5.94"/>
	<path d="M1365.58,296.98l7.71-1.65c0.48-0.1,0.78-0.57,0.68-1.05l-0.25-1.19c-0.1-0.48-0.57-0.78-1.05-0.68l-7.71,1.65
		c-0.48,0.1-0.78,0.57-0.68,1.05l0.25,1.19C1364.63,296.78,1365.1,297.08,1365.58,296.98z"/>
	<path d="M1390.26,291.11l6.5,3.41c0.57,0.3,1.27,0.08,1.57-0.49l0.31-0.59c0.3-0.57,0.08-1.27-0.49-1.56l-6.5-3.41
		c-0.57-0.3-1.27-0.08-1.56,0.49l-0.31,0.59C1389.48,290.11,1389.7,290.81,1390.26,291.11z"/>
	<g>
		<path class="st24" d="M1335.51,267c7.06-17.42,22.36-28.2,39.86-35.05c-1.78,4.89-5.13,9.2-9.44,12.12
			c11.51-7.89,25.4-12.24,39.36-12.33c1.14-0.01,2.42,0.07,3.18,0.92c1.29,1.44,0.09,3.7-1.21,5.14c-4.5,5.01-10.19,8.94-16.46,11.4
			c5.09-3.16,10.85-5.25,16.78-6.09c3.71-0.52,7.59-0.55,11.07,0.81s6.52,4.3,7.2,7.98c1.26,6.84-5.45,12.37-11.68,15.46
			c-13.89,6.9-29.54,10.21-45.03,9.54c-6-0.26-12.14-1.16-17.4-4.06c-5.26-2.9-10.11-10.46-10.56-16.45"/>
	</g>
	<circle class="st28" cx="1368.4" cy="303.87" r="10.51"/>
	<circle class="st28" cx="1396.81" cy="303.87" r="10.51"/>
	<line class="st28" x1="1336.45" y1="294.7" x2="1357.45" y2="303.57"/>
	<g>
		<g>
			<path class="st18" d="M1485,428.05c0.24,10.13,1.5,20.23,3.75,30.11c0.14,0.63,1.11,0.36,0.96-0.27
				c-2.23-9.8-3.47-19.8-3.71-29.85C1485.99,427.41,1484.99,427.41,1485,428.05L1485,428.05z"/>
		</g>
	</g>
</g>
<g id="R_Leg">
	<g>
		<path class="st21" d="M1371.79,934.57c-0.34-0.15-0.68-0.31-1.01-0.47c-13.51-6.64-14.79-20.69-6.8-33.45l12.3-16.37l33.17,19.21
			l-15.54,23.17C1389.12,934.32,1380.06,938.2,1371.79,934.57z"/>
		<g>
			<g>
				<path class="st17" d="M1466.2,739.01l-96.15,148.41l45.13,36.94l120.44-153.29c0,0,15.85-23.78-3.12-48.58
					s-49.84-7.78-49.84-7.78"/>
				<line class="st22" x1="1370.32" y1="887.26" x2="1466.64" y2="739.45"/>
			</g>
			<line class="st22" x1="1480.13" y1="841.69" x2="1425.87" y2="910.75"/>
		</g>
	</g>
</g>
<g id="R_Shoes">
	<g>
		<g>
			<path class="st29" d="M1403.4,959.81c0,0,9.08-17.04,13.48-12.46S1412.68,960.42,1403.4,959.81"/>
			<path class="st29" d="M1403.64,962.5c0,0,18.2-3.99,18.78,2.28C1422.99,971.06,1410.67,969.95,1403.64,962.5"/>
			<g>
				<path class="st18" d="M1357.49,906.09l-20.59,21.62l-6.82,10l69.1,72.53l8.53-9.22c0,0-2.65-32.01-13.44-49.57l7.25-3.24
					l-7.66-15.67l-9.98,6.58C1383.87,939.12,1365.51,900.14,1357.49,906.09z"/>
				<path class="st19" d="M1399.32,1011.82l7.44-8.05c1.02-1.1,0.9-3.02-0.27-4.23l-70.44-72.97l-8.47,9.9"/>
			</g>
			<line class="st30" x1="1402.37" y1="959.99" x2="1394.38" y2="955.64"/>
			<line class="st30" x1="1405.22" y1="965.59" x2="1396.85" y2="962.61"/>
		</g>
		<g>
			<g>
				<path class="st19" d="M1399.19,972.47c-4.69-1.78-10.14-0.2-12.93,4.01c-0.49,0.74,0.7,1.42,1.18,0.69
					c2.47-3.73,7.29-4.94,11.38-3.38C1399.65,974.1,1400.01,972.78,1399.19,972.47L1399.19,972.47z"/>
			</g>
		</g>
		<g>
			<g>
				<path class="st19" d="M1357.97,924.12c-3.76,0.08-6.59,3.34-6.81,6.99c-0.23,3.76,2.31,7.67,5.78,9.07
					c3.48,1.41,7.52-0.39,8.95-3.82c1.41-3.36,0.1-7.64-2.58-9.99c-3.08-2.69-8.21-2.43-10.3,1.36c-0.42,0.77,0.76,1.46,1.18,0.69
					c1.48-2.68,5.01-3.19,7.48-1.59c2.45,1.59,3.88,4.99,3.31,7.85c-0.58,2.96-3.51,5.14-6.53,4.53c-3.1-0.63-5.46-3.72-5.87-6.76
					c-0.45-3.32,1.86-6.88,5.4-6.96C1358.85,925.47,1358.86,924.1,1357.97,924.12L1357.97,924.12z"/>
			</g>
		</g>
		<g>
			<g>
				<path class="st19" d="M1394.41,955.43c-2.99-1.72-5.98-3.45-8.97-5.17c-0.61-0.35-1.26,0.34-0.94,0.94
					c3.17,5.91,8.34,10.77,14.62,13.2c0.06-0.45,0.12-0.9,0.18-1.35c-4.13,0.26-8.25,0.51-12.38,0.77
					c-0.71,0.04-0.89,0.87-0.35,1.28c4.99,3.71,9.99,7.43,14.98,11.14c0.71,0.53,1.39-0.66,0.69-1.18
					c-4.99-3.71-9.99-7.43-14.98-11.14c-0.12,0.43-0.23,0.85-0.35,1.28c4.13-0.26,8.25-0.51,12.38-0.77c0.8-0.05,0.9-1.07,0.18-1.35
					c-5.94-2.3-10.81-7-13.8-12.57c-0.31,0.31-0.62,0.62-0.94,0.94c2.99,1.72,5.98,3.45,8.97,5.17
					C1394.48,957.05,1395.17,955.87,1394.41,955.43L1394.41,955.43z"/>
			</g>
		</g>
	</g>
</g>
<g id="R_Eyes">
	<circle class="st31" cx="1392.35" cy="299.61" r="2.23"/>
</g>
<g id="L_Eyes">
	<circle class="st31" cx="1371.77" cy="300.99" r="2.23"/>
</g>
<g id="Mouth">
	<path class="st26" d="M1383.99,328.37c0,0-12.55,0.29-16.63-8.98"/>
	<line class="st26" x1="1364.99" y1="321.77" x2="1368.55" y2="318.22"/>
</g>
<g id="Line_1_">
	<g>
		<polygon class="st18" points="310.35,999.58 476.25,999.19 642.14,999.1 973.94,999.42 1305.73,1000.43 1471.63,1001.18 
			1637.53,1002.25 1471.63,1002.65 1305.73,1002.74 973.93,1002.41 642.14,1001.4 476.24,1000.65 		"/>
	</g>
</g>
</svg>
