<?xml version="1.0" encoding="utf-8"?>
<svg version="1.1" xmlns="http://www.w3.org/2000/svg" xmlns:xlink="http://www.w3.org/1999/xlink" x="0px" y="0px"
	 viewBox="0 0 1920 1080" style="enable-background:new 0 0 1920 1080;" xml:space="preserve">
<style type="text/css">
	.st0{fill:#E5E7EB;}
	.st1{fill:#8B8BF2;}
	.st2{fill:#111926;}
	.st3{clip-path:url(#SVGID_3_);}
	.st4{fill:#FFFFFF;}
	.st5{opacity:0.26;fill:#111926;}
	.st6{opacity:0.3;}
	.st7{font-family:'MyriadPro-Regular';}
	.st8{font-size:43.653px;}
	.st9{fill:#FF735D;}
	.st10{fill:#6B6BCE;}
	.st11{fill:#1A2E35;}
	.st12{fill:#F5F5F5;}
	.st13{fill:#F99E82;}
	.st14{fill:none;stroke:#000000;stroke-miterlimit:10;}
	.st15{fill:#FFFFFF;stroke:#000000;stroke-miterlimit:10;}
	.st16{fill:none;stroke:#000000;stroke-width:2;stroke-miterlimit:10;}
	.st17{opacity:0.12;fill:#FFFFFF;}
	.st18{fill:none;stroke:#232323;stroke-width:0.5;stroke-miterlimit:10;}
	.st19{fill:#203049;}
	.st20{fill:none;stroke:#FFFFFF;stroke-miterlimit:10;}
	.st21{fill:none;stroke:#648DC8;stroke-miterlimit:10;}
	.st22{clip-path:url(#SVGID_5_);}
	.st23{clip-path:url(#SVGID_7_);}
	.st24{clip-path:url(#SVGID_9_);fill:none;stroke:#AF403A;stroke-miterlimit:10;}
	.st25{clip-path:url(#SVGID_11_);fill:none;stroke:#AF403A;stroke-miterlimit:10;}
	.st26{clip-path:url(#SVGID_13_);fill:none;stroke:#AF403A;stroke-miterlimit:10;}
	.st27{clip-path:url(#SVGID_15_);fill:none;stroke:#AF403A;stroke-miterlimit:10;}
	.st28{clip-path:url(#SVGID_17_);}
	.st29{clip-path:url(#SVGID_19_);fill:none;stroke:#AF403A;stroke-miterlimit:10;}
	.st30{clip-path:url(#SVGID_21_);fill:none;stroke:#AF403A;stroke-miterlimit:10;}
</style>
<g id="Bg">
	<path class="st0" d="M468.3,568.9c-20.4-53.1-36.4-110.2-27.3-166.3c9-56.1,49.1-110.6,105.1-120.4c47-8.2,94.6,15.3,142.2,11
		c70.5-6.4,119.5-69.4,172.7-116.1c61.3-53.9,137.8-90.3,218.2-104c30.8-5.2,62.7-7.2,93.1-0.2c21.6,5,41.9,14.3,61.6,24.4
		c47.1,24.3,94,56.9,113.9,106.1c19.7,48.8,8.6,104.9-12.8,153c-10.9,24.5-24.4,53.5-10.7,76.5c4.1,6.9,10.4,12.3,16.5,17.6
		c29,25,57.9,50,86.9,75c23.4,20.2,47.1,40.7,64.8,66c29.4,42.2,40.1,97,28.7,147.2c-11.4,50.2-44.8,94.9-89.6,120.2
		c-45.3,25.6-99.1,31-151.2,31.6c-44,0.5-88.2-2.1-131.3-11.2c-51.8-11-101.4-31.3-153.3-41.7c-60.8-12.2-124.3-10.2-184.3,5.1
		c-26.6,6.8-60.7,30.5-86.7,32.8c-23.2,2-46.1-18.5-65-32.6C569.2,774.8,508.4,673.3,468.3,568.9z"/>
</g>
<g id="Plant">
	<g>
		<g>
			<g>
				<path class="st1" d="M725.3,750.1c-14.3,7.4-24.2,5.2-27.9-2c-3.7-7.2,0.1-16.5,14.4-24c14.3-7.4,33.7-10.1,37.4-3
					C753,728.3,739.6,742.7,725.3,750.1z"/>
				<g>
					<g>
						<path class="st2" d="M590.9,892.3c4.5-12.5,9.9-24.8,16-36.6c6.1-11.8,13-23.1,20.6-34c7.5-10.8,15.8-21.2,24.6-31
							c8.9-9.9,18.5-19.2,28.7-27.9c10.1-8.6,20.7-16.6,31.9-23.8c1.4-0.9,2.9-1.9,4.3-2.8c0.8-0.5-0.1-1.4-0.8-0.9
							c-11.3,7-22.1,14.8-32.4,23.3c-10.3,8.5-20,17.6-29.1,27.3c-9.2,9.8-17.7,20.1-25.5,31c-7.8,10.9-14.9,22.2-21.3,34
							c-6.3,11.7-11.9,23.8-16.6,36.3c-0.6,1.6-1.2,3.2-1.8,4.8C589.2,892.8,590.6,893,590.9,892.3L590.9,892.3z"/>
					</g>
				</g>
			</g>
			<g>
				<path class="st1" d="M647.6,862.7c-18.4-4.5-25.4-14.1-23.1-23.3c2.2-9.2,12.9-14.5,31.2-10c18.4,4.5,37.6,17,35.3,26.2
					C688.8,864.8,666,867.2,647.6,862.7z"/>
				<g>
					<g>
						<path class="st2" d="M616.9,837.8c15.8,2.4,31.3,6.2,46.4,11.4c0.9,0.3,1.2-0.8,0.3-1.1c-15.2-5.2-30.9-9-46.7-11.4
							C615.8,836.5,616,837.7,616.9,837.8L616.9,837.8z"/>
					</g>
				</g>
			</g>
			<g>
				<path class="st1" d="M652.3,753.9c3.4,17.4-2.1,27.1-10.8,28.8c-8.7,1.7-17.4-5.3-20.8-22.7c-3.4-17.4-0.2-38.6,8.5-40.3
					C638,718.1,648.9,736.6,652.3,753.9z"/>
				<g>
					<g>
						<path class="st2" d="M645.4,797.3c1.8-16.6-2.7-32.9-7.1-48.8c-0.2-0.8-1.4,0.1-1.2,0.8c4.4,15.6,8.8,31.7,7.1,48.1
							C644,798.3,645.3,798,645.4,797.3L645.4,797.3z"/>
					</g>
				</g>
			</g>
			<g>
				<path class="st1" d="M676.5,825.9c-17.4-3.1-24.5-11.6-23-20.4c1.5-8.7,11.1-14.3,28.6-11.3c17.4,3.1,36.1,13.7,34.6,22.4
					C715.2,825.4,694,829,676.5,825.9z"/>
				<g>
					<g>
						<path class="st2" d="M641.4,803.8c17.2,0.1,34.2,2.9,50.5,8.3c0.7,0.2,1-1.2,0.3-1.5c-16.4-5.4-33.6-8.2-50.8-8.3
							C640.7,802.4,640.6,803.8,641.4,803.8L641.4,803.8z"/>
					</g>
				</g>
			</g>
			<g>
				<path class="st1" d="M689.3,731.8c-0.8,16.1-7.7,23.5-15.8,23.1c-8.1-0.4-14.2-8.4-13.5-24.6c0.8-16.1,8.2-34.2,16.3-33.8
					C684.4,696.9,690.1,715.6,689.3,731.8z"/>
				<g>
					<g>
						<path class="st2" d="M674.3,767.7c2.7-15.2,3.6-30.6,2.9-46c0-1-1.2-0.5-1.2,0.3c0.7,15.3-0.3,30.6-2.9,45.6
							C673,768.6,674.1,768.5,674.3,767.7L674.3,767.7z"/>
					</g>
				</g>
			</g>
			<g>
				<path class="st1" d="M703.6,790.7c-16.1-1-23.4-8-22.9-16.1c0.5-8.1,8.6-14.1,24.7-13.1c16.1,1,34.1,8.7,33.6,16.7
					C738.5,786.3,719.7,791.7,703.6,790.7z"/>
				<g>
					<g>
						<path class="st2" d="M663.5,778.6c16.4-2.9,33.3-3.5,49.9-1.7c4.7,0.5,9.4,1.2,14,2.1c0.9,0.2,1-0.9,0.1-1.1
							c-16.4-3.2-33.3-4-50-2.4c-4.8,0.5-9.6,1.1-14.3,2C662.3,777.7,662.7,778.8,663.5,778.6L663.5,778.6z"/>
					</g>
				</g>
			</g>
			<g>
				<path class="st1" d="M621.9,787.4c5.2,18.2,0.3,29-8.8,31.6c-9.1,2.6-19-4-24.2-22.2c-5.2-18.2-3.8-41.1,5.3-43.7
					C603.3,750.6,616.7,769.3,621.9,787.4z"/>
				<g>
					<g>
						<path class="st2" d="M603.5,783.9c6.5,16.5,10.6,33.9,12.3,51.6c0.1,0.7,1.5,0.9,1.5,0.1c-1.7-17.8-5.8-35.3-12.4-51.9
							C604.6,783.1,603.2,783.1,603.5,783.9L603.5,783.9z"/>
					</g>
				</g>
			</g>
		</g>
		<g>
			<g>
				<path class="st1" d="M585.3,757.2c-0.3,1-0.6,2.1-0.9,3.1c-5.4,16.1-14.4,22.1-22.5,20c-0.3-0.1-0.7-0.2-1-0.3
					c-8.4-2.8-12.5-13.1-6.9-29.9c5.6-16.8,18.8-33.7,27.2-30.9C589.1,721.8,589.9,740.9,585.3,757.2z"/>
				<g>
					<g>
						<path class="st2" d="M556.3,802.9c3.3-17.5,6.6-35.3,14.3-51.5c0.3-0.6-0.6-1.8-1-0.9c-7.7,16.3-11.1,34.2-14.4,51.8
							C555,803,556.1,803.8,556.3,802.9L556.3,802.9z"/>
					</g>
				</g>
			</g>
			<g>
				<path class="st1" d="M505.3,700.3c10.4,12.3,10.4,22.5,4.2,27.7c-6.2,5.2-16.2,3.5-26.6-8.8c-10.4-12.3-17.3-30.7-11.1-35.9
					C478,678,494.9,687.9,505.3,700.3z"/>
				<g>
					<g>
						<path class="st2" d="M578.3,880.2c-3.6-24.4-10.1-48.3-19.4-71.1c-9.2-22.6-21-44.2-35.3-64c-8-11.2-16.8-21.9-26.3-31.9
							c-0.7-0.7-1.3,0.4-0.7,1c16.7,17.7,31.3,37.4,43.4,58.6c12.1,21.2,21.6,43.8,28.4,67.2c3.8,13.2,6.7,26.6,8.7,40.2
							C577.2,881,578.4,881.2,578.3,880.2L578.3,880.2z"/>
					</g>
				</g>
			</g>
			<g>
				<path class="st1" d="M549.5,712.6c-2.5,15.9-10.2,22.6-18.2,21.3c-8-1.3-13.2-9.9-10.7-25.9c2.5-15.9,11.9-33.1,19.9-31.9
					C548.5,677.4,552,696.6,549.5,712.6z"/>
				<g>
					<g>
						<path class="st2" d="M530.8,754.3c-2.3-19.3-0.2-39,6.3-57.4c0.3-0.7-0.7-1.7-1-0.7c-5.1,14.6-7.6,30-7.3,45.4
							c0.1,4.4,0.4,8.8,0.9,13.1C529.8,755.7,530.9,755.2,530.8,754.3L530.8,754.3z"/>
					</g>
				</g>
			</g>
			<g>
				<path class="st1" d="M502.6,773.4c17.7-0.3,26.3,6.8,26.4,15.7c0.1,8.9-8.3,16.2-26,16.4c-17.7,0.3-38-6.6-38.2-15.5
					C464.7,781.2,484.9,773.7,502.6,773.4z"/>
				<g>
					<g>
						<path class="st2" d="M494.6,787.7c9.6-1.6,19.4-2.1,29-0.4c7.2,1.3,14.1,4,20.5,7.5c3.4,1.9,6.7,3.9,10,6
							c0.7,0.4,1.7-0.3,0.9-0.9c-6-3.8-12.1-7.6-18.8-10.2c-7.6-3-15.6-4.5-23.8-4.7c-6.1-0.1-12.1,0.5-18.1,1.5
							C493.4,786.7,493.8,787.8,494.6,787.7L494.6,787.7z"/>
					</g>
				</g>
			</g>
			<g>
				<path class="st1" d="M519.7,819.3c18.8-1.7,28.6,5.1,29.4,14.6c0.9,9.4-7.5,17.9-26.3,19.6c-18.8,1.7-41-4-41.9-13.4
					C480,830.6,500.9,821,519.7,819.3z"/>
				<g>
					<g>
						<path class="st2" d="M515.4,834.9c9.1-0.5,18.4-0.3,27.3,1.8c4.1,1,8,2.3,11.6,4.3c3.5,2,6.8,4.5,9.7,7.3
							c3.2,3.1,6,6.5,8.5,10.2c0.4,0.6,1.7-0.2,1.2-0.8c-4.5-6.7-10.3-12.8-17.3-17c-7.4-4.5-16.2-6.2-24.7-6.9
							c-5.3-0.4-10.7-0.4-16.1-0.1C515,833.8,514.4,835,515.4,834.9L515.4,834.9z"/>
					</g>
				</g>
			</g>
			<g>
				<path class="st1" d="M488.4,734.4c16.1,0.7,23.6,7.6,23.2,15.7c-0.4,8.1-8.4,14.3-24.5,13.5c-16.1-0.7-34.2-8.1-33.9-16.2
					C453.5,739.4,472.3,733.7,488.4,734.4z"/>
				<g>
					<g>
						<path class="st2" d="M479.5,747.9c16.5-1.3,33.5,4.5,47.4,13.1c3.8,2.4,7.5,5.1,10.8,8.1c0.6,0.5,1.5-0.6,1-1.1
							c-12.4-11-28.6-18.5-45-20.9c-4.6-0.7-9.2-0.9-13.8-0.5C479.2,746.6,478.6,747.9,479.5,747.9L479.5,747.9z"/>
					</g>
				</g>
			</g>
		</g>
		<g>
			<path class="st2" d="M659.7,871.4H523.8c-20.4,21.2-33.2,50.1-33.2,76.7c0,33.4,20.1,54.8,50.1,65.4h102.1
				c30-10.6,50.1-32,50.1-65.4C692.9,921.5,680.1,892.6,659.7,871.4z"/>
			<g>
				<defs>
					<path id="SVGID_1_" d="M659.7,871.4H523.8c-20.4,21.2-33.2,50.1-33.2,76.7c0,33.4,20.1,54.8,50.1,65.4h102.1
						c30-10.6,50.1-32,50.1-65.4C692.9,921.5,680.1,892.6,659.7,871.4z"/>
				</defs>
				<clipPath id="SVGID_3_">
					<use xlink:href="#SVGID_1_"  style="overflow:visible;"/>
				</clipPath>
				<g class="st3">
					<g>
						<g>
							<path class="st4" d="M488.3,930.7c7.1-11.2,21.1-14.2,33.5-12.9c15.6,1.7,29.2,11,42.7,18.3c7.5,4,15.2,7.4,23.4,9.6
								c8.2,2.2,16.8,3.2,25.3,3.3c17,0.1,33.7-3.7,49.3-10.2c15.3-6.4,29.4-15.3,42.5-25.5c1.6-1.3,3.2-2.6,4.8-3.9
								c1.4-1.2-1-2.6-2.1-1.6c-12.8,10.6-26.8,20-41.9,27c-15.4,7.1-32,11.6-49,12c-8.5,0.2-17.1-0.6-25.4-2.5
								c-8.3-1.9-16.1-5.2-23.6-9.1c-13.9-7.3-27.5-16.8-43.4-19.2c-12.5-1.9-26.9,0.2-35.8,9.9c-1,1.1-2,2.4-2.8,3.7
								C484.8,931,487.5,931.9,488.3,930.7L488.3,930.7z"/>
						</g>
					</g>
					<g>
						<g>
							<path class="st4" d="M471.3,960.1c14.6-12.9,34.4-19.3,53.8-17.8c19.7,1.6,36.6,12.3,52.8,22.6c8.2,5.2,16.4,10.3,25.2,14.3
								c8.9,4.1,18.3,6.7,28,7.4c20.3,1.4,40.9-5.4,57.1-17.6c15.6-11.7,27.4-28,35-45.9c0.9-2.2,1.8-4.5,2.6-6.8
								c0.2-0.7,0.2-1.6-0.4-2c-0.6-0.4-1.3-0.1-1.5,0.6c-6.6,18.4-17.5,35.4-32.4,48.1c-15.4,13.1-35.3,20.9-55.6,20.9
								c-10,0-19.7-2.2-29-6c-8.9-3.7-17.1-8.7-25.2-13.8c-16.1-10.1-32.4-21.1-51.5-24.1c-18.9-2.9-38.9,1.9-54.5,13.1
								c-1.9,1.4-3.8,2.9-5.6,4.5C469.1,958.4,470,961.2,471.3,960.1L471.3,960.1z"/>
						</g>
					</g>
				</g>
			</g>
		</g>
	</g>
</g>
<g id="Phone">
	<g>
		<g>
			<g>
				<path class="st2" d="M1135.5,1013.1H783.7c-29.1,0-52.9-23.8-52.9-52.9V169.7c0-29.1,23.8-52.9,52.9-52.9h351.8
					c29.1,0,52.9,23.8,52.9,52.9v790.4C1188.4,989.2,1164.6,1013.1,1135.5,1013.1z"/>
				<g>
					<path class="st4" d="M1165.7,185.5v753c0,25.5-19.9,46.4-44.3,46.4H797.7c-24.4,0-44.3-20.9-44.3-46.4v-753
						c0-25.5,19.9-46.4,44.3-46.4h323.7C1145.8,139,1165.7,159.9,1165.7,185.5z"/>
					<path class="st4" d="M1121.4,139L801.7,984.9h-4c-24.4,0-44.3-20.9-44.3-46.4v-753c0-25.5,19.9-46.4,44.3-46.4H1121.4z"/>
				</g>
				<path class="st2" d="M1033.7,167H885.4c-7.4,0-13.5-6.1-13.5-13.5v-17.9c0-7.4,6.1-13.5,13.5-13.5h148.3
					c7.4,0,13.5,6.1,13.5,13.5v17.9C1047.3,160.9,1041.2,167,1033.7,167z"/>
			</g>
		</g>
		<path class="st0" d="M1130.2,266.2H801.4c-4.3,0-7.7-3.4-7.7-7.7v-6.6c0-4.3,3.4-7.7,7.7-7.7h328.8c4.3,0,7.7,3.4,7.7,7.7v6.6
			C1137.9,262.7,1134.4,266.2,1130.2,266.2z"/>
		<circle class="st5" cx="806.7" cy="255.2" r="4.5"/>
		<rect x="781.2" y="202.7" class="st2" width="5" height="18"/>
		<rect x="791.2" y="207.2" class="st2" width="5" height="13.5"/>
		<rect x="801.2" y="211.7" class="st2" width="5" height="9"/>
		<rect x="809.2" y="216.8" class="st2" width="5" height="3.9"/>
		<polygon class="st2" points="1080.2,194.7 1080.2,209.7 1046.2,209.7 1046.2,206.7 1042.2,206.7 1042.2,198.7 1046.2,198.7 
			1046.2,194.7 		"/>
	</g>
</g>
<g id="Icon_1_">
	<g>
		
			<ellipse transform="matrix(0.7071 -0.7071 0.7071 0.7071 12.8013 788.4973)" class="st6" cx="958.2" cy="378.8" rx="85.2" ry="85.2"/>
		<circle class="st4" cx="958.2" cy="348.1" r="35.4"/>
		<path class="st4" d="M893.6,434.3c0,0,16.5-39.3,63.3-39.3c46.8,0,65.9,39.3,65.9,39.3s-20.9,30.8-67.1,29.7
			C913.9,462.9,893.6,434.3,893.6,434.3z"/>
	</g>
</g>
<g id="Star">
	<g>
		<rect x="830.4" y="493.3" class="st1" width="259.4" height="31"/>
		<text transform="matrix(1 0 0 1 857.9614 529.3579)" class="st4 st7 st8">*</text>
		<text transform="matrix(1 0 0 1 885.0176 529.3579)" class="st4 st7 st8">*</text>
		<text transform="matrix(1 0 0 1 912.0737 529.3579)" class="st4 st7 st8">*</text>
		<text transform="matrix(1 0 0 1 939.1304 529.3579)" class="st4 st7 st8">*</text>
		<text transform="matrix(1 0 0 1 966.1865 529.3579)" class="st4 st7 st8">*</text>
		<text transform="matrix(1 0 0 1 993.2422 529.3579)" class="st4 st7 st8">*</text>
		<text transform="matrix(1 0 0 1 1020.2988 529.3579)" class="st4 st7 st8">*</text>
		<text transform="matrix(1 0 0 1 1047.3545 529.3579)" class="st4 st7 st8">*</text>
	</g>
</g>
<g id="Icon">
	<g>
		<g>
			<path class="st9" d="M949.3,640l-83.5,41.9c-6.2,2.7-10.3,8.8-10.3,15.6v39.1c0,34.9,9.7,69.5,29.8,100c15,22.9,35,52.2,68.2,69
				h15c37-11.3,64.5-41.3,81.4-67c20-30.5,29.8-65.1,29.8-100v-41c0-6.8-4.1-12.9-10.3-15.6l-95.1-40.5
				C970,639.5,953.5,638.2,949.3,640z"/>
			<path class="st10" d="M949.3,640l-83.5,41.9c-6.2,2.7-10.3,8.8-10.3,15.6v39.1c0,34.9,9.7,69.5,29.8,100c15,22.9,35,52.2,68.2,69
				h15c37-11.3,64.5-41.3,81.4-67c20-30.5,29.8-65.1,29.8-100v-41c0-6.8-4.1-12.9-10.3-15.6l-95.1-40.5
				C970,639.5,953.5,638.2,949.3,640z"/>
			<path class="st1" d="M945.9,641.3l-95.1,40.5c-6.2,2.7-10.3,8.8-10.3,15.6v39.1c0,34.9,9.7,69.5,29.8,100
				c16.9,25.7,43,52.2,83.2,69c37-11.3,64.5-41.3,81.4-67c20-30.5,29.8-65.1,29.8-100v-41c0-6.8-4.1-12.9-10.3-15.6l-95.1-40.5
				C955,639.5,950.2,639.5,945.9,641.3z"/>
			<g>
				<path class="st11" d="M1064.3,727.9c0,0,0,0.2,0.1,0.5c0,0.4,0,0.8,0.1,1.3c0,1.3,0.1,3,0.2,5.2c0.1,2.2,0.2,5,0,8.2
					c-0.1,1.6-0.1,3.3-0.2,5.1c0,0.9-0.1,1.8-0.1,2.8c-0.1,1-0.2,1.9-0.3,2.9c-0.4,4-0.7,8.4-1.5,13.1c-0.4,2.3-0.7,4.8-1.2,7.2
					c-0.5,2.5-1.1,5-1.6,7.6c-2.5,10.3-5.9,21.6-11,32.8c-5,11.2-11,21.3-17,30.1c-3.2,4.3-6.1,8.4-9.2,12c-1.5,1.8-2.9,3.6-4.4,5.2
					c-1.5,1.6-2.9,3.1-4.3,4.6c-2.7,3-5.4,5.4-7.8,7.6c-1.2,1.1-2.2,2.1-3.3,3c-1,0.9-2,1.7-2.9,2.4c-1.7,1.4-3,2.5-4,3.3
					c-0.4,0.3-0.8,0.6-1.1,0.8c-0.2,0.2-0.4,0.3-0.4,0.3c0,0,0.1-0.1,0.3-0.3c0.3-0.2,0.6-0.5,1-0.9c1-0.8,2.2-2,3.9-3.4
					c0.9-0.7,1.8-1.6,2.8-2.5c1-0.9,2-2,3.2-3.1c2.3-2.2,5-4.7,7.6-7.7c1.4-1.5,2.8-3,4.3-4.6c1.5-1.6,2.9-3.4,4.4-5.2
					c3.1-3.6,6-7.7,9.1-12c6-8.8,11.8-18.8,16.9-30c5-11.2,8.5-22.3,11-32.6c0.6-2.6,1.1-5.1,1.7-7.6c0.5-2.5,0.8-4.9,1.2-7.2
					c0.9-4.6,1.2-9,1.6-13c0.1-1,0.2-2,0.3-2.9c0-1,0.1-1.9,0.1-2.8c0.1-1.8,0.2-3.5,0.2-5.1c0.2-3.2,0.2-5.9,0.1-8.2
					c0-2.2,0-3.9,0-5.2c0-0.5,0-1,0-1.3C1064.3,728.1,1064.3,727.9,1064.3,727.9z"/>
			</g>
		</g>
		<g>
			<g>
				<g>
					<g>
						<g>
							<path class="st12" d="M990.3,780.4h-10.1v-55.2c0-13-10.6-23.6-23.6-23.6c-13,0-23.6,10.6-23.6,23.6v55.2h-10.1v-55.2
								c0-18.6,15.1-33.7,33.7-33.7c18.6,0,33.7,15.1,33.7,33.7V780.4z"/>
						</g>
					</g>
					<g>
						<g>
							<g>
								<path class="st4" d="M990.3,814.2h-67.6c-6.4,0-11.6-5.2-11.6-11.6v-48c0-6.4,5.2-11.6,11.6-11.6h67.6
									c6.4,0,11.6,5.2,11.6,11.6v48C1002,808.9,996.8,814.2,990.3,814.2z"/>
								<g>
									<path class="st11" d="M990.3,814.2c0-0.1,1.1,0,3-0.5c1.9-0.5,4.8-1.9,6.8-5.2c1-1.6,1.6-3.7,1.6-6c0-2.3,0-4.9,0-7.6
										c0-5.5,0-11.7-0.1-18.6c0-6.9-0.1-14.4-0.1-22.5c-0.2-3.9-2.8-7.7-6.6-9.4c-1.9-0.9-4-1-6.2-1c-2.2,0-4.5,0-6.7,0
										c-18.2,0-38.2,0-59.2,0c-2.5,0-5,0.9-6.9,2.4c-1.9,1.6-3.4,3.7-3.9,6.1c-0.3,1.2-0.3,2.4-0.3,3.7c0,1.3,0,2.5,0,3.8
										c0,2.5,0,5,0,7.5c0,9.9,0,19.5,0,28.6c0.2,4.5-0.8,9.2,1.6,12.8c2.1,3.6,6.2,5.7,10.1,5.5c8.1,0,15.6,0,22.5,0.1
										c13.7,0.1,24.8,0.1,32.6,0.2c3.8,0,6.8,0.1,8.9,0.1c1,0,1.7,0,2.3,0.1C990.1,814.1,990.3,814.1,990.3,814.2
										c0,0-0.3,0-0.8,0.1c-0.6,0-1.3,0-2.3,0.1c-2.1,0-5.1,0.1-8.9,0.1c-7.8,0-18.9,0.1-32.6,0.2c-6.9,0-14.4,0-22.5,0.1
										c-4.2,0.2-8.6-2-10.9-5.9c-1.2-1.9-1.8-4.2-1.7-6.5c0-2.2,0-4.5,0-6.7c0-9.1,0-18.7,0-28.6c0-2.5,0-5,0-7.5
										c0-1.3,0-2.5,0-3.8c0-1.2,0-2.6,0.3-3.9c0.6-2.6,2.1-5,4.2-6.7c2.1-1.7,4.8-2.6,7.6-2.7c21,0,41,0,59.2,0
										c2.3,0,4.5,0,6.7,0c2.2-0.1,4.6,0.1,6.6,1.1c4.1,1.8,6.9,6,7.1,10.2c0.1,8.2,0,15.6,0,22.5c0,6.9-0.1,13.1-0.1,18.6
										c0,2.7,0,5.3,0,7.6c0,2.4-0.7,4.5-1.8,6.2c-2.1,3.4-5.1,4.7-7,5.2C991.4,814.3,990.3,814.2,990.3,814.2z"/>
								</g>
							</g>
						</g>
					</g>
					<g>
						<path class="st1" d="M963.5,780.4c1.8-1.8,2.9-4.2,2.9-7c0-5.5-4.5-10-10-10c-5.5,0-10,4.5-10,10c0,4.6,3.1,8.4,7.3,9.6
							l-2.1,9.5h9.5l-1.9-9.5C960.8,782.5,962.3,781.6,963.5,780.4"/>
					</g>
				</g>
			</g>
		</g>
	</g>
</g>
<g id="Girl">
	<g>
		<g>
			<g>
				<g>
					<path class="st1" d="M1269.2,457.3c-1-7,0.6-13.8,4.1-19.5c12.3-28.4,29.6-68.2,34.8-80.4c0.4-1,0.9-2,1.3-2.9
						c0.2-0.5,0.3-0.8,0.3-0.8l0,0c5.4-10.4,15.7-18.5,28.3-20.8c20.5-3.7,39.5,9.1,42.3,28.6c1.1,7.8-0.4,15.6-4.1,22.2
						c-10.7,23-50.9,74.6-58.6,84.4c-4.1,6-10.4,10.4-17.9,11.8C1285.1,482.4,1271.4,472.3,1269.2,457.3z"/>
				</g>
			</g>
		</g>
		<g>
			<path class="st13" d="M1182.8,392.3c16.1,16.3,34.8,34.6,34.8,34.6l24.9-36.1l-30.9-18.4C1189.3,358.7,1169.8,376.9,1182.8,392.3
				c0,0-0.7-0.5-1.9-1.3"/>
			<g>
				<path class="st1" d="M1315.5,435.5c8.5,16.3,2.9,34.4-11.1,41.8s-31.3,1.5-39.9-15c-8.5-16.3-4-35.3,10.1-42.7
					C1288.5,412.2,1307,419.3,1315.5,435.5z"/>
				<path class="st1" d="M1309.3,427.6c0,0-6.8-10.4-35-24.4l-30.8-16.3l-27.7,42.5c0,0,46.4,37.6,61.9,47.1L1309.3,427.6z"/>
				<line class="st14" x1="1252.2" y1="391.6" x2="1224" y2="435.8"/>
			</g>
		</g>
		<g>
			<path class="st15" d="M1159.5,365.8"/>
			<path class="st13" d="M1190.1,356.3c0-0.5-0.1-2-1.1-3.8c-10.5-22.2-3.8-24-3.8-24c3.8-1.3,3.7,3.3,3.7,3.3
				c0.8,5.4,7.6,14.2,7.6,14.2c8.3,10.6,12,19.5,13.4,24.4c0,0,2.3,13.7-11.5,19.1c-2.4,0.9-4.8,1.4-7,1.5
				c-5.7,0.3-11.3-1.4-15.9-4.7c-4.5-3.1-10.3-7.3-12.7-9.3c-6.6-5.4-2.2-8.7-2.2-8.7c-5.5-3.2,0-6.5,0-6.5
				c-5.5-7.6,4.7-7.2,4.7-7.2c-0.1-1.1-1.8-2.2-1.8-2.2c-4.6-2.9-15.9-14.4-15.9-14.4c-4.2-3.3-2.9-5-2.9-5c2.2-3.1,4.7-0.9,4.7-0.9
				c2.5,1.6,13.7,11.1,13.7,11.1c9.8,8.3,26,9.3,26,9.3l1.1,3.8c0,0.2,0,0.3,0,0.3"/>
		</g>
		<g>
			
				<ellipse transform="matrix(0.1147 -0.9934 0.9934 0.1147 675.8817 1284.6991)" class="st16" cx="1058.7" cy="263.1" rx="105.9" ry="105.9"/>
			
				<ellipse transform="matrix(0.1147 -0.9934 0.9934 0.1147 676.6293 1283.3615)" class="st17" cx="1058.4" cy="262" rx="105.9" ry="105.9"/>
			<path class="st16" d="M968.2,268.6c-2.5-23.1,3.9-47.3,19.8-66.7c15.7-19.3,37.8-30.4,60.8-32.7"/>
			<path class="st16" d="M1150.2,282.1c-3.2,18.1-12,35.2-25.7,48.7"/>
			
				<rect x="1228.7" y="282.9" transform="matrix(0.6318 -0.7751 0.7751 0.6318 142.2841 1106.986)" class="st16" width="15.2" height="241.7"/>
			<rect x="1260.1" y="361.2" transform="matrix(0.6318 -0.7751 0.7751 0.6318 132.4844 1147.0055)" width="26.9" height="145.7"/>
		</g>
		<g>
			<g>
				<path class="st14" d="M1169.2,379.6c0.1-0.1,0.2,0,0.3,0.1c0.8-0.1,1.5-0.5,2-1.1l3.5-3.8l2.6-2.7l0.4-0.4l0,0l4.9-5.2
					c0,0,0.1-0.1,0.2-0.1c1.2-1.4,1.1-3.5-0.3-4.9c-1.1-1.1-2.9-1.2-4.2-0.5c-0.3,0.2-0.6,0.3-0.8,0.6l-7.6,8.1l-2.8,3
					C1167,373.7,1165.3,379.4,1169.2,379.6z"/>
				<path class="st14" d="M1158.8,369.4c0.1,0.1,0.1,0.1,0.1,0.2c1.1,1.6,3.4,2.1,4.9,1.1l3.7-2.4l11.6-7.8c1.5-1,2.1-3.1,1.1-4.8
					c-0.1-0.1-0.1-0.1-0.1-0.2c-0.9-1.3-2.5-1.8-3.9-1.5c1.6-1.1,2-3.3,1-4.8c-1.1-1.6-3.4-2.1-4.9-1.1l-6.5,4.3l-2.2,1.6
					c0.2,0.3,0.3,0.5,0.3,0.8c0,0,0,2.2-4.3,1.9c0,0,0,0-0.1,0.1l0,0c0.3,0.5,2.9,4.7,0.3,7.6c-0.1,0.2-0.3,0.3-0.5,0.5
					c0.2,0,0.5,0,0.6-0.1C1158.4,365.8,1157.9,367.8,1158.8,369.4z"/>
				<path class="st15" d="M1169.5,373.5l7.4-1.7l1-0.2l0,0l4.9-5.2c0,0,0.1-0.1,0.2-0.1c-2.6,1.1-5.5,2.6-8.7,4.8
					c-0.5,0.3-1,0.7-1.5,1C1172.8,372.1,1171.1,372.9,1169.5,373.5z"/>
			</g>
			<path class="st13" d="M1155.9,363c0.1,0.1,0.1,0.1,0.1,0.2c0.8,1.1,2,1.7,3.3,1.6c0.2,0,0.5,0,0.6-0.1c0.3-0.1,0.7-0.3,1-0.5
				l3.6-2.3l11.8-7.9c0,0,0,0,0.1-0.1c1.6-1.1,2-3.3,1-4.8c-1.1-1.6-3.4-2.1-4.9-1.1l-6.5,4.3l-2.2,1.6l-4.1,2.7l-0.1,0.1l-2.4,1.7
				C1155.4,359.4,1155,361.4,1155.9,363z"/>
			<path class="st13" d="M1158.8,369.4c0.1,0.1,0.1,0.1,0.1,0.2c1.1,1.6,3.4,2.1,4.9,1.1l3.7-2.4l11.6-7.8c1.5-1,2.1-3.1,1.1-4.8
				c-0.1-0.1-0.1-0.1-0.1-0.2c-0.9-1.3-2.5-1.8-3.9-1.5c-0.3,0.1-0.7,0.3-1,0.5l-10.9,7.2l-4.4,3c0,0,0,0-0.1,0.1
				C1158.4,365.8,1157.9,367.8,1158.8,369.4z"/>
			<path class="st18" d="M1176.3,353.9c-0.3,0.1-0.7,0.3-1,0.5l-10.9,7.2l-4.4,3"/>
			<path class="st13" d="M1166.6,378.9c0.8,0.8,1.9,1.1,2.9,0.9c0.8-0.1,1.5-0.5,2-1.1l3.5-3.8l2.6-2.7l0.4-0.4l0,0l4.9-5.2
				c0,0,0.1-0.1,0.2-0.1c1.2-1.4,1.1-3.5-0.3-4.9c-1.1-1.1-2.9-1.2-4.2-0.5c-0.3,0.2-0.6,0.3-0.8,0.6l-7.6,8.1l-2.8,3l-0.9,1
				C1165.1,375.2,1165.2,377.4,1166.6,378.9z"/>
			<path class="st13" d="M1167.3,372.6l-0.9,1c-1.3,1.4-1.3,3.6,0.1,5"/>
		</g>
		<g>
			<path class="st19" d="M1302.1,745.3l-3.2-1c-3.7-5.6,15.7-212.5,40.8-244.5c34.3-43.6,90.9-20.3,81.1,49.7
				c-8.6,61.1-31.3,129.7-64.1,216.2C1339.1,794.9,1296.1,778.2,1302.1,745.3z"/>
			<path class="st20" d="M1348,735.1c20.1-70.9,44.4-127.2,73.2-197.5"/>
		</g>
		<g>
			<g>
				<path class="st13" d="M1352.4,897.2c0,0-3.4,41.2-3.1,45.2l-27.1,2.5c0,0-4.8-35-6-48.5L1352.4,897.2z"/>
				<path class="st1" d="M1313.1,931.1l40.6,1.1c0,0-3.3,14.7,1.3,36.1c0,0,3.5,17-2,38.4l-11.2,0.1c0,0,3-9.9-1.2-19.3
					c0,0-5.7-7.9-13.5,9.1c0,0-4.5,10.2-18,10.2c0,0-46.6,0.9-50.8,0.3c0,0-8-4.5-0.1-9c0,0,42.9-18.3,53.2-40.3
					C1311.3,958.1,1318.7,943.1,1313.1,931.1z"/>
			</g>
		</g>
		<g>
			<path class="st19" d="M1302.7,723.1c8.8-15,27.9-20.3,43.1-12.3c16.6,7.4,20.6,31.5,20.6,31.5c12.3,46.9-8.9,176.3-8.9,176.3
				l-49.2,4.2c-5.8-25.6-4.9-142.7-8.9-174.4C1297.1,740.3,1298.1,731.1,1302.7,723.1z"/>
			<path class="st20" d="M1348.8,721.1c-5.3,14.5-2.2,18.9-0.8,34.4c6,63,8.5,93.4-0.1,162.4"/>
		</g>
		<g>
			<path class="st19" d="M1374.4,528.4c17.5-49.3,87-50.2,97.2,0.1c16,56.5-18.3,129.6-17.7,225.3c0.2,26-24,41.8-43.6,34.1
				c-34.1-13.3-22.3-41.5-36.4-190.6C1373.3,592.6,1369.9,540.8,1374.4,528.4z"/>
			<path class="st20" d="M1432.9,494.1c10.3,31.6,10.8,40.7,9.7,65.2c-4,83.2-7.6,170.2-1,222.8"/>
			<line class="st20" x1="1371.3" y1="565.8" x2="1382" y2="714.6"/>
		</g>
		<g>
			<g>
				<path class="st13" d="M1449.2,896.6c0,0-3.4,41.2-3.1,45.2l-27.1,2.5c0,0-4.8-35-6-48.5L1449.2,896.6z"/>
				<path class="st1" d="M1410,930.5l40.6,1.1c0,0-3.3,14.7,1.3,36.1c0,0,3.5,17-2,38.4l-11.2,0.1c0,0,3-9.9-1.2-19.3
					c0,0-5.7-7.9-13.5,9.1c0,0-4.5,10.2-18,10.2c0,0-46.6,0.9-50.8,0.3c0,0-8-4.5-0.1-9c0,0,42.9-18.3,53.2-40.3
					C1408.2,957.5,1415.6,942.4,1410,930.5z"/>
			</g>
		</g>
		<g>
			<path class="st19" d="M1388.2,721.7c8.3-15.3,27.1-21.4,42.7-13.9c16.9,6.9,21.8,30.8,21.8,30.8c14.1,46.4-3.7,177.5-3.7,177.5
				l-49.4-0.4c-6.9-25.6-9.3-139.1-13.9-169.2C1383.3,738.4,1383.9,729.6,1388.2,721.7z"/>
			<path class="st20" d="M1438.6,717.3c0.1,17-0.1,23.7,1,39.5c4,60,1.9,96.3-1,158.4"/>
		</g>
		<g>
			<path class="st19" d="M1448.5,461.1c0,0,27.7,53.2,22.2,83.1c0,0,1.6,23.9-39.9,28.8c0,0-56.4,8.4-83.1-8.7
				c0,0-21.9-9.1-17.6-41.3c0.1-0.7,6.6-50.8,9.9-62.3L1448.5,461.1z"/>
			<line class="st21" x1="1338" y1="473" x2="1455" y2="475.5"/>
		</g>
		<g>
			<path class="st1" d="M1431.2,342.1c11.8-16.1,34.3-19.6,50.3-7.8c10.1,7.3,15.1,18.9,14.8,30.6c-0.1,8.8-0.5,65.8-5.4,98.8
				c-0.3,5.3-2.2,10.8-5.7,15.6c-9.2,12.5-25.6,15.4-37.3,7.3c-5.9-4.1-9-10.5-9.7-17.3l0,0c0,0-12.8-69.8-13.6-101.5
				C1423.5,358.9,1425.6,349.7,1431.2,342.1z"/>
		</g>
		<path class="st13" d="M1328.8,333.5c9.2,4.6,20.7,8.1,33.9,10.3c0.1,0,0.2,0,0.3,0c21.5,3.1,46.6,2.4,67.3-2.1l0.1,0
			c12.8-2.9,23.8-7.3,31.8-12.7c-14.9-1.9-33.8-6.6-40.7-11.8l-1.2,0l-0.5-33.3l-36-0.5l-1.6,33.2l-0.4,0
			C1376.3,323.1,1352.6,330.2,1328.8,333.5z"/>
		<path d="M1410.3,299.8c-15.7,10.7-28.6,9.9-28.6,9.9l1.3-27.2l36.6,5.1C1419.7,287.4,1418.8,294,1410.3,299.8z"/>
		<g>
			<g>
				<path class="st1" d="M1311.2,359.6c0,2.5,0.4,4.9,1,7.3l10,73.5l6.1,44.7l0,0.3l132.9-0.9c0,0,38.2-114.8,35-126
					c-0.1-13.6-9.2-25-21.6-28.5c-2.7-0.7-5.6-1.2-8.5-1.1c0,0-1.6-0.2-4.4-0.6c-8,5.3-19,9.7-31.8,12.7l-0.1,0
					c-11.4,2.6-24.2,4.2-37.8,4.3c-10.3,0.1-20.4-0.7-29.5-2.2c-0.1,0-0.2,0-0.3,0c-13.2-2.1-24.8-5.7-33.9-10.3
					c-3.1,1.5-6.1,3.6-8.4,6C1314.4,343.9,1311.1,351.3,1311.2,359.6z"/>
			</g>
			<path class="st14" d="M1319.2,338.1c0,0,79.6,46.3,155.8-8.7"/>
			<polyline class="st14" points="1313.2,372.3 1327.9,485.1 1461,484.2 			"/>
		</g>
		<g>
			<path class="st13" d="M1316.2,468.9L1316.2,468.9l72.6,14.1l3.2-40.9c0,0-67.1,1.6-77.2,3.9l0,0c-0.3,0.1-0.6,0.2-0.7,0.2l0,0.3
				C1300.5,444.2,1304.5,467,1316.2,468.9z"/>
			<g>
				<g>
					<g>
						
							<ellipse transform="matrix(0.9263 -0.3767 0.3767 0.9263 -69.9744 582.624)" class="st1" cx="1454.7" cy="470.2" rx="31.2" ry="28.8"/>
						<path class="st1" d="M1456.3,498.7c0,0-11.3,3.2-40.4-4.8l-32.5-8l5-49.8c0,0,56.7,2.4,73.9,5.4L1456.3,498.7z"/>
					</g>
					<line class="st14" x1="1392.6" y1="488.2" x2="1398.2" y2="436.8"/>
				</g>
				<path class="st14" d="M1436.7,438.6l-49.1-3.3l-5,49.8l47.3,11.5c0,0,22.7,3.3,29.4,1.6"/>
			</g>
		</g>
		<g>
			<path class="st13" d="M1339,468.7c-0.2,0-0.5,0-0.8,0c-0.2,0-0.5,0.1-0.7,0l0,0l0.7,0L1339,468.7c-8.4,7.6-28.2,5.2-28.2,5.2
				c-4.1-1.3-5.2,1.3-5.2,1.3c-1.1,1.8-2,4.9-2,4.9c-0.9,2.3,1.4,8.1,1.4,8.1c3.4,4,1.9,6,1.9,6c-1.5,2.7-5,0-5,0
				c-2.8-1.7-4.1-4.4-4.6-5.6l0,0c-0.2-0.3-0.2-0.4-0.2-0.4c-0.4,2.4,0.9,6.5,0.9,6.5c0.4,2.5-0.4,3.5-1.2,3.8
				c-2.7,1.2-4.6-1.8-4.7-2c-0.1,1.7-1.1,2.6-1.8,2.7c-2.7,0.7-3.8-2.3-3.8-2.3c-3.8-7.3-4.3-11.9-3.9-17.4
				c0.9-11.1,4.9-15.2,4.9-15.2c-3.2-0.8-5.9,1.6-8.3,4.7c-3.7,5.2-5.9,13.1-5.9,13.1c-0.4,5.1-3.8,4.4-3.8,4.4
				c-3.2-0.5-2.7-4.4-2.5-4.5c0.6-7.7,5.5-15.2,5.5-15.2c3-4.6,6.7-8.2,9.4-10.5l0,0c2.4-2,6.3-4.5,10.6-6.1l0.2,0
				c1.8-0.6,3.1-0.7,3.1-0.7c6.7-1.3,26.8-2,36.1-2.3c0.2,0,0.5-0.1,0.7,0c0,0,11.2,2.5,11.3,8.6c0.1,6.1-5.7,13-5.7,13"/>
			<path class="st14" d="M1299.3,470.3c-4,5.7-4.1,8.9-4.1,8.9c-0.2,1.5,1.3,7,1.8,9.4"/>
			<path class="st18" d="M1297.3,489.6c0,0-0.1-0.4-0.2-1"/>
			<path class="st14" d="M1292,496.5c0,0-3.7-13.5-2.9-18.6c0,0-0.1-5.7,4.6-10.9"/>
			<path class="st18" d="M1278.8,458.8"/>
		</g>
		<g>
			<g>
				<defs>
					<path id="SVGID_4_" d="M1437.9,217.6c0,0,12-13.2,31.5-4.2c0,0,26.4,7.9,21,49.2c0,0-5.3,64.2,21.1,68.6c0,0-50.9,15.8-63.2-34
						c0,0-1.6,18.9,16.9,33.7c0,0-29.8-4.4-32.5-52.6C1432.5,278.5,1427.7,234.9,1437.9,217.6z"/>
				</defs>
				<clipPath id="SVGID_5_">
					<use xlink:href="#SVGID_4_"  style="overflow:visible;"/>
				</clipPath>
				<path class="st22" d="M1437.9,217.6c0,0,12-13.2,31.5-4.2c0,0,26.4,7.9,21,49.2c0,0-5.3,64.2,21.1,68.6c0,0-50.9,15.8-63.2-34
					c0,0-1.6,18.9,16.9,33.7c0,0-29.8-4.4-32.5-52.6C1432.5,278.5,1427.7,234.9,1437.9,217.6z"/>
			</g>
			<g>
				<defs>
					<path id="SVGID_6_" d="M1437.9,217.6c0,0,12-13.2,31.5-4.2c0,0,26.4,7.9,21,49.2c0,0-5.3,64.2,21.1,68.6c0,0-50.9,15.8-63.2-34
						c0,0-1.6,18.9,16.9,33.7c0,0-29.8-4.4-32.5-52.6C1432.5,278.5,1427.7,234.9,1437.9,217.6z"/>
				</defs>
				<clipPath id="SVGID_7_">
					<use xlink:href="#SVGID_6_"  style="overflow:visible;"/>
				</clipPath>
				<path class="st23" d="M1445,212.9c0,0,14.7,18.4,13.8,40.2l0,0c0,0-1,24.1-25.7,29.8c0,0-6.5-44.5,4.8-65.1
					C1437.9,217.6,1441.8,213.8,1445,212.9z"/>
			</g>
			<g>
				<defs>
					<path id="SVGID_8_" d="M1437.9,217.6c0,0,12-13.2,31.5-4.2c0,0,26.4,7.9,21,49.2c0,0-5.3,64.2,21.1,68.6c0,0-50.9,15.8-63.2-34
						c0,0-1.6,18.9,16.9,33.7c0,0-29.8-4.4-32.5-52.6C1432.5,278.5,1427.7,234.9,1437.9,217.6z"/>
				</defs>
				<clipPath id="SVGID_9_">
					<use xlink:href="#SVGID_8_"  style="overflow:visible;"/>
				</clipPath>
				<path class="st24" d="M1529.5,327.2"/>
			</g>
			<g>
				<defs>
					<path id="SVGID_10_" d="M1437.9,217.6c0,0,12-13.2,31.5-4.2c0,0,26.4,7.9,21,49.2c0,0-5.3,64.2,21.1,68.6
						c0,0-50.9,15.8-63.2-34c0,0-1.6,18.9,16.9,33.7c0,0-29.8-4.4-32.5-52.6C1432.5,278.5,1427.7,234.9,1437.9,217.6z"/>
				</defs>
				<clipPath id="SVGID_11_">
					<use xlink:href="#SVGID_10_"  style="overflow:visible;"/>
				</clipPath>
				<path class="st25" d="M1436.7,221.7"/>
			</g>
			<g>
				<defs>
					<path id="SVGID_12_" d="M1437.9,217.6c0,0,12-13.2,31.5-4.2c0,0,26.4,7.9,21,49.2c0,0-5.3,64.2,21.1,68.6
						c0,0-50.9,15.8-63.2-34c0,0-1.6,18.9,16.9,33.7c0,0-29.8-4.4-32.5-52.6C1432.5,278.5,1427.7,234.9,1437.9,217.6z"/>
				</defs>
				<clipPath id="SVGID_13_">
					<use xlink:href="#SVGID_12_"  style="overflow:visible;"/>
				</clipPath>
				<path class="st26" d="M1525.8,342.6"/>
			</g>
			<g>
				<defs>
					<path id="SVGID_14_" d="M1437.9,217.6c0,0,12-13.2,31.5-4.2c0,0,26.4,7.9,21,49.2c0,0-5.3,64.2,21.1,68.6
						c0,0-50.9,15.8-63.2-34c0,0-1.6,18.9,16.9,33.7c0,0-29.8-4.4-32.5-52.6C1432.5,278.5,1427.7,234.9,1437.9,217.6z"/>
				</defs>
				<clipPath id="SVGID_15_">
					<use xlink:href="#SVGID_14_"  style="overflow:visible;"/>
				</clipPath>
				<path class="st27" d="M1440.2,224.6"/>
			</g>
		</g>
		<g>
			<path class="st13" d="M1367.3,272.7c0.1,12.7,8.9,23.9,21.3,26.6c2.1,0.4,4.2,0.7,6.6,0.6c0,0,23.4-0.5,25.2-20.2
				c0,0,6-16.1,8.4-29.9c1.6-3.3,2.5-6.8,2.4-10.6c-0.1-14.5-13.6-26-30.1-25.9c-14.8,0.1-27.1,9.5-29.3,22l-1.3,0
				C1370.5,235.4,1367,254.5,1367.3,272.7z"/>
		</g>
		<g>
			<path d="M1387.5,218.1c0,0-15.4,9.2-19.2,29.6c0,0-6.1-19.3,3.4-27.9c0,0,7.4-6.8,15-5.5L1387.5,218.1z"/>
			<path class="st14" d="M1388,213.8c0,0-4.8,27.3,25.2,42.4"/>
			<g>
				<g>
					<path id="SVGID_2_" d="M1387.5,218.1c9.9,32.3,26.4,42,26.4,42c-1.5,13.4,6.2,39.8,6.2,39.8c12.4-5.5,24.1-18.9,24.1-18.9
						c13-10.1,9.1-24.2,9.1-24.2c-3.3-23.5-18.1-39.6-18.1-39.6c-9.4-11.9-41.9-9.7-41.9-9.7c-7.7,0.5-6.8,6.6-6.8,6.6L1387.5,218.1
						z"/>
				</g>
				<g>
					<defs>
						<path id="SVGID_16_" d="M1387.5,218.1c9.9,32.3,26.4,42,26.4,42c-1.5,13.4,6.2,39.8,6.2,39.8c12.4-5.5,24.1-18.9,24.1-18.9
							c13-10.1,9.1-24.2,9.1-24.2c-3.3-23.5-18.1-39.6-18.1-39.6c-9.4-11.9-41.9-9.7-41.9-9.7c-7.7,0.5-6.8,6.6-6.8,6.6
							L1387.5,218.1z"/>
					</defs>
					<clipPath id="SVGID_17_">
						<use xlink:href="#SVGID_16_"  style="overflow:visible;"/>
					</clipPath>
					<path class="st28" d="M1387.5,218.1c9.9,32.3,26.4,42,26.4,42c-1.5,13.4,6.7,28.5,6.7,28.5c8.4,3.4,11.8-3.6,11.8-3.6
						c13-10.1,16-32.2,16-32.2c-3.3-23.5-13.1-35.5-13.1-35.5c-9.4-11.9-41.9-9.7-41.9-9.7c-7.7,0.5-6.8,6.6-6.8,6.6L1387.5,218.1z"
						/>
				</g>
				<g>
					<defs>
						<path id="SVGID_18_" d="M1387.5,218.1c9.9,32.3,26.4,42,26.4,42c-1.5,13.4,6.2,39.8,6.2,39.8c12.4-5.5,24.1-18.9,24.1-18.9
							c13-10.1,9.1-24.2,9.1-24.2c-3.3-23.5-18.1-39.6-18.1-39.6c-9.4-11.9-41.9-9.7-41.9-9.7c-7.7,0.5-6.8,6.6-6.8,6.6
							L1387.5,218.1z"/>
					</defs>
					<clipPath id="SVGID_19_">
						<use xlink:href="#SVGID_18_"  style="overflow:visible;"/>
					</clipPath>
					<path class="st29" d="M1425,285.3"/>
				</g>
				<g>
					<defs>
						<path id="SVGID_20_" d="M1387.5,218.1c9.9,32.3,26.4,42,26.4,42c-1.5,13.4,6.2,39.8,6.2,39.8c12.4-5.5,24.1-18.9,24.1-18.9
							c13-10.1,9.1-24.2,9.1-24.2c-3.3-23.5-18.1-39.6-18.1-39.6c-9.4-11.9-41.9-9.7-41.9-9.7c-7.7,0.5-6.8,6.6-6.8,6.6
							L1387.5,218.1z"/>
					</defs>
					<use xlink:href="#SVGID_20_"  style="overflow:visible;"/>
					<clipPath id="SVGID_21_">
						<use xlink:href="#SVGID_20_"  style="overflow:visible;"/>
					</clipPath>
					<path class="st30" d="M1429.9,211.9"/>
				</g>
			</g>
		</g>
		
			<ellipse transform="matrix(0.6327 -0.7744 0.7744 0.6327 315.9329 1198.0087)" class="st13" cx="1420.8" cy="266" rx="13.8" ry="9.8"/>
		<path class="st14" d="M1427.5,264.8c0,0,1.4-3.6-1-5.3c0,0-5.2-3.6-10.4,5"/>
		
			<ellipse transform="matrix(1 -4.525425e-03 4.525425e-03 1 -1.2207 6.4173)" class="st1" cx="1417.4" cy="272.9" rx="2.8" ry="2.8"/>
		<path class="st14" d="M1382.4,249.8c-1.3,4-2.6,8.2-4.9,11.7c-0.4,0.8-1,1.4-1.2,2.3c-0.4,2,1.4,3.8,3.5,4.2
			c1.7,0.3,3.8-0.2,4.3-2"/>
		<path class="st14" d="M1369.1,245.6c1.4-1,3.3-1.3,5-0.9c1.7,0.4,3.2,1.5,4,2.9"/>
		<path class="st14" d="M1394.4,246.5c1.4-1,3.3-1.3,5-0.9s3.2,1.5,4,2.9"/>
		<path d="M1398.8,256.1c-0.3,1.4-1.8,2.3-3.3,2s-2.3-1.8-2-3.3c0.3-1.4,1.8-2.3,3.3-2C1398.3,253.3,1399.1,254.7,1398.8,256.1z"/>
		<path d="M1375.5,253.7c-0.3,1.4-1.8,2.3-3.3,2c-1.4-0.3-2.3-1.8-2-3.3c0.3-1.4,1.8-2.3,3.3-2C1375,250.8,1376,252.3,1375.5,253.7z
			"/>
		<path class="st14" d="M1390.2,274.2c0,0-6.5,9.8-13,2.3"/>
	</g>
</g>
<g id="Line">
	<line class="st16" x1="183.5" y1="1013" x2="1706.2" y2="1013"/>
</g>
</svg>
