<?xml version="1.0" encoding="utf-8"?>
<svg version="1.1" xmlns="http://www.w3.org/2000/svg" xmlns:xlink="http://www.w3.org/1999/xlink" x="0px" y="0px"
	 viewBox="0 0 1920 1080" style="enable-background:new 0 0 1920 1080;" xml:space="preserve">
<style type="text/css">
	.st0{fill:none;stroke:#000000;stroke-miterlimit:10;}
	.st1{fill:#F0F0F0;}
	.st2{fill:#FFFFFF;stroke:#000000;stroke-miterlimit:10;}
	.st3{fill:#8B8BF2;}
	.st4{fill:#111926;}
	.st5{fill:none;stroke:#FFFFFF;stroke-width:2;stroke-miterlimit:10;}
	.st6{fill:#8B8BF2;stroke:#000000;stroke-miterlimit:10;}
	.st7{fill:#FFFFFF;}
	.st8{opacity:0.16;}
	.st9{fill:#EEEEEE;}
	.st10{fill:#F99E82;}
	.st11{opacity:0.15;}
	.st12{fill:#203049;}
	.st13{fill:none;stroke:#0D0000;stroke-width:0.75;stroke-miterlimit:10;}
	.st14{fill:none;stroke:#0A0A0A;stroke-miterlimit:10;}
	.st15{fill:none;stroke:#8E3838;stroke-width:0.75;stroke-miterlimit:10;}
	.st16{fill:none;stroke:#000000;stroke-width:0.5;stroke-miterlimit:10;}
	.st17{clip-path:url(#SVGID_2_);}
	.st18{clip-path:url(#SVGID_5_);}
	.st19{clip-path:url(#SVGID_7_);fill:none;stroke:#AF403A;stroke-miterlimit:10;}
	.st20{clip-path:url(#SVGID_9_);fill:none;stroke:#AF403A;stroke-miterlimit:10;}
	.st21{clip-path:url(#SVGID_11_);fill:none;stroke:#AF403A;stroke-miterlimit:10;}
	.st22{clip-path:url(#SVGID_13_);fill:none;stroke:#AF403A;stroke-miterlimit:10;}
	.st23{clip-path:url(#SVGID_15_);}
	.st24{clip-path:url(#SVGID_17_);fill:none;stroke:#AF403A;stroke-miterlimit:10;}
	.st25{clip-path:url(#SVGID_19_);fill:none;stroke:#AF403A;stroke-miterlimit:10;}
</style>
<g id="Bg">
	<line class="st0" x1="255.5" y1="944.5" x2="1663.2" y2="949.5"/>
	<path class="st1" d="M1491,946c40.2,5,73.4-41.3,71-79.9c-3.8-62.4-20.6-97.4-81.1-113c-23.2-6-51.1-8.2-63.7-28.5
		c-6.7-10.8-7.2-24.3-6.2-36.9c5.2-69.8,46.4-132.4,55.6-201.8c9.3-70.6-17.5-145.1-69.7-193.5c-52.2-48.4-128.5-69.6-198.2-54.9
		c-92.9,19.5-163.1,94.9-218.9,171.7c-38,52.3-74.6,109-130.6,141.3c-34.4,19.8-81.6,27.4-111.2,1c-27.5-24.5-28-66.3-36.8-102.1
		c-8.7-35.2-29.3-69.7-62.4-84.6c-47.3-21.3-102.8,3.3-143.8,35.1c-81.2,62.8-138.3,156-157.4,256.8s0,201.5,52.7,289.6L1491,946z"
		/>
</g>
<g id="msg">
	<g>
		<path class="st2" d="M801.7,295.5h10.1c5.9,0,10.7-4.8,10.7-10.7v-49.6c0-5.9-4.8-10.7-10.7-10.7H683.2c-5.9,0-10.7,4.8-10.7,10.7
			v49.6c0,5.9,4.8,10.7,10.7,10.7H774l27.5,27L801.7,295.5z"/>
		<rect x="686" y="238" class="st3" width="116.5" height="4"/>
		<rect x="686" y="251" class="st3" width="116.5" height="4"/>
		<rect x="686" y="264" class="st3" width="83.2" height="4"/>
		<rect x="686" y="277" class="st3" width="62.5" height="4"/>
	</g>
</g>
<g id="Plant">
	<g>
		<g>
			<g>
				<path class="st3" d="M580.8,613c-0.7-1.3-0.3-44.5,1.4-47.7c1.6-3.1,20.4-46,20.4-46l-11.9,65.5L580.8,613z"/>
			</g>
			<g>
				<path class="st3" d="M573.9,650.3c0,0,6.3-17.2,9.8-18.9s51.3-29.2,51.3-29.2l22.8-1.8l-20.1,7.1L573.9,650.3z"/>
			</g>
			<g>
				<polygon class="st3" points="560.5,606.3 563.5,679.9 567.7,686.2 571.8,667.5 				"/>
			</g>
			<g>
				<polygon class="st3" points="528.7,664.5 547.5,717.9 561.6,725.9 552.5,701.3 				"/>
			</g>
			<g>
				<polygon class="st3" points="603.5,702.5 572.1,749.6 556.5,753.9 571.4,732.3 				"/>
			</g>
			<g>
				<polygon class="st3" points="533.6,747.9 542,780.4 551.9,783.7 552.8,776.6 				"/>
			</g>
			<g>
				<g>
					<path class="st3" d="M533.1,896c-0.3-0.1,22.7-140.1,31.8-194.4c9.1-54.3,16.8-98.3,17.1-98.2c0.3,0.1-6.8,44.1-16,98.4
						C556.9,756.1,533.4,896,533.1,896z"/>
				</g>
			</g>
		</g>
		<g>
			<g>
				<path class="st3" d="M523.6,491.9c-0.8-1.2-5.9-44.1-4.6-47.5c1.2-3.3,14.5-48.2,14.5-48.2l-3.6,66.4L523.6,491.9z"/>
			</g>
			<g>
				<path class="st3" d="M521.5,529.7c0,0,4.1-17.9,7.4-19.9c3.3-2.1,47.3-35.4,47.3-35.4l22.4-4.6l-19.1,9.6L521.5,529.7z"/>
			</g>
			<g>
				<polygon class="st3" points="502.7,487.7 514.8,560.3 519.8,566.1 521.5,547 				"/>
			</g>
			<g>
				<polygon class="st3" points="478.3,549.4 503.7,600 518.7,606.2 506.6,583 				"/>
			</g>
			<g>
				<polygon class="st3" points="557.4,577.8 532.1,628.4 517.2,634.7 529.2,611.4 				"/>
			</g>
			<g>
				<polygon class="st3" points="493.7,631.6 506.1,662.8 516.4,664.8 516.3,657.7 				"/>
			</g>
			<g>
				<g>
					<path class="st3" d="M512.2,859.6c-0.3,0,4.5-222.9,6.7-277.9c2.2-55,4.3-99.6,4.6-99.6c0.3,0-1.3,44.6-3.5,99.6
						C517.8,636.8,512.5,859.6,512.2,859.6z"/>
				</g>
			</g>
		</g>
		<g>
			<polygon class="st4" points="608.8,945.7 453.3,945.7 470.4,786.8 591.8,786.8 			"/>
			<line class="st5" x1="469.2" y1="807.7" x2="594" y2="807.7"/>
			<line class="st5" x1="468.1" y1="821.6" x2="594" y2="821.6"/>
		</g>
	</g>
</g>
<g id="Dollar_3_">
	<g>
		<g>
			
				<ellipse transform="matrix(0.9824 -0.1868 0.1868 0.9824 -151.5876 149.0354)" class="st6" cx="715.2" cy="879.1" rx="86.6" ry="86.6"/>
			<circle class="st3" cx="714.8" cy="879.5" r="72.3"/>
			<circle class="st0" cx="714.8" cy="879.5" r="72.3"/>
		</g>
		<g>
			<path class="st7" d="M709.4,914.5c-3.3-0.8-6.2-1.9-8.8-3.2c-2.6-1.3-4.4-2.7-5.5-4.1l6-10.6c2.4,2.2,5.2,3.8,8.3,5
				c3.1,1.2,6.3,1.8,9.6,1.8c3.6,0,6.4-0.7,8.4-2.1c2-1.4,3-3.4,3-6.1v0c0-1.8-0.4-3.3-1.3-4.3c-0.9-1.1-2.1-1.9-3.5-2.4
				c-1.4-0.5-3.2-1-5.4-1.4c-0.1,0-0.1,0-0.2,0c-0.1,0-0.1,0-0.2,0c-0.1,0-0.2-0.1-0.3-0.1c-0.1,0-0.2,0-0.3,0
				c-4.4-0.8-8-1.7-10.8-2.8c-2.7-1-5.1-2.9-7.1-5.6c-2-2.7-2.9-6.6-2.9-11.6v0c0-4.4,0.9-8.2,2.8-11.4c1.8-3.1,4.5-5.5,8-7.2
				c3.5-1.6,7.7-2.5,12.6-2.5c2.2,0,4.5,0.3,6.9,0.8c2.3,0.6,4.6,1.4,6.9,2.5c2.2,1.1,4.4,2.4,6.4,3.9l-5.5,10.9
				c-2.4-1.9-4.8-3.3-7.3-4.3c-2.5-1-5-1.5-7.3-1.5c-3.3,0-5.9,0.7-7.8,2c-1.9,1.3-2.8,3.1-2.8,5.5v0c0,2,0.5,3.6,1.5,4.8
				c1,1.2,2.3,2,3.8,2.5c1.5,0.5,3.6,1.1,6.2,1.6c0,0,0.1,0,0.1,0c0,0,0.1,0,0.1,0c0.2,0,0.3,0.1,0.5,0.1c0.2,0,0.3,0.1,0.5,0.1
				c4,0.9,7.3,1.9,10,3.1c2.7,1.2,4.9,3.2,6.7,5.8c1.8,2.7,2.7,6.4,2.7,11v0.1c0,4.4-0.9,8.1-2.9,11.2c-1.9,3.1-4.7,5.5-8.3,7.1
				c-3.6,1.6-8,2.5-13.1,2.5C715.9,915.7,712.7,915.3,709.4,914.5z M713.9,838.2h12.9v10.7h-12.9V838.2z M713.9,912h12.9v11.4h-12.9
				V912z"/>
		</g>
	</g>
</g>
<g id="Dollar_2_">
	<g>
		<path class="st6" d="M789.9,761.4l283.9,0c0.9,0,1.6-0.6,1.6-1.4l0-54.7c0-0.8-0.7-1.4-1.6-1.4l-283.9,0c-0.9,0-1.6,0.6-1.6,1.4
			l0,54.7C788.4,760.8,789.1,761.4,789.9,761.4z"/>
		<g class="st8">
			
				<rect x="797.2" y="708.7" transform="matrix(-1 -2.048539e-04 2.048539e-04 -1 1604.49 1466.0747)" class="st9" width="10.2" height="48.5"/>
			
				<rect x="812.5" y="708.7" transform="matrix(-1 -1.479245e-04 1.479245e-04 -1 1635.0848 1466.0359)" class="st9" width="10.2" height="48.5"/>
			
				<rect x="827.8" y="708.7" transform="matrix(-1 -1.365371e-04 1.365371e-04 -1 1665.6465 1466.0327)" class="st9" width="10.2" height="48.5"/>
			
				<rect x="843.1" y="708.7" transform="matrix(-1 -1.479127e-04 1.479127e-04 -1 1696.1921 1466.0491)" class="st9" width="10.2" height="48.5"/>
			
				<rect x="858.9" y="708.7" transform="matrix(-1 -1.365324e-04 1.365324e-04 -1 1727.8857 1466.0459)" class="st9" width="10.2" height="48.5"/>
			
				<rect x="874.2" y="708.7" transform="matrix(-1 -1.479262e-04 1.479262e-04 -1 1758.4312 1466.0627)" class="st9" width="10.2" height="48.5"/>
			
				<rect x="889.5" y="708.7" transform="matrix(-1 -1.479195e-04 1.479195e-04 -1 1788.985 1466.0691)" class="st9" width="10.2" height="48.5"/>
			
				<rect x="904.7" y="708.7" transform="matrix(-1 -1.479262e-04 1.479262e-04 -1 1819.5386 1466.0754)" class="st9" width="10.2" height="48.5"/>
			
				<rect x="919.4" y="708.7" transform="matrix(-1 -1.479195e-04 1.479195e-04 -1 1848.9606 1466.0817)" class="st9" width="10.2" height="48.5"/>
			
				<rect x="934.7" y="708.7" transform="matrix(-1 -1.479178e-04 1.479178e-04 -1 1879.5137 1466.0886)" class="st9" width="10.2" height="48.5"/>
			
				<rect x="950" y="708.7" transform="matrix(-1 -1.479161e-04 1.479161e-04 -1 1910.0679 1466.0953)" class="st9" width="10.2" height="48.5"/>
			
				<rect x="965.3" y="708.7" transform="matrix(-1 -1.820780e-04 1.820780e-04 -1 1940.5962 1466.1346)" class="st9" width="10.2" height="48.5"/>
			
				<rect x="981.1" y="708.7" transform="matrix(-1 -1.706963e-04 1.706963e-04 -1 1972.2898 1466.1305)" class="st9" width="10.2" height="48.5"/>
			
				<rect x="996.4" y="708.7" transform="matrix(-1 -1.593013e-04 1.593013e-04 -1 2002.8523 1466.126)" class="st9" width="10.2" height="48.5"/>
			
				<rect x="1011.7" y="708.7" transform="matrix(-1 -1.820801e-04 1.820801e-04 -1 2033.3894 1466.1563)" class="st9" width="10.2" height="48.5"/>
			
				<rect x="1026.9" y="708.7" transform="matrix(-1 -1.820801e-04 1.820801e-04 -1 2063.9421 1466.1633)" class="st9" width="10.2" height="48.5"/>
			
				<rect x="1041.7" y="708.7" transform="matrix(-1 -1.479212e-04 1.479212e-04 -1 2093.3894 1466.1335)" class="st9" width="10.2" height="48.5"/>
			
				<rect x="1056.9" y="708.7" transform="matrix(-1 -1.593032e-04 1.593032e-04 -1 2123.9351 1466.1522)" class="st9" width="10.2" height="48.5"/>
		</g>
	</g>
	<g>
		<path class="st6" d="M762.3,821.1l283.9,0c0.9,0,1.6-0.6,1.6-1.4l0-54.7c0-0.8-0.7-1.4-1.6-1.4l-283.9,0c-0.9,0-1.6,0.6-1.6,1.4
			l0,54.7C760.7,820.5,761.4,821.1,762.3,821.1z"/>
		<g class="st8">
			
				<rect x="769.6" y="768.4" transform="matrix(-1 -2.048539e-04 2.048539e-04 -1 1549.1755 1585.4055)" class="st9" width="10.2" height="48.5"/>
			
				<rect x="784.9" y="768.4" transform="matrix(-1 -1.479245e-04 1.479245e-04 -1 1579.7737 1585.3682)" class="st9" width="10.2" height="48.5"/>
			
				<rect x="800.1" y="768.4" transform="matrix(-1 -1.365371e-04 1.365371e-04 -1 1610.3361 1585.3654)" class="st9" width="10.2" height="48.5"/>
			
				<rect x="815.4" y="768.4" transform="matrix(-1 -1.479127e-04 1.479127e-04 -1 1640.881 1585.3815)" class="st9" width="10.2" height="48.5"/>
			
				<rect x="831.2" y="768.4" transform="matrix(-1 -1.365324e-04 1.365324e-04 -1 1672.5752 1585.3785)" class="st9" width="10.2" height="48.5"/>
			
				<rect x="846.5" y="768.4" transform="matrix(-1 -1.479262e-04 1.479262e-04 -1 1703.12 1585.3951)" class="st9" width="10.2" height="48.5"/>
			
				<rect x="861.8" y="768.4" transform="matrix(-1 -1.479195e-04 1.479195e-04 -1 1733.6738 1585.4014)" class="st9" width="10.2" height="48.5"/>
			
				<rect x="877.1" y="768.4" transform="matrix(-1 -1.479262e-04 1.479262e-04 -1 1764.2274 1585.4077)" class="st9" width="10.2" height="48.5"/>
			
				<rect x="891.8" y="768.4" transform="matrix(-1 -1.479195e-04 1.479195e-04 -1 1793.6494 1585.4141)" class="st9" width="10.2" height="48.5"/>
			
				<rect x="907.1" y="768.4" transform="matrix(-1 -1.479178e-04 1.479178e-04 -1 1824.2025 1585.4209)" class="st9" width="10.2" height="48.5"/>
			
				<rect x="922.3" y="768.4" transform="matrix(-1 -1.479161e-04 1.479161e-04 -1 1854.7567 1585.4276)" class="st9" width="10.2" height="48.5"/>
			
				<rect x="937.6" y="768.4" transform="matrix(-1 -1.820780e-04 1.820780e-04 -1 1885.283 1585.4661)" class="st9" width="10.2" height="48.5"/>
			
				<rect x="953.5" y="768.4" transform="matrix(-1 -1.706963e-04 1.706963e-04 -1 1916.9773 1585.4622)" class="st9" width="10.2" height="48.5"/>
			
				<rect x="968.7" y="768.4" transform="matrix(-1 -1.593013e-04 1.593013e-04 -1 1947.5405 1585.458)" class="st9" width="10.2" height="48.5"/>
			
				<rect x="984" y="768.4" transform="matrix(-1 -1.820801e-04 1.820801e-04 -1 1978.0762 1585.4877)" class="st9" width="10.2" height="48.5"/>
			
				<rect x="999.3" y="768.4" transform="matrix(-1 -1.820801e-04 1.820801e-04 -1 2008.6288 1585.4948)" class="st9" width="10.2" height="48.5"/>
			
				<rect x="1014" y="768.4" transform="matrix(-1 -1.479212e-04 1.479212e-04 -1 2038.0784 1585.4659)" class="st9" width="10.2" height="48.5"/>
			
				<rect x="1029.3" y="768.4" transform="matrix(-1 -1.593032e-04 1.593032e-04 -1 2068.623 1585.4841)" class="st9" width="10.2" height="48.5"/>
		</g>
	</g>
	<g>
		<path class="st6" d="M734.6,880.7l283.9,0c0.9,0,1.6-0.6,1.6-1.4l0-54.7c0-0.8-0.7-1.4-1.6-1.4l-283.9,0c-0.9,0-1.6,0.6-1.6,1.4
			l0,54.7C733.1,880.1,733.8,880.7,734.6,880.7z"/>
		<g class="st8">
			
				<rect x="741.9" y="828" transform="matrix(-1 -2.048539e-04 2.048539e-04 -1 1493.861 1704.7362)" class="st9" width="10.2" height="48.5"/>
			
				<rect x="757.2" y="828" transform="matrix(-1 -1.479245e-04 1.479245e-04 -1 1524.4625 1704.7006)" class="st9" width="10.2" height="48.5"/>
			
				<rect x="772.5" y="828" transform="matrix(-1 -1.365371e-04 1.365371e-04 -1 1555.0255 1704.698)" class="st9" width="10.2" height="48.5"/>
			
				<rect x="787.8" y="828" transform="matrix(-1 -1.479127e-04 1.479127e-04 -1 1585.5697 1704.7137)" class="st9" width="10.2" height="48.5"/>
			
				<rect x="803.6" y="828" transform="matrix(-1 -1.365324e-04 1.365324e-04 -1 1617.2648 1704.7112)" class="st9" width="10.2" height="48.5"/>
			
				<rect x="818.9" y="828" transform="matrix(-1 -1.479262e-04 1.479262e-04 -1 1647.8088 1704.7274)" class="st9" width="10.2" height="48.5"/>
			
				<rect x="834.2" y="828" transform="matrix(-1 -1.479195e-04 1.479195e-04 -1 1678.3627 1704.7338)" class="st9" width="10.2" height="48.5"/>
			
				<rect x="849.4" y="828" transform="matrix(-1 -1.479262e-04 1.479262e-04 -1 1708.9163 1704.7401)" class="st9" width="10.2" height="48.5"/>
			
				<rect x="864.1" y="828" transform="matrix(-1 -1.479195e-04 1.479195e-04 -1 1738.3383 1704.7463)" class="st9" width="10.2" height="48.5"/>
			
				<rect x="879.4" y="828" transform="matrix(-1 -1.479178e-04 1.479178e-04 -1 1768.8914 1704.7533)" class="st9" width="10.2" height="48.5"/>
			
				<rect x="894.7" y="828.1" transform="matrix(-1 -1.479161e-04 1.479161e-04 -1 1799.4456 1704.76)" class="st9" width="10.2" height="48.5"/>
			
				<rect x="910" y="828.1" transform="matrix(-1 -1.820780e-04 1.820780e-04 -1 1829.9697 1704.7975)" class="st9" width="10.2" height="48.5"/>
			
				<rect x="925.8" y="828.1" transform="matrix(-1 -1.706963e-04 1.706963e-04 -1 1861.6648 1704.7938)" class="st9" width="10.2" height="48.5"/>
			
				<rect x="941.1" y="828.1" transform="matrix(-1 -1.593013e-04 1.593013e-04 -1 1892.2286 1704.79)" class="st9" width="10.2" height="48.5"/>
			
				<rect x="956.4" y="828.1" transform="matrix(-1 -1.820801e-04 1.820801e-04 -1 1922.7629 1704.819)" class="st9" width="10.2" height="48.5"/>
			
				<rect x="971.6" y="828.1" transform="matrix(-1 -1.820801e-04 1.820801e-04 -1 1953.3157 1704.8262)" class="st9" width="10.2" height="48.5"/>
			
				<rect x="986.4" y="828.1" transform="matrix(-1 -1.479212e-04 1.479212e-04 -1 1982.7672 1704.7982)" class="st9" width="10.2" height="48.5"/>
			
				<rect x="1001.6" y="828.1" transform="matrix(-1 -1.593032e-04 1.593032e-04 -1 2013.3113 1704.8162)" class="st9" width="10.2" height="48.5"/>
		</g>
	</g>
	<g>
		<path class="st6" d="M768.1,940.4l283.9,0c0.9,0,1.6-0.6,1.6-1.4l0-54.7c0-0.8-0.7-1.4-1.6-1.4l-283.9,0c-0.9,0-1.6,0.6-1.6,1.4
			l0,54.7C766.5,939.8,767.2,940.4,768.1,940.4z"/>
		<g class="st8">
			
				<rect x="775.4" y="887.7" transform="matrix(-1 -2.048539e-04 2.048539e-04 -1 1560.7935 1824.0796)" class="st9" width="10.2" height="48.5"/>
			
				<rect x="790.7" y="887.7" transform="matrix(-1 -1.479245e-04 1.479245e-04 -1 1591.3983 1824.0419)" class="st9" width="10.2" height="48.5"/>
			
				<rect x="806" y="887.7" transform="matrix(-1 -1.365371e-04 1.365371e-04 -1 1621.9622 1824.0389)" class="st9" width="10.2" height="48.5"/>
			
				<rect x="821.2" y="887.7" transform="matrix(-1 -1.479127e-04 1.479127e-04 -1 1652.5056 1824.0552)" class="st9" width="10.2" height="48.5"/>
			
				<rect x="837.1" y="887.7" transform="matrix(-1 -1.365324e-04 1.365324e-04 -1 1684.2013 1824.0522)" class="st9" width="10.2" height="48.5"/>
			
				<rect x="852.3" y="887.7" transform="matrix(-1 -1.479262e-04 1.479262e-04 -1 1714.7446 1824.0688)" class="st9" width="10.2" height="48.5"/>
			
				<rect x="867.6" y="887.7" transform="matrix(-1 -1.479195e-04 1.479195e-04 -1 1745.2986 1824.0751)" class="st9" width="10.2" height="48.5"/>
			
				<rect x="882.9" y="887.7" transform="matrix(-1 -1.479262e-04 1.479262e-04 -1 1775.8522 1824.0814)" class="st9" width="10.2" height="48.5"/>
			
				<rect x="897.6" y="887.7" transform="matrix(-1 -1.479195e-04 1.479195e-04 -1 1805.2742 1824.0878)" class="st9" width="10.2" height="48.5"/>
			
				<rect x="912.9" y="887.7" transform="matrix(-1 -1.479178e-04 1.479178e-04 -1 1835.8273 1824.0946)" class="st9" width="10.2" height="48.5"/>
			
				<rect x="928.2" y="887.7" transform="matrix(-1 -1.479161e-04 1.479161e-04 -1 1866.3815 1824.1013)" class="st9" width="10.2" height="48.5"/>
			
				<rect x="943.4" y="887.7" transform="matrix(-1 -1.820780e-04 1.820780e-04 -1 1896.9036 1824.14)" class="st9" width="10.2" height="48.5"/>
			
				<rect x="959.3" y="887.7" transform="matrix(-1 -1.706963e-04 1.706963e-04 -1 1928.5992 1824.136)" class="st9" width="10.2" height="48.5"/>
			
				<rect x="974.6" y="887.7" transform="matrix(-1 -1.593013e-04 1.593013e-04 -1 1959.1638 1824.1318)" class="st9" width="10.2" height="48.5"/>
			
				<rect x="989.8" y="887.7" transform="matrix(-1 -1.820801e-04 1.820801e-04 -1 1989.6968 1824.1615)" class="st9" width="10.2" height="48.5"/>
			
				<rect x="1005.1" y="887.7" transform="matrix(-1 -1.820801e-04 1.820801e-04 -1 2020.2495 1824.1687)" class="st9" width="10.2" height="48.5"/>
			
				<rect x="1019.8" y="887.7" transform="matrix(-1 -1.479212e-04 1.479212e-04 -1 2049.7031 1824.1396)" class="st9" width="10.2" height="48.5"/>
			
				<rect x="1035.1" y="887.7" transform="matrix(-1 -1.593032e-04 1.593032e-04 -1 2080.2466 1824.158)" class="st9" width="10.2" height="48.5"/>
		</g>
	</g>
</g>
<g id="L_Body">
	<g>
		<path class="st10" d="M1150.1,604.3c-20.8-6.9-63.8-13.9-69.5-5.9c-7.3,10.3-0.9,94.8-0.9,94.8l38.3,4.5c0.1-0.5-0.1-1.1,0.3-1.4
			C1159.3,662.1,1187.6,655,1150.1,604.3z"/>
		<path class="st11" d="M1150.1,604.3c-20.8-6.9-63.8-13.9-69.5-5.9c-7.3,10.3-0.9,94.8-0.9,94.8l38.3,4.5c0.1-0.5-0.1-1.1,0.3-1.4
			C1159.3,662.1,1187.6,655,1150.1,604.3z"/>
		<path class="st10" d="M1134.9,600.7c-26.8,16.6-31.6,56.8-35,89c0,0.5-0.1,1-0.2,1.5l0.5,0.1l-19.2,213l43.4,1.8
			c0,0,44.7-170.4,49.5-215.5c2-19,5.5-55.2,0-72.4C1169,602.9,1138.5,601.9,1134.9,600.7z"/>
		<path class="st11" d="M1134.9,600.7c-26.8,16.6-31.6,56.8-35,89c0,0.5-0.1,1-0.2,1.5l0.5,0.1l-19.2,213l43.4,1.8
			c0,0,44.7-170.4,49.5-215.5c2-19,5.5-55.2,0-72.4C1169,602.9,1138.5,601.9,1134.9,600.7z"/>
		<g>
			<path class="st12" d="M1081.9,879.7c0,0-7.4,50.3-10,60.1c-2.6,9.8-3.1,33.5-3.1,33.5l9.3-1l6.8-22.8c0,0,6.9,17,11,21
				c4.1,4,92.6-6.9,92.6-6.9s-6.8-21.9-14.6-27.7c-7.8-5.8-41.3-7.7-41.3-7.7l4.1-46.1L1081.9,879.7z"/>
			<path class="st11" d="M1080.9,878.8c0,0-7.4,50.3-10,60.1c-2.6,9.8-3.1,33.5-3.1,33.5l9.3-1l6.8-22.8c0,0,6.9,17,11,21
				c4.1,4,92.6-6.9,92.6-6.9s-6.8-21.9-14.6-27.7c-7.8-5.8-41.3-7.7-41.3-7.7l4.1-46.1L1080.9,878.8z"/>
			<path class="st13" d="M1120.7,929.7c0,0-9.2,1.7-15.2,7.1"/>
			<line class="st13" x1="1114.1" y1="893.7" x2="1131.4" y2="906.8"/>
			<line class="st13" x1="1132.5" y1="893.2" x2="1113.1" y2="904.8"/>
			<line class="st13" x1="1113.4" y1="907.9" x2="1129.5" y2="922.5"/>
			<line class="st13" x1="1131.8" y1="909.1" x2="1111.4" y2="918.9"/>
		</g>
		<path class="st12" d="M996.3,573.3l105.1,17.1l-27.9,86.7c0,0-80,14.3-90.9,4.9C971.8,672.4,996.3,573.3,996.3,573.3z"/>
	</g>
	<g>
		<path class="st12" d="M1004.6,560.7c0,0,35.7,46.2,34.9,52c-0.8,5.8-45.7,87.6-45.7,87.6S890,700.1,882.2,694
			c-23.1-18.2-29.6-54.7-15.6-84.6c10.1-21.5,28.1-42.9,28.1-42.9L1004.6,560.7z"/>
		<path class="st0" d="M974,564c8.5,38.7,15.7,77.7,21.5,116.9"/>
		<polyline class="st0" points="983.5,567.9 990.2,607.1 985.4,618.7 		"/>
		<path class="st0" d="M912.8,597.7c4,1.3,8.6-0.3,12-2.4c8.1-5,13.2-13,13.4-21.2"/>
		<path class="st14" d="M1001.7,570.7c1.7,9.7,9.1,18.1,18.4,21.1"/>
		<path class="st0" d="M914,582.4c-7.2,17-11.7,37.2-14.8,55.4"/>
		<polygon points="894.7,566.4 1004.6,560.7 1008.6,566.2 886.4,578 		"/>
	</g>
	<g>
		<g>
			<path class="st10" d="M1126.4,617.7c0,0-9.4-4-21.2-5.2c-20.9,12.1-32,42.7-35.1,67.4c-1.1,8.9-3.4,17.2-6.1,25.3l-34.8,213.2
				l47.6-2.6c0,0,61.7-168.6,70.3-211.8C1155.6,660.5,1155.7,622.8,1126.4,617.7z"/>
			<g>
				<path class="st12" d="M1032,881c0,0-17.8,59.2-20.4,68.9c-2.6,9.7-3.1,33.1-3.1,33.1l9.3-1l6.9-22.6c0,0,6.9,16.8,11,20.7
					c4.1,3.9,93.4-8.4,93.4-8.4s-10-17.6-17.9-23.4c-7.8-5.7-37.1-9.5-37.1-9.5l16.5-54.3L1032,881z"/>
				<path class="st13" d="M1060.4,939.8c0,0-9.2,1.7-15.2,7"/>
				<line class="st13" x1="1053.8" y1="904" x2="1071.1" y2="917"/>
				<line class="st13" x1="1072.3" y1="903.6" x2="1052.8" y2="915.1"/>
				<line class="st13" x1="1053.1" y1="918.2" x2="1069.2" y2="932.6"/>
				<line class="st13" x1="1071.5" y1="919.4" x2="1051.1" y2="929.1"/>
			</g>
			<line class="st15" x1="1064.8" y1="700.8" x2="1073.5" y2="664.7"/>
		</g>
		<g>
			<path class="st10" d="M1105.2,612.5c-26.4-2.7-67.4-9.2-72.4-2.2c-7.3,10.2-8.3,77.2-8.3,77.2l44.3-6.1c0,0,14.6-0.6,23.3-2.4
				C1147.7,667.4,1135.4,633.8,1105.2,612.5z"/>
			<path class="st12" d="M932.2,599.2l80.7,3.5l68.5,7c0,0-7.6,15.8-14.4,39.3c-6.8,23.5-0.8,40.1-4.3,42.5
				c-7,4.9-146.4,17.7-172.4,8.5c-16.1-5.7-29.3-29.2-25.5-56.4C868.7,616.6,932.2,599.2,932.2,599.2z"/>
			<path class="st0" d="M896.8,624c0,0-2.3,36.1,19.3,44.7c40.5,16.1,117.7,9.9,118.3,10.8"/>
			<path class="st0" d="M1070.9,613.5c-1-0.3-1.9,0.8-2.3,1.8c-9.6,21-14.3,44.3-13.7,67.4"/>
		</g>
		<polyline class="st0" points="1081.4,609.7 1039.6,605.4 965.9,600.2 		"/>
	</g>
</g>
<g id="R_Arm_1_">
	<g>
		<path class="st10" d="M1045.5,421.4l20.1,92.4c0,0-0.6,34.4-6.7,36.8c-6.1,2.4-18.8,1.7-21.1,1.7c-2.3,0-32.3-125.6-32.3-125.6
			L1045.5,421.4z"/>
		<polygon class="st11" points="1059.3,487.7 1062.3,502.5 1029.5,523.7 1023.5,500 		"/>
		<path class="st3" d="M1001.3,402.7c0,0,13.6-8.9,32.7,3c12.5,7.7,41.4,87.3,41.4,87.3l-64.2,26.9
			C1011.1,519.9,989.1,411.8,1001.3,402.7z"/>
		<path class="st11" d="M1011.1,519.9l44.4-18.9c0,0-7.6-22.6-13.4-38c-7.8-20.5-17.2-30-19.8-31.1c-4.6-2.1-23.3-14.9-23.9,1.6
			C997.8,449.8,1011.1,519.9,1011.1,519.9z"/>
	</g>
</g>
<g id="R_Arm">
	<g>
		<path class="st10" d="M1140.8,554.7c0,0,6.5-9.4,24.2-17.5c0,0,9.4-4.4,12.4-8.5c0,0,1.9-3.9,4.4-1.2c0,0,4.8,4.4-13.3,18.3
			c0,0,13.7,6.1,25.4,3.4c0,0,13.3-3.1,16-3.4c0,0,3-0.7,3.5,2.7c0,0,0.4,1.9-4.5,2.9c0,0-14.2,4.6-19.3,5.1c0,0-2.7,0.3-2.6,1.8
			c0,0,0,2.1,4.2,1.6c0,0,14.1-0.7,24.2-2.7c0,0,4.3-1.5,5.1,1.4c0,0,0.3,3.8-2.6,4.2c0,0,3,0.4,2.2,3.5c0,0,0.5,3.4-18.3,7
			c0,0-12,2.2-17.3,1.6c0,0,8.3,2.3,14.9,2.9c0,0,3.9-0.1,3.7,2.3c0,0,0.4,2-5.2,2.6c0,0-37,0.3-54.1-6.8
			C1143.6,576,1131.7,568,1140.8,554.7z"/>
		<path class="st16" d="M1154.6,565.8c0,0,6.9-5.4,25.9,6.8c0,0,3,2.1,4.4,2.6"/>
		<path class="st16" d="M1154,560.9c10.9-5.8,11.8-12.2,11.8-12.2s0.5-1.5,2.6-2.9"/>
		<path class="st16" d="M1217.8,562.9c0,0-20.7,5.7-31.9,2.8"/>
	</g>
</g>
<g id="R_Hand">
	<path class="st10" d="M1065.3,515.7c0,0,98.5,37.1,101.7,40.6c3.2,3.5-2.7,23.8-8.3,23.7c-5.6-0.1-102.3-15.2-115.6-21.8
		c-12.6-6.3-17.3-35.8-7.5-42.1C1045.4,509.9,1065.3,515.7,1065.3,515.7z"/>
</g>
<g id="Body">
	<g>
		<path class="st10" d="M969.5,380.1c-1.8-0.2-21.7,0.9-35.4,3.2c-13.7,2.3-21.6,4.8-21.5,6.3c0.4,3,56.4,34.5,67.6,38.1
			c11.3,3.6,36.1-24,37.2-26.8C1018.6,398.1,969.5,380.1,969.5,380.1z"/>
		<g>
			<path class="st3" d="M917.7,384.8c0,0,32.8,31,47.9,32.6c32,3.4,48.4-19.6,48.4-19.6l15.3,8.4c0,0-0.3,15.3,4.1,25.5
				c6,14,11.3,26.2,5.6,40.4c-2.9,7.2-9.1,13.2-13.9,24.6c-11.6,27.3-18.9,65.4-18.9,65.4l-116.3,4.2l10.1-31.1
				c0,0-8.1-86.4-8-104.7c0.1-12.1-7.7-25.2,0.4-33.8C896.5,392.2,917.7,384.8,917.7,384.8z"/>
			<path class="st0" d="M1037.6,442.4c4.7,11,5.4,22.9-0.4,33.3c-3,5.4-5.1,10.4-8.9,15.2c-3.7,4.8-7.4,18.5-9.5,24.2
				c-6.3,16.6-8.3,30-12.3,47.3"/>
			<path class="st0" d="M917.3,387c0,0,35.3,30.6,52.2,31.7c26.9,1.7,44.6-21,44.6-21"/>
			<path class="st0" d="M916.4,394c0,0,28,32.2,52.2,33.9c24.4,1.7,47.1-24.4,47.1-24.4"/>
			<path class="st11" d="M892.5,411.4c0,0-3.4,18.5-0.9,42.9c2.5,24.4,8.4,80.8,8.4,80.8s35.1-94.1,25.5-92.5
				S892.5,411.4,892.5,411.4z"/>
		</g>
	</g>
</g>
<g id="L_Arm">
	<g>
		<path class="st10" d="M943.2,445.7c0.5,2.7,20,96.5,22.1,102.7c2.1,6.2-0.7,14.8-6.7,21.7c-6,6.9-24.3,8.9-33.7,3.3
			c-9.4-5.6-36.2-94.1-34.6-109.6C891.9,448.3,943.2,445.7,943.2,445.7z"/>
		<path class="st3" d="M914,393.5c0,0-42.2-15.8-36.6,62l27.6,85.5l53.6-20.1C958.6,520.8,953.5,398.5,914,393.5z"/>
		<polyline class="st0" points="947.6,443.2 958.3,523.2 904.9,542 		"/>
	</g>
</g>
<g id="L_Finger">
	<g>
		<path class="st10" d="M1066.1,589.6c0,0,7.2-3.2,12.9-2.1l25.9,1.7c0,0,3.6-0.5-1-3.5l8.3,1.6c0,0,4.7-2.4-0.9-5.1
			c0,0,0.8,0.5,1.8,0.9c2.7,1,4.9-2.2,3.1-4.4l0,0c4.7-2.4-2.1-5.3-2.1-5.3l-23.6-14.2l-6.6-0.3l7.7-8.7c3.9-7.1-3.2-5.5-3.2-5.5
			s-21.2,14.2-24.9,16.4c0,0-30,13.9-18.8,29.5C1044.7,590.4,1047.6,600.3,1066.1,589.6z"/>
		<line class="st0" x1="1084.6" y1="578.8" x2="1106" y2="586.1"/>
		<line class="st0" x1="1092.3" y1="571.7" x2="1111.4" y2="581.9"/>
		<line class="st0" x1="1094.7" y1="567.2" x2="1116.3" y2="578.3"/>
	</g>
</g>
<g id="LHand">
	<path class="st10" d="M955.2,537.4c0,0,100.8,30.3,104.2,33.6c3.4,3.3-1.1,23.9-6.7,24.2c-5.6,0.3-103.1-8.2-116.8-13.8
		c-13-5.4-19.7-34.5-10.4-41.5C934.9,533,955.2,537.4,955.2,537.4z"/>
</g>
<g id="Laptop">
	<g>
		<g>
			<g>
				<polygon class="st3" points="1265.9,601.5 1112.1,605.5 1145.7,471.6 1294.1,467.3 				"/>
			</g>
			<circle class="st7" cx="1206.5" cy="535.7" r="12.7"/>
		</g>
		<path d="M1112,606h-65c-3.9,0-7-3.1-7-7l0,0c0-3.9,3.1-7,7-7h69L1112,606z"/>
	</g>
</g>
<g id="Neck">
	<path class="st10" d="M943.8,391.1c15.7,16.4,39.9,11,41.7-1l-2-36.1l-39.1,0.8L944,391h-1.3"/>
	<path d="M954.9,372c17.1,11.5,31.1,10.5,31.1,10.5l-1.7-29.6l-39.7,5.8C944.6,358.6,945.7,365.8,954.9,372z"/>
</g>
<g id="Dollar_1_">
	<g>
		<g>
			
				<ellipse transform="matrix(0.9648 -0.2629 0.2629 0.9648 -55.2223 355.8713)" class="st6" cx="1302.2" cy="384.3" rx="44.1" ry="44.1"/>
			<circle class="st3" cx="1302" cy="384.5" r="36.8"/>
			<circle class="st0" cx="1302" cy="384.5" r="36.8"/>
		</g>
		<g>
			<path class="st7" d="M1299.3,402.3c-1.7-0.4-3.2-0.9-4.5-1.6c-1.3-0.7-2.2-1.4-2.8-2.1l3-5.4c1.2,1.1,2.6,2,4.2,2.6
				c1.6,0.6,3.2,0.9,4.9,0.9c1.8,0,3.3-0.4,4.3-1.1c1-0.7,1.5-1.8,1.5-3.1v0c0-0.9-0.2-1.7-0.7-2.2c-0.5-0.5-1-0.9-1.8-1.2
				c-0.7-0.3-1.6-0.5-2.8-0.7c0,0-0.1,0-0.1,0c0,0-0.1,0-0.1,0c0,0-0.1,0-0.2,0c-0.1,0-0.1,0-0.2,0c-2.3-0.4-4.1-0.9-5.5-1.4
				c-1.4-0.5-2.6-1.5-3.6-2.9c-1-1.4-1.5-3.4-1.5-5.9v0c0-2.3,0.5-4.2,1.4-5.8c0.9-1.6,2.3-2.8,4.1-3.7c1.8-0.8,3.9-1.3,6.4-1.3
				c1.1,0,2.3,0.1,3.5,0.4c1.2,0.3,2.4,0.7,3.5,1.2c1.1,0.5,2.2,1.2,3.2,2l-2.8,5.6c-1.2-0.9-2.4-1.7-3.7-2.2
				c-1.3-0.5-2.5-0.8-3.7-0.8c-1.7,0-3,0.3-4,1c-0.9,0.7-1.4,1.6-1.4,2.8v0c0,1,0.3,1.9,0.8,2.4c0.5,0.6,1.2,1,1.9,1.3
				c0.8,0.3,1.8,0.6,3.2,0.8c0,0,0,0,0,0c0,0,0,0,0,0c0.1,0,0.2,0,0.2,0c0.1,0,0.2,0,0.2,0c2,0.4,3.7,1,5.1,1.6
				c1.4,0.6,2.5,1.6,3.4,3c0.9,1.4,1.4,3.2,1.4,5.6v0c0,2.2-0.5,4.1-1.5,5.7c-1,1.6-2.4,2.8-4.2,3.6c-1.8,0.8-4.1,1.2-6.7,1.2
				C1302.6,402.9,1300.9,402.7,1299.3,402.3z M1301.6,363.5h6.6v5.5h-6.6V363.5z M1301.6,401.1h6.6v5.8h-6.6V401.1z"/>
		</g>
	</g>
</g>
<g id="Dollar">
	<g>
		
			<ellipse transform="matrix(0.9824 -0.1868 0.1868 0.9824 -138.3631 251.4153)" class="st6" cx="1265.2" cy="860.1" rx="86.6" ry="86.6"/>
		<circle class="st3" cx="1264.8" cy="860.5" r="72.3"/>
		<circle class="st0" cx="1264.8" cy="860.5" r="72.3"/>
	</g>
	<g>
		<path class="st7" d="M1259.4,895.5c-3.3-0.8-6.2-1.9-8.8-3.2c-2.6-1.3-4.4-2.7-5.5-4.1l6-10.6c2.4,2.2,5.2,3.8,8.3,5
			c3.1,1.2,6.3,1.8,9.6,1.8c3.6,0,6.4-0.7,8.4-2.1c2-1.4,3-3.4,3-6.1v0c0-1.8-0.4-3.3-1.3-4.3c-0.9-1.1-2.1-1.9-3.5-2.4
			c-1.4-0.5-3.2-1-5.4-1.4c-0.1,0-0.1,0-0.2,0c-0.1,0-0.1,0-0.2,0c-0.1,0-0.2-0.1-0.3-0.1c-0.1,0-0.2,0-0.3,0
			c-4.4-0.8-8-1.7-10.8-2.8c-2.7-1-5.1-2.9-7.1-5.6c-2-2.7-2.9-6.6-2.9-11.6v0c0-4.4,0.9-8.2,2.8-11.4c1.8-3.1,4.5-5.5,8-7.2
			c3.5-1.6,7.7-2.5,12.6-2.5c2.2,0,4.5,0.3,6.9,0.8c2.3,0.6,4.6,1.4,6.9,2.5c2.2,1.1,4.4,2.4,6.4,3.9l-5.5,10.9
			c-2.4-1.9-4.8-3.3-7.3-4.3c-2.5-1-5-1.5-7.3-1.5c-3.3,0-5.9,0.7-7.8,2c-1.9,1.3-2.8,3.1-2.8,5.5v0c0,2,0.5,3.6,1.5,4.8
			c1,1.2,2.3,2,3.8,2.5c1.5,0.5,3.6,1.1,6.2,1.6c0,0,0.1,0,0.1,0c0,0,0.1,0,0.1,0c0.2,0,0.3,0.1,0.5,0.1c0.2,0,0.3,0.1,0.5,0.1
			c4,0.9,7.3,1.9,10,3.1c2.7,1.2,4.9,3.2,6.7,5.8s2.7,6.4,2.7,11v0.1c0,4.4-0.9,8.1-2.9,11.2c-1.9,3.1-4.7,5.5-8.3,7.1
			c-3.6,1.6-8,2.5-13.1,2.5C1265.9,896.7,1262.7,896.3,1259.4,895.5z M1263.9,819.2h12.9v10.7h-12.9V819.2z M1263.9,893h12.9v11.4
			h-12.9V893z"/>
	</g>
</g>
<g id="Face">
	<g>
		<g>
			<defs>
				<path id="SVGID_1_" d="M924.4,291.9c0,0-13.1-14.3-34.3-4.4c0,0-28.6,8.8-22.5,53.6c0,0,6.3,69.8-22.5,74.7
					c0,0,55.5,16.8,68.5-37.4c0,0,1.9,20.6-18.1,36.8c0,0,32.4-5,34.9-57.4C930.6,358,935.6,310.6,924.4,291.9z"/>
			</defs>
			<clipPath id="SVGID_2_">
				<use xlink:href="#SVGID_1_"  style="overflow:visible;"/>
			</clipPath>
			<path class="st17" d="M924.4,291.9c0,0-13.1-14.3-34.3-4.4c0,0-28.6,8.8-22.5,53.6c0,0,6.3,69.8-22.5,74.7
				c0,0,55.5,16.8,68.5-37.4c0,0,1.9,20.6-18.1,36.8c0,0,32.4-5,34.9-57.4C930.6,358,935.6,310.6,924.4,291.9z"/>
		</g>
		<g>
			<defs>
				<path id="SVGID_4_" d="M924.4,291.9c0,0-13.1-14.3-34.3-4.4c0,0-28.6,8.8-22.5,53.6c0,0,6.3,69.8-22.5,74.7
					c0,0,55.5,16.8,68.5-37.4c0,0,1.9,20.6-18.1,36.8c0,0,32.4-5,34.9-57.4C930.6,358,935.6,310.6,924.4,291.9z"/>
			</defs>
			<clipPath id="SVGID_5_">
				<use xlink:href="#SVGID_4_"  style="overflow:visible;"/>
			</clipPath>
			<path class="st18" d="M916.7,286.8c0,0-15.8,20.1-14.7,43.8l0,0c0,0,1.3,26.1,28.1,32.2c0,0,6.7-48.4-5.7-70.7
				C924.4,291.9,920.1,287.8,916.7,286.8z"/>
		</g>
		<g>
			<defs>
				<path id="SVGID_6_" d="M924.4,291.9c0,0-13.1-14.3-34.3-4.4c0,0-28.6,8.8-22.5,53.6c0,0,6.3,69.8-22.5,74.7
					c0,0,55.5,16.8,68.5-37.4c0,0,1.9,20.6-18.1,36.8c0,0,32.4-5,34.9-57.4C930.6,358,935.6,310.6,924.4,291.9z"/>
			</defs>
			<clipPath id="SVGID_7_">
				<use xlink:href="#SVGID_6_"  style="overflow:visible;"/>
			</clipPath>
			<path class="st19" d="M825.6,411.7"/>
		</g>
		<g>
			<defs>
				<path id="SVGID_8_" d="M924.4,291.9c0,0-13.1-14.3-34.3-4.4c0,0-28.6,8.8-22.5,53.6c0,0,6.3,69.8-22.5,74.7
					c0,0,55.5,16.8,68.5-37.4c0,0,1.9,20.6-18.1,36.8c0,0,32.4-5,34.9-57.4C930.6,358,935.6,310.6,924.4,291.9z"/>
			</defs>
			<clipPath id="SVGID_9_">
				<use xlink:href="#SVGID_8_"  style="overflow:visible;"/>
			</clipPath>
			<path class="st20" d="M925.7,296.3"/>
		</g>
		<g>
			<defs>
				<path id="SVGID_10_" d="M924.4,291.9c0,0-13.1-14.3-34.3-4.4c0,0-28.6,8.8-22.5,53.6c0,0,6.3,69.8-22.5,74.7
					c0,0,55.5,16.8,68.5-37.4c0,0,1.9,20.6-18.1,36.8c0,0,32.4-5,34.9-57.4C930.6,358,935.6,310.6,924.4,291.9z"/>
			</defs>
			<clipPath id="SVGID_11_">
				<use xlink:href="#SVGID_10_"  style="overflow:visible;"/>
			</clipPath>
			<path class="st21" d="M829.8,428.4"/>
		</g>
		<g>
			<defs>
				<path id="SVGID_12_" d="M924.4,291.9c0,0-13.1-14.3-34.3-4.4c0,0-28.6,8.8-22.5,53.6c0,0,6.3,69.8-22.5,74.7
					c0,0,55.5,16.8,68.5-37.4c0,0,1.9,20.6-18.1,36.8c0,0,32.4-5,34.9-57.4C930.6,358,935.6,310.6,924.4,291.9z"/>
			</defs>
			<clipPath id="SVGID_13_">
				<use xlink:href="#SVGID_12_"  style="overflow:visible;"/>
			</clipPath>
			<path class="st22" d="M921.9,299.5"/>
		</g>
	</g>
	<g>
		<path class="st10" d="M1001.5,342.3c0,13.8-9.5,26-22.9,29.1c-2.2,0.5-4.6,0.8-7.2,0.7c0,0-25.4-0.4-27.6-21.8
			c0,0-6.6-17.5-9.3-32.4c-1.8-3.5-2.7-7.3-2.7-11.5c0-15.7,14.5-28.4,32.5-28.4c16.1,0,29.6,10.2,32,23.7h1.4
			C997.7,301.7,1001.6,322.4,1001.5,342.3z"/>
	</g>
	<g>
		<path d="M979.1,283.1c0,0,16.8,9.9,21.1,32c0,0,6.5-21.1-3.9-30.3c0,0-8-7.3-16.3-5.9L979.1,283.1z"/>
		<path class="st0" d="M978.5,278.4c0,0,5.4,29.7-27.1,46.2"/>
		<g>
			<g>
				<path id="SVGID_3_" d="M979.1,283.1c-10.5,35.1-28.4,45.9-28.4,45.9c1.8,14.5-6.5,43.3-6.5,43.3c-13.5-5.9-26.4-20.3-26.4-20.3
					c-14.2-10.9-10.1-26.3-10.1-26.3c3.4-25.5,19.4-43.2,19.4-43.2c10.2-13,45.4-10.9,45.4-10.9c8.4,0.5,7.5,7.1,7.5,7.1
					L979.1,283.1z"/>
			</g>
			<g>
				<defs>
					<path id="SVGID_14_" d="M979.1,283.1c-10.5,35.1-28.4,45.9-28.4,45.9c1.8,14.5-6.5,43.3-6.5,43.3
						c-13.5-5.9-26.4-20.3-26.4-20.3c-14.2-10.9-10.1-26.3-10.1-26.3c3.4-25.5,19.4-43.2,19.4-43.2c10.2-13,45.4-10.9,45.4-10.9
						c8.4,0.5,7.5,7.1,7.5,7.1L979.1,283.1z"/>
				</defs>
				<clipPath id="SVGID_15_">
					<use xlink:href="#SVGID_14_"  style="overflow:visible;"/>
				</clipPath>
				<path class="st23" d="M979.1,283.1c-10.5,35.1-28.4,45.9-28.4,45.9c1.8,14.5-7.1,31-7.1,31c-9.1,3.8-12.9-3.8-12.9-3.8
					c-14.2-10.9-17.6-34.9-17.6-34.9c3.4-25.5,14-38.7,14-38.7c10.2-13,45.4-10.9,45.4-10.9c8.4,0.5,7.5,7.1,7.5,7.1L979.1,283.1z"
					/>
			</g>
			<g>
				<defs>
					<path id="SVGID_16_" d="M979.1,283.1c-10.5,35.1-28.4,45.9-28.4,45.9c1.8,14.5-6.5,43.3-6.5,43.3
						c-13.5-5.9-26.4-20.3-26.4-20.3c-14.2-10.9-10.1-26.3-10.1-26.3c3.4-25.5,19.4-43.2,19.4-43.2c10.2-13,45.4-10.9,45.4-10.9
						c8.4,0.5,7.5,7.1,7.5,7.1L979.1,283.1z"/>
				</defs>
				<clipPath id="SVGID_17_">
					<use xlink:href="#SVGID_16_"  style="overflow:visible;"/>
				</clipPath>
				<path class="st24" d="M938.8,356.4"/>
			</g>
			<g>
				<defs>
					<path id="SVGID_18_" d="M979.1,283.1c-10.5,35.1-28.4,45.9-28.4,45.9c1.8,14.5-6.5,43.3-6.5,43.3
						c-13.5-5.9-26.4-20.3-26.4-20.3c-14.2-10.9-10.1-26.3-10.1-26.3c3.4-25.5,19.4-43.2,19.4-43.2c10.2-13,45.4-10.9,45.4-10.9
						c8.4,0.5,7.5,7.1,7.5,7.1L979.1,283.1z"/>
				</defs>
				<use xlink:href="#SVGID_18_"  style="overflow:visible;"/>
				<clipPath id="SVGID_19_">
					<use xlink:href="#SVGID_18_"  style="overflow:visible;"/>
				</clipPath>
				<path class="st25" d="M933,276.7"/>
			</g>
		</g>
	</g>
	
		<ellipse transform="matrix(0.7702 -0.6378 0.6378 0.7702 2.8715 678.6714)" class="st10" cx="943.3" cy="335.4" rx="10.6" ry="15"/>
	<path class="st0" d="M936,334.1c0,0-1.5-3.9,1.1-5.8c0,0,5.7-3.9,11.4,5.3"/>
	<circle class="st3" cx="947" cy="342.9" r="3.1"/>
	<path class="st0" d="M984.9,317.5c1.4,4.4,2.8,8.9,5.4,12.7c0.5,0.8,1.1,1.5,1.3,2.5c0.5,2.1-1.5,4.1-3.8,4.6
		c-1.9,0.4-4.1-0.2-4.7-2.1"/>
	<path class="st0" d="M999.3,312.8c-1.5-1.1-3.5-1.4-5.4-0.9c-1.9,0.5-3.4,1.7-4.4,3.2"/>
	<path class="st0" d="M971.8,314c-1.5-1.1-3.5-1.4-5.4-0.9c-1.9,0.5-3.4,1.7-4.4,3.2"/>
	<path class="st0" d="M976.5,344.1c0,0,7.1,10.6,14.2,2.4"/>
</g>
<g id="R_Eyes">
	<path d="M992.4,321.7c0.4,1.5,2,2.5,3.5,2.1c1.5-0.4,2.5-2,2.1-3.5c-0.4-1.5-2-2.5-3.5-2.1C993,318.5,991.9,320.2,992.4,321.7z"/>
</g>
<g id="l_Eyes">
	<path d="M967.1,324.4c0.4,1.5,2,2.5,3.5,2.1c1.5-0.4,2.5-2,2.1-3.5c-0.4-1.5-2-2.5-3.5-2.1C967.6,321.4,966.7,322.9,967.1,324.4z"
		/>
</g>
</svg>
