<?xml version="1.0" encoding="utf-8"?>
<svg version="1.1" xmlns="http://www.w3.org/2000/svg" xmlns:xlink="http://www.w3.org/1999/xlink" x="0px" y="0px"
	 viewBox="0 0 1920 1080" style="enable-background:new 0 0 1920 1080;" xml:space="preserve">
<style type="text/css">
	.st0{fill:#F0F0F0;}
	.st1{fill:none;stroke:#111926;stroke-miterlimit:10;}
	.st2{fill:#8B8BF2;}
	.st3{fill:#111926;}
	.st4{fill:#FFFFFF;}
	.st5{fill:#FEDEB9;}
	.st6{fill:#8B8BF2;stroke:#000000;stroke-miterlimit:10;}
	.st7{fill:none;stroke:#000000;stroke-miterlimit:10;}
	.st8{fill:#203049;}
	.st9{fill:#F99E82;}
	.st10{fill:none;stroke:#FFFFFF;stroke-miterlimit:10;}
	.st11{fill:#F5F5F5;}
	.st12{opacity:0.21;}
	.st13{fill:none;stroke:#000000;stroke-width:0.5;stroke-miterlimit:10;}
	.st14{fill:#232323;}
	.st15{fill:#DBDAB4;}
</style>
<g id="Bg_1_">
	<path class="st0" d="M308,1014.6c-50.7-36.8-82.9-95.8-93.6-157.5s-1.1-125.8,20.4-184.6C251,628,276,583.8,317.1,560.2
		C349,542,387.2,538,420.5,522.5c44-20.5,76.2-59.3,108.2-95.8c74.1-84.8,156.3-164.9,255.4-218.4s217.4-78.4,326.1-49
		c35.3,9.6,69.8,25.1,95.9,50.7s43,62.1,39.1,98.5c-4,37.5-28.4,78.1-7.7,109.6c13.3,20.2,39.5,26.2,63,32.1
		c66.8,16.7,133,47.1,176.1,100.9c31.9,39.8,48.8,89.5,59.8,139.3c16.8,76.4,20.7,157.2-2.2,232c-13.4,43.7-43,89.6-88.4,94"/>
	<path class="st0" d="M1326.9,236.9c-40.3,17.2-58,65.1-60.6,108.8c-1.2,20.1,0.2,41.4,10.7,58.6c11,18,31,29.4,51.8,32.7
		s42.3-0.8,61.9-8.5c28.9-11.4,55.1-31.5,70.2-58.7c15-27.2,17.7-61.9,3.4-89.6c-21.6-41.7-76.6-57.4-122.1-45.9
		c-17.3,4.4-34.7,13-43.5,28.4"/>
	<line class="st1" x1="245" y1="1010" x2="1582" y2="1007"/>
</g>
<g id="Leaf">
	<g>
		<g>
			<path class="st2" d="M464.9,575.8c-0.8-1.1-7.6-40.8-6.6-44c1-3.2,11.1-45.6,11.1-45.6l-0.1,62.1L464.9,575.8z"/>
		</g>
		<g>
			<path class="st2" d="M464.8,611.1c0,0,3-16.8,5.9-18.9c3-2.1,42.3-35.3,42.3-35.3l20.7-5.4l-17.3,9.9L464.8,611.1z"/>
		</g>
		<g>
			<polygon class="st2" points="445.2,572.9 460.1,640 465,645.1 465.7,627.3 			"/>
		</g>
		<g>
			<polygon class="st2" points="425.5,631.6 451.7,677.5 465.9,682.5 453.5,661.5 			"/>
		</g>
		<g>
			<polygon class="st2" points="500.6,654.1 479.5,702.6 465.9,709.1 476,686.8 			"/>
		</g>
		<g>
			<polygon class="st2" points="443.8,707.4 457,735.8 466.6,737.2 466.2,730.6 			"/>
		</g>
		<g>
			<g>
				<path class="st2" d="M467.9,843.4c-0.3,0-2.3-132.4-2.9-183.7c-0.6-51.4-0.8-93-0.6-93c0.3,0,1,41.6,1.6,93
					C466.6,711,468.2,843.4,467.9,843.4z"/>
			</g>
		</g>
	</g>
	<g>
		<g>
			<path class="st2" d="M378.3,514.9c-1-1-13.7-39.2-13.2-42.5c0.5-3.3,4.1-46.8,4.1-46.8l9.2,61.4L378.3,514.9z"/>
		</g>
		<g>
			<path class="st2" d="M383.5,549.9c0,0,0.4-17.1,3-19.6c2.6-2.5,36.5-41.2,36.5-41.2l19.6-8.4L427,492.9L383.5,549.9z"/>
		</g>
		<g>
			<polygon class="st2" points="358.4,515.1 383.3,579.1 388.9,583.5 386.9,565.7 			"/>
		</g>
		<g>
			<polygon class="st2" points="347.9,576.1 380.6,617.5 395.5,620.3 380,601.4 			"/>
		</g>
		<g>
			<polygon class="st2" points="425.4,587 412,638.1 399.5,646.6 406.1,623.1 			"/>
		</g>
		<g>
			<polygon class="st2" points="377.4,648.3 394.7,674.4 404.4,674.3 403.1,667.8 			"/>
		</g>
		<g>
			<g>
				<path class="st2" d="M437.5,853c-0.3,0-38.1-204.5-46.5-255.1c-8.4-50.7-14.9-91.8-14.6-91.8c0.3,0,7.3,41,15.7,91.7
					C400.5,648.4,437.8,853,437.5,853z"/>
			</g>
		</g>
	</g>
</g>
<g id="Line">
	<path class="st1" d="M940.2,191.9c36,0,72,2,108,2"/>
	<line class="st1" x1="1013.5" y1="206.5" x2="1080.5" y2="206.5"/>
	<line class="st1" x1="1080.5" y1="450.5" x2="1274.5" y2="453.5"/>
	<line class="st1" x1="1200.5" y1="465.5" x2="1274.5" y2="466.5"/>
	<line class="st1" x1="1177.5" y1="481.5" x2="1223.5" y2="483.5"/>
</g>
<g id="Phone">
	<g>
		<g>
			<g>
				<path class="st3" d="M887.7,815.3l-286,0c-13.7,0-24.7-11.1-24.7-24.7l0-661.6c0-13.7,11.1-24.7,24.7-24.7l286,0
					c13.7,0,24.7,11.1,24.7,24.7l0,661.6C912.4,804.2,901.3,815.3,887.7,815.3z"/>
				<path class="st4" d="M890.2,739.6l-290.7,0c-7.3,0-13.2-5.9-13.2-13.2l0-596.7c0-7.3,5.9-13.2,13.2-13.2l290.7,0
					c7.3,0,13.2,5.9,13.2,13.2l0,596.7C903.4,733.7,897.5,739.6,890.2,739.6z"/>
				<path class="st3" d="M792,140.6l-102,0c-12.3,0-22.3-10-22.3-22.3l0-5.4l143.7,0v8.4C811.4,132,802.7,140.6,792,140.6z"/>
				<rect x="604.1" y="136.5" class="st3" width="19.5" height="1"/>
				<rect x="604.1" y="141.7" class="st3" width="19.5" height="1"/>
				<rect x="604.1" y="146.8" class="st3" width="19.5" height="1"/>
				
					<ellipse transform="matrix(2.565319e-02 -0.9997 0.9997 2.565319e-02 -54.987 1497.1895)" class="st5" cx="740.6" cy="776.8" rx="25.7" ry="25.7"/>
				<ellipse transform="matrix(0.729 -0.6845 0.6845 0.729 -331.217 717.8453)" class="st3" cx="741" cy="777.2" rx="25" ry="25"/>
			</g>
			<path class="st1" d="M860.5,229.8H625.4c-6.4,0-11.5-5.2-11.5-11.5v0c0-6.4,5.2-11.5,11.5-11.5h235.1c6.4,0,11.5,5.2,11.5,11.5v0
				C872,224.7,866.8,229.8,860.5,229.8z"/>
		</g>
	</g>
</g>
<g id="Dollar_2_">
	<g>
		<g>
			
				<ellipse transform="matrix(0.9928 -0.1197 0.1197 0.9928 -99.3777 157.4078)" class="st6" cx="1260.8" cy="906.1" rx="99.1" ry="99.1"/>
			<circle class="st2" cx="1260.3" cy="906.5" r="82.8"/>
			<circle class="st7" cx="1260.3" cy="906.5" r="82.8"/>
		</g>
		<g>
			<path class="st4" d="M1254.2,946.6c-3.8-0.9-7.1-2.1-10.1-3.6c-2.9-1.5-5.1-3.1-6.3-4.7l6.8-12.2c2.8,2.5,5.9,4.4,9.5,5.7
				c3.5,1.3,7.2,2,11,2c4.1,0,7.3-0.8,9.6-2.5c2.3-1.6,3.4-3.9,3.4-6.9v-0.1c0-2.1-0.5-3.7-1.5-5c-1-1.2-2.3-2.1-4-2.7
				c-1.6-0.6-3.7-1.1-6.2-1.6c-0.1,0-0.2-0.1-0.2-0.1c-0.1,0-0.2,0-0.2-0.1c-0.1,0-0.2-0.1-0.4-0.1c-0.1,0-0.2,0-0.4,0
				c-5.1-0.9-9.2-2-12.3-3.2c-3.1-1.2-5.8-3.3-8.1-6.4c-2.2-3.1-3.4-7.5-3.4-13.3V892c0-5.1,1.1-9.4,3.2-13c2.1-3.6,5.1-6.3,9.1-8.2
				c4-1.9,8.8-2.8,14.5-2.8c2.6,0,5.2,0.3,7.8,1c2.7,0.6,5.3,1.6,7.9,2.8c2.6,1.2,5,2.7,7.3,4.4l-6.3,12.5c-2.7-2.1-5.5-3.7-8.4-4.9
				c-2.9-1.1-5.7-1.7-8.4-1.7c-3.8,0-6.8,0.7-8.9,2.2c-2.1,1.5-3.2,3.6-3.2,6.3v0.1c0,2.3,0.6,4.2,1.8,5.5c1.2,1.3,2.6,2.3,4.4,2.9
				c1.7,0.6,4.1,1.2,7.1,1.9c0,0,0.1,0,0.1,0c0,0,0.1,0,0.1,0c0.2,0,0.4,0.1,0.5,0.1c0.2,0,0.4,0.1,0.5,0.1c4.6,1,8.4,2.2,11.4,3.6
				c3,1.4,5.6,3.6,7.6,6.7s3.1,7.3,3.1,12.6v0.1c0,5-1.1,9.3-3.3,12.8c-2.2,3.6-5.3,6.3-9.5,8.1c-4.2,1.9-9.1,2.8-15,2.8
				C1261.6,948,1257.9,947.5,1254.2,946.6z M1259.3,859.2h14.8v12.3h-14.8V859.2z M1259.3,943.7h14.8v13h-14.8V943.7z"/>
		</g>
	</g>
</g>
<g id="Dollar_1_">
	<g>
		<g>
			
				<ellipse transform="matrix(0.9951 -9.870593e-02 9.870593e-02 0.9951 -44.6697 135.0674)" class="st6" cx="1342.7" cy="519" rx="73.1" ry="73.1"/>
			<circle class="st2" cx="1342.4" cy="519.3" r="61"/>
			<circle class="st7" cx="1342.4" cy="519.3" r="61"/>
		</g>
		<g>
			<path class="st4" d="M1337.8,548.9c-2.8-0.7-5.2-1.6-7.4-2.7c-2.2-1.1-3.7-2.3-4.7-3.5l5-9c2,1.8,4.4,3.2,7,4.2
				c2.6,1,5.3,1.5,8.1,1.5c3,0,5.4-0.6,7.1-1.8c1.7-1.2,2.5-2.9,2.5-5.1v0c0-1.5-0.4-2.8-1.1-3.7c-0.8-0.9-1.7-1.6-2.9-2
				c-1.2-0.4-2.7-0.8-4.6-1.2c-0.1,0-0.1,0-0.2,0c-0.1,0-0.1,0-0.2,0c-0.1,0-0.2,0-0.3-0.1c-0.1,0-0.2,0-0.3,0
				c-3.7-0.7-6.8-1.5-9.1-2.3c-2.3-0.9-4.3-2.5-6-4.7c-1.7-2.3-2.5-5.6-2.5-9.8v0c0-3.7,0.8-6.9,2.3-9.6c1.5-2.6,3.8-4.7,6.7-6.1
				c2.9-1.4,6.5-2.1,10.7-2.1c1.9,0,3.8,0.2,5.8,0.7c2,0.5,3.9,1.2,5.8,2.1c1.9,0.9,3.7,2,5.4,3.3l-4.6,9.2c-2-1.6-4-2.8-6.2-3.6
				c-2.1-0.8-4.2-1.3-6.2-1.3c-2.8,0-5,0.6-6.6,1.6c-1.6,1.1-2.3,2.6-2.3,4.6v0c0,1.7,0.4,3.1,1.3,4.1c0.9,1,1.9,1.7,3.2,2.1
				c1.3,0.5,3,0.9,5.3,1.4c0,0,0.1,0,0.1,0c0,0,0.1,0,0.1,0c0.1,0,0.3,0.1,0.4,0.1c0.1,0,0.3,0.1,0.4,0.1c3.4,0.7,6.2,1.6,8.4,2.6
				c2.2,1,4.1,2.7,5.6,4.9c1.5,2.3,2.3,5.4,2.3,9.3v0.1c0,3.7-0.8,6.8-2.4,9.5c-1.6,2.6-3.9,4.6-7,6c-3.1,1.4-6.7,2.1-11,2.1
				C1343.3,549.9,1340.6,549.6,1337.8,548.9z M1341.6,484.5h10.9v9.1h-10.9V484.5z M1341.6,546.8h10.9v9.6h-10.9V546.8z"/>
		</g>
	</g>
</g>
<g id="Dollar">
	<g>
		<g>
			
				<ellipse transform="matrix(0.997 -7.739516e-02 7.739516e-02 0.997 -18.9305 87.605)" class="st6" cx="1120.8" cy="288" rx="79.1" ry="79.1"/>
			<circle class="st2" cx="1120.4" cy="288.4" r="66.1"/>
			<circle class="st7" cx="1120.4" cy="288.4" r="66.1"/>
		</g>
		<g>
			<path class="st4" d="M1115.5,320.4c-3-0.7-5.7-1.7-8-2.9c-2.4-1.2-4-2.4-5-3.8l5.5-9.7c2.2,2,4.7,3.5,7.6,4.6
				c2.8,1.1,5.8,1.6,8.8,1.6c3.3,0,5.9-0.7,7.7-2c1.8-1.3,2.7-3.1,2.7-5.5v0c0-1.7-0.4-3-1.2-4c-0.8-1-1.9-1.7-3.2-2.2
				c-1.3-0.5-2.9-0.9-4.9-1.2c-0.1,0-0.1,0-0.2,0c-0.1,0-0.1,0-0.2,0c-0.1,0-0.2,0-0.3-0.1c-0.1,0-0.2,0-0.3,0
				c-4-0.7-7.3-1.6-9.8-2.5c-2.5-0.9-4.7-2.7-6.5-5.1c-1.8-2.5-2.7-6-2.7-10.6v0c0-4,0.8-7.5,2.5-10.4c1.7-2.9,4.1-5.1,7.3-6.6
				c3.2-1.5,7-2.3,11.5-2.3c2,0,4.1,0.3,6.3,0.8c2.1,0.5,4.2,1.3,6.3,2.2c2.1,1,4,2.2,5.8,3.5l-5,10c-2.2-1.7-4.4-3-6.7-3.9
				c-2.3-0.9-4.5-1.4-6.7-1.4c-3,0-5.4,0.6-7.1,1.8c-1.7,1.2-2.5,2.9-2.5,5v0c0,1.9,0.5,3.3,1.4,4.4c0.9,1.1,2.1,1.8,3.5,2.3
				c1.4,0.5,3.3,1,5.7,1.5c0,0,0.1,0,0.1,0c0,0,0.1,0,0.1,0c0.1,0,0.3,0.1,0.4,0.1c0.1,0,0.3,0.1,0.4,0.1c3.6,0.8,6.7,1.8,9.1,2.9
				c2.4,1.1,4.5,2.9,6.1,5.3s2.5,5.8,2.5,10v0.1c0,4-0.9,7.4-2.6,10.2c-1.7,2.8-4.3,5-7.6,6.5c-3.3,1.5-7.3,2.2-11.9,2.2
				C1121.4,321.5,1118.5,321.1,1115.5,320.4z M1119.6,250.7h11.8v9.8h-11.8V250.7z M1119.6,318.1h11.8v10.4h-11.8V318.1z"/>
		</g>
	</g>
</g>
<g id="Bg">
	<g>
		
			<rect x="406.5" y="833.3" transform="matrix(1 -8.190212e-03 8.190212e-03 1 -7.5187 4.3563)" class="st8" width="243.3" height="173.8"/>
		<path class="st3" d="M497.1,852.9c-3.2,0-6.3-1.2-8.6-3.5c-2.3-2.3-3.6-5.4-3.7-8.6l-0.3-34.5c0-3.3,1.2-6.4,3.5-8.7
			c2.3-2.3,5.4-3.6,8.6-3.7l57.7-0.5c3.2,0,6.4,1.2,8.7,3.5c2.3,2.3,3.6,5.4,3.7,8.6l0.3,34.5c0,3.3-1.2,6.4-3.5,8.7
			c-2.3,2.3-5.4,3.6-8.6,3.7l0,0l-57.7,0.5C497.2,852.9,497.1,852.9,497.1,852.9z M554.9,851.9L554.9,851.9L554.9,851.9z
			 M554.5,794.5C554.5,794.5,554.4,794.5,554.5,794.5l-57.8,0.5c-3,0-5.8,1.2-7.9,3.4c-2.1,2.1-3.3,5-3.2,8l0.3,34.5
			c0.1,6.2,5.1,11.2,11.3,11.2c0,0,0.1,0,0.1,0l57.7-0.5c3,0,5.8-1.2,7.9-3.4c2.1-2.1,3.3-5,3.2-8l-0.3-34.5
			C565.7,799.5,560.7,794.5,554.5,794.5z"/>
		<path class="st4" d="M527.8,931.7c-0.1,0-0.2,0-0.3-0.1l-107.6-81.3c-0.2-0.2-0.3-0.5-0.1-0.7c0.2-0.2,0.5-0.3,0.7-0.1l107.3,81
			l104.8-82.9c0.2-0.2,0.5-0.1,0.7,0.1c0.2,0.2,0.1,0.5-0.1,0.7l-105.1,83.1C528,931.7,527.9,931.7,527.8,931.7z"/>
		
			<rect x="511.1" y="920.2" transform="matrix(1 -8.190560e-03 8.190560e-03 1 -7.5937 4.3574)" class="st4" width="34.3" height="18.1"/>
	</g>
</g>
<g id="R_Leg">
	<g>
		<polygon class="st9" points="979.5,910 996.1,966.6 1035.9,951.9 1025.6,888.1 		"/>
		<path d="M992.7,958.7l-4.5-9.4c0,0,15,11,19.8,11.1c4.8,0.1,19.9-5.9,19.9-5.9s8.1-12,7.8-12.9c-0.3-0.9,8,6.7,13.9,9.5
			c5.9,2.7,49.6,1.9,55.3,0.5c5.7-1.4,12.3,15.2,9.1,18.7c-3.2,3.5-46.7,16.9-54.3,17.6c-7.6,0.6-42.2,10.7-51.7,13.3
			c-9.5,2.6-14.6,1.6-16.7-7.2C989.2,985.2,992.7,958.7,992.7,958.7z"/>
		<path class="st8" d="M994.2,671.1l55.2,262.5l-66.5,15.3c0,0-81.2-242.6-80.5-257.6C903,676.3,976.6,632.1,994.2,671.1z"/>
	</g>
</g>
<g id="R_Thigh">
	<g>
		<path class="st8" d="M822.1,626.6c1.2-0.1,146.6,19.7,151.9,22.7c11,6.3,35.7,18.3,19.8,59.2c-8,20.4-52.7,10.6-70.6,13.2
			c-17.9,2.6-158.5-3.7-168.9-17.5C743.8,690.4,794.3,628.3,822.1,626.6z"/>
	</g>
</g>
<g id="LThigh">
	<g>
		<path class="st8" d="M793.5,623.8c1.2-0.1,157.9,26.9,161.9,32.3c12.4,16.5,11.4,39.7-3.4,58.6c-14.9,18.9-37.7,22.5-55.6,25.6
			c-17.9,3.1-156.3-0.6-180.6-7.5c-5.4-1.5-15.6-24.5-9.7-38.8C718.8,663.5,774.6,625.2,793.5,623.8z"/>
		<path class="st10" d="M753.8,691.3c5.1,17.2,94.3,19.6,143,23.1"/>
	</g>
</g>
<g id="lLeg">
	<g>
		<g>
			<polygon class="st9" points="859.4,939.1 856.2,981.3 898,987 913.3,911.2 			"/>
			<path d="M853.6,970.7l-0.3-6.2c0,0,9.8,11.4,14.3,13.1c4.5,1.7,19.7,0.9,19.7,0.9s14.8-14.7,14.7-15.7c-0.1-1,1.1,14.9,6.1,19.7
				c5,4.8,46,19,51.5,19.5s8.7,19.5,5.1,22c-3.6,2.4-46.6,1-53.9-1c-7.2-2-41.3-3.8-50.7-4.4c-9.4-0.6-13.9-3.4-14.3-12.9
				C845.5,996.1,853.6,970.7,853.6,970.7z"/>
			<path class="st8" d="M994.9,669.5c4.8,5.4,5.3,17.4,5.3,17.4l-92,278.4l-65.8-5.5c0,0,42.6-269.2,49.2-284.2
				C898.2,660.7,955.6,625.2,994.9,669.5z"/>
			<path class="st10" d="M919,684.1c-9.1,34.1-54.8,244.1-54,261.7"/>
		</g>
		<line class="st7" x1="883.7" y1="711.8" x2="863.6" y2="828.6"/>
		<line class="st7" x1="1001.6" y1="680.5" x2="978.1" y2="753.8"/>
	</g>
</g>
<g id="R_Arm">
	<path class="st2" d="M841.4,423.5c0,0,7.7,0.8,27.2,5.4c34.6,8.3,87.6,117.1,91.9,127c2.2,5.1-0.8,9.2-8.4,15.3
		c-7.2,5.8-38.6-2.3-43.4-3.4c-10-2.3-49.6-93.3-51.5-99.6C855.4,462,835.8,428.4,841.4,423.5z"/>
</g>
<g id="R_Hand">
	<g>
		<g>
			<g>
				<path class="st9" d="M971.5,381c0,0-1.1,10.4-3.1,15.2c-2,4.8-4.9,6.5-4.8,13.9c0.1,7.4-0.1,15.4-0.1,15.4s-10.9,15.4-10.2,15.5
					c0.7,0.1,19.6,18.3,19.6,18.3l17.7-29.1c0,0,23-12.9,26.1-24.6c0.6-2.1,0.8-8.5,0.8-8.5l4.8-20.7l-1.6-1.5l0-4.8
					c0,0-3.9-4.3-6.8,0.7c0,0-1.3-6.2-6.3-0.2c-5,6-13.1,20.3-14,20.7c-0.9,0.4-10.9,8.4-10.9,8.4l-5.7,1.1c0,0,3.3-4.2,3.1-8.9
					c-0.2-4.8,1.8-8.4-1.7-11.1C974.8,378,971.5,381,971.5,381z"/>
			</g>
		</g>
		<path class="st7" d="M1017,399.4c-1.4-4.2-2.8-8.4-4.3-12.5c-0.8-0.2-1.9,0.3-2.6,0.9s-1.1,1.3-1.4,2.1c-1.3,3.3,0.9,8.8,0.6,12.3
			c-1.4,1.7-4.1,4.5-5.4,6.2c-4.5,0.8-9.2-1.1-13.3,0.7s-8,4.5-10.5,8.3"/>
		<path class="st7" d="M993.6,394.2c2.8,0.4,5.6,0.9,7.8,2.6c1.2,1,2.2,2.3,3.4,3.2"/>
		<path class="st7" d="M1013.1,370c-3.5,7.7-7.6,15.2-12.1,22.4"/>
		<path class="st7" d="M1020.6,374.4c-1.9,0.1-3.3,1.7-4.2,3.3c-1.5,2.7-2.2,5.7-2.8,8.8"/>
	</g>
	<g>
		<polygon class="st11" points="944.4,455.8 956.1,428.2 992.3,442.5 987.7,468.8 		"/>
		<g>
			<path class="st2" d="M930.9,588.1c12.1,1.1,28.6-13.5,32.3-25c0,0,15.8-52.9,20.2-69.8c2.1-8,6.2-32.6,6.2-32.6
				s-9.6-0.6-23.3-5.4c-13.2-4.7-18.6-13.2-18.6-13.2l-38.8,74.5c-1.9,4.7-3.9,20.5-5.6,25.3C894.5,565.9,923.3,587.4,930.9,588.1z"
				/>
			<circle class="st7" cx="973.3" cy="465.7" r="2.9"/>
		</g>
		<path class="st7" d="M947.7,442.1c0.3,0.3-36.8,78.3-36.8,78.3"/>
	</g>
</g>
<g id="Neck">
	<g>
		<path class="st9" d="M761.6,379.2l2,60.8l49.7,10.2l-8-56.8c0,0-1-12-7.1-17.2C789.4,368.9,761.2,364.3,761.6,379.2z"/>
	</g>
</g>
<g id="Body">
	<g>
		<path class="st9" d="M817.2,425c0,0-30.4-0.4-34.2-0.9c-3.9-0.5-21.1,0.1-24.8,1.4c-3.8,1.3-4.2,23.7-3.7,26
			c0.5,2.3,48,12,55,11.5c7-0.5,10.2-6.9,9.9-11.8C819.1,446.3,817.2,425,817.2,425z"/>
		<path class="st4" d="M814.6,439.7c0,0-2.5,11.3-24.8,14.3c-13.9,1.9-32.7-9.5-32.7-9.5s5.4,31.1,6.1,36c0.6,4.9-13,152.2-13,152.2
			s26.8,4.1,35.4,4.5c8.7,0.4,68.1-10.6,68.1-10.6L814.6,439.7z"/>
		<g>
			<path class="st2" d="M811.2,421.1c0,0,9,82.6,10.6,91.2c1.5,8.6,22.1,119,22.1,119s20.1,0.8,30.2,2.5c19.2,3.3,34.2,3.8,34.2,3.8
				s-35.1-168-37.7-175.9c-2.6-7.9-9.7-34.1-16.7-35.9C829.3,419.1,811.2,421.1,811.2,421.1z"/>
			<path class="st7" d="M868,453.8c6.3,17.1,38,174.6,40.1,184"/>
		</g>
		<path class="st12" d="M808.6,419.6c0,0,4.8,26.3,5.9,40c1.1,13.7,14.1,84.2,14.1,84.2s2.2-40.4,5.1-51.8c2.9-11.4,3-20.1-0.2-25.7
			c-3.2-5.6-7-8.6-7-8.6s10.3,1.5,12.5-1.5c2.2-3-7.7-32-9.8-34.1C827.1,420,808.6,419.6,808.6,419.6z"/>
		<path class="st2" d="M761.2,423.5c0,0-47.7,7-54.7,10.1c-4.5,2,6.5,34.1,4.9,37.9c-1.5,3.8-34.2,211.9-31.1,221.2
			c0.3,0.8,9.1,9,30.2,14.3c29.2,7.4,82.4,5,82.4,5s-26.4-216.6-27.3-224.4C761.8,453.4,761.2,423.5,761.2,423.5z"/>
		<path class="st12" d="M762.1,420c0,0,2.1,21.5,2.3,52.5c0.1,12.8,3.7,58.2,3.7,58.2s-12.8-27.5-16.7-38.5
			c-3.9-11-8.5-20.1-5.8-25.1c2.7-5,12.2-7,12.2-7s-16.2,0-18.7-3c-2.4-3-0.7-28.6,1.2-30.4C742.3,424.9,762.1,420,762.1,420z"/>
		<path class="st12" d="M698.3,552.1l-15.4,108.5c0,0,48.3-67.1,46.8-81.5C728.2,564.6,698.3,552.1,698.3,552.1z"/>
	</g>
</g>
<g id="l_Hand">
	<g>
		<path class="st2" d="M735.6,460.4c-4.1-7.2-9.9-13.4-16.4-18.8c-2.1-1.8-4.4-3.5-7.1-4.2c-4-1.1-8.3,0.2-11.8,2.5
			c-3.1,2.1-6.2,5.1-8.3,8.1c-13.7,20.8-15.3,53-18.8,76.4c-3.2,21.5-1.2,35.7-3.5,57.3c-0.6,6,6.3,16.3,16.3,19.7
			c9.5,3.2,31.6-16.2,36.3-19.1c4.2-2.6,5.2-11.8,6.2-15.8c2.6-10.6,4.3-21.5,6-32.2c3.5-22.4,12.9-52.3,1.6-72.9
			C736,461,735.8,460.7,735.6,460.4z"/>
		<path class="st7" d="M744.9,487.2c-4,21.8-11.9,47.2-15.9,69"/>
	</g>
</g>
<g id="l_Finger">
	<g>
		<g>
			<path class="st9" d="M805.6,573.9c0,0,30.1-7.4,38.7-8c0,0,5.3-0.8,10,1c0,0,8.6,2.5,16.2,9.2c0,0,6.4,5.7,9,12.7
				c0,0,1.5,3.6-1.3,4.8c0,0-3,1.6-4.6-3c0,0-4-6.8-8.9-10.6c-2.9-2.3-6.1-3.8-8.9-2.2c0,0,4.8,2.8,8.4,12.8c1.8,5,2.5,9.4,0.8,17.2
				c0,0-0.3,3.1-3,3.1c-0.6,0-1.8-0.6-2.4-2.1c0,0-0.9,3.6-3.9,3.1c-0.8-0.1-1.9-0.8-2.1-3.3c0,0,0.2-4.1-0.8-6.3c0,0-0.2,4-2.9,6.9
				c0,0-2.7,3.3-4.7,1.2c0,0-1.8-1.5,0.2-6c0,0,0.7-6-0.7-7.9c0,0-1.7-2.7-3.1-4.1c0,0-1.7-2.1-5.1,0.1c0,0-17.8,10.1-27.2,4.5
				L805.6,573.9z"/>
			<path class="st13" d="M852.9,603.6c0,0,0-8.5-0.6-10.2c0,0-0.9-3-6.1-7.3"/>
			<path class="st13" d="M859.7,608.7c0,0,0-13.5-2-18c0,0-1.4-5.3-7-8.9"/>
		</g>
	</g>
</g>
<g id="L_Hand">
	<g>
		<path class="st9" d="M811.5,570.4c-2.1,0-65.6-4.3-65.6-4.3s-4.2,41.3,3,43.2c7.3,1.9,57-9.3,62.7-12.1
			C817.3,594.4,811.5,570.4,811.5,570.4z"/>
		<path class="st4" d="M779.8,562.3l21.5,7.6l-3.7,38.8c0,0-31.4,9-39.5,6.2S770.6,565.1,779.8,562.3z"/>
		<path class="st2" d="M722.1,546.9c0,0,65,17.5,64.1,18s-14.2,12.8-14.9,30.9c-0.8,18.1,6.6,20,6.6,20s-74.8,10.7-90.4-9.4
			C677.2,593.3,673,556.5,722.1,546.9z"/>
		<path class="st7" d="M786.3,565c-17.3-4.7-34.4-9.7-51.5-15"/>
		<path class="st7" d="M777.4,615.4c-6.3,1.5-51.3,3.9-62.8,1.8"/>
	</g>
</g>
<g id="Face">
	<g>
		<path class="st9" d="M782.1,410.3l5.9,0c13.3,0.1,24.1-10.3,24.1-23.1L812,356c0-12.8-10.6-16.5-23.9-16.5l-5.9,0
			c-13.3-0.1-24.1,10.3-24.1,23.1l0,24.5C758,399.8,768.7,410.3,782.1,410.3z"/>
		<path d="M811.6,372c0,0-0.2,0.3-0.6,0.7c-1.6,1.7-5.7,5.9-7.5,6.7c-2.2,1-27.8-0.4-27.8-0.4l-11.2-9.3c0,0-6.7,2.5-6.5,3.1
			s0.5,22.8,1.1,24.1c0.1,0.3,0.7,7.2,1.1,7.9c3.8,6.4,8.1,8.7,13.5,8.9l18.4,0.1c14.1-0.9,20.4-9,20.6-17.6L811.6,372z"/>
		<path class="st7" d="M794.4,361.1c0.8,6.5,4.3,9.5,4.6,11c0.5,2.5-4.9,3.4-7,1.9"/>
		<g>
			<path class="st3" d="M799.1,361.1c0.3,0,0.7-0.2,0.9-0.5c0.5-0.8,1.4-1.4,2.4-1.6c1-0.2,2.2,0,3,0.5c0.5,0.3,1.1,0.1,1.4-0.4
				c0.3-0.5,0.1-1.1-0.4-1.4c-1.3-0.8-3-1.1-4.5-0.8c-1.6,0.3-2.9,1.2-3.8,2.5c-0.3,0.5-0.2,1.1,0.3,1.4
				C798.7,361,798.9,361.1,799.1,361.1z"/>
		</g>
		<g>
			<path class="st3" d="M775.9,361.3c0.3,0,0.7-0.2,0.9-0.5c0.5-0.8,1.4-1.4,2.4-1.6c1-0.2,2.2,0,3,0.5c0.5,0.3,1.1,0.1,1.4-0.4
				c0.3-0.5,0.1-1.1-0.4-1.4c-1.3-0.8-3-1.1-4.5-0.8c-1.6,0.3-2.9,1.2-3.8,2.5c-0.3,0.5-0.2,1.1,0.3,1.4
				C775.5,361.3,775.7,361.3,775.9,361.3z"/>
		</g>
		<path d="M773.9,349.5c1.4,0.9,2.6-0.2,4.3,0.3c15.6,4.1,32.3,5.2,48.2,2.3c2.6-0.5,5.7-1.4,6.5-3.8c0.8-2.5-1.5-4.9-4-6.2
			c-2.3-1.1-4.9-1.7-7.5-1.7c3.1,0,6.6-1.7,8.8-3.7c0.9-0.8,1.6-1.9,1.4-3c-0.2-0.9-1-1.5-1.8-2c-5-3.4-11.2-5.1-17.3-5.8
			c-8.6-1.1-17.3-0.8-25.9-0.4c-6.9,0.3-14.7,0.2-21.2,2.6c-5.8,2.1-5.3,10.2-5.6,15c-0.7,10.3,0.2,20.7,2.3,30.9
			c0.1,0.6,0.3,1.3,0.4,1.9c1.9-5.1,3.9-9.8,5.4-15c1.5,0.1,3-0.7,4-1.8c1-1.1,1.8-2.3,2.2-3.7C774.8,352.8,774.6,351.9,773.9,349.5
			z"/>
		<g>
			<ellipse transform="matrix(0.7325 -0.6808 0.6808 0.7325 -46.122 614.6163)" class="st9" cx="759" cy="366" rx="7.1" ry="9.4"/>
			<path class="st7" d="M753.1,365.3c0.2-1.9,2-3.2,3.8-3.2c1.8,0,3.5,1,4.9,2.3c1.3,1.2,2.4,2.7,3.2,4.4"/>
			<path class="st7" d="M758.3,369.5c-0.6-1.1-0.5-2.6,0.2-3.6c0.7-1,2.1-1.4,3.2-1.1"/>
		</g>
	</g>
</g>
<g id="R_Eeys">
	<path class="st14" d="M800.6,364.9c0.3,1.1,1.6,1.8,2.8,1.5c1.2-0.3,2-1.4,1.7-2.6c-0.3-1.1-1.6-1.8-2.8-1.5
		C801,362.6,800.2,363.8,800.6,364.9z"/>
</g>
<g id="L_Eeys">
	<path class="st14" d="M777.9,365.3c0.3,1.1,1.6,1.8,2.8,1.5c1.2-0.3,2-1.4,1.7-2.6c-0.3-1.1-1.6-1.8-2.8-1.5
		C778.3,363,777.6,364.1,777.9,365.3z"/>
</g>
<g id="Mouth">
	<g>
		<path class="st4" d="M797.5,389.9c0.9-2,1.3-3.9,1.3-3.9c-4.2,0.5-6.3-0.8-13.1-2.4c0,0-0.1,0.5-0.1,1.3
			C788.8,387.8,793,389.6,797.5,389.9z"/>
		<path class="st4" d="M785.6,384.9c0,2.6,0.4,8.3,5.1,9.5c3.4,0.8,5.5-1.9,6.8-4.5C793,389.6,788.8,387.8,785.6,384.9z"/>
	</g>
</g>
<g id="Laptop">
	<g>
		<g>
			<path d="M968.3,649.2l-191.8-0.1c-0.9,0-1.7-0.7-1.7-1.7l0-1.2c0-6.5,5.3-11.7,11.7-11.7l181.8,0.1c0.9,0,1.7,0.7,1.7,1.7l0,11.3
				C969.9,648.5,969.2,649.2,968.3,649.2z"/>
		</g>
		<g>
			<path d="M1033.1,524.5l-122.5-0.1c-4.5,0-8.9,3.2-10.4,7.6l-40.1,117.1l133.4,0.1c4.5,0,8.9-3.2,10.4-7.6l36.5-106.4
				C1042.3,529.6,1038.9,524.5,1033.1,524.5z"/>
		</g>
		<g>
			<path class="st15" d="M966.1,588.2c-1.9,4.5-6.6,7.3-10.5,6.3c-3.9-1-5.6-5.5-3.7-10c1.9-4.5,6.6-7.3,10.5-6.3
				C966.4,579.2,968,583.7,966.1,588.2z"/>
		</g>
	</g>
</g>
</svg>
