<?xml version="1.0" encoding="utf-8"?>
<svg version="1.1" xmlns="http://www.w3.org/2000/svg" xmlns:xlink="http://www.w3.org/1999/xlink" x="0px" y="0px"
	 viewBox="0 0 1920 1080" style="enable-background:new 0 0 1920 1080;" xml:space="preserve">
<style type="text/css">
	.st0{opacity:0.64;fill:#F0F6FF;}
	.st1{fill:#E1E3FE;}
	.st2{fill:#D3D5FE;}
	.st3{opacity:0.35;fill:#F0F6FF;}
	.st4{fill:#C0C5FE;}
	.st5{fill:#8995EF;}
	.st6{fill:#EEEBFF;}
	.st7{fill:#BCC0FE;}
	.st8{fill:none;stroke:#D4E1F0;stroke-width:1.5;stroke-linejoin:round;stroke-miterlimit:10;}
	.st9{fill:none;stroke:#DAD6F3;stroke-width:2;stroke-miterlimit:10;}
	.st10{fill:#FFC648;stroke:#AF791B;stroke-miterlimit:10;}
	.st11{fill:#EAA307;stroke:#AF791B;stroke-miterlimit:10;}
	.st12{fill:#FFC022;stroke:#AF791B;stroke-miterlimit:10;}
	.st13{fill:none;stroke:#D4E1F0;stroke-width:1.5;stroke-miterlimit:10;}
	.st14{fill:none;stroke:#97A1B0;stroke-miterlimit:10;}
	.st15{fill:#A3CCFE;}
	.st16{fill:none;stroke:#F5F8FF;stroke-miterlimit:10;}
	.st17{fill:#8F96DB;}
	.st18{fill:#E0E3FC;}
	.st19{fill:#C9E59A;stroke:#587F36;stroke-miterlimit:10;}
	.st20{fill:#C9E59A;stroke:#587F36;stroke-width:5;stroke-miterlimit:10;}
	.st21{opacity:0.65;}
	.st22{fill:#89B666;stroke:#587F36;stroke-width:5;stroke-miterlimit:10;}
	.st23{fill:#EAA926;}
	.st24{fill:#F7BF4F;}
	.st25{fill:#FFFFFF;}
	.st26{opacity:0.15;fill:#C2D8FF;}
	.st27{opacity:0.42;}
	.st28{opacity:0.7;fill:#FFFFFF;}
	.st29{fill:#3B48A3;}
	.st30{font-family:'Arial-BoldMT';}
	.st31{font-size:48.8802px;}
	.st32{fill:#7DBEEA;}
	.st33{fill:#E88A5D;}
	.st34{fill:none;stroke:#FFFFFF;stroke-miterlimit:10;}
	.st35{fill:none;stroke:#2B6A8E;stroke-miterlimit:10;}
	.st36{fill:#504EAF;}
	.st37{fill:#4A90FF;}
	.st38{fill:#367ADD;}
	.st39{fill:#FFB483;}
	.st40{fill:#F4F1EB;}
	.st41{fill:#F8AB84;}
	.st42{fill:none;stroke:#2B4F82;stroke-miterlimit:10;}
	.st43{fill:none;stroke:#754D3B;stroke-miterlimit:10;}
	.st44{fill:#DA835E;}
	.st45{fill:#4F2E18;}
	.st46{fill:#86522D;}
	.st47{fill:none;stroke:#4F2E18;stroke-width:2;stroke-miterlimit:10;}
	.st48{fill:none;stroke:#FFFFFF;stroke-width:3;stroke-miterlimit:10;}
	.st49{fill:#FFB483;stroke:#DB8E5B;stroke-miterlimit:10;}
	.st50{fill:none;stroke:#DB8E5B;stroke-miterlimit:10;}
</style>
<g id="Bgvv">
	<rect class="st0" width="1928" height="1091"/>
	<g id="Layer_2">
		<path class="st1" d="M-7.59-9.53v645.33c20.72,6.92,43.02,7.96,63.43,0.48c29.79-10.91,51.32-38.07,62.93-67.6
			c11.61-29.53,14.67-61.61,17.61-93.21L146.4,368.1c2.39-25.65,5.44-52.98,21.78-72.9c28.52-34.77,84.09-32.19,118.6-61.02
			c24.7-20.63,34.53-53.89,40.16-85.58c5.64-31.69,8.68-64.8,24.37-92.9c16.37-29.3,44.55-49.57,74.61-65.24H-7.59z"/>
		<path class="st1" d="M1928.33,1107.02V528.6c-6.49,44.72-17.39,88.8-32.56,131.37c-12.52,35.14-28.17,69.64-51.42,98.8
			c-23.25,29.16-54.77,52.81-91.07,61.42c-32.81,7.79-67.08,3.03-100.79,2.56s-70.04,4.53-94.76,27.46
			c-23.29,21.61-32.38,55.7-56.8,76.03c-40.22,33.5-100.31,15.84-152.22,22.61c-52.53,6.85-100.36,42.64-121.74,91.11
			c-9.27,21.02-13.43,44.1-12.69,67.05H1928.33z"/>
		<path class="st1" d="M655.5,1107.02c-27.1-39.32-67.63-69.24-113.24-83.41c-48.46-15.05-106.01-15.03-140.46-52.29
			c-11.23-12.14-18.74-27.2-28.61-40.46c-34.87-46.82-96.09-66.89-154.39-69.99c-31.65-1.69-63.92,0.74-94.6-7.23
			c-39.23-10.19-72.79-36.99-96.73-69.7c-14.63-19.98-25.93-42.1-35.06-65.16v388.24H655.5z"/>
		<g>
			<path class="st2" d="M697.57,1028.92c-31.41-0.43-62.78-3.85-93.54-10.34c-34.21-7.22-68.27-18.41-96.53-39.01
				c-28.26-20.6-50.24-51.69-53.78-86.48c-1.17-11.44-0.4-23.28-4.26-34.11c-8.59-24.14-35.88-34.68-58.11-47.42
				C274.81,744.76,276.3,571.1,366.87,483.11c47.65-46.3,117.72-69.88,151.98-126.8c12.47-20.72,14.35-41.54,22.98-63.32
				c7.7-19.44,20.44-36.82,35.97-50.74c24.08-21.57,54.47-35.18,85.79-43.23c73.37-18.86,154.03-7.54,219.38,30.79
				c26.03,15.27,51.42,35.2,81.55,36.97c44.63,2.62,80.33-34.71,121.45-52.24c35.1-14.96,74.44-15.32,112.6-15.44
				c86.15-0.27,186.65,14.62,242.15,88.77c25.55,34.14,38.19,75.56,57.5,113.12c19.77,38.46,47.87,61.83,82.73,85.95
				c62.73,43.4,90.87,130.76,65.28,202.61c-25.59,71.85-102.63,121.75-178.67,115.72c-29.58-2.34-62.16-11.52-86.94,4.8
				c-12.86,8.47-20.86,22.36-29.43,35.15c-53.56,79.94-147.7,131.09-243.91,132.53c-45.94,0.69-91.59-10.56-137.55-6.4
				c-40.98,3.71-72.53,20.67-111.31,33.26C806.61,1021.43,752.02,1029.67,697.57,1028.92z"/>
			<path class="st3" d="M276.76,684.18c15.16-42.08,41.56-83.92,83.44-99.61c76.75-28.75,172.07,40.46,240.36-4.85
				c72.11-47.85,38.39-173.05,101.99-231.75c22.48-20.75,53.96-29.28,84.53-30.49c69.37-2.74,139.17,30.87,180.28,86.81
				c19.24,26.19,32.28,56.45,50.95,83.05c18.66,26.6,45.29,50.43,77.59,54.01c21.19,2.35,42.39-4.3,61.8-13.11
				c43.01-19.52,81.06-49.99,126.23-63.82c45.17-13.83,103.49-4.29,124.47,38.03c19.86,40.07,2.04,98.96,38.51,124.84
				c26.72,18.97,63.34,5.03,96.08,6.25c62.92,2.35,108.89,62.63,127.16,122.88c18.27,60.25,18.67,125.21,40.73,184.17
				c3.55,9.5,7.73,19.2,7.17,29.33c-0.99,17.79-16.03,31.38-31.07,40.93c-47.9,30.43-108.45,41.05-163.33,26.6
				c-45.12-11.88-84.43-39.28-127.59-57.02c-86.92-35.72-185.13-30.62-277.78-14.91c-92.65,15.7-184.07,41.43-277.96,45.27
				c-69.44,2.84-139.06-6.38-208.4-1.61c-45.96,3.17-91.37,12.46-137.39,14.68c-36.75,1.77-73.71-1.05-109.78-8.28
				c-25.03-5.02-64.8-9.14-80.18-31.74c-35.14-51.65-48.96-125.76-48.06-186.98C257.07,758.54,263.76,720.26,276.76,684.18z"/>
			<path class="st0" d="M731.65,433.13c-33.6-32.49-86.92-32.66-132.56-22.56c-29.96,6.63-59.81,17.15-83.55,36.6
				c-23.74,19.45-40.65,49.03-39.03,79.68c0.78,14.75,5.68,29.65,2.18,44c-4.52,18.5-21.97,31.07-39.78,37.81
				c-17.81,6.74-37.06,9.35-54.5,17.01c-34.93,15.34-59.51,51.82-60.62,89.95c-0.69,23.79,6.96,46.99,9.36,70.67
				c2.4,23.68-1.96,50.55-20.84,65.05c-20,15.36-48.92,11.61-71.54,22.75c-28.29,13.93-40.93,50.67-32.12,80.95
				c8.81,30.28,35.46,53.23,65.35,63.29c29.89,10.05,62.59,8.61,93.46,2.19c49.11-10.22,94.75-32.4,141.45-50.71
				c38.4-15.06,83.51-27.12,119.28-6.59c16.58,9.51,28.92,25,44.77,35.67c35.64,23.97,83.14,20.09,124.47,8.39
				c41.33-11.7,81.3-30.32,124.15-33.23c61.87-4.2,124.49,24.82,184.72,10.08c22.73-5.56,43.74-17.16,66.71-21.69
				c40.58-7.99,81.66,6.79,122.35,14.21c84.89,15.48,175.41-2.34,248.08-48.86c28.32-18.12,54.96-41.8,66.6-73.34
				c11.64-31.54,3.98-71.98-24.41-89.98c-26.67-16.9-67.28-13.27-83.51-40.35c-12.36-20.62-2.58-46.65,3.87-69.81
				c8.53-30.63,10.4-64.41-2.57-93.44c-13.72-30.72-40.08-49.4-73.84-52.88c-28.16-2.91-56.39,4.46-82.93,14.3
				c-8.34,3.09-16.9,6.49-25.78,6.07c-18.66-0.88-32.53-18.29-38.45-36.02c-5.91-17.72-6.54-36.91-12.91-54.47
				c-12.84-35.41-50.63-60.06-88.21-57.55c-16.58,1.11-33.96,6.79-49.25,0.29c-8.89-3.78-15.63-11.19-23.24-17.13
				c-26.92-21.01-64.79-23.1-97.76-14.23c-32.97,8.87-62.41,27.28-91.84,44.6c-22.06,12.98-45,26.25-69.73,33.44
				c-20.34,5.91-43.74,2.32-65,4.03c-24.56,1.97-51.09,1.77-71.43-12.13"/>
		</g>
		<path class="st4" d="M1834.75,1107.02c35.37-4.9,66.72-10.1,93.58-15.55v-94.8c-179.64-36.46-560.05-61.6-1000.29-61.6
			c-392.96,0-738.24,20.03-935.63,50.26v117.48c9.31,1.43,18.95,2.83,28.91,4.21H1834.75z"/>
		<path class="st1" d="M1528.93-9.53c12.84,11.26,23.86,24.43,31.99,39.48c19.76,36.57,20.83,79.87,27.92,120.83
			c6.45,37.22,18.53,74.13,40.75,104.68c26.41,36.31,66.89,62.1,110.96,70.7c41.6,8.11,85.65,1.48,126.02,14.38
			c23.86,7.62,44.8,21.93,61.77,40.28V1.14c0-3.59,0.11-7.14,0.32-10.67H1528.93z"/>
		<ellipse class="st5" cx="917" cy="993.5" rx="593" ry="27.5"/>
	</g>
</g>
<g id="Layer_35">
</g>
<g id="Dollar_8_">
	<g>
		<path class="st6" d="M437.85,587.16l7.67,16.23l-14.48,6.85l-7.47-15.79c-14.75,5.91-30.64,7.93-41.55,5.47l-0.39-21.44
			c9.78,1.94,22.05,0.92,32.97-3l-11.44-24.19c-17.93,3.69-38.43,6.82-48.22-13.89c-7.26-15.35-2.34-33.81,19.32-47.24l-7.6-16.08
			l14.48-6.85l7.46,15.79c11.28-4.27,23.22-6.37,33.59-5.07l1.18,21.24c-9.37-0.71-18.07,0.39-25.72,2.94l11.64,24.63
			c17.86-3.84,38.07-6.83,47.72,13.6C464.14,555.42,459.29,573.66,437.85,587.16z M393.1,529.98l-9.72-20.57
			c-6.86,5.37-7.92,11.01-5.66,15.79C380.11,530.27,385.76,530.97,393.1,529.98z M434.51,553.12c-2.4-5.07-7.9-5.84-15.15-5.06
			l9.45,19.99C435.3,563.02,436.7,557.75,434.51,553.12z"/>
	</g>
</g>
<g id="Dollar_7_">
	<g>
		<path class="st1" d="M990.78,211.51l7.99,16.07l-14.35,7.13l-7.78-15.64c-14.64,6.2-30.48,8.53-41.44,6.28l-0.81-21.43
			c9.81,1.74,22.07,0.48,32.9-3.65l-11.91-23.96c-17.86,4.04-38.29,7.58-48.48-12.94c-7.56-15.21-3-33.76,18.39-47.61l-7.92-15.93
			l14.35-7.13l7.77,15.64c11.19-4.49,23.09-6.82,33.48-5.72l1.59,21.22c-9.38-0.53-18.06,0.74-25.66,3.45l12.12,24.39
			c17.78-4.19,37.93-7.58,47.98,12.65C1016.44,179.25,1011.96,197.59,990.78,211.51z M944.92,155.22l-10.13-20.38
			c-6.75,5.5-7.7,11.16-5.34,15.9C931.94,155.76,937.6,156.35,944.92,155.22z M986.78,177.53c-2.5-5.03-8.01-5.68-15.25-4.77
			l9.84,19.8C987.76,187.42,989.06,182.13,986.78,177.53z"/>
	</g>
</g>
<g id="Dollar_6_">
	<g>
		<path class="st6" d="M1315.02,414.15l-6.44,16.75l-14.95-5.75l6.27-16.31c-14.47-6.59-26.89-16.69-32.65-26.28l15.24-15.09
			c5.35,8.41,14.56,16.59,24.93,21.77l9.6-24.98c-15.05-10.42-31.47-23.08-23.25-44.47c6.09-15.85,22.84-25.04,47.51-18.64
			l6.38-16.6l14.95,5.75l-6.27,16.3c10.87,5.21,20.64,12.4,26.86,20.8l-14.55,15.52c-5.96-7.27-12.76-12.8-19.89-16.57l-9.77,25.42
			c15.11,10.27,31.23,22.82,23.12,43.91C1356.14,411.25,1339.6,420.34,1315.02,414.15z M1325.48,342.3l8.16-21.24
			c-8.62-1.25-13.43,1.88-15.33,6.81C1316.31,333.1,1319.71,337.67,1325.48,342.3z M1337.35,388.23c2.01-5.24-1.23-9.74-6.8-14.46
			l-7.93,20.64C1330.72,395.64,1335.51,393.02,1337.35,388.23z"/>
	</g>
</g>
<g id="Dollar_5_">
	<g>
		<path class="st7" d="M1330.57,712.63l-5.69,17.02l-15.19-5.08l5.54-16.57c-14.74-5.94-27.6-15.48-33.78-24.81l14.56-15.75
			c5.72,8.16,15.29,15.92,25.88,20.65l8.48-25.38c-15.5-9.74-32.46-21.66-25.2-43.4c5.38-16.11,21.7-26.03,46.63-20.73l5.64-16.87
			l15.19,5.08l-5.54,16.56c11.1,4.73,21.17,11.47,27.75,19.58l-13.85,16.15c-6.27-7-13.32-12.23-20.61-15.67l-8.63,25.83
			c15.55,9.59,32.21,21.41,25.05,42.84C1371.51,707.9,1355.39,717.72,1330.57,712.63z M1337.82,640.38l7.21-21.58
			c-8.67-0.87-13.33,2.47-15.01,7.48C1328.25,631.6,1331.85,636.02,1337.82,640.38z M1351.72,685.74c1.78-5.32-1.66-9.68-7.44-14.14
			l-7.01,20.97C1345.43,693.44,1350.09,690.6,1351.72,685.74z"/>
	</g>
</g>
<g id="Leaf_3_">
	<g>
		<path class="st7" d="M1512.82,944.86c12.16-34.7,36.12-64.18,65.95-85.39c29.83-21.21,95.4-43.12,150.82-35.19
			c-31.77,83.06-126.24,135.82-184.51,138.37"/>
		<path class="st8" d="M1729.58,824.28c0,0-133.29,8.52-206.46,122.11"/>
		<path class="st8" d="M1729.58,824.28c0,0-126.21,61.86-202.85,133.5"/>
		<path class="st8" d="M1729.58,824.28c0,0-82.36,97.8-195.46,138.74"/>
	</g>
</g>
<g id="Leaf_2_">
	<g>
		<path class="st1" d="M1530.43,914.51c26.32-9.32,56.52-13.67,71.77-40.04c8.43-14.58,2.43-31.84,0.46-47.3
			c-3.37-26.45,7.1-48.56,28.2-64.51c8.44-6.38,16.14-15.42,16.13-26c-0.02-15.74-16.66-27.24-18.3-42.9
			c-0.88-8.41,2.66-16.56,4.8-24.74c5.16-19.79-2.41-41.09-2.41-41.09s-12.54,12.25-31.85,16.19c-12.39,2.53-25.07,6.71-35.45,14.32
			c-8.11,5.94-12.39,13.71-14.68,23.29c-2.7,11.28-5.32,20.1-13.48,28.49c-12.6,12.95-56.84,20.97-49.97,43.56
			c1.87,6.15,6.52,11.42,6.57,18.06c0.1,12.04-14.53,13.6-21.44,20.33c-10.63,10.34-19.87,26.07-19.33,39.96
			c1.3,33.13,21.49,69.09,44.19,93.86"/>
		<path class="st9" d="M1629.75,629.1c-18.79,63.13-72.69,111.51-89.92,175.09c-5.17,19.07-6.84,38.91-10.99,58.23
			c-4.16,19.32-11.21,38.76-25.1,52.82"/>
		<path class="st9" d="M1644.01,723.54c-20.35,13.49-53.26,30.23-88.76,41.6c0,0-13.07-43.06-14.4-61.45"/>
		<path class="st9" d="M1636.31,710.96c-22.8,14.07-43.35,23.2-71.51,36.7"/>
		<path class="st9" d="M1629.03,689.35c0,0-19.78,11.22-39.31,18.55"/>
		<path class="st9" d="M1635.28,653.82c0,0.35-5.93,4.36-20.52,11.79"/>
		<path class="st9" d="M1595.37,699.02c-0.11,0.17-5.43-32.48-6.44-52.16"/>
		<path class="st9" d="M1568.57,741.32c0.09-0.16-14.12-48.75-14.76-71.87"/>
		<path class="st9" d="M1613.54,780.43c-0.52,0.75-39.68,24.62-76.5,35.57"/>
		<path class="st9" d="M1541.16,799.58c0,0-21.08-48.88-27.47-76.14"/>
		<path class="st9" d="M1487.25,776.25c10.82,31.26,41.01,88.73,41.01,88.73s55.76-20.91,74.39-37.81"/>
		<path class="st9" d="M1516.9,897.02c0,0-36.77-63.69-50.96-99.69"/>
		<path class="st9" d="M1605.76,842.02c0,0-39.08,27.68-80.69,34.98"/>
		<path class="st9" d="M1511.03,906.71c0,0-39.66-44.66-54.98-94.16"/>
	</g>
</g>
<g id="Dollar_4_">
	<g>
		<g>
			<g>
				<g>
					<g>
						<g>
							<g>
								<g>
									<path class="st10" d="M1371.27,943.66c0,5.44,32.21,9.87,71.93,9.87s71.93-4.43,71.93-9.87c0-0.11-0.02-0.19-0.03-0.3
										v-26.69h-143.78v26.63C1371.29,943.43,1371.27,943.53,1371.27,943.66z"/>
								</g>
							</g>
						</g>
					</g>
					<g>
						<g>
							<g>
								<g>
									<path class="st11" d="M1371.28,916.92c0,5.45,32.2,9.87,71.93,9.87c39.73,0,71.93-4.42,71.93-9.87
										c0-5.45-32.2-9.87-71.93-9.87C1403.48,907.05,1371.28,911.47,1371.28,916.92z"/>
								</g>
							</g>
						</g>
					</g>
				</g>
				<g>
					<g>
						<g>
							<g>
								<g>
									<path class="st10" d="M1390.12,912.34c0,5.44,32.21,9.87,71.93,9.87c39.72,0,71.93-4.43,71.93-9.87
										c0-0.11-0.02-0.19-0.03-0.3v-26.69h-143.78v26.63C1390.14,912.11,1390.12,912.22,1390.12,912.34z"/>
								</g>
							</g>
						</g>
					</g>
					<g>
						<g>
							<g>
								<g>
									<ellipse class="st11" cx="1462.06" cy="885.6" rx="71.93" ry="9.87"/>
								</g>
							</g>
						</g>
					</g>
				</g>
				<g>
					<g>
						<g>
							<g>
								<g>
									<path class="st10" d="M1371.27,879.26c0,5.44,32.21,9.87,71.93,9.87s71.93-4.43,71.93-9.87c0-0.11-0.02-0.19-0.03-0.3
										v-26.69h-143.78v26.63C1371.29,879.02,1371.27,879.13,1371.27,879.26z"/>
								</g>
							</g>
						</g>
					</g>
					<g>
						<g>
							<g>
								<g>
									<ellipse class="st11" cx="1443.21" cy="852.52" rx="71.93" ry="9.87"/>
								</g>
							</g>
						</g>
					</g>
				</g>
				<g>
					<g>
						<g>
							<g>
								<g>
									<path class="st10" d="M1390.23,848.51c0,5.44,32.21,9.87,71.93,9.87c39.72,0,71.93-4.43,71.93-9.87
										c0-0.11-0.02-0.19-0.03-0.3v-26.69h-143.78v26.63C1390.25,848.27,1390.23,848.38,1390.23,848.51z"/>
								</g>
							</g>
						</g>
					</g>
					<g>
						<g>
							<g>
								<g>
									<ellipse class="st11" cx="1462.17" cy="821.76" rx="71.93" ry="9.87"/>
								</g>
							</g>
						</g>
					</g>
					<g>
						<g>
							<g>
								<g>
									<path class="st12" d="M1403.58,821.76c0,3.67,26.23,6.64,58.59,6.64c32.36,0,58.59-2.97,58.59-6.64
										c0-3.67-26.23-6.64-58.59-6.64C1429.81,815.12,1403.58,818.1,1403.58,821.76z"/>
								</g>
							</g>
						</g>
					</g>
				</g>
			</g>
		</g>
	</g>
</g>
<g id="Dollar_3_">
	<g>
		<g>
			<g>
				<g>
					<g>
						<g>
							<g>
								<g>
									<path class="st10" d="M1234.74,940.84c0,5.44,32.21,9.87,71.93,9.87s71.93-4.43,71.93-9.87c0-0.11-0.02-0.19-0.03-0.3
										v-26.69h-143.78v26.63C1234.76,940.61,1234.74,940.71,1234.74,940.84z"/>
								</g>
							</g>
						</g>
					</g>
					<g>
						<g>
							<g>
								<g>
									<path class="st11" d="M1234.75,914.1c0,5.45,32.2,9.87,71.93,9.87c39.73,0,71.93-4.42,71.93-9.87
										c0-5.45-32.2-9.87-71.93-9.87C1266.95,904.23,1234.75,908.65,1234.75,914.1z"/>
								</g>
							</g>
						</g>
					</g>
				</g>
				<g>
					<g>
						<g>
							<g>
								<g>
									<path class="st10" d="M1253.6,909.52c0,5.44,32.21,9.87,71.93,9.87c39.72,0,71.93-4.43,71.93-9.87
										c0-0.11-0.02-0.19-0.03-0.3v-26.69h-143.78v26.63C1253.61,909.29,1253.6,909.4,1253.6,909.52z"/>
								</g>
							</g>
						</g>
					</g>
					<g>
						<g>
							<g>
								<g>
									<ellipse class="st11" cx="1325.53" cy="882.78" rx="71.93" ry="9.87"/>
								</g>
							</g>
						</g>
					</g>
				</g>
				<g>
					<g>
						<g>
							<g>
								<g>
									<path class="st10" d="M1234.74,876.44c0,5.44,32.21,9.87,71.93,9.87s71.93-4.43,71.93-9.87c0-0.11-0.02-0.19-0.03-0.3
										v-26.69h-143.78v26.63C1234.76,876.2,1234.74,876.31,1234.74,876.44z"/>
								</g>
							</g>
						</g>
					</g>
					<g>
						<g>
							<g>
								<g>
									<ellipse class="st11" cx="1306.68" cy="849.69" rx="71.93" ry="9.87"/>
								</g>
							</g>
						</g>
					</g>
				</g>
				<g>
					<g>
						<g>
							<g>
								<g>
									<path class="st10" d="M1253.71,845.68c0,5.44,32.21,9.87,71.93,9.87c39.72,0,71.93-4.43,71.93-9.87
										c0-0.11-0.02-0.19-0.03-0.3V818.7h-143.78v26.63C1253.72,845.45,1253.71,845.56,1253.71,845.68z"/>
								</g>
							</g>
						</g>
					</g>
					<g>
						<g>
							<g>
								<g>
									<ellipse class="st11" cx="1325.64" cy="818.94" rx="71.93" ry="9.87"/>
								</g>
							</g>
						</g>
					</g>
					<g>
						<g>
							<g>
								<g>
									<ellipse class="st12" cx="1325.64" cy="818.94" rx="58.59" ry="6.64"/>
								</g>
							</g>
						</g>
					</g>
				</g>
			</g>
		</g>
	</g>
</g>
<g id="Leaf_1_">
	<g>
		<path class="st7" d="M232.9,932.48c-31.61-22.63-55.3-55.49-69.41-91.71c-14.11-36.23-20.62-108.41,0.12-161.43
			c92.51,60.55,105.44,167.21,94.44,226.25"/>
		<path class="st13" d="M163.61,679.34c0,0-22.51,135.85,73.2,243.3"/>
		<path class="st13" d="M163.61,679.34c0,0,32.06,144.87,85.34,243.12"/>
		<path class="st13" d="M163.61,679.34c0,0,77.92,111.86,92.25,237.31"/>
	</g>
</g>
<g id="Leaf">
	<g>
		<path class="st1" d="M276.2,920.94c-18.76-15.95-50.07-43.61-53.44-70.91c-1.87-15.1,8.44-27.05,15.62-39.77
			c12.28-21.77,11.4-43.96-0.61-64.06c-4.8-8.04-8.04-18.14-4.24-27.25c5.64-13.56,23.71-18.45,30.68-31.44
			c3.74-6.98,3.68-15.06,4.81-22.75c2.74-18.6,16.7-34.67,16.7-34.67s6.15,14.33,20.95,23.54c9.5,5.91,18.64,13.33,24.63,23
			c4.68,7.56,5.5,15.54,4,24.49c-1.76,10.53-2.72,18.91,1.13,28.6c5.95,14.95,40.21,35.18,26.37,52.57
			c-3.76,4.73-9.55,7.87-11.97,13.58c-4.39,10.34,7.33,16.09,10.73,23.96c5.23,12.11,7.36,28.44,1.94,40.24
			c-12.93,28.14-42.72,53.04-70.62,67.54"/>
		<path class="st14" d="M286.4,631.49c-6.79,60.03,21.16,117.94,12.9,177.88c-2.48,17.99-8.16,35.58-11.58,53.47
			c-3.41,17.89-4.44,36.76,2.19,53.05"/>
		<path class="st14" d="M240.7,708.55c12.26,17.75,33.9,42.07,59.63,62.55c0,0,26.35-33.15,34.04-48.6"/>
		<path class="st14" d="M251.65,700.03c14.11,18.98,28.09,33.04,46.89,53.14"/>
		<path class="st14" d="M265.48,683.6c0,0,12.59,15.62,26.36,27.81"/>
		<path class="st14" d="M272.93,651.12c-0.13,0.3,3.42,5.54,13.01,16.33"/>
		<path class="st14" d="M290.27,702.07c0.03,0.18,16.16-26.34,24.04-42.99"/>
		<path class="st14" d="M297.65,746.57c-0.02-0.16,29.27-37.74,38.07-57.46"/>
		<path class="st14" d="M245.94,766.72c0.17,0.8,24.51,33.15,51.48,53.67"/>
		<path class="st14" d="M299.84,805.01c0,0,35.15-35.75,50.25-57.31"/>
		<path class="st14" d="M353.41,801.15c-20.25,23.67-66.12,64.08-66.12,64.08s-39.32-34.8-48.92-54.97"/>
		<path class="st14" d="M285.38,896.24c0,0,53.61-43.79,78.38-70.52"/>
		<path class="st14" d="M230.46,822.11c0,0,22.91,35.61,55.22,54.43"/>
		<path class="st14" d="M286.84,906.36c0,0,49.24-26.53,79.78-64.56"/>
	</g>
</g>
<g id="Dollar_2_">
	<g>
		<g>
			<g>
				<g>
					<g>
						<g>
							<g>
								<g>
									<path class="st10" d="M190.48,968.76c0,5.44,32.19,9.87,71.89,9.87c39.7,0,71.89-4.43,71.89-9.87
										c0-0.11-0.02-0.19-0.03-0.3v-26.67h-143.7v26.61C190.5,968.53,190.48,968.63,190.48,968.76z"/>
								</g>
							</g>
						</g>
					</g>
					<g>
						<g>
							<g>
								<g>
									<path class="st11" d="M190.49,942.04c0,5.45,32.19,9.87,71.89,9.87c39.7,0,71.89-4.42,71.89-9.87
										c0-5.45-32.19-9.87-71.89-9.87C222.67,932.17,190.49,936.59,190.49,942.04z"/>
								</g>
							</g>
						</g>
					</g>
				</g>
				<g>
					<g>
						<g>
							<g>
								<g>
									<path class="st10" d="M209.33,937.46c0,5.44,32.19,9.87,71.89,9.87c39.7,0,71.89-4.43,71.89-9.87
										c0-0.11-0.02-0.19-0.03-0.3v-26.67h-143.7v26.61C209.34,937.23,209.33,937.34,209.33,937.46z"/>
								</g>
							</g>
						</g>
					</g>
					<g>
						<g>
							<g>
								<g>
									<ellipse class="st11" cx="281.22" cy="910.74" rx="71.89" ry="9.87"/>
								</g>
							</g>
						</g>
					</g>
				</g>
				<g>
					<g>
						<g>
							<g>
								<g>
									<path class="st10" d="M190.48,904.4c0,5.44,32.19,9.87,71.89,9.87c39.7,0,71.89-4.43,71.89-9.87c0-0.11-0.02-0.19-0.03-0.3
										v-26.67h-143.7v26.61C190.5,904.16,190.48,904.27,190.48,904.4z"/>
								</g>
							</g>
						</g>
					</g>
					<g>
						<g>
							<g>
								<g>
									<ellipse class="st11" cx="262.38" cy="877.67" rx="71.89" ry="9.87"/>
								</g>
							</g>
						</g>
					</g>
				</g>
				<g>
					<g>
						<g>
							<g>
								<g>
									<path class="st10" d="M209.43,873.66c0,5.44,32.19,9.87,71.89,9.87c39.7,0,71.89-4.43,71.89-9.87
										c0-0.11-0.02-0.19-0.03-0.29v-26.67h-143.7v26.61C209.45,873.43,209.43,873.54,209.43,873.66z"/>
								</g>
							</g>
						</g>
					</g>
					<g>
						<g>
							<g>
								<g>
									<ellipse class="st11" cx="281.33" cy="846.94" rx="71.89" ry="9.87"/>
								</g>
							</g>
						</g>
					</g>
					<g>
						<g>
							<g>
								<g>
									<ellipse class="st12" cx="281.33" cy="846.94" rx="58.55" ry="6.64"/>
								</g>
							</g>
						</g>
					</g>
				</g>
			</g>
		</g>
	</g>
</g>
<g id="Dollar_1_">
	<g>
		<g>
			<g>
				<g>
					<g>
						<g>
							<g>
								<g>
									<path class="st10" d="M137.63,1018.67c0,5.44,32.19,9.87,71.89,9.87c39.7,0,71.89-4.43,71.89-9.87
										c0-0.11-0.02-0.19-0.03-0.3V991.7h-143.7v26.61C137.64,1018.43,137.63,1018.54,137.63,1018.67z"/>
								</g>
							</g>
						</g>
					</g>
					<g>
						<g>
							<g>
								<g>
									<path class="st11" d="M137.63,991.94c0,5.45,32.19,9.87,71.89,9.87s71.89-4.42,71.89-9.87c0-5.45-32.19-9.87-71.89-9.87
										S137.63,986.49,137.63,991.94z"/>
								</g>
							</g>
						</g>
					</g>
				</g>
				<g>
					<g>
						<g>
							<g>
								<g>
									<path class="st10" d="M156.47,987.37c0,5.44,32.19,9.87,71.89,9.87c39.7,0,71.89-4.43,71.89-9.87
										c0-0.11-0.02-0.19-0.03-0.3V960.4h-143.7v26.61C156.49,987.14,156.47,987.24,156.47,987.37z"/>
								</g>
							</g>
						</g>
					</g>
					<g>
						<g>
							<g>
								<g>
									<ellipse class="st11" cx="228.36" cy="960.64" rx="71.89" ry="9.87"/>
								</g>
							</g>
						</g>
					</g>
				</g>
				<g>
					<g>
						<g>
							<g>
								<g>
									<path class="st10" d="M137.63,954.3c0,5.44,32.19,9.87,71.89,9.87c39.7,0,71.89-4.43,71.89-9.87c0-0.11-0.02-0.19-0.03-0.3
										v-26.67h-143.7v26.61C137.64,954.07,137.63,954.17,137.63,954.3z"/>
								</g>
							</g>
						</g>
					</g>
					<g>
						<g>
							<g>
								<g>
									<ellipse class="st11" cx="209.52" cy="927.58" rx="71.89" ry="9.87"/>
								</g>
							</g>
						</g>
					</g>
				</g>
				<g>
					<g>
						<g>
							<g>
								<g>
									<path class="st10" d="M156.58,923.57c0,5.44,32.19,9.87,71.89,9.87c39.7,0,71.89-4.43,71.89-9.87
										c0-0.11-0.02-0.19-0.03-0.3V896.6h-143.7v26.61C156.6,923.33,156.58,923.44,156.58,923.57z"/>
								</g>
							</g>
						</g>
					</g>
					<g>
						<g>
							<g>
								<g>
									<ellipse class="st11" cx="228.47" cy="896.84" rx="71.89" ry="9.87"/>
								</g>
							</g>
						</g>
					</g>
					<g>
						<g>
							<g>
								<g>
									<path class="st12" d="M169.92,896.84c0,3.67,26.22,6.64,58.55,6.64c32.34,0,58.55-2.97,58.55-6.64
										c0-3.67-26.22-6.64-58.55-6.64C196.13,890.21,169.92,893.18,169.92,896.84z"/>
								</g>
							</g>
						</g>
					</g>
				</g>
			</g>
		</g>
	</g>
</g>
<g id="Box">
	<g>
		<path class="st15" d="M976.67,938.65c-4.42-23.53-11.17-63.58,2.98-86.28c7.82-12.55,22.93-15.28,36.13-20.51
			c22.59-8.94,35.5-26.26,38.72-48.79c1.29-9.01,5.02-18.63,13.46-23.19c12.55-6.8,29.2,0.56,42.42-5c7.1-2.98,12-9.13,17.56-14.25
			c13.45-12.38,33.83-15.99,33.83-15.99s-4.12,14.59,1.43,30.6c3.56,10.28,5.94,21.48,4.55,32.45c-1.08,8.57-5.35,15.11-11.95,20.95
			c-7.77,6.88-13.62,12.63-16.63,22.31c-4.65,14.94,8.87,51.18-12.22,55.86c-5.74,1.27-12.03,0.11-17.35,2.94
			c-9.64,5.13-4.3,16.64-6.55,24.67c-3.45,12.35-11.83,26-23.14,31.6c-26.98,13.36-64.73,13.96-94.68,7.85"/>
		<path class="st16" d="M1161.42,726.13c-41.85,41.22-56.14,102.08-99.04,142.34c-12.87,12.08-27.93,21.89-41.45,33.33
			c-13.52,11.43-25.84,25.07-30.79,41.43"/>
		<path class="st16" d="M1079.74,756.42c-1.59,20.91-0.11,52.53,6.81,83.74c0,0,40.19-8.94,55.45-15.91"/>
		<path class="st16" d="M1093.23,756.67c-0.95,22.97,1.02,42.15,2.94,68.84"/>
		<path class="st16" d="M1113.73,752.72c0,0-0.04,19.51,2.91,37.14"/>
		<path class="st16" d="M1139.23,732.73c-0.28,0.15-0.81,6.28-0.16,20.3"/>
		<path class="st16" d="M1121.18,781.84c-0.09,0.15,28.33-10.02,44.46-17.79"/>
		<path class="st16" d="M1099.53,819.99c0.08-0.14,45.2-10.62,63.91-20.15"/>
		<path class="st16" d="M1048.13,803.59c-0.36,0.71-1.75,40.04,6.08,72.05"/>
		<path class="st16" d="M1065.44,865.49c0,0,48.44-5.52,73.04-12.58"/>
		<path class="st16" d="M1108.29,895.33c-29.78,5.5-89.16,7.99-89.16,7.99s-8.43-50.35-3.35-71.46"/>
		<path class="st16" d="M998.72,925.6c0,0,67.3-0.3,102.37-5.36"/>
		<path class="st16" d="M1002.55,835.99c0,0-4.47,40.92,8.45,74.91"/>
		<path class="st16" d="M993.64,934.14c0,0,53.44,10.07,99.78,0"/>
	</g>
	<g>
		<path class="st15" d="M915.51,970.93c-26.13,0.07-70.46-0.64-92.01-20.33c-11.92-10.89-11.85-27.64-14.84-42.85
			c-5.11-26.02-21.13-43.32-44.67-51.24c-9.42-3.17-18.99-9.09-22.22-19.05c-4.8-14.82,6.4-31.23,3.06-46.52
			c-1.79-8.21-7.42-14.69-11.81-21.67c-10.62-16.89-10.44-39.48-10.44-39.48s14.84,7.31,33.13,4.54
			c11.74-1.78,24.23-2.11,35.73,1.56c8.99,2.87,15.15,8.74,20.11,16.99c5.84,9.71,10.85,17.13,20.64,22.28
			c15.11,7.96,56.69,0.64,57.53,24.21c0.23,6.41-2.27,12.93-0.29,19.2c3.59,11.36,17.01,7.92,25.18,11.93
			c12.57,6.16,25.55,17.86,29.32,31.11c8.98,31.62,2.13,72.24-10.37,103.18"/>
		<path class="st16" d="M724.11,730.44c35.93,53.1,98.41,80.52,133.1,134.57c10.41,16.21,17.95,34.32,27.54,51.11
			c9.59,16.79,21.77,32.71,38.36,41.27"/>
		<path class="st16" d="M740.39,824.12c22.13,5.86,56.36,10.55,91.23,9.33c0,0-1.62-44.91-6.06-62.67"/>
		<path class="st16" d="M743.35,809.69c24.47,5.58,45.44,7.27,74.47,10.51"/>
		<path class="st16" d="M743.18,786.9c0,0,20.93,3.92,40.44,4.25"/>
		<path class="st16" d="M726.78,755.57c0.1,0.33,6.58,2.11,21.76,4.2"/>
		<path class="st16" d="M775.91,784.7c0.15,0.13-5.13-32.39-10.26-51.25"/>
		<path class="st16" d="M812.55,815.51c-0.13-0.12-2.42-50.62-8.93-72.6"/>
		<path class="st16" d="M784.74,867.42c0.69,0.53,42.63,9.83,78.54,7.78"/>
		<path class="st16" d="M854.62,861.13c0,0,3.69-53.08,1-80.89"/>
		<path class="st16" d="M895.16,821.06c-0.01,33.05-9.13,97.28-9.13,97.28s-55.71-0.95-77.37-10.59"/>
		<path class="st16" d="M905.88,944.68c0,0,13.04-72.29,14.57-110.94"/>
		<path class="st16" d="M810.46,922.77c0,0,43.03,12.92,82.07,5.81"/>
		<path class="st16" d="M914.04,951.83c0,0,21.42-55.36,19.82-107.09"/>
	</g>
	<g id="freepik--Jar--inject-70_00000039823271110533935040000006587509826779612580_">
		<path class="st17" d="M1124.61,571.27h-22.47v-51.3H783.41v51.3h-19.74c-48.74,0-87.67,49.73-86.26,87.26c0,0.01-2,1.01-2,1.02
			l2,256.66c0,48.74,37.51,88.26,86.26,88.26l0,0h360.9c48.74,0,88.26-39.51,88.26-88.26V659.55
			C1212.84,610.81,1173.35,571.29,1124.61,571.27z"/>
		<path class="st18" d="M1127.03,591.36h-38.98v-69.02H798.64v69.02h-26.17c-41.32,0.01-74.81,33.5-74.82,74.82v247.98
			c0.01,38.04,30.85,68.87,68.89,68.87h362.17c0.04,0,0.08,0,0.12,0c35.49-0.03,64.23-28.82,64.19-64.31V657.35
			C1193.01,620.9,1163.47,591.36,1127.03,591.36z"/>
		<g>
			<path class="st19" d="M1091.43,570.46c-90.95-12.63-108.71,116.34-199.67,103.7c-17.73-34.3-35.46-68.61-53.19-102.91
				c90.95,12.63,108.71-116.34,199.67-103.7C1055.97,501.85,1073.7,536.15,1091.43,570.46z"/>
			<path class="st20" d="M1070.36,557.01c-73.97,2.02-96.59,103.37-170.56,105.39c-13.15-25.44-26.3-50.87-39.44-76.31
				c73.97-2.02,96.59-103.37,170.56-105.39C1044.07,506.14,1057.22,531.58,1070.36,557.01z"/>
			<g class="st21">
				<path class="st22" d="M1031.77,522.9c4.7,9.1,0.58,18.54-8.07,23.29c-8.68,4.7-18.8,2.53-23.52-6.6
					c-4.67-9.04-2.17-21.61,6.51-26.31C1015.34,508.53,1027.08,513.82,1031.77,522.9z"/>
				<path class="st22" d="M931.63,605.62c4.67,9.04,2.17,21.61-6.51,26.31c-8.65,4.75-20.39-0.54-25.08-9.62
					c-4.7-9.1-0.58-18.54,8.07-23.29C916.79,594.32,926.91,596.49,931.63,605.62z"/>
				<path class="st22" d="M990.63,547.59c8.74,16.91,4.47,41.27-8.8,55.81c-13.27,14.55-31.79,11.32-40.64-5.79
					c-8.74-16.91-4.48-41.27,8.8-55.81C963.26,527.25,981.78,530.47,990.63,547.59z"/>
			</g>
		</g>
		<g>
			<path class="st19" d="M973.55,391.33c-50.21,76.88,58.88,147.94,8.67,224.82c-38.59,1.41-77.18,2.82-115.77,4.24
				c50.21-76.88-58.88-147.94-8.67-224.82C896.37,394.15,934.96,392.74,973.55,391.33z"/>
			<path class="st20" d="M952.4,404.65c-29.71,67.77,52.32,131.45,22.6,199.21c-28.61,1.05-57.23,2.09-85.84,3.14
				c29.71-67.77-52.32-131.45-22.6-199.21C895.17,406.75,923.79,405.7,952.4,404.65z"/>
			<g class="st21">
				<path class="st22" d="M905.09,425.02c10.23-0.37,17.02,7.38,17.62,17.23c0.55,9.85-5.73,18.08-15.99,18.46
					c-10.17,0.37-20.47-7.25-21.02-17.11C885.09,433.75,894.88,425.39,905.09,425.02z"/>
				<path class="st22" d="M937.21,550.86c10.17-0.37,20.47,7.25,21.02,17.11c0.6,9.85-9.18,18.21-19.39,18.58
					c-10.23,0.37-17.02-7.38-17.62-17.23C920.67,559.47,926.95,551.24,937.21,550.86z"/>
				<path class="st22" d="M909.88,472.76c19.02-0.7,39.24,13.55,46.73,31.76c7.5,18.21-3.31,33.59-22.57,34.29
					c-19.02,0.7-39.24-13.55-46.73-31.76C879.82,488.84,890.63,473.47,909.88,472.76z"/>
			</g>
		</g>
		<path class="st17" d="M769.63,502.95h343.11c6.58,0,11.92,5.33,11.92,11.92v0.76c0,6.58-5.33,11.92-11.92,11.92H769.63
			c-6.58,0-11.92-5.33-11.92-11.92v-0.76C757.71,508.28,763.05,502.95,769.63,502.95z"/>
	</g>
	<g>
		<g>
			<g>
				<g>
					<g>
						<g>
							<g>
								<g>
									<path class="st10" d="M987.83,945.76c0,3.78-26.13,6.87-58.36,6.87c-32.23,0-58.36-3.08-58.36-6.87
										c0-0.07,0.01-0.13,0.03-0.21V927h116.66v18.51C987.82,945.6,987.83,945.67,987.83,945.76z"/>
								</g>
							</g>
						</g>
					</g>
					<g>
						<g>
							<g>
								<g>
									<ellipse class="st11" cx="929.46" cy="927.17" rx="58.36" ry="6.86"/>
								</g>
							</g>
						</g>
					</g>
				</g>
				<g>
					<g>
						<g>
							<g>
								<g>
									<path class="st10" d="M1001.62,923.37c0,3.78-26.13,6.87-58.36,6.87c-32.23,0-58.36-3.08-58.36-6.87
										c0-0.07,0.01-0.13,0.03-0.21v-18.56h116.66v18.51C1001.61,923.21,1001.62,923.28,1001.62,923.37z"/>
								</g>
							</g>
						</g>
					</g>
					<g>
						<g>
							<g>
								<g>
									<ellipse class="st11" cx="943.26" cy="904.78" rx="58.36" ry="6.86"/>
								</g>
							</g>
						</g>
					</g>
				</g>
				<g>
					<g>
						<g>
							<g>
								<g>
									<path class="st10" d="M987.83,900.98c0,3.78-26.13,6.87-58.36,6.87c-32.23,0-58.36-3.08-58.36-6.87
										c0-0.07,0.01-0.13,0.03-0.21v-18.56h116.66v18.51C987.82,900.82,987.83,900.89,987.83,900.98z"/>
								</g>
							</g>
						</g>
					</g>
					<g>
						<g>
							<g>
								<g>
									<ellipse class="st11" cx="929.46" cy="882.39" rx="58.36" ry="6.86"/>
								</g>
							</g>
						</g>
					</g>
				</g>
				<g>
					<g>
						<g>
							<g>
								<g>
									<path class="st10" d="M1008.52,878.59c0,3.78-26.13,6.87-58.36,6.87c-32.23,0-58.36-3.08-58.36-6.87
										c0-0.07,0.01-0.13,0.03-0.21v-18.56h116.66v18.51C1008.5,878.43,1008.52,878.51,1008.52,878.59z"/>
								</g>
							</g>
						</g>
					</g>
					<g>
						<g>
							<g>
								<g>
									<path class="st11" d="M1008.51,860c0,3.79-26.13,6.86-58.36,6.86c-32.23,0-58.36-3.07-58.36-6.86
										c0-3.79,26.13-6.86,58.36-6.86C982.38,853.14,1008.51,856.21,1008.51,860z"/>
								</g>
							</g>
						</g>
					</g>
					<g>
						<g>
							<g>
								<g>
									<path class="st12" d="M997.69,860c0,2.55-21.28,4.62-47.54,4.62c-26.25,0-47.54-2.07-47.54-4.62
										c0-2.55,21.28-4.62,47.54-4.62C976.41,855.38,997.69,857.45,997.69,860z"/>
								</g>
							</g>
						</g>
					</g>
				</g>
			</g>
		</g>
	</g>
	<g>
		<g>
			<g>
				<g>
					<g>
						<g>
							<g>
								<g>
									<path class="st10" d="M936.39,970.8c0,4.82,28.5,8.74,63.64,8.74c35.14,0,63.64-3.92,63.64-8.74
										c0-0.09-0.02-0.17-0.03-0.26v-23.61H936.44v23.56C936.41,970.59,936.39,970.69,936.39,970.8z"/>
								</g>
							</g>
						</g>
					</g>
					<g>
						<g>
							<g>
								<g>
									<path class="st11" d="M936.4,947.14c0,4.82,28.49,8.73,63.64,8.73c35.15,0,63.64-3.91,63.64-8.73
										c0-4.82-28.49-8.73-63.64-8.73C964.89,938.41,936.4,942.32,936.4,947.14z"/>
								</g>
							</g>
						</g>
					</g>
				</g>
				<g>
					<g>
						<g>
							<g>
								<g>
									<path class="st10" d="M953.07,943.09c0,4.82,28.5,8.74,63.64,8.74c35.14,0,63.64-3.92,63.64-8.74
										c0-0.09-0.02-0.17-0.03-0.26v-23.61H953.12v23.56C953.09,942.89,953.07,942.98,953.07,943.09z"/>
								</g>
							</g>
						</g>
					</g>
					<g>
						<g>
							<g>
								<g>
									<ellipse class="st11" cx="1016.72" cy="919.43" rx="63.64" ry="8.73"/>
								</g>
							</g>
						</g>
					</g>
				</g>
				<g>
					<g>
						<g>
							<g>
								<g>
									<path class="st10" d="M936.39,913.82c0,4.82,28.5,8.74,63.64,8.74c35.14,0,63.64-3.92,63.64-8.74
										c0-0.09-0.02-0.17-0.03-0.26v-23.61H936.44v23.56C936.41,913.61,936.39,913.71,936.39,913.82z"/>
								</g>
							</g>
						</g>
					</g>
					<g>
						<g>
							<g>
								<g>
									<ellipse class="st11" cx="1000.04" cy="890.16" rx="63.64" ry="8.73"/>
								</g>
							</g>
						</g>
					</g>
				</g>
				<g>
					<g>
						<g>
							<g>
								<g>
									<path class="st10" d="M953.17,886.61c0,4.82,28.5,8.74,63.64,8.74c35.14,0,63.64-3.92,63.64-8.74
										c0-0.09-0.02-0.17-0.03-0.26v-23.61h-127.2v23.56C953.19,886.41,953.17,886.5,953.17,886.61z"/>
								</g>
							</g>
						</g>
					</g>
					<g>
						<g>
							<g>
								<g>
									<ellipse class="st11" cx="1016.81" cy="862.96" rx="63.64" ry="8.73"/>
								</g>
							</g>
						</g>
					</g>
					<g>
						<g>
							<g>
								<g>
									<path class="st12" d="M964.98,862.96c0,3.24,23.21,5.87,51.83,5.87c28.63,0,51.83-2.63,51.83-5.87
										c0-3.24-23.21-5.87-51.83-5.87C988.19,857.08,964.98,859.71,964.98,862.96z"/>
								</g>
							</g>
						</g>
					</g>
				</g>
			</g>
		</g>
	</g>
	<g>
		<g>
			<g>
				<g>
					<g>
						<g>
							<g>
								<g>
									<path class="st10" d="M855.53,859.94c0,4.82,28.5,8.74,63.64,8.74c35.14,0,63.64-3.92,63.64-8.74
										c0-0.09-0.01-0.17-0.03-0.26v-23.61H855.58v23.56C855.55,859.74,855.53,859.83,855.53,859.94z"/>
								</g>
							</g>
						</g>
					</g>
					<g>
						<g>
							<g>
								<g>
									<path class="st11" d="M855.54,836.29c0,4.82,28.49,8.73,63.64,8.73c35.15,0,63.64-3.91,63.64-8.73
										c0-4.82-28.49-8.73-63.64-8.73C884.03,827.55,855.54,831.46,855.54,836.29z"/>
								</g>
							</g>
						</g>
					</g>
				</g>
				<g>
					<g>
						<g>
							<g>
								<g>
									<path class="st10" d="M872.22,832.24c0,4.82,28.5,8.74,63.64,8.74c35.14,0,63.64-3.92,63.64-8.74
										c0-0.09-0.02-0.17-0.03-0.26v-23.61H872.26v23.56C872.23,832.03,872.22,832.13,872.22,832.24z"/>
								</g>
							</g>
						</g>
					</g>
					<g>
						<g>
							<g>
								<g>
									<ellipse class="st11" cx="935.86" cy="808.58" rx="63.64" ry="8.73"/>
								</g>
							</g>
						</g>
					</g>
				</g>
				<g>
					<g>
						<g>
							<g>
								<g>
									<path class="st10" d="M855.53,802.97c0,4.82,28.5,8.74,63.64,8.74c35.14,0,63.64-3.92,63.64-8.74
										c0-0.09-0.01-0.17-0.03-0.26v-23.61H855.58v23.56C855.55,802.76,855.53,802.85,855.53,802.97z"/>
								</g>
							</g>
						</g>
					</g>
					<g>
						<g>
							<g>
								<g>
									<ellipse class="st11" cx="919.18" cy="779.31" rx="63.64" ry="8.73"/>
								</g>
							</g>
						</g>
					</g>
				</g>
				<g>
					<g>
						<g>
							<g>
								<g>
									<path class="st10" d="M872.31,775.76c0,4.82,28.5,8.74,63.64,8.74c35.14,0,63.64-3.92,63.64-8.74
										c0-0.09-0.01-0.17-0.03-0.26v-23.61h-127.2v23.56C872.33,775.55,872.31,775.65,872.31,775.76z"/>
								</g>
							</g>
						</g>
					</g>
					<g>
						<g>
							<g>
								<g>
									<ellipse class="st11" cx="935.96" cy="752.1" rx="63.64" ry="8.73"/>
								</g>
							</g>
						</g>
					</g>
					<g>
						<g>
							<g>
								<g>
									<path class="st12" d="M884.12,752.1c0,3.24,23.21,5.87,51.83,5.87c28.63,0,51.83-2.63,51.83-5.87
										c0-3.24-23.21-5.88-51.83-5.88C907.33,746.23,884.12,748.86,884.12,752.1z"/>
								</g>
							</g>
						</g>
					</g>
				</g>
			</g>
		</g>
	</g>
	<g>
		<g>
			<g>
				<g>
					<g>
						<g>
							<g>
								<g>
									<path class="st10" d="M743.53,883.94c0,4.82,28.5,8.74,63.64,8.74c35.14,0,63.64-3.92,63.64-8.74
										c0-0.09-0.01-0.17-0.03-0.26v-23.61H743.58v23.56C743.55,883.74,743.53,883.83,743.53,883.94z"/>
								</g>
							</g>
						</g>
					</g>
					<g>
						<g>
							<g>
								<g>
									<path class="st11" d="M743.54,860.29c0,4.82,28.49,8.73,63.64,8.73c35.15,0,63.64-3.91,63.64-8.73
										c0-4.82-28.49-8.73-63.64-8.73C772.03,851.55,743.54,855.46,743.54,860.29z"/>
								</g>
							</g>
						</g>
					</g>
				</g>
				<g>
					<g>
						<g>
							<g>
								<g>
									<path class="st10" d="M760.22,856.24c0,4.82,28.5,8.74,63.64,8.74c35.14,0,63.64-3.92,63.64-8.74
										c0-0.09-0.02-0.17-0.03-0.26v-23.61H760.26v23.56C760.23,856.03,760.22,856.13,760.22,856.24z"/>
								</g>
							</g>
						</g>
					</g>
					<g>
						<g>
							<g>
								<g>
									<ellipse class="st11" cx="823.86" cy="832.58" rx="63.64" ry="8.73"/>
								</g>
							</g>
						</g>
					</g>
				</g>
				<g>
					<g>
						<g>
							<g>
								<g>
									<path class="st10" d="M743.53,826.97c0,4.82,28.5,8.74,63.64,8.74c35.14,0,63.64-3.92,63.64-8.74
										c0-0.09-0.01-0.17-0.03-0.26v-23.61H743.58v23.56C743.55,826.76,743.53,826.85,743.53,826.97z"/>
								</g>
							</g>
						</g>
					</g>
					<g>
						<g>
							<g>
								<g>
									<ellipse class="st11" cx="807.18" cy="803.31" rx="63.64" ry="8.73"/>
								</g>
							</g>
						</g>
					</g>
				</g>
				<g>
					<g>
						<g>
							<g>
								<g>
									<path class="st10" d="M760.31,799.76c0,4.82,28.5,8.74,63.64,8.74c35.14,0,63.64-3.92,63.64-8.74
										c0-0.09-0.01-0.17-0.03-0.26v-23.61h-127.2v23.56C760.33,799.55,760.31,799.65,760.31,799.76z"/>
								</g>
							</g>
						</g>
					</g>
					<g>
						<g>
							<g>
								<g>
									<ellipse class="st11" cx="823.96" cy="776.1" rx="63.64" ry="8.73"/>
								</g>
							</g>
						</g>
					</g>
					<g>
						<g>
							<g>
								<g>
									<path class="st12" d="M772.12,776.1c0,3.24,23.21,5.87,51.83,5.87c28.63,0,51.83-2.63,51.83-5.87
										c0-3.24-23.21-5.88-51.83-5.88C795.33,770.23,772.12,772.86,772.12,776.1z"/>
								</g>
							</g>
						</g>
					</g>
				</g>
			</g>
		</g>
	</g>
	<g>
		<g>
			<g>
				<g>
					<g>
						<g>
							<g>
								<g>
									<path class="st10" d="M803.53,771.94c0,4.82,28.5,8.74,63.64,8.74c35.14,0,63.64-3.92,63.64-8.74
										c0-0.09-0.01-0.17-0.03-0.26v-23.61H803.58v23.56C803.55,771.74,803.53,771.83,803.53,771.94z"/>
								</g>
							</g>
						</g>
					</g>
					<g>
						<g>
							<g>
								<g>
									<path class="st11" d="M803.54,748.29c0,4.82,28.49,8.73,63.64,8.73c35.15,0,63.64-3.91,63.64-8.73
										c0-4.82-28.49-8.73-63.64-8.73C832.03,739.55,803.54,743.46,803.54,748.29z"/>
								</g>
							</g>
						</g>
					</g>
				</g>
				<g>
					<g>
						<g>
							<g>
								<g>
									<path class="st10" d="M820.22,744.24c0,4.82,28.5,8.74,63.64,8.74c35.14,0,63.64-3.92,63.64-8.74
										c0-0.09-0.02-0.17-0.03-0.26v-23.61H820.26v23.56C820.23,744.03,820.22,744.13,820.22,744.24z"/>
								</g>
							</g>
						</g>
					</g>
					<g>
						<g>
							<g>
								<g>
									<ellipse class="st11" cx="883.86" cy="720.58" rx="63.64" ry="8.73"/>
								</g>
							</g>
						</g>
					</g>
				</g>
				<g>
					<g>
						<g>
							<g>
								<g>
									<path class="st10" d="M803.53,714.97c0,4.82,28.5,8.74,63.64,8.74c35.14,0,63.64-3.92,63.64-8.74
										c0-0.09-0.01-0.17-0.03-0.26v-23.61H803.58v23.56C803.55,714.76,803.53,714.85,803.53,714.97z"/>
								</g>
							</g>
						</g>
					</g>
					<g>
						<g>
							<g>
								<g>
									<ellipse class="st11" cx="867.18" cy="691.31" rx="63.64" ry="8.73"/>
								</g>
							</g>
						</g>
					</g>
				</g>
				<g>
					<g>
						<g>
							<g>
								<g>
									<path class="st10" d="M820.31,687.76c0,4.82,28.5,8.74,63.64,8.74c35.14,0,63.64-3.92,63.64-8.74
										c0-0.09-0.01-0.17-0.03-0.26v-23.61h-127.2v23.56C820.33,687.55,820.31,687.65,820.31,687.76z"/>
								</g>
							</g>
						</g>
					</g>
					<g>
						<g>
							<g>
								<g>
									<ellipse class="st11" cx="883.96" cy="664.1" rx="63.64" ry="8.73"/>
								</g>
							</g>
						</g>
					</g>
					<g>
						<g>
							<g>
								<g>
									<path class="st12" d="M832.12,664.1c0,3.24,23.21,5.87,51.83,5.87c28.63,0,51.83-2.63,51.83-5.87
										c0-3.24-23.21-5.88-51.83-5.88C855.33,658.23,832.12,660.86,832.12,664.1z"/>
								</g>
							</g>
						</g>
					</g>
				</g>
			</g>
		</g>
	</g>
	<g>
		<g>
			<g>
				<g>
					<g>
						<g>
							<g>
								<g>
									<path class="st10" d="M924.24,972.49c0,4.41-26.1,8-58.29,8c-32.19,0-58.29-3.59-58.29-8c0-0.09,0.01-0.15,0.03-0.24
										v-21.63H924.2v21.58C924.23,972.31,924.24,972.39,924.24,972.49z"/>
								</g>
							</g>
						</g>
					</g>
					<g>
						<g>
							<g>
								<g>
									<ellipse class="st11" cx="865.95" cy="950.83" rx="58.29" ry="8"/>
								</g>
							</g>
						</g>
					</g>
				</g>
				<g>
					<g>
						<g>
							<g>
								<g>
									<path class="st10" d="M938.01,946.4c0,4.41-26.1,8-58.29,8s-58.29-3.59-58.29-8c0-0.09,0.01-0.15,0.03-0.24v-21.63h116.51
										v21.58C938,946.21,938.01,946.3,938.01,946.4z"/>
								</g>
							</g>
						</g>
					</g>
					<g>
						<g>
							<g>
								<g>
									<ellipse class="st11" cx="879.72" cy="924.73" rx="58.29" ry="8"/>
								</g>
							</g>
						</g>
					</g>
				</g>
				<g>
					<g>
						<g>
							<g>
								<g>
									<path class="st10" d="M924.24,920.31c0,4.41-26.1,8-58.29,8c-32.19,0-58.29-3.59-58.29-8c0-0.09,0.01-0.15,0.03-0.24
										v-21.63H924.2v21.58C924.23,920.12,924.24,920.21,924.24,920.31z"/>
								</g>
							</g>
						</g>
					</g>
					<g>
						<g>
							<g>
								<g>
									<ellipse class="st11" cx="865.95" cy="898.64" rx="58.29" ry="8"/>
								</g>
							</g>
						</g>
					</g>
				</g>
				<g>
					<g>
						<g>
							<g>
								<g>
									<path class="st10" d="M920.96,893.28c0,4.41-26.1,8-58.29,8c-32.19,0-58.29-3.59-58.29-8c0-0.09,0.01-0.15,0.03-0.24
										v-21.63h116.51v21.58C920.95,893.09,920.96,893.17,920.96,893.28z"/>
								</g>
							</g>
						</g>
					</g>
					<g>
						<g>
							<g>
								<g>
									<ellipse class="st11" cx="862.67" cy="871.61" rx="58.29" ry="8"/>
								</g>
							</g>
						</g>
					</g>
					<g>
						<g>
							<g>
								<g>
									<path class="st12" d="M910.15,871.61c0,2.97-21.26,5.38-47.48,5.38c-26.22,0-47.48-2.41-47.48-5.38
										c0-2.97,21.26-5.38,47.48-5.38C888.89,866.23,910.15,868.64,910.15,871.61z"/>
								</g>
							</g>
						</g>
					</g>
				</g>
			</g>
		</g>
	</g>
	<g>
		<g>
			<g>
				<g>
					<g>
						<g>
							<g>
								<g>
									<path class="st10" d="M948.39,881.8c0,4.82,28.5,8.74,63.64,8.74c35.14,0,63.64-3.92,63.64-8.74
										c0-0.09-0.02-0.17-0.03-0.26v-23.61H948.44v23.56C948.41,881.59,948.39,881.69,948.39,881.8z"/>
								</g>
							</g>
						</g>
					</g>
					<g>
						<g>
							<g>
								<g>
									<path class="st11" d="M948.4,858.14c0,4.82,28.49,8.73,63.64,8.73c35.15,0,63.64-3.91,63.64-8.73
										c0-4.82-28.49-8.73-63.64-8.73C976.89,849.41,948.4,853.32,948.4,858.14z"/>
								</g>
							</g>
						</g>
					</g>
				</g>
				<g>
					<g>
						<g>
							<g>
								<g>
									<path class="st10" d="M965.07,854.09c0,4.82,28.5,8.74,63.64,8.74c35.14,0,63.64-3.92,63.64-8.74
										c0-0.09-0.02-0.17-0.03-0.26v-23.61H965.12v23.56C965.09,853.89,965.07,853.98,965.07,854.09z"/>
								</g>
							</g>
						</g>
					</g>
					<g>
						<g>
							<g>
								<g>
									<ellipse class="st11" cx="1028.72" cy="830.43" rx="63.64" ry="8.73"/>
								</g>
							</g>
						</g>
					</g>
				</g>
				<g>
					<g>
						<g>
							<g>
								<g>
									<path class="st10" d="M948.39,824.82c0,4.82,28.5,8.74,63.64,8.74c35.14,0,63.64-3.92,63.64-8.74
										c0-0.09-0.02-0.17-0.03-0.26v-23.61H948.44v23.56C948.41,824.61,948.39,824.71,948.39,824.82z"/>
								</g>
							</g>
						</g>
					</g>
					<g>
						<g>
							<g>
								<g>
									<ellipse class="st11" cx="1012.04" cy="801.16" rx="63.64" ry="8.73"/>
								</g>
							</g>
						</g>
					</g>
				</g>
				<g>
					<g>
						<g>
							<g>
								<g>
									<path class="st10" d="M965.17,797.61c0,4.82,28.5,8.74,63.64,8.74c35.14,0,63.64-3.92,63.64-8.74
										c0-0.09-0.02-0.17-0.03-0.26v-23.61h-127.2v23.56C965.19,797.41,965.17,797.5,965.17,797.61z"/>
								</g>
							</g>
						</g>
					</g>
					<g>
						<g>
							<g>
								<g>
									<ellipse class="st11" cx="1028.81" cy="773.96" rx="63.64" ry="8.73"/>
								</g>
							</g>
						</g>
					</g>
					<g>
						<g>
							<g>
								<g>
									<path class="st12" d="M976.98,773.96c0,3.24,23.21,5.87,51.83,5.87c28.63,0,51.83-2.63,51.83-5.87
										c0-3.24-23.21-5.87-51.83-5.87C1000.19,768.08,976.98,770.71,976.98,773.96z"/>
								</g>
							</g>
						</g>
					</g>
				</g>
			</g>
		</g>
	</g>
	<g>
		<g>
			<g>
				<circle class="st23" cx="1109.76" cy="912.18" r="65.01"/>
				
					<ellipse transform="matrix(0.4421 -0.8969 0.8969 0.4421 -199.0847 1504.259)" class="st24" cx="1109.76" cy="912.18" rx="53.15" ry="53.15"/>
			</g>
			<g>
				<path class="st25" d="M1102.26,938.86l-3.6,7.76l-6.93-3.22l3.51-7.56c-6.67-3.6-12.26-8.81-14.69-13.56l7.74-6.69
					c2.28,4.17,6.4,8.36,11.16,11.16l5.37-11.58c-6.83-5.44-14.23-12-9.63-21.91c3.41-7.35,11.68-11.18,23.21-7.34l3.57-7.69
					l6.93,3.22l-3.51,7.56c5.01,2.83,9.42,6.56,12.11,10.76l-7.43,6.92c-2.6-3.65-5.66-6.5-8.93-8.53l-5.47,11.78
					c6.86,5.37,14.13,11.86,9.59,21.64C1121.92,938.8,1113.76,942.6,1102.26,938.86z M1109.55,905l4.57-9.84
					c-4.06-0.87-6.45,0.46-7.51,2.75C1105.48,900.33,1106.95,902.62,1109.55,905z M1113.72,927.24c1.13-2.43-0.27-4.68-2.77-7.1
					l-4.44,9.57C1110.33,930.55,1112.69,929.46,1113.72,927.24z"/>
			</g>
		</g>
	</g>
	<g>
		<g>
			<g>
				
					<ellipse transform="matrix(0.5783 -0.8158 0.8158 0.5783 -161.7808 1111.0969)" class="st23" cx="993.93" cy="712.05" rx="60.77" ry="60.77"/>
				
					<ellipse transform="matrix(0.9748 -0.2232 0.2232 0.9748 -133.8442 239.7832)" class="st24" cx="993.93" cy="712.05" rx="49.68" ry="49.68"/>
			</g>
			<g id="LkW7Tg.tif_00000119116909719409771390000015496869165156199563_">
				<g>
					<path class="st25" d="M993.78,751.21c-0.68-2.7-1.37-5.4-2.05-8.11c-0.2-0.78-0.2-0.78-0.96-0.59
						c-4.86,1.23-9.73,2.45-14.59,3.68c-0.83,0.21-0.85,0.2-1.05-0.62c-0.51-2.03-1.03-4.05-1.53-6.08
						c-0.19-0.74-0.15-0.8,0.59-0.99c1.06-0.27,2.12-0.53,3.16-0.9c1.47-0.51,2.04-1.44,1.8-2.99c-0.15-0.93-0.37-1.83-0.6-2.74
						c-2.45-9.71-4.9-19.42-7.35-29.13c-0.21-0.85-0.47-1.69-0.74-2.52c-0.42-1.31-1.55-1.96-2.93-1.76
						c-1.15,0.17-2.27,0.44-3.38,0.75c-0.5,0.14-0.73,0-0.85-0.5c-0.52-2.13-1.05-4.25-1.61-6.37c-0.14-0.55,0.05-0.74,0.56-0.86
						c4.89-1.22,9.77-2.46,14.65-3.69c0.83-0.21,0.83-0.21,0.62-1.04c-0.62-2.45-1.22-4.91-1.86-7.35
						c-0.15-0.58-0.01-0.81,0.58-0.95c2.11-0.5,4.22-1.03,6.31-1.59c0.6-0.16,0.8,0.02,0.94,0.58c0.6,2.5,1.26,4.98,1.86,7.48
						c0.14,0.57,0.37,0.69,0.91,0.53c1.09-0.31,2.2-0.57,3.3-0.84c0.78-0.2,0.78-0.2,0.59-0.95c-0.61-2.41-1.22-4.83-1.83-7.24
						c-0.24-0.93-0.24-0.94,0.73-1.18c1.99-0.5,3.98-1,5.96-1.5c0.87-0.22,0.88-0.22,1.09,0.63c0.65,2.57,1.31,5.13,1.93,7.7
						c0.14,0.58,0.4,0.72,0.96,0.65c3.68-0.49,7.22-0.08,10.55,1.65c1.6,0.83,2.92,2,3.99,3.44c2.4,3.24,3.09,6.84,2.06,10.74
						c-0.75,2.82-2.38,5.09-4.58,6.98c-0.64,0.55-1.34,1.03-1.97,1.65c1,0.07,2,0.12,3,0.2c2.21,0.18,4.32,0.76,6.21,1.94
						c2.41,1.5,4.2,3.56,5.25,6.23c2.08,5.23,1.19,10.05-2.1,14.46c-2.26,3.03-5.36,5-8.85,6.37c-0.56,0.22-0.72,0.46-0.57,1.06
						c0.75,2.87,1.46,5.75,2.18,8.63c-2.59,0.65-5.17,1.31-7.76,1.96c-0.07-0.25-0.16-0.49-0.22-0.74
						c-0.63-2.47-1.27-4.93-1.86-7.41c-0.14-0.6-0.38-0.72-0.95-0.55c-0.97,0.29-1.97,0.5-2.95,0.76c-1.21,0.31-1.12,0.15-0.83,1.35
						c0.64,2.61,1.29,5.21,1.94,7.82C998.95,749.91,996.36,750.56,993.78,751.21z M991.05,723.94c0.01,0,0.01,0,0.02-0.01
						c0.38,1.52,0.75,3.05,1.16,4.57c0.24,0.88,0.38,1.79,0.79,2.62c0.39,0.79,0.83,0.99,1.69,0.85c2.09-0.34,4.12-0.9,6.15-1.46
						c1.68-0.47,3.35-1,4.89-1.87c4.93-2.79,5.13-9.37,1.56-12.72c-1.67-1.56-3.78-1.84-5.97-1.7c-1.29,0.08-2.55,0.38-3.82,0.64
						c-2.64,0.53-5.21,1.29-7.83,1.91c-0.31,0.07-0.41,0.22-0.32,0.56C989.95,719.54,990.5,721.74,991.05,723.94z M985.58,702.15
						c0.49,1.95,1,3.89,1.46,5.85c0.14,0.6,0.39,0.72,0.96,0.56c1.36-0.38,2.73-0.72,4.11-1.04c2.23-0.52,4.41-1.2,6.5-2.14
						c3.06-1.37,4.62-3.75,4.33-6.77c-0.27-2.92-2.14-5.26-5.17-5.62c-1.88-0.22-3.73,0.13-5.55,0.54
						c-2.54,0.57-5.06,1.26-7.59,1.87c-0.56,0.14-0.69,0.37-0.54,0.92C984.61,698.25,985.09,700.2,985.58,702.15z"/>
				</g>
			</g>
		</g>
	</g>
	<g>
		<g>
			<g>
				<circle class="st23" cx="775.81" cy="912.07" r="63"/>
				
					<ellipse transform="matrix(0.7071 -0.7071 0.7071 0.7071 -417.7043 815.7222)" class="st24" cx="775.81" cy="912.07" rx="51.5" ry="51.5"/>
			</g>
			<g>
				<g>
					<polygon class="st25" points="794.67,876.24 743.18,887.28 746.15,901.09 776.75,894.53 752.96,932.84 755.94,946.74 
						807.42,935.7 804.46,921.88 771.28,929 797.07,887.46 					"/>
				</g>
				
					<rect x="761.07" y="869.16" transform="matrix(0.9778 -0.2097 0.2097 0.9778 -167.0085 180.3851)" class="st25" width="12.11" height="17.16"/>
				
					<rect x="775.46" y="936.26" transform="matrix(0.9778 -0.2097 0.2097 0.9778 -180.7573 184.8929)" class="st25" width="12.11" height="17.16"/>
			</g>
		</g>
	</g>
	<g>
		<path class="st26" d="M1125.03,591.36h-38.98v-69.02H796.64v69.02h-26.17c-41.32,0.01-74.81,33.5-74.82,74.82v247.98
			c0.01,38.04,30.85,68.87,68.89,68.87h362.17c0.04,0,0.08,0,0.12,0c35.49-0.03,64.23-28.82,64.19-64.31V657.35
			C1191.01,620.9,1161.47,591.36,1125.03,591.36z"/>
		<g class="st27">
			<path class="st25" d="M1192.63,648.95c0,0-495.01,222.11-495.01,225.07v53.07c0,40.76,43.38,66.87,79.39,47.78l415.62-220.2
				V648.95z"/>
		</g>
		<path class="st28" d="M1090.35,609.52c0,0,44.35-10.43,65.76,11.06c21.41,21.49,19.18,63.14,17.8,86.81
			c-1.39,23.67,5.01,192.14,5.01,192.14s-16.68-239.25-44.4-258.47C1106.81,621.85,1090.35,609.52,1090.35,609.52z"/>
		<path class="st25" d="M738.53,932.07L738.53,932.07c-6.63,0-12-5.37-12-12v-265c0-6.63,5.37-12,12-12l0,0c6.63,0,12,5.37,12,12
			v265C750.53,926.7,745.15,932.07,738.53,932.07z"/>
	</g>
	<g>
		<path class="st25" d="M1096.53,865.07h-281c-14.91,0-27-12.09-27-27v-12c0-14.91,12.09-27,27-27h281c14.91,0,27,12.09,27,27v12
			C1123.53,852.98,1111.44,865.07,1096.53,865.07z"/>
		<text transform="matrix(1 0 0 1 847.8365 849.0056)" class="st29 st30 st31">SAVINGS</text>
	</g>
</g>
<g id="R_Thigh">
	<g>
		<path class="st32" d="M625.17,485.44c0.52,1.28,35.19,187.05,31.1,192.25c-4.1,5.2-20.62,48.17-41.26,37.9
			c-20.63-10.27-32.84,3.35-42.19-15.79c-9.35-19.14-50.98-222.56-54.92-252.22C515.15,426.93,612.82,454.85,625.17,485.44z"/>
	</g>
</g>
<g id="R_Leg">
	<g>
		<polygon class="st33" points="592.71,924.01 596.2,962.07 627.27,962.09 627.27,890.95 		"/>
		<g>
			<path class="st32" d="M652.58,671.43c5.14,3.91,5.59,15.95,5.59,15.95l-13.61,247.72l-57.68,8.22c0,0-17.18-228.99-14.45-243.95
				C575.17,684.43,610.04,639.06,652.58,671.43z"/>
			<path class="st34" d="M590.19,699.84c-1.1,32.78,9.26,210.37,13.43,226.15"/>
		</g>
	</g>
</g>
<g id="L_Body">
	<g>
		<path class="st32" d="M629.92,510.37l4.46,31.02c0,0-63.53,31.65-71.19,29.66c-7.66-1.98-76.08-37.2-81.87-51.09
			c-5.79-13.89-4.21-32.67,0-39.78S629.92,510.37,629.92,510.37z"/>
		<path class="st35" d="M576.21,513.91c-1.03,11.48-2.07,22.96-3.1,34.45c-0.27,3-0.58,6.11-2.13,8.69
			c-1.55,2.58-4.73,4.45-7.59,3.49"/>
		<path class="st35" d="M604.47,517.74c0.84,5.76,1.72,11.63,4.32,16.84c2.6,5.21,7.26,9.73,13.01,10.64"/>
		<path class="st35" d="M504.62,529.22c13.85,0.36,26.94-11.3,28.18-25.09"/>
		<path class="st34" d="M502.27,495.75c-1.84,10.81-2.87,21.75-3.07,32.71"/>
	</g>
</g>
<g id="L_Thigh">
	<g>
		<path class="st32" d="M569.06,534.11c-0.06,1.29-25.99,159.64-45.48,179.8c-4.47,4.63-34.67,2.98-48.81-15.43
			s-30.29-6.5-30.8-26.55c-0.51-20.05,36.65-195.09,45.23-220.99C495.17,432.91,570.54,503.34,569.06,534.11z"/>
		<path class="st34" d="M517.03,483c-14.98,3.69-27.17,101.57-35.72,154.71"/>
		<path class="st35" d="M565.71,554.07c0,0-23.72,123.62-32.7,141.56"/>
	</g>
</g>
<g id="L_Leg">
	<g>
		<polygon class="st33" points="380.92,872.43 360.76,934.39 388.68,948.63 426.2,878.45 		"/>
		<g>
			<path class="st32" d="M524.72,700.74c3.1,6.04-1.19,17.09-1.19,17.09L418.5,925.56l-57.72-25c0,0,73.59-219.77,81.88-231.87
				C450.95,656.59,499.09,650.73,524.72,700.74z"/>
			<path class="st34" d="M457.56,695.63c-13.76,28.94-72.25,188.67-74.64,204.91"/>
		</g>
		<line class="st35" x1="418.5" y1="925.56" x2="519.95" y2="723.7"/>
	</g>
</g>
<g id="R_Foot">
	<path class="st36" d="M590.36,955.83l4.89-3.71c0,0,3.24,6.76,7.02,7.51c3.78,0.75,22.58-2.46,22.58-2.46l2.41-14.31
		c-2.89,0.96,3.48,10.08,8.02,13.56c4.53,3.48,38.84,8.83,43.35,8.24c4.51-0.59,8.99,16.55,6.34,19.5
		c-2.65,2.95-37.29,9.87-43.29,9.43c-5.99-0.44-33.51,4.45-41.08,5.65c-7.56,1.2-11.49-0.45-12.78-9.3
		C586.55,981.09,590.36,955.83,590.36,955.83z"/>
</g>
<g id="L_Foot">
	<path class="st36" d="M360.79,923.14l5.88-0.9c0,0,0.32,7.71,3.45,10.27s21.3,8.21,21.3,8.21s8.26-8.59,8.44-9.47
		c0.18-0.89-1.31,9.45,1.45,14.84c2.76,5.4,31.81,27.34,36.13,29.06c4.32,1.72,1.74,19.4-1.81,20.74
		c-3.55,1.34-37.65-9.72-42.92-13.11c-5.26-3.39-32.12-12.72-39.45-15.41c-7.33-2.69-10.25-6.14-7.99-14.76
		C347.54,944,360.79,923.14,360.79,923.14z"/>
</g>
<g id="R_Arm">
	<g>
		<path class="st37" d="M615.82,321.34c1.52,8.88,4.9,19.94,7.52,28.61c5.17,17.08,7.75,42.4,14.18,59.13
			c5.27,13.74,1.95,21.01,8.31,34.25c3.9,8.12,15.99,14.81,24.78,16.69c8.79,1.88,18.26-0.92,23.95-7.36
			c2.5-2.83,8.96-16.98,9.23-33.13c0.59-35.59-22.45-104.45-24.76-109.26c-4.99-10.38-11.51-18.58-26.9-22.73
			c-7.96-2.15-20.7,13.23-28.61,16.99C615.58,308.31,614.52,313.73,615.82,321.34z"/>
	</g>
</g>
<g id="Body">
	<g>
		<path class="st37" d="M564.72,227.95c-9.75-0.99-20.7-0.24-27.62,6.7c-8.96,9-7.13,23.73-4.68,36.19
			c3.56,18.03,7.11,36.06,10.67,54.09c0.85,4.29,1.74,8.7,4.18,12.33c5.34,7.94,16.69,9.73,25.89,7.1c9.2-2.64,16.96-8.68,25-13.88
			c10.04-6.49,20.87-11.85,30.04-19.51c7.35-6.14,17.99-17.91,17.99-28.26c0-10.24-11.53-20.09-18.53-26.41
			C610.32,240.62,588.02,230.32,564.72,227.95z"/>
		<path class="st38" d="M557.96,244.18c2.54-3.28,7.24-4.18,11.33-3.44c4.08,0.74,7.78,2.83,11.53,4.59
			c14.46,6.8,31.83,9.87,41.71,22.43c4.41,5.6,6.78,12.53,8.63,19.41c0.2,0.76,0.4,1.59,0.06,2.31c-0.49,1.04-1.84,1.3-2.98,1.4
			c-15.86,1.45-39.5,0.89-53.43-8.12C566.25,277.21,550.41,253.92,557.96,244.18z"/>
	</g>
	<g id="Layer_24">
		<g>
			<path class="st39" d="M638.99,282.23l-92.23-21.08c0,0,53.92,69.37,66.05,69.36C624.93,330.51,638.99,282.23,638.99,282.23z"/>
			<polygon class="st40" points="573.38,280.84 634.38,296.21 616.86,342.87 			"/>
			<path class="st37" d="M563.81,265.86c0,0-14.72-10.64-27.75-3.94c-13.03,6.71-23.25,18.41-22.54,41.85
				c1.39,45.92-19.96,126.48-39.19,166.9c-8.2,17.24-3.28,27.39,19.26,33.46c62.71,16.9,135.97,24.55,149.32,20.29
				c13.24-4.22,0.3-44.62,0.36-44.75c0.06-0.13,16.35-120.58,18.22-133.62c1.76-12.26,2.45-54.15-13.32-62.11
				c-3.42-1.73-15.53-13.52-19.24-6.57c-5.52,10.33-10.39,41.61-15.36,41.17C605.24,317.81,563.81,265.86,563.81,265.86z"/>
		</g>
	</g>
</g>
<g id="R_Hand">
	<g>
		<path class="st41" d="M744.35,454.55c0,0,23.19-7.01,23.68-9.09c0.49-2.09-2.64-18.32-5.47-19.43c-2.83-1.1-30.81,2.08-37,3.02
			C720.83,429.76,744.35,454.55,744.35,454.55z"/>
		<path class="st37" d="M753.49,456.49c0,0-2.07-14.24-4.89-20.67c-2.82-6.43-9.07-12.6-9.07-12.6c-2.54-2.51-23.71,2.95-26.99,3.46
			c-16.62,2.58-32.73,5.49-49.02,9.62c-12.02,3.05-24.58,6.39-33.69,14.81c-9.11,8.42-13.21,23.64-5.52,33.37
			c5.9,7.45,16.33,9.31,25.81,9.94c22.04,1.47,38.84-11.1,58.48-19.58C722.89,468.69,738.21,459.84,753.49,456.49z"/>
	</g>
</g>
<g id="Dollar">
	<g>
		<path class="st19" d="M806.82,346.07c-83.26,55.89-3.89,173.84-87.15,229.73c-39.4-15.04-78.8-30.07-118.2-45.11
			c83.26-55.89,3.89-173.84,87.15-229.73C728.02,316,767.42,331.04,806.82,346.07z"/>
		<path class="st20" d="M779.88,350.45c-58.77,55.46-3.45,154.46-62.22,209.92c-29.21-11.15-58.43-22.3-87.64-33.45
			c58.77-55.46,3.45-154.46,62.22-209.92C721.45,328.16,750.67,339.31,779.88,350.45z"/>
		<g class="st21">
			<path class="st22" d="M723.63,350.75c10.45,3.99,13.96,14.68,10.37,24.84c-3.65,10.14-13.47,15.74-23.95,11.74
				c-10.39-3.96-17.49-16.02-13.84-26.16C699.8,351.01,713.2,346.78,723.63,350.75z"/>
			<path class="st22" d="M702.26,490.98c10.39,3.96,17.49,16.02,13.84,26.16c-3.59,10.16-17,14.39-27.42,10.41
				c-10.45-3.99-13.96-14.68-10.37-24.84C681.97,492.58,691.78,486.97,702.26,490.98z"/>
			<path class="st22" d="M708.09,400.8c19.42,7.41,33.67,30.35,33.44,51.86c-0.23,21.5-17.65,32.36-37.31,24.85
				c-19.42-7.41-33.67-30.35-33.44-51.86C671,404.15,688.43,393.3,708.09,400.8z"/>
		</g>
	</g>
</g>
<g id="L_Arm">
	<g>
		<path class="st37" d="M552.53,316.07c-1.41,9.93-2.93,38.55-6,48c-3.05,9.38-2.22,61.56-18,90c-13.42,24.18-43.38,8.28-46,5
			c-2.51-3.14-9.05-33.2-9-50c0.12-39.48,0-90,16.15-121.75c4.99-9.82,14.03-18.09,24.74-20.67c15.38-3.7,31.53,7.49,37.5,22.14
			C555.67,298.02,553.86,306.68,552.53,316.07z"/>
		<path class="st42" d="M551.03,308.57c1.49,39.36,0.1,59.68-7.18,98.39"/>
		<path class="st42" d="M490.03,287.57c-16,39-22.49,109.97-12.15,155.49c1.43,6.31,3.4,12.96,8.34,17.15
			c2.11,1.79,4.64,3.02,7.18,4.13c4.78,2.09,9.71,3.84,14.74,5.24"/>
	</g>
</g>
<g id="L_Hand">
	<g>
		<g>
			<path class="st39" d="M647.28,462.94c0,0,29.47,9.65,30.04,12.34c0.57,2.69-3.92,23.37-7.57,24.7
				c-3.65,1.33-39.37-3.58-47.26-4.96C616.44,493.97,647.28,462.94,647.28,462.94z"/>
			<line class="st43" x1="647.28" y1="462.94" x2="677.03" y2="473.57"/>
		</g>
		<path class="st37" d="M659.03,460.73c0,0-3.07,18.16-6.87,26.31c-3.8,8.15-11.97,15.86-11.98,15.86
			c-3.32,3.13-30.26-4.48-34.43-5.22c-21.19-3.79-41.73-7.99-62.45-13.76c-15.3-4.26-31.27-8.9-42.68-19.95
			c-11.4-11.05-16.21-30.65-6.07-42.87c7.77-9.37,21.17-11.43,33.32-11.96c28.25-1.23,49.38,15.36,74.27,26.78
			C620.23,444.21,639.57,455.99,659.03,460.73z"/>
		<path class="st42" d="M504.03,466.97c0,0,21,13.6,61.35,22.63c31.46,7.04,74.65,12.98,74.65,12.98s11.03-10.18,14.52-22.09
			s4.48-19.75,4.48-19.75s-28-10.16-45.71-19.41c-15.84-8.28-57.29-27.75-62.2-29.26"/>
		<path class="st42" d="M519.95,407.57c6.68-1.64,14.75,1.11,21.27,3.31c-5.99,0.77-11.84,2.54-17.25,5.23"/>
	</g>
</g>
<g id="L_F">
	<g>
		<path class="st39" d="M665.2,479.56c3.74-3.54,7.76-6.75,12.02-9.61c3.06-2.06,6.41-3.98,10.2-3.98c2.24,0,4.48,0.66,6.71,1.14
			c3.11,0.66,6.28,0.52,9.35,0.9c2.45,0.31,7.96-0.06,9.64,1.13c1.07,0.76-1.3,5.87-3.33,7.03c-1.94,1.11-7.62,1.56-9.8,2.15
			c5.97,5.14,11.18,10.93,17.59,15.41c6.84,0.11,11.9,0.49,18.76,1.06c0.69,0.06,1.42,0.14,1.99,0.59c0.91,0.73,1,2.18,0.49,3.14
			c-0.51,0.96-1.46,1.53-2.39,2.05c-8.96,5.01-19.07,7.99-29.55,8.67c-13.54,0.89-29.05-3.48-42.38-8.25
			c-1.8-0.64-3.78-1.49-4.69-3.27c-0.58-1.13-0.59-2.43-0.54-3.66C659.52,489.16,661.87,482.72,665.2,479.56z"/>
		<path class="st43" d="M689.36,465.91c4.3,0.45,10.46,2.06,16.07,2.85c2.87,0.4,5.66,0.1,7.87,0.33c0.17,2.42-1.08,4.82-2.84,6.34
			c-1.76,1.53-3.95,2.3-6.14,2.74c-2.19,0.44-4.41,0.58-6.6,1.01"/>
		<path class="st43" d="M699.99,500.24c4.26,2.29,9.35,2.47,13.86,4.12c4.62,1.68,18.52-1.08,20.52-2.18c2-1.09,3.95-2.57,4.62-4.91
			c0.19-0.67,0.16-1.61-0.45-1.8"/>
		<path class="st43" d="M737.99,494.57c-7.14-0.09-12.77-0.87-19.89-1.28c-3.48-1.4-10.85-7.8-14.26-10.67"/>
	</g>
</g>
<g id="R_F">
	<g>
		<path class="st39" d="M769.76,402.92c-5.58-0.88-11.23-1.27-16.87-1.16c-2.3,0.05-4.69,0.19-6.72,1.27
			c-2.04,1.07-3.64,3.31-3.27,5.58c0.47,2.88,0.1,3.37,2.82,4.42c-2.3-0.09-5.46,0.72-6.48,3.98c-0.63,2.01,0.07,4.27,1.62,5.71
			c1.54,1.44,1.85,1.67,3.84,2.37c-1.61,0.33-4.6,3.63-3.23,7c0.58,1.44,0.84,2.83,2.21,3.56c1.36,0.73,2.92,1.01,4.45,1.27
			c-2.32,0.24-5.45,1.67-5.43,4c0.02,1.92,1.92,3.21,3.66,4.02c5.57,2.59,11.78,3.8,17.92,3.49c3.64-0.19,5.52-4.48,5.05-8.1
			c3.4-1.42,6.19-6.61,3.7-9.32c4.22-4.64,3.6-12.19,0.12-13.22c2.86-2.38,1.75-5.62,0.83-9.22
			C773.51,406.77,771.59,403.2,769.76,402.92z"/>
		<path class="st43" d="M748.68,436.92c5.05,1.11,10.26,1.51,15.42,1.19"/>
		<path class="st43" d="M746.61,425.26c5.95,2.07,12.23,3.21,18.53,3.36"/>
		<path class="st43" d="M749.55,414.23c5.37,1.36,10.89,2.14,16.43,2.33"/>
	</g>
</g>
<g id="Neck">
	<g>
		<path class="st39" d="M623.82,244.07l-10.86,44.38l-44.65-18.01l27.25-65.78c0,0,23.41,15.43,24.53,15.64
			C621.21,220.5,623.82,244.07,623.82,244.07z"/>
		<polygon class="st44" points="624.64,239.6 618.46,265.86 592.35,226.76 607.81,205.35 		"/>
	</g>
</g>
<g id="Face">
	<g>
		<path class="st45" d="M688.76,165.86c0.68,6.98-4.2,14.11-10.96,15.99c-0.74,0.21-1.52,0.35-2.26,0.17
			c-2.43-0.61-2.65-3.96-2.2-6.42c0.6-3.26,1.52-6.61,3.73-9.09c2.21-2.47,6.03-3.78,8.95-2.22c2.92,1.56,3.61,6.47,0.75,8.15"/>
	</g>
	<g>
		<path class="st46" d="M672.99,172.69c7.52,0.37,15.45-1.63,20.81-6.91s7.36-14.23,3.39-20.62c-4.17-6.71-13.01-8.68-20.91-8.91
			c4.32-6.72,0.36-16.44-6.62-20.33c-6.98-3.89-15.7-3.11-23.25-0.52c-7.56,2.59-14.46,6.8-21.9,9.71
			c-1.36,0.53-2.88,1.02-4.25,0.51c-1.45-0.53-2.28-2-3.26-3.19c-3-3.65-8.14-5.1-12.83-4.46s-8.95,3.13-12.56,6.19
			c-2.6,2.21-4.99,4.83-6.13,8.04c-1.14,3.21-0.81,7.11,1.51,9.61c-5.93,1.28-8.93,8.51-7.76,14.46c1.17,5.95,5.28,10.83,9.24,15.43
			c2.85,3.3,5.69,6.6,8.54,9.89L624,145.64L672.99,172.69z"/>
	</g>
	<g>
		<path class="st25" d="M671.09,180.42c0.95,0,1.91,0.1,2.85,0.3c3.82,0.81,7.07,3.2,9.17,6.71c2.14,3.58,2.82,7.9,1.91,12.16
			c-1.61,7.53-7.9,13-14.96,13c-0.95,0-1.91-0.1-2.85-0.3c-7.96-1.7-12.93-10.16-11.08-18.86
			C657.73,185.89,664.03,180.42,671.09,180.42 M671.09,177.42c-8.33,0-15.96,6.29-17.9,15.37c-2.21,10.34,3.79,20.37,13.38,22.42
			c1.16,0.25,2.32,0.37,3.47,0.37c8.33,0,15.96-6.29,17.9-15.37c2.21-10.34-3.79-20.37-13.38-22.42
			C673.4,177.54,672.24,177.42,671.09,177.42L671.09,177.42z"/>
	</g>
	<g>
		<path class="st39" d="M674.53,211.56c-1.31,6.52-2.67,13.04-4.18,19.52c-2.47,10.6-5.91,22-14.84,28.23
			c-4.84,3.38-10.81,4.81-16.71,5.06c-8.56,0.35-17.2-1.73-24.66-5.93c-3.33-1.88-6.45-4.19-8.86-7.15
			c-2.92-3.57-4.69-7.94-5.93-12.39c-2.14-7.69-2.75-15.71-3.12-23.68c-0.57-12.33-0.56-24.81,2.1-36.87
			c2.66-12.06,8.16-23.76,17.22-32.15c3.88-3.59,8.5-6.59,13.69-7.64c6.13-1.23,12.45,0.34,18.46,2.08
			c6.07,1.76,11.78,4.43,17.79,6.27c3.94,1.2,6.73,1.92,8.98,5.68c6.3,10.52,5.01,26.11,3.65,37.75
			C677.28,197.47,675.94,204.53,674.53,211.56z"/>
		<path class="st46" d="M596.45,183.52c-2.42-3.45-2.52-7.97-2.26-12.17c0.48-7.84,2.04-15.94,6.77-22.21
			c4.19-5.55,10.52-9.15,17.11-11.37c5.17-1.74,10.6-2.71,16.05-2.87c7.25-0.21,14.48,0.99,21.51,2.75
			c9.78,2.44,19.89,6.39,25.74,14.59c1.76,2.46,3.08,5.3,3.44,8.3c0.36,3.01-0.33,6.2-2.21,8.57c-1.37,1.73-3.31,2.95-5.38,3.74
			c-5.35,2.04-11.42,1.25-16.77-0.79c-8.82-3.35-16.31-10.07-20.6-18.47c-0.45,10.72-7.53,17.36-17.05,22.29
			c-6.29,3.25-17.11-5.17-21.03,0.73c-2.86,4.31,1.36,24.07-2.49,27.52c-3.73,3.34-6.04,15.86-10.04,12.86
			c2.15-2.89-1.15-25.52,0.87-28.51C592.62,184.75,596.59,188,596.45,183.52z"/>
		<path class="st47" d="M677.93,161.48c-0.19-0.28,0.35-0.58,0.6-0.35c0.25,0.23,0.22,0.63,0.13,0.96c-0.7,2.85-3.31,4.95-6.13,5.72
			c-2.83,0.77-5.85,0.42-8.7-0.24c-11.05-2.55-21.34-10.29-24.68-21.13"/>
		<path class="st47" d="M631.29,149.01c1.09,5.58-1.79,11.14-5,15.83c-0.98,1.43-2.02,2.86-3.46,3.82
			c-1.44,0.96-3.36,1.38-4.92,0.63"/>
		<path class="st47" d="M617.26,153.23c-1.09,3.33-3.75,6.11-7.02,7.35"/>
		<path class="st47" d="M669.27,153.65c-0.01,1.78-2.44,2.31-4.21,2.09c-6-0.75-11.69-3.76-15.71-8.28"/>
		<path class="st39" d="M668.69,186.97c-0.74,4.5,3.98,4.94,5.89,9.08c1.91,4.14,4.01,13.49,6.79,17.1
			c0.92,1.19,1.91,4.55,2.44,5.96c0.53,1.4,0.61,3.06-0.17,4.35c-1.15,1.91-3.7,2.39-5.92,2.35c-4.7-0.09-9.36-1.68-13.12-4.49"/>
	</g>
	<path class="st25" d="M657.13,231.56c-2.58-1.83-4.27-4.85-4.49-8.01c-0.29,3.58-0.18,7.25,0.89,10.68
		c1.07,3.43,3.17,6.63,6.21,8.53c0.29,0.18,0.64,0.36,0.96,0.24c0.26-0.09,0.42-0.34,0.56-0.58c0.87-1.47,4.56-6.8,3.62-8.41
		c-0.48-0.83-2.87-0.54-3.65-0.7C659.77,233.02,658.36,232.43,657.13,231.56z"/>
	<path class="st46" d="M656.87,177.86c-2.14-0.26-4.38,0.33-6.11,1.62c0.1-1.29,0.94-2.44,2.02-3.15c1.08-0.71,2.37-1.03,3.65-1.19
		c2.68-0.33,11.51,0.57,11.54,4.73C668,184.56,659.14,178.14,656.87,177.86z"/>
	<g>
		<g>
			<path class="st25" d="M653.62,176.7c0.95,0,1.91,0.1,2.85,0.3c3.82,0.81,7.07,3.2,9.17,6.71c2.14,3.58,2.82,7.9,1.91,12.16
				c-1.61,7.53-7.9,13-14.96,13c-0.95,0-1.91-0.1-2.85-0.3c-3.82-0.81-7.07-3.2-9.17-6.71c-2.14-3.58-2.82-7.9-1.91-12.16
				C640.27,182.16,646.56,176.7,653.62,176.7 M653.62,173.7c-8.33,0-15.96,6.29-17.9,15.37c-2.21,10.34,3.79,20.37,13.38,22.42
				c1.16,0.25,2.32,0.37,3.47,0.37c8.33,0,15.96-6.29,17.9-15.37c2.21-10.34-3.79-20.37-13.38-22.42
				C655.94,173.82,654.77,173.7,653.62,173.7L653.62,173.7z"/>
		</g>
		<line class="st48" x1="640.17" y1="181" x2="606.41" y2="175.23"/>
		<line class="st48" x1="669.99" y1="189.97" x2="677.96" y2="191.56"/>
	</g>
	<g>
		<path class="st49" d="M610.16,177.47c-1.02-4.5-4.57-8.34-8.98-9.71c-3.75-1.17-8.21-0.45-10.94,2.38
			c-2.69,2.78-3.29,7-2.97,10.86c0.25,2.97,1,6,2.81,8.38c1.79,2.35,4.5,3.89,7.36,4.59c5.33,1.31,11.29-0.33,15.21-4.17"/>
		<path class="st50" d="M596.61,174.39c4.66,0.35,8.81,4.28,9.41,8.92c-0.51-0.45-1.03-0.91-1.54-1.36c-1.25-1.11-2.6-2.26-4.26-2.5
			c-1.65-0.24-3.61,0.91-3.56,2.58"/>
	</g>
	<g>
		<g>
			<path class="st45" d="M675.24,130.63c-0.73,5.25-6.06,9.51-11.39,8.68c-0.53-0.08-1.08,0.14-1.23,0.7
				c-0.13,0.47,0.16,1.15,0.7,1.23c6.31,0.99,12.96-3.65,13.85-10.08c0.07-0.53-0.13-1.07-0.7-1.23
				C676,129.8,675.32,130.09,675.24,130.63L675.24,130.63z"/>
		</g>
	</g>
	<g>
		<g>
			<path class="st45" d="M653.76,129.31c-6.71-4.05-15.15-3.08-21.93,0.25c-3.6,1.77-6.86,4.19-9.89,6.8
				c-0.73,0.63-1.45,1.28-2.17,1.93c-0.68,0.63-1.34,1.41-2.17,1.83c-0.88,0.45-1.63-0.04-2.43-0.42c-0.93-0.44-1.91-0.81-2.93-1
				c-2.12-0.39-4.38-0.08-5.99,1.45c-1.37,1.3-2.12,3.35-1.44,5.18c0.41-0.41,0.82-0.82,1.23-1.23c-3.72-0.75-7.74,0.41-10.36,3.2
				c-2.61,2.78-3.59,6.85-2.62,10.53c0.33,1.24,2.26,0.72,1.93-0.53c-0.79-2.97-0.02-6.33,2.1-8.58c2.12-2.25,5.39-3.29,8.42-2.68
				c0.68,0.14,1.52-0.46,1.23-1.23c-0.48-1.3,0.13-2.65,1.19-3.47c1.4-1.08,3.36-0.92,4.95-0.41c1.74,0.55,3.33,1.92,5.24,1.16
				c0.86-0.34,1.55-0.95,2.22-1.57c0.68-0.63,1.36-1.27,2.06-1.89c5.36-4.77,11.69-9.16,19.03-9.88c3.93-0.39,7.93,0.23,11.34,2.29
				C653.86,131.71,654.86,129.98,653.76,129.31L653.76,129.31z"/>
		</g>
	</g>
	<g>
		<g>
			<path class="st45" d="M590.25,160.79c-3.41-4.42-3.42-10.86-0.02-15.29c0.33-0.43,0.07-1.12-0.36-1.37
				c-0.52-0.3-1.04-0.07-1.37,0.36c-3.78,4.93-3.77,12.39,0.02,17.31c0.33,0.43,0.86,0.66,1.37,0.36
				C590.31,161.92,590.58,161.22,590.25,160.79L590.25,160.79z"/>
		</g>
	</g>
	<g>
		<g>
			<path class="st45" d="M608.57,121.28c-1.3-0.21-2.6-0.41-3.91-0.62c-0.27-0.04-0.52-0.04-0.77,0.1c-0.21,0.12-0.41,0.36-0.46,0.6
				c-0.11,0.48,0.15,1.14,0.7,1.23c1.3,0.21,2.6,0.41,3.91,0.62c0.27,0.04,0.52,0.04,0.77-0.1c0.21-0.12,0.41-0.36,0.46-0.6
				C609.38,122.03,609.12,121.37,608.57,121.28L608.57,121.28z"/>
		</g>
	</g>
	<g>
		<path class="st46" d="M670.49,229.41c3.89,5.18,3.92,12.91,0.08,18.13c1.59-4.44,1.7-9.39,0.32-13.9
			c-2.41,4.99-0.19,11.46-1.54,16.84c-1.36,5.42-6.32,9.86-9.29,14.59s-10.11,7.54-14.19,3.71c-2.96,3.83-8.48,5.08-13.16,3.82
			c-4.67-1.26-8.54-4.64-11.38-8.56c-1.28-1.76-2.41-3.68-4.1-5.06c-2.11-1.72-4.85-2.39-7.38-3.39
			c-11.82-4.68-19.55-18.01-17.74-30.6c1.6-11.09,9.43-20.13,14-30.36c2.8-6.27,3.45-13.38,3.7-20.24c0.05-1.49,2.91-1.82,3.81-0.63
			c1.03,1.36,3.92-4.61,3.67-2.89c-0.43,2.9-5.42,19.16-6.75,21.77c-5.29,10.34-2.58,18.05,5.38,26.52
			c7.96,8.46,21.4,11.21,32.04,6.56c1.95-0.85,3.83-1.93,5.93-2.33c5.98-1.13,13.94,1.73,18.27,6"/>
	</g>
	<g>
		<path class="st25" d="M663.63,235.25c-2.34-0.78-4.8-1.2-7.27-1.23"/>
	</g>
	<g>
		<g>
			<path class="st44" d="M678.82,225.37c-1.89-0.39-3.79-0.73-5.66-1.19c-1.86-0.46-3.74-1.01-5.39-2c-0.55-0.33-1.06,0.53-0.5,0.86
				c3.37,2.02,7.51,2.51,11.29,3.29C679.18,226.47,679.45,225.5,678.82,225.37L678.82,225.37z"/>
		</g>
	</g>
	<g>
		<g>
			<path class="st45" d="M623.63,251.7c-3.36,0-6.67-1.29-9.14-3.57c-2.54-2.34-4.03-5.63-4.19-9.09c-0.09-2.01,0.26-3.97,1.02-5.83
				c0.33-0.8-0.58-1.32-1.23-1.23c-1.84,0.25-4.22,0.51-5.41-1.26c-1.06-1.56-1.04-3.69-0.95-5.5c0.22-4.41,1.84-8.67,4.51-12.18
				c0.33-0.43,0.07-1.12-0.36-1.37c-0.51-0.3-1.04-0.07-1.37,0.36c-2.39,3.15-3.97,6.91-4.54,10.82c-0.48,3.32-0.76,8,2.28,10.25
				c1.84,1.36,4.24,1.09,6.36,0.8c-0.41-0.41-0.82-0.82-1.23-1.23c-1.49,3.64-1.46,7.9,0.03,11.54c1.48,3.61,4.33,6.55,7.9,8.12
				c2,0.88,4.13,1.36,6.32,1.36C624.92,253.7,624.92,251.7,623.63,251.7L623.63,251.7z"/>
		</g>
	</g>
	<g>
		<g>
			<path class="st45" d="M651.1,239.31c-0.46,2.74-0.94,6.05-3.16,7.99c-1.59,1.38-4.39,1.82-5.82,0.02
				c-0.51-0.65-1.44-0.18-1.67,0.44c-0.59,1.55-1.99,4.5-4.08,3.22c-1.07-0.66-1.88-1.85-2.46-2.93c-0.62-1.16-1.01-2.45-1.13-3.76
				c-0.05-0.54-0.42-1-1-1c-0.5,0-1.05,0.46-1,1c0.16,1.74,0.65,3.42,1.5,4.95c0.83,1.48,2.05,3.07,3.64,3.75
				c3.31,1.42,5.47-2.1,6.46-4.7c-0.56,0.15-1.11,0.29-1.67,0.44c1.94,2.45,5.75,2.13,8.07,0.44c2.93-2.13,3.69-5.97,4.26-9.33
				c0.09-0.53-0.14-1.08-0.7-1.23C651.85,238.48,651.19,238.77,651.1,239.31L651.1,239.31z"/>
		</g>
	</g>
	<g>
		<g>
			<path class="st45" d="M654.27,259.35c-2.3,1.04-4.96,0.99-7.28,0.04c-0.5-0.2-1.1,0.22-1.23,0.7c-0.16,0.57,0.2,1.02,0.7,1.23
				c2.84,1.16,6.04,1.01,8.82-0.24c0.49-0.22,0.61-0.94,0.36-1.37C655.34,259.2,654.76,259.13,654.27,259.35L654.27,259.35z"/>
		</g>
	</g>
	<g>
		<g>
			<path class="st45" d="M637.63,264.67c-1.95,1.08-4.55,0.94-6.31-0.47c-1.72-1.37-2.5-3.74-1.97-5.86
				c0.31-1.25-1.62-1.78-1.93-0.53c-0.71,2.84,0.28,6.06,2.6,7.9c2.44,1.94,5.91,2.2,8.62,0.69
				C639.77,265.77,638.76,264.04,637.63,264.67L637.63,264.67z"/>
		</g>
	</g>
</g>
<g id="Eyes">
	<g>
		<path d="M652.12,191.26c-0.59,2.76,1.17,5.47,3.93,6.06c2.76,0.59,5.47-1.17,6.06-3.93c0.59-2.76-1.17-5.47-3.93-6.06
			C655.42,186.75,652.71,188.51,652.12,191.26z"/>
	</g>
</g>
</svg>
