<?xml version="1.0" encoding="utf-8"?>
<svg version="1.1" xmlns="http://www.w3.org/2000/svg" xmlns:xlink="http://www.w3.org/1999/xlink" x="0px" y="0px"
	 viewBox="0 0 1080 1080" style="enable-background:new 0 0 1080 1080;" xml:space="preserve">
<style type="text/css">
	.st0{fill:#DDE1FF;}
	.st1{opacity:0.47;}
	.st2{fill:#B4C6FF;}
	.st3{fill:#FFFFFF;}
	.st4{font-family:'Anybody-Bold';}
	.st5{font-size:69.4211px;}
	.st6{fill:#FFA8DC;}
	.st7{fill:#1F2E48;}
	.st8{fill:#FDC93A;}
	.st9{fill:#FCAE1D;}
	.st10{fill:none;stroke:#000100;stroke-width:0.9098;stroke-miterlimit:10;}
	.st11{fill:none;stroke:#FCAE1D;stroke-width:0.7833;stroke-miterlimit:10;}
	.st12{font-size:59.9703px;}
	.st13{fill:#FF735D;}
	.st14{fill:#646DB1;}
	.st15{fill:#A9B3FE;}
	.st16{opacity:0.3;}
	.st17{fill:#1A2E35;}
	.st18{opacity:0.2;}
	.st19{fill:#444AB4;}
	.st20{fill:#231F20;}
	.st21{fill:#000100;}
	.st22{fill:none;stroke:#FFFFFF;stroke-width:0.2275;stroke-miterlimit:10;}
	.st23{fill:#FF9A63;}
	.st24{fill:none;stroke:#D2D5DA;stroke-width:1.129;stroke-miterlimit:10;}
	.st25{fill:#D2D5DA;}
	.st26{fill:none;stroke:#FFFFFF;stroke-width:1.129;stroke-miterlimit:10;}
	.st27{fill:#AF4E2F;}
	.st28{fill:none;stroke:#35281F;stroke-width:0.5801;stroke-miterlimit:10;}
	.st29{fill:none;stroke:#FFFFFF;stroke-width:0.9098;stroke-miterlimit:10;}
	.st30{fill:#AF4E2F;stroke:#231F20;stroke-width:0.9098;stroke-miterlimit:10;}
	.st31{fill:none;stroke:#000100;stroke-width:0.2275;stroke-miterlimit:10;}
	.st32{font-size:112.2749px;}
	.st33{fill:none;stroke:#000100;stroke-width:1.8196;stroke-miterlimit:10;}
</style>
<g id="Bg">
	<g>
		<path class="st0" d="M170.11,1005.03C107.06,945.86,57.4,824.67,63.3,738.41s25.26-147.65,77.77-216.34
			c27.41-35.85,59.56-62.1,99.24-83.59c59.78-32.39,133.73-35.06,197.59-11.7s117.43,71.39,152.16,129.84
			c28.37,47.74,49.32,106.76,100.18,129.05c42.37,18.57,91.05,4.66,135.79-7.12s96.37-20.05,133.96,6.92
			c21.17,15.19,40.97,49.46,51.68,94.41c14.09,59.18,4.72,154.79-59.02,227.67"/>
	</g>
</g>
<g id="Dollar">
	<g class="st1">
		<circle class="st2" cx="561.41" cy="267.21" r="38.78"/>
		<g>
			<text transform="matrix(1 0 0 1 540.4868 290.8315)" class="st3 st4 st5">$</text>
		</g>
	</g>
</g>
<g id="Dollar_00000171711603370315214960000014914948235473093523_">
	<g class="st1">
		<circle class="st2" cx="832.02" cy="492.91" r="38.78"/>
		<g>
			<text transform="matrix(1 0 0 1 811.0971 516.5317)" class="st3 st4 st5">$</text>
		</g>
	</g>
</g>
<g id="Dollar_00000168098161957610964960000015347594822926493065_">
	<g class="st1">
		<circle class="st2" cx="170.11" cy="582.16" r="38.78"/>
		<g>
			<text transform="matrix(1 0 0 1 149.1845 605.7812)" class="st3 st4 st5">$</text>
		</g>
	</g>
</g>
<g id="Leaf">
	<g>
		
			<ellipse transform="matrix(0.9272 -0.3745 0.3745 0.9272 -277.2382 104.6617)" class="st6" cx="130.67" cy="765.65" rx="16.41" ry="59.48"/>
		<g>
			<path class="st7" d="M185.21,1006.14c-1.94-61.51-12.86-122.85-30.61-181.74c-2.45-7.38-5.06-15.58-7.57-22.9
				c-3.27-8.61-7.87-21.66-11.62-29.99c0,0-6.29-14.81-6.29-14.81c2.2,5.08,7.48,17.29,9.58,22.15c12.87,32.14,23.46,66.01,31,99.79
				c9.48,41.88,15.71,84.53,17.26,127.49C186.97,1006.12,185.21,1006.14,185.21,1006.14L185.21,1006.14z"/>
		</g>
	</g>
</g>
<g id="Leaf_00000033361244882944092060000006591238797868250800_">
	<g>
		
			<ellipse transform="matrix(0.9838 -0.1793 0.1793 0.9838 -146.3298 182.0641)" class="st6" cx="934.05" cy="900.56" rx="16.41" ry="59.48"/>
		<g>
			<path class="st7" d="M946.81,1002.09c-0.19-35.4-3.56-70.9-11.48-105.5c8.49,34.46,12.46,69.97,13.24,105.47L946.81,1002.09
				L946.81,1002.09z"/>
		</g>
	</g>
</g>
<g id="Leaf_00000124161854589061899870000011204867303763715753_">
	<g>
		
			<ellipse transform="matrix(0.4004 -0.9163 0.9163 0.4004 -237.6896 1454.2708)" class="st6" cx="992.45" cy="908.77" rx="59.48" ry="16.41"/>
		<g>
			<path class="st7" d="M955.01,1004.23c8.91-34.38,20.93-68.02,37.11-99.61c-15.66,31.85-27.08,65.63-35.4,100.04L955.01,1004.23
				L955.01,1004.23z"/>
		</g>
	</g>
</g>
<g id="Dollar_00000055673041204545367360000016184517457714508957_">
	<g>
		<g>
			<path class="st8" d="M895.37,1003.78H787.49c-5.09,0-9.21-4.12-9.21-9.21l0,0c0-5.09,4.12-9.21,9.21-9.21h107.88
				c5.09,0,9.21,4.12,9.21,9.21l0,0C904.58,999.66,900.45,1003.78,895.37,1003.78z"/>
			<path class="st9" d="M786.42,985.37h29.38l-12.54,18.42H787.6c-5.15,0-9.32-4.17-9.32-9.32v-0.96
				C778.28,989.01,781.92,985.37,786.42,985.37z"/>
			<path class="st9" d="M880.8,985.37l-11.7,18.42h26.77c4.8,0,8.7-3.89,8.7-8.7l0,0c0-5.37-4.35-9.72-9.72-9.72H880.8z"/>
			<polygon class="st9" points="825.2,1003.78 841.43,989.56 833.32,1003.78 			"/>
		</g>
		<line class="st10" x1="787.6" y1="1003.78" x2="895.88" y2="1003.78"/>
	</g>
</g>
<g id="Dollar_00000077317932130699993140000001066760836302086277_">
	<g>
		<g>
			<path class="st8" d="M912.63,984H804.75c-5.09,0-9.21-4.12-9.21-9.21l0,0c0-5.09,4.12-9.21,9.21-9.21h107.88
				c5.09,0,9.21,4.12,9.21,9.21l0,0C921.84,979.87,917.72,984,912.63,984z"/>
			<path class="st9" d="M803.68,965.58h29.38L820.51,984h-15.66c-5.15,0-9.32-4.17-9.32-9.32v-0.96
				C795.54,969.23,799.18,965.58,803.68,965.58z"/>
			<path class="st9" d="M898.07,965.58L886.37,984h26.77c4.8,0,8.7-3.89,8.7-8.7l0,0c0-5.37-4.35-9.72-9.72-9.72H898.07z"/>
			<polygon class="st9" points="842.47,984 858.69,969.78 850.58,984 			"/>
		</g>
		<line class="st10" x1="804.86" y1="984" x2="913.14" y2="984"/>
	</g>
</g>
<g id="Dollar_00000121254849399820486370000012709512072534517377_">
	<g>
		
			<rect x="722.2" y="950.46" transform="matrix(0.7418 -0.6706 0.6706 0.7418 -442.9008 767.4521)" class="st8" width="106.17" height="16.96"/>
		
			<ellipse transform="matrix(0.7554 -0.6553 0.6553 0.7554 -441.0294 746.7065)" class="st8" cx="779.68" cy="964.1" rx="53.1" ry="17.27"/>
		
			<ellipse transform="matrix(0.7554 -0.6553 0.6553 0.7554 -436.4717 738.4379)" class="st8" cx="770.88" cy="953.86" rx="53.1" ry="17.27"/>
		<path class="st11" d="M810.43,918.67c6.25,7.2-6.64,28.62-28.79,47.84c-22.15,19.22-45.18,28.95-51.43,21.75"/>
		<g>
			<text transform="matrix(0.2508 0.3067 -0.7741 0.633 748.1772 960.4445)" class="st9 st4 st12">$</text>
		</g>
		<line class="st11" x1="740.95" y1="989.88" x2="749.81" y2="1000.68"/>
		<line class="st11" x1="752.39" y1="985.7" x2="760.72" y2="995.92"/>
		<line class="st11" x1="763.52" y1="980.91" x2="771.85" y2="991.12"/>
		<line class="st11" x1="773.81" y1="973.73" x2="781.62" y2="983.36"/>
		<line class="st11" x1="782.64" y1="968.48" x2="790.45" y2="978.12"/>
		<line class="st11" x1="789.63" y1="960.66" x2="797.44" y2="970.3"/>
		<line class="st11" x1="796.76" y1="954.22" x2="804.57" y2="963.85"/>
		<line class="st11" x1="803.53" y1="945.88" x2="811.33" y2="955.52"/>
		<line class="st11" x1="808" y1="937.22" x2="815.8" y2="946.85"/>
		<line class="st11" x1="812.39" y1="927.44" x2="820.19" y2="937.07"/>
	</g>
</g>
<g id="Pig">
	<polygon class="st13" points="763.03,907.67 718.94,1005.03 697.66,1005.03 694.61,997.6 690.83,1005.03 676.87,1005.03 
		678.49,948.2 679.18,914.62 	"/>
	<polygon class="st14" points="763.03,907.67 718.94,1005.03 697.66,1005.03 694.61,997.6 690.83,1005.03 676.87,1005.03 
		678.49,948.2 679.18,914.62 	"/>
	<polygon class="st13" points="570.05,918.1 527.05,1005.03 505.77,1005.03 502.72,998.23 498.94,1005.03 484.98,1005.03 486.6,953 
		487.29,922.26 	"/>
	<polygon class="st14" points="570.05,918.1 527.05,1005.03 505.77,1005.03 502.72,998.23 498.94,1005.03 484.98,1005.03 486.6,953 
		487.29,922.26 	"/>
	<g>
		<path class="st13" d="M325.46,661.9c-0.01-0.01-0.14,0.03-0.4,0.14c-0.3,0.13-0.68,0.3-1.15,0.5c-0.97,0.51-2.42,1.28-3.99,2.67
			c-1.59,1.36-3.34,3.28-4.83,5.87c-1.47,2.58-2.68,5.86-2.91,9.63c-0.3,3.76,0.67,7.99,2.99,11.78c2.31,3.79,5.99,7.12,10.61,9.07
			c4.57,1.93,10.29,2.37,15.3-0.03c2.48-1.19,4.64-3.31,5.67-6.01c1.07-2.63,1.01-5.95-0.78-8.41c-1.75-2.46-4.65-3.8-7.5-3.99
			c-2.91-0.2-5.69,0.93-7.86,2.59c-4.41,3.39-6.45,8.89-6.31,13.86c0.11,5.03,2.07,9.63,4.85,13.07c1.4,1.72,3,3.19,4.76,4.28
			c1.75,1.09,3.58,1.88,5.38,2.43c3.63,1.04,7.09,1.14,10.04,0.75c2.96-0.37,5.42-1.18,7.33-2.02c1.92-0.82,3.29-1.71,4.2-2.33
			c0.4-0.31,0.73-0.55,1-0.75c0.22-0.17,0.33-0.27,0.32-0.28c-0.07-0.12-1.81,1.49-5.64,3.05c-1.91,0.78-4.34,1.53-7.26,1.85
			c-2.9,0.34-6.29,0.2-9.81-0.85c-1.74-0.56-3.51-1.34-5.2-2.41c-1.68-1.07-3.22-2.5-4.56-4.17c-2.67-3.34-4.53-7.81-4.62-12.64
			c-0.12-4.78,1.86-9.99,6.03-13.19c2.04-1.57,4.65-2.6,7.29-2.41c2.62,0.18,5.3,1.43,6.86,3.64c1.6,2.19,1.67,5.17,0.69,7.61
			c-0.95,2.49-2.93,4.45-5.26,5.57c-4.71,2.27-10.23,1.89-14.63,0.05c-4.46-1.85-8.06-5.06-10.31-8.72
			c-2.27-3.65-3.24-7.72-2.99-11.38c0.18-3.66,1.31-6.89,2.72-9.43c1.42-2.56,3.11-4.48,4.64-5.85
			C323.23,662.69,325.55,662.04,325.46,661.9z"/>
	</g>
	<path class="st15" d="M346.52,749.99c-6.4,144.47,114.71,216.56,251.81,216.56s248.24-93.87,248.24-209.66
		S735.42,547.23,598.33,547.23S351.65,634.32,346.52,749.99z"/>
	<path class="st15" d="M682.28,667.82c0,0-49.82-77.29-72.63-68.91c-22.81,8.38-44.23,81.01-44.23,81.01"/>
	<path class="st14" d="M738.62,650.1l2.33-20.93c0,0,31.19-13.04,59.13-19.42c27.94-6.38,33.43,0,33.43,0l-44.19,61.91L738.62,650.1
		z"/>
	<path class="st14" d="M672.13,575.98l-16.53,9.82c0,0-80.07-21.18-141.55,0l22.56-19.2C536.6,566.59,611.17,550.57,672.13,575.98z"
		/>
	<ellipse class="st15" cx="783.16" cy="841.96" rx="79.63" ry="65.15"/>
	<path class="st16" d="M808.57,872.52h10.36c1.84,0,3.34-1.49,3.34-3.34v-54.44c0-1.84-1.49-3.34-3.34-3.34h-10.36
		c-1.84,0-3.34,1.49-3.34,3.34v54.44C805.23,871.02,806.73,872.52,808.57,872.52z"/>
	<path class="st16" d="M762.81,872.52h10.36c1.84,0,3.34-1.49,3.34-3.34v-54.44c0-1.84-1.49-3.34-3.34-3.34h-10.36
		c-1.84,0-3.34,1.49-3.34,3.34v54.44C759.48,871.02,760.97,872.52,762.81,872.52z"/>
	<path class="st15" d="M740.94,653.85c0,0,2.07-1.41,5.57-3.75c16.49-11,64.64-42.46,76.84-42.81
		c16.76-0.48,16.78,13.97,16.76,25.14c-0.02,7.93-6.52,76.82-6.52,76.82"/>
	<g>
		<path class="st17" d="M565.42,679.93c0.01,0,0.08-0.16,0.19-0.48c0.12-0.36,0.28-0.83,0.48-1.42c0.44-1.3,1.05-3.14,1.83-5.47
			c1.61-4.74,4-11.58,7.28-19.91c3.3-8.31,7.41-18.17,13.06-28.56c2.86-5.15,6.03-10.53,10.1-15.47c2.02-2.47,4.26-4.87,6.92-6.79
			c2.63-1.9,5.73-3.47,9.08-3.08c3.32,0.27,6.45,1.65,9.31,3.24c2.88,1.61,5.52,3.54,8.03,5.53c4.99,4.03,9.41,8.4,13.47,12.7
			c8.08,8.63,14.72,16.99,20.16,24.1c5.43,7.12,9.62,13.03,12.49,17.13c1.4,2.02,2.5,3.61,3.29,4.74c0.36,0.51,0.64,0.91,0.86,1.23
			c0.2,0.28,0.3,0.41,0.31,0.4c0.01-0.01-0.07-0.16-0.24-0.45c-0.2-0.33-0.46-0.75-0.79-1.28c-0.71-1.11-1.76-2.75-3.16-4.83
			c-2.79-4.16-6.91-10.13-12.29-17.31c-5.39-7.16-11.98-15.57-20.07-24.27c-4.06-4.33-8.49-8.73-13.52-12.81
			c-2.53-2.02-5.2-3.97-8.13-5.62c-2.92-1.63-6.13-3.06-9.66-3.35c-1.75-0.15-3.56,0.06-5.18,0.73c-1.61,0.66-3.09,1.52-4.46,2.51
			c-2.74,1.99-5.01,4.44-7.06,6.95c-4.13,5.02-7.29,10.43-10.15,15.62c-5.63,10.46-9.69,20.36-12.93,28.71
			c-3.21,8.37-5.51,15.25-7.03,20.03c-0.76,2.39-1.32,4.25-1.68,5.52c-0.17,0.6-0.3,1.08-0.4,1.45
			C565.44,679.75,565.4,679.92,565.42,679.93z"/>
	</g>
	<g>
		<path class="st17" d="M536.6,566.59c-0.01-0.01-0.15,0.09-0.41,0.29c-0.29,0.24-0.67,0.54-1.14,0.93
			c-1.04,0.87-2.49,2.08-4.34,3.63c-3.79,3.22-9.21,7.81-15.87,13.47l-1.05,0.89l1.34-0.37c8.22-2.3,18.1-4.64,29.21-6.36
			c11.11-1.73,23.43-2.84,36.38-2.97c30.83-0.51,57.87,5.3,74.21,9.98l0.11,0.03l0.09-0.05c5.35-3.14,9.6-5.63,12.57-7.37
			c1.41-0.84,2.51-1.51,3.31-1.98c0.34-0.21,0.62-0.39,0.84-0.53c0.19-0.12,0.28-0.19,0.27-0.2c-0.01-0.01-0.11,0.04-0.31,0.14
			c-0.23,0.12-0.52,0.28-0.88,0.47c-0.82,0.45-1.94,1.07-3.38,1.87c-2.99,1.69-7.28,4.11-12.69,7.16l0.2-0.02
			c-8.2-2.42-19-5.18-31.69-7.19c-6.34-1.05-13.16-1.81-20.3-2.43c-7.16-0.47-14.66-0.86-22.37-0.72
			c-12.99,0.13-25.36,1.27-36.49,3.05c-11.14,1.77-21.04,4.18-29.26,6.56l0.28,0.52c6.59-5.74,11.94-10.41,15.7-13.68
			c1.81-1.6,3.23-2.85,4.24-3.75c0.45-0.41,0.81-0.74,1.09-0.99C536.49,566.72,536.61,566.6,536.6,566.59z"/>
	</g>
	<g class="st18">
		<path class="st3" d="M628.68,781.25c0.38,2.33,2.78,4.08,6.18,5.25c3.42,1.17,7.86,1.82,12.73,1.87
			c4.87,0.06,9.32-0.49,12.77-1.59c3.43-1.1,5.87-2.79,6.3-5.12c0.42-2.3-1.33-4.81-4.75-6.81c-3.4-2-8.46-3.42-14.13-3.49
			c-5.67-0.06-10.76,1.25-14.2,3.18C630.12,776.47,628.31,778.94,628.68,781.25z"/>
	</g>
	<g>
		<path class="st17" d="M735.66,789.67c0.01,0.01,0.17-0.08,0.47-0.28c0.34-0.22,0.77-0.51,1.32-0.87c0.59-0.4,1.3-0.88,2.13-1.44
			c0.87-0.52,1.91-1.07,3.05-1.72c4.62-2.5,11.75-5.46,21.03-7.14c4.64-0.78,9.78-1.33,15.32-1.43c5.54-0.03,11.46,0.33,17.61,1.29
			c12.26,1.89,25.58,6.34,37.39,14.55c2.92,2.08,5.7,4.29,8.23,6.69c2.5,2.43,4.87,4.94,6.92,7.63c4.13,5.34,7.34,11.12,9.54,16.91
			c4.22,11.73,4.12,23.37,2.08,32.5c-1.03,4.6-2.67,8.55-4.29,11.91c-1.77,3.29-3.56,5.98-5.22,8.03c-0.84,1-1.6,1.89-2.26,2.68
			c-0.71,0.7-1.32,1.3-1.83,1.8c-0.47,0.47-0.83,0.83-1.12,1.12c-0.25,0.26-0.37,0.39-0.36,0.4c0.01,0.01,0.15-0.1,0.42-0.34
			c0.3-0.27,0.69-0.62,1.18-1.06c0.53-0.49,1.16-1.07,1.9-1.75c0.68-0.77,1.46-1.65,2.33-2.64c1.71-2.03,3.56-4.71,5.38-8.02
			c1.67-3.37,3.37-7.35,4.45-11.99c2.14-9.21,2.31-20.99-1.93-32.9c-1.14-2.94-2.44-5.89-4.08-8.74c-1.57-2.89-3.46-5.68-5.54-8.4
			c-2.07-2.73-4.46-5.27-6.99-7.73c-2.57-2.43-5.37-4.67-8.33-6.77c-11.95-8.3-25.4-12.76-37.76-14.62
			c-6.2-0.95-12.17-1.29-17.74-1.23c-5.58,0.13-10.75,0.71-15.42,1.54c-9.33,1.77-16.49,4.84-21.09,7.44
			c-1.14,0.68-2.17,1.25-3.03,1.8c-0.81,0.59-1.51,1.1-2.09,1.52c-0.53,0.39-0.95,0.7-1.27,0.94
			C735.8,789.54,735.66,789.65,735.66,789.67z"/>
	</g>
	<g>
		<path class="st17" d="M805.71,817.12c-0.06,0-0.12,0.93-0.18,2.6c-0.08,1.83-0.18,4.21-0.3,7.09c-0.25,5.99-0.74,14.26-0.97,23.42
			c-0.06,2.29-0.07,4.53-0.06,6.69c0.01,2.16,0.09,4.28,0.47,6.27c0.69,3.99,2.94,7.36,5.78,8.73c2.88,1.4,5.65,0.6,7.02-0.37
			c0.71-0.49,1.15-1.01,1.39-1.39c0.24-0.38,0.32-0.6,0.3-0.61c-0.08-0.07-0.46,0.86-1.87,1.72c-1.34,0.83-3.96,1.46-6.57,0.11
			c-2.59-1.33-4.67-4.51-5.29-8.34c-0.35-1.91-0.4-3.98-0.41-6.13c0-2.15,0.03-4.38,0.08-6.67c0.23-9.14,0.62-17.42,0.72-23.42
			c0.06-3,0.06-5.43,0.03-7.11C805.82,818.05,805.77,817.12,805.71,817.12z"/>
	</g>
	<g>
		<path class="st17" d="M760.56,817.12c-0.06,0-0.12,0.93-0.18,2.6c-0.08,1.83-0.18,4.21-0.3,7.09c-0.25,5.99-0.74,14.26-0.97,23.42
			c-0.06,2.29-0.07,4.53-0.06,6.69c0.01,2.16,0.09,4.28,0.47,6.27c0.68,3.99,2.95,7.36,5.78,8.73c2.88,1.4,5.65,0.6,7.02-0.37
			c0.71-0.49,1.15-1.01,1.39-1.39c0.24-0.38,0.32-0.6,0.3-0.61c-0.08-0.07-0.46,0.86-1.87,1.72c-1.34,0.83-3.96,1.46-6.57,0.11
			c-2.59-1.33-4.67-4.51-5.29-8.34c-0.35-1.91-0.4-3.98-0.41-6.13c0-2.15,0.03-4.38,0.08-6.67c0.23-9.14,0.62-17.42,0.72-23.42
			c0.06-3,0.06-5.43,0.03-7.11C760.67,818.05,760.62,817.12,760.56,817.12z"/>
	</g>
	<g>
		<path class="st17" d="M704.49,856.15c-0.03,0.01,0.09,0.4,0.35,1.12c0.28,0.72,0.59,1.82,1.21,3.15c1.1,2.72,3.04,6.51,5.97,10.87
			c2.91,4.36,6.98,9.16,12.1,13.86c2.59,2.31,5.42,4.61,8.53,6.77c3.12,2.13,6.48,4.15,10.07,5.94c7.16,3.58,14.38,6.24,21.18,7.67
			c6.79,1.52,13.08,1.81,18.3,1.84c5.24-0.03,9.46-0.32,12.38-0.53c1.39-0.11,2.5-0.2,3.36-0.27c0.77-0.07,1.17-0.12,1.17-0.15
			c0-0.03-0.41-0.04-1.18-0.02c-0.85,0.03-1.97,0.06-3.36,0.11c-2.92,0.1-7.14,0.31-12.36,0.26c-5.2-0.1-11.43-0.46-18.14-2.01
			c-6.72-1.46-13.86-4.12-20.96-7.67c-3.55-1.77-6.88-3.76-9.97-5.86c-3.08-2.13-5.89-4.39-8.47-6.66
			c-5.1-4.62-9.18-9.33-12.13-13.61c-2.96-4.28-4.97-8-6.16-10.66c-0.66-1.3-1.02-2.38-1.35-3.07
			C704.69,856.5,704.52,856.14,704.49,856.15z"/>
	</g>
	<g>
		<path class="st3" d="M806.69,815.31c0.08,0.04,0.28-0.68,1.13-1.62c0.81-0.92,2.43-2.03,4.67-2.11c2.19-0.1,4.92,0.89,6.89,3.07
			c0.99,1.08,1.71,2.46,2.09,4.02c0.39,1.56,0.48,3.25,0.48,4.99c-0.06,7.02-0.09,13.4-0.05,18c0.03,2.17,0.06,3.99,0.08,5.46
			c0.04,1.29,0.09,2,0.15,2c0.06,0,0.12-0.71,0.19-2c0.05-1.46,0.12-3.29,0.19-5.46c0.12-4.61,0.25-10.97,0.3-18.01
			c0-1.77-0.1-3.53-0.53-5.19c-0.42-1.66-1.23-3.19-2.32-4.34c-2.17-2.34-5.12-3.33-7.5-3.15c-2.43,0.18-4.11,1.46-4.89,2.5
			c-0.41,0.52-0.62,1-0.75,1.31C806.71,815.12,806.67,815.3,806.69,815.31z"/>
	</g>
	<g>
		<path class="st3" d="M776.77,819.08c-0.23,0-0.43,8.61-0.43,19.23c0,10.62,0.19,19.23,0.43,19.23c0.23,0,0.43-8.61,0.43-19.23
			C777.2,827.68,777.01,819.08,776.77,819.08z"/>
	</g>
	<g>
		<path class="st3" d="M790.48,782c0,0.03,0.35,0.05,1.01,0.07c0.66,0.03,1.63-0.01,2.87,0.06c2.49,0.07,6.1,0.35,10.47,1.14
			c8.71,1.52,20.68,5.69,31.24,14.29c10.56,8.6,17.08,19.48,20.33,27.7c1.66,4.13,2.66,7.6,3.24,10.03c0.33,1.2,0.48,2.16,0.64,2.8
			c0.15,0.64,0.24,0.98,0.27,0.97c0.03,0-0.01-0.35-0.1-1c-0.11-0.65-0.21-1.62-0.49-2.84c-0.48-2.46-1.4-5.98-3-10.17
			c-3.13-8.35-9.65-19.42-20.35-28.14c-10.7-8.71-22.86-12.84-31.68-14.22c-4.43-0.72-8.07-0.91-10.57-0.88
			c-1.25-0.03-2.22,0.07-2.88,0.1C790.82,781.93,790.48,781.97,790.48,782z"/>
	</g>
	<g>
		<path class="st3" d="M833.18,698.79c-0.03,0.01,0.08,0.33,0.3,0.93c0.26,0.68,0.6,1.53,1.01,2.59c0.46,1.11,1,2.48,1.56,4.1
			c0.57,1.61,1.29,3.42,1.91,5.48c0.67,2.04,1.4,4.29,2.05,6.73c0.73,2.42,1.32,5.06,1.99,7.82c1.22,5.55,2.3,11.71,3.01,18.24
			c0.66,6.53,0.86,12.79,0.81,18.47c-0.09,2.84-0.13,5.54-0.34,8.07c-0.13,2.53-0.38,4.87-0.62,7.01c-0.19,2.14-0.51,4.06-0.74,5.76
			c-0.22,1.7-0.47,3.15-0.69,4.33c-0.19,1.11-0.34,2.02-0.45,2.74c-0.09,0.63-0.13,0.96-0.1,0.97c0.03,0.01,0.12-0.31,0.27-0.93
			c0.16-0.71,0.36-1.61,0.61-2.71c0.27-1.18,0.57-2.62,0.83-4.32c0.27-1.69,0.64-3.61,0.87-5.76c0.27-2.14,0.56-4.49,0.72-7.03
			c0.25-2.53,0.31-5.25,0.42-8.1c0.09-5.71-0.09-12.01-0.75-18.57c-0.71-6.56-1.82-12.75-3.09-18.33c-0.69-2.77-1.32-5.42-2.08-7.84
			c-0.68-2.45-1.44-4.69-2.15-6.73c-0.66-2.06-1.42-3.86-2.04-5.46c-0.61-1.61-1.2-2.96-1.7-4.06c-0.47-1.03-0.85-1.87-1.16-2.53
			C833.37,699.07,833.21,698.78,833.18,698.79z"/>
	</g>
	<g>
		<path class="st3" d="M830.75,613.85c-0.07,0.05,0.67,0.88,1.65,2.6c0.98,1.71,2.09,4.37,2.73,7.84c0.68,3.46,0.9,7.68,1.01,12.37
			c0.12,4.69,0.15,9.85,0.02,15.26c-0.26,10.83-1.13,20.6-1.95,27.65c-0.43,3.42-0.78,6.24-1.05,8.34c-0.11,0.9-0.21,1.65-0.29,2.27
			c-0.06,0.52-0.07,0.8-0.04,0.8c0.03,0,0.1-0.26,0.21-0.77c0.12-0.61,0.27-1.35,0.45-2.25c0.36-1.96,0.83-4.8,1.31-8.32
			c0.98-7.05,1.94-16.85,2.21-27.71c0.13-5.43,0.08-10.6-0.09-15.3c-0.15-4.69-0.43-8.96-1.2-12.47c-0.73-3.51-1.95-6.2-3.04-7.89
			c-0.54-0.84-1.01-1.47-1.37-1.85C830.96,614.03,830.77,613.83,830.75,613.85z"/>
	</g>
	<g>
		<path class="st3" d="M671.76,562.68c-0.01,0.03,0.35,0.17,1.04,0.43c0.78,0.27,1.78,0.63,3.04,1.07c2.74,0.94,6.54,2.25,11.2,3.85
			c9.43,3.28,22.49,7.83,36.29,14.28c13.81,6.44,25.49,13.91,33.26,20.15c3.91,3.1,6.92,5.8,8.94,7.72
			c1.03,0.94,1.78,1.73,2.32,2.22c0.53,0.51,0.82,0.76,0.85,0.74c0.02-0.02-0.23-0.32-0.72-0.86c-0.5-0.54-1.22-1.36-2.22-2.34
			c-1.96-2-4.92-4.78-8.79-7.96c-7.72-6.39-19.41-13.99-33.28-20.45c-13.86-6.47-26.97-10.94-36.46-14.08
			c-4.75-1.56-8.61-2.77-11.29-3.59c-1.27-0.38-2.3-0.69-3.09-0.92C672.14,562.74,671.76,562.65,671.76,562.68z"/>
	</g>
	<g>
		<path class="st3" d="M614.91,603.18c-0.02,0.02,0.24,0.23,0.73,0.58c0.57,0.41,1.29,0.91,2.17,1.54c1.91,1.3,4.62,3.26,7.91,5.74
			c3.3,2.48,7.12,5.57,11.25,9.14c4.09,3.6,8.47,7.7,12.85,12.22c4.36,4.55,8.29,9.07,11.74,13.3c3.41,4.25,6.36,8.19,8.71,11.58
			c2.36,3.38,4.21,6.17,5.44,8.12c0.59,0.9,1.07,1.64,1.45,2.23c0.34,0.51,0.53,0.76,0.56,0.75c0.03-0.01-0.12-0.3-0.41-0.84
			c-0.35-0.61-0.78-1.38-1.32-2.31c-1.15-2.01-2.92-4.85-5.23-8.29c-2.29-3.45-5.2-7.43-8.59-11.73c-3.43-4.27-7.36-8.84-11.74-13.4
			c-4.4-4.54-8.81-8.64-12.95-12.22c-4.17-3.55-8.04-6.6-11.4-9.03c-3.35-2.43-6.12-4.32-8.09-5.54c-0.92-0.57-1.67-1.03-2.26-1.4
			C615.21,603.3,614.93,603.15,614.91,603.18z"/>
	</g>
	<g>
		<path class="st3" d="M363.18,716.81c-0.1-0.04-0.89,1.51-1.94,4.12c-1.05,2.61-2.31,6.29-3.37,10.46
			c-1.05,4.17-1.7,8.01-2.02,10.8c-0.32,2.79-0.37,4.54-0.26,4.55c0.13,0.01,0.38-1.7,0.86-4.46c0.47-2.76,1.2-6.55,2.25-10.68
			c1.05-4.13,2.21-7.81,3.11-10.46C362.7,718.49,363.29,716.86,363.18,716.81z"/>
	</g>
	<g>
		<path class="st17" d="M402.26,904.04c0,0,0.26,0.22,0.8,0.61c0.57,0.4,1.36,0.97,2.4,1.71c1.07,0.75,2.38,1.67,3.92,2.76
			c0.78,0.54,1.61,1.13,2.51,1.75c0.92,0.59,1.89,1.23,2.92,1.9c8.18,5.49,20.42,12.86,36.21,20.68c3.96,1.94,8.16,3.85,12.53,5.85
			c2.21,0.94,4.47,1.9,6.77,2.87c1.15,0.49,2.31,0.98,3.49,1.47c1.19,0.46,2.39,0.92,3.6,1.38c2.42,0.93,4.88,1.87,7.38,2.82
			c2.53,0.87,5.1,1.76,7.71,2.66c2.6,0.94,5.28,1.75,7.99,2.58c2.72,0.8,5.44,1.74,8.27,2.47c11.2,3.21,23.16,5.85,35.65,8.02
			c12.49,2.14,25.56,3.68,39,4.2c13.44,0.56,26.61,0.15,39.22-1.23c1.58-0.15,3.15-0.31,4.71-0.46c1.56-0.16,3.11-0.42,4.65-0.63
			c3.08-0.44,6.13-0.87,9.15-1.3c3-0.56,5.97-1.1,8.9-1.65c1.47-0.28,2.92-0.55,4.37-0.82c1.44-0.33,2.87-0.65,4.29-0.98
			c22.75-5.08,42.68-11.96,58.78-19.12c16.12-7.12,28.55-14.22,36.74-19.68c4.2-2.57,7.21-4.96,9.33-6.44
			c1.03-0.75,1.82-1.33,2.38-1.74c0.53-0.4,0.79-0.62,0.79-0.62s-0.3,0.17-0.85,0.55c-0.57,0.39-1.38,0.95-2.43,1.67
			c-2.16,1.43-5.19,3.77-9.41,6.3c-8.24,5.37-20.69,12.37-36.81,19.41c-16.09,7.08-36,13.88-58.71,18.91
			c-1.42,0.32-2.84,0.64-4.28,0.97c-1.45,0.27-2.9,0.54-4.36,0.81c-2.93,0.54-5.89,1.08-8.88,1.63c-3.01,0.42-6.06,0.85-9.13,1.28
			c-1.54,0.2-3.08,0.46-4.64,0.62c-1.56,0.15-3.13,0.3-4.7,0.45c-12.57,1.37-25.7,1.77-39.1,1.21c-13.4-0.51-26.44-2.05-38.9-4.17
			c-12.46-2.15-24.4-4.77-35.58-7.95c-2.82-0.72-5.53-1.65-8.25-2.45c-2.71-0.82-5.39-1.62-7.98-2.55c-2.61-0.89-5.17-1.77-7.7-2.64
			c-2.5-0.95-4.96-1.88-7.37-2.8c-1.21-0.46-2.41-0.92-3.59-1.37c-1.17-0.49-2.33-0.98-3.48-1.46c-2.3-0.97-4.56-1.91-6.77-2.84
			c-4.37-1.98-8.57-3.87-12.53-5.79c-15.79-7.74-28.07-15.02-36.29-20.42c-1.04-0.66-2.02-1.28-2.94-1.86
			c-0.9-0.61-1.74-1.19-2.53-1.72c-1.56-1.06-2.89-1.96-3.97-2.69c-1.06-0.71-1.87-1.25-2.45-1.64
			C402.55,904.21,402.26,904.04,402.26,904.04z"/>
	</g>
	<polygon class="st15" points="472.61,921.52 439.78,1005.47 417.34,1005.47 412.45,998.17 406.7,1005.47 398.77,1005.47 
		395.82,872.43 	"/>
	<path class="st15" d="M678.82,933.34l-27.74,72.13h-25.51l-5.21-8.35l-5.03,8.35h-6.34c0,0-2.77-81.38,0-83.69
		C611.78,919.47,678.82,933.34,678.82,933.34z"/>
	<g>
		<path class="st3" d="M354.7,772.13c-0.01,0-0.01,0.16,0.01,0.48c0.03,0.36,0.06,0.82,0.11,1.4c0.12,1.29,0.29,3.09,0.51,5.38
			c0.12,1.18,0.25,2.47,0.39,3.89c0.18,1.42,0.47,2.94,0.74,4.59c0.58,3.29,1.06,7.07,2.12,11.14c0.48,2.05,0.98,4.19,1.51,6.42
			c0.54,2.23,1.31,4.49,2,6.87c1.3,4.78,3.23,9.7,5.15,14.91c4.18,10.3,9.54,21.32,16.32,32.22c6.9,10.83,14.52,20.44,22.01,28.66
			c3.88,3.99,7.48,7.85,11.22,11.09c1.84,1.64,3.55,3.32,5.33,4.77c1.79,1.44,3.5,2.82,5.14,4.13c3.21,2.72,6.41,4.78,9.12,6.73
			c1.37,0.95,2.62,1.87,3.82,2.65c1.22,0.74,2.33,1.42,3.34,2.03c1.97,1.18,3.52,2.12,4.64,2.78c0.5,0.29,0.9,0.52,1.22,0.7
			c0.28,0.15,0.42,0.23,0.43,0.21c0.01-0.01-0.12-0.11-0.38-0.29c-0.3-0.2-0.69-0.46-1.17-0.78c-1.09-0.7-2.61-1.68-4.55-2.92
			c-0.99-0.63-2.09-1.33-3.29-2.09c-1.18-0.79-2.42-1.73-3.77-2.7c-2.68-1.98-5.85-4.07-9.02-6.81c-1.62-1.33-3.32-2.72-5.09-4.16
			c-1.76-1.46-3.45-3.14-5.27-4.79c-3.71-3.25-7.28-7.12-11.12-11.1c-7.42-8.22-14.99-17.79-21.86-28.58
			c-6.75-10.86-12.11-21.82-16.31-32.06c-1.93-5.19-3.88-10.08-5.2-14.83c-0.7-2.36-1.49-4.61-2.04-6.83
			c-0.54-2.22-1.06-4.35-1.55-6.39c-1.1-4.05-1.61-7.81-2.24-11.08c-0.28-1.64-0.6-3.16-0.8-4.57c-0.17-1.41-0.32-2.7-0.46-3.87
			c-0.28-2.28-0.5-4.07-0.66-5.36c-0.08-0.57-0.14-1.03-0.19-1.39C354.75,772.29,354.71,772.13,354.7,772.13z"/>
	</g>
	<g>
		<path class="st3" d="M394.06,645.29c0.02,0.02,0.3-0.29,0.81-0.88c0.55-0.67,1.28-1.54,2.19-2.63c0.93-1.16,2.09-2.56,3.49-4.14
			c1.39-1.59,2.92-3.44,4.75-5.37c1.79-1.96,3.76-4.11,5.96-6.32c2.15-2.27,4.58-4.55,7.11-6.99c5.14-4.78,10.97-9.85,17.37-14.82
			c6.43-4.93,12.81-9.29,18.74-13.05c3-1.83,5.83-3.6,8.56-5.11c2.7-1.58,5.27-2.94,7.62-4.17c2.33-1.28,4.51-2.29,6.4-3.23
			c1.88-0.95,3.53-1.72,4.89-2.33c1.29-0.6,2.32-1.08,3.1-1.45c0.71-0.34,1.07-0.53,1.06-0.56c-0.01-0.03-0.4,0.11-1.13,0.4
			c-0.8,0.33-1.85,0.77-3.17,1.31c-1.38,0.57-3.05,1.28-4.96,2.2c-1.91,0.91-4.12,1.88-6.47,3.13c-2.38,1.2-4.97,2.53-7.69,4.09
			c-2.76,1.48-5.61,3.24-8.63,5.05c-5.97,3.74-12.39,8.09-18.85,13.04c-6.42,4.99-12.26,10.09-17.39,14.92
			c-2.52,2.46-4.94,4.77-7.08,7.07c-2.19,2.24-4.14,4.41-5.91,6.41c-1.8,1.96-3.31,3.85-4.67,5.47c-1.37,1.61-2.49,3.05-3.39,4.24
			c-0.86,1.13-1.54,2.04-2.07,2.73C394.27,644.93,394.04,645.27,394.06,645.29z"/>
	</g>
	<g>
		<path class="st3" d="M517.54,592.51c0.01,0.03,0.45-0.1,1.27-0.38c0.89-0.31,2.09-0.72,3.59-1.23c1.55-0.56,3.45-1.22,5.69-1.88
			c2.24-0.67,4.76-1.53,7.62-2.23c1.42-0.38,2.91-0.77,4.46-1.18c1.55-0.4,3.19-0.72,4.88-1.1c3.36-0.81,7.01-1.39,10.84-2.08
			c7.68-1.18,16.19-2.09,25.15-2.38c8.97-0.22,17.52,0.19,25.25,0.93c3.86,0.46,7.53,0.84,10.94,1.45c1.7,0.29,3.36,0.51,4.93,0.82
			c1.57,0.32,3.08,0.63,4.52,0.92c2.89,0.53,5.46,1.25,7.73,1.79c2.28,0.53,4.21,1.08,5.79,1.55c1.52,0.43,2.74,0.77,3.65,1.03
			c0.84,0.23,1.28,0.33,1.29,0.3c0.01-0.03-0.42-0.19-1.24-0.47c-0.9-0.29-2.1-0.69-3.61-1.18c-1.57-0.52-3.49-1.12-5.76-1.69
			c-2.27-0.59-4.83-1.34-7.72-1.92c-1.44-0.31-2.95-0.64-4.53-0.98c-1.58-0.33-3.24-0.57-4.94-0.87c-3.41-0.65-7.1-1.05-10.97-1.53
			c-7.76-0.78-16.35-1.22-25.36-1c-9.01,0.29-17.55,1.23-25.25,2.46c-3.84,0.71-7.49,1.32-10.86,2.16c-1.69,0.4-3.33,0.73-4.89,1.15
			c-1.55,0.43-3.04,0.84-4.46,1.24c-2.86,0.74-5.37,1.64-7.6,2.36c-2.24,0.7-4.13,1.41-5.66,2.02c-1.48,0.58-2.65,1.04-3.53,1.39
			C517.95,592.3,517.53,592.49,517.54,592.51z"/>
	</g>
</g>
<g id="R_Eyes">
	<path class="st17" d="M767.06,743.51c0,6.48,5.26,11.74,11.74,11.74c6.48,0,11.74-5.26,11.74-11.74c0-6.48-5.26-11.74-11.74-11.74
		C772.32,731.77,767.06,737.03,767.06,743.51z"/>
</g>
<g id="L_Eyes">
	<path class="st17" d="M646.31,746.73c0,6.48,5.26,11.74,11.74,11.74s11.74-5.26,11.74-11.74c0-6.48-5.26-11.74-11.74-11.74
		S646.31,740.25,646.31,746.73z"/>
</g>
<g id="L_Thigh">
	<g>
		<g>
			<path class="st19" d="M292.51,591.26c-13,19.84-16.32,45.7-8.78,68.18c1.22,3.63,2.71,7.21,3.14,11.02
				c0.45,4.02-0.31,8.07-1.08,12.05c-3.87,20.17-7.74,40.33-11.61,60.5c-0.89,4.63-1.76,9.53-0.17,13.96
				c1.39,3.87,4.48,6.85,7.52,9.62c8.56,7.77,18,15.2,29.2,18.06c11.2,2.86,24.57,0.07,31.22-9.39c3.55-5.05,4.22-11.47,6.26-17.3
				c23.83-67.94,32.74-81.05,42.12-123.61c0.44-1.99,0.83-4.16-0.05-6.01c-0.86-1.81-2.75-2.87-4.52-3.81
				c-17.54-9.28-35.37-18.01-53.45-26.17c-12.73-5.74-27.1-11.28-40.29-6.71"/>
		</g>
		<g>
			<g>
				<path class="st20" d="M282.5,626.33c-3.89,6.84-2.96,15.1-1.03,22.39c1.09,4.14,2.49,8.19,3.51,12.34
					c1.03,4.23,1.58,8.61,1.65,12.96c0.04,2.21-0.06,4.43-0.4,6.62c-0.33,2.16-0.86,4.3-1.31,6.44c-0.78,3.7-1.54,7.4-2.26,11.11
					c-1.11,5.69-2.12,11.4-3.07,17.12c-0.89,5.39-1.73,10.79-2.64,16.17c-0.13,0.75-0.25,1.5-0.38,2.24
					c-0.11,0.63,0.86,0.9,0.96,0.27c0.93-5.46,1.8-10.92,2.69-16.39c0.9-5.54,1.86-11.08,2.9-16.59c0.66-3.47,1.35-6.93,2.07-10.39
					c0.86-4.15,2-8.31,2.32-12.55c0.32-4.31-0.03-8.68-0.7-12.94c-0.66-4.19-1.93-8.24-3.14-12.3c-2.23-7.48-4.38-15.77-1.54-23.4
					c0.34-0.9,0.75-1.76,1.22-2.6C283.69,626.27,282.82,625.77,282.5,626.33L282.5,626.33z"/>
			</g>
		</g>
	</g>
</g>
<g id="R_Thigh">
	<g>
		<g>
			<g>
				<path class="st19" d="M278.3,636.06c-1.08,23.69,9.24,47.64,27.18,63.14c2.9,2.5,6.01,4.82,8.31,7.88
					c2.44,3.23,3.84,7.11,5.21,10.92c6.94,19.32,13.89,38.65,20.83,57.97c1.59,4.44,3.34,9.09,6.97,12.1
					c3.17,2.62,7.34,3.62,11.37,4.44c11.33,2.32,23.23,3.91,34.33,0.67c11.1-3.24,21.18-12.46,22.08-23.99
					c0.48-6.15,2.33-16.57,1.12-22.62c-14.11-70.6-17.67-81.88-31.28-123.27c-0.64-1.94-1.41-4.01-3.1-5.15
					c-1.67-1.12-3.83-1.07-5.83-0.97c-19.82,0.95-39.61,2.52-59.33,4.72c-13.88,1.55-29.06,4.1-38.09,14.76"/>
			</g>
			<g>
				<g>
					<path class="st20" d="M279.07,646.33c-0.46,5.69,0.61,11.42,2.37,16.81c1.72,5.25,4.12,10.27,6.91,15.02
						c2.05,3.49,4.31,6.89,6.92,9.99c3.75,4.47,8.48,8.03,12.52,12.23c2.39,2.49,4.53,5.22,6.45,8.08c1.92,2.85,3.6,5.89,4.74,9.15
						c2.11,6.02,4.08,12.08,6.25,18.07c3.15,8.73,6.6,17.34,9.97,25.98c0.44,1.13,0.88,2.26,1.31,3.4c0.23,0.59,0.57,1.19,0.66,1.81
						c0.16,1.19,0.23,2.41,0.34,3.61c0.31,3.3,0.62,6.59,0.93,9.89c0.02,0.22,0.04,0.44,0.06,0.66c0.06,0.64,1.06,0.64,1,0
						c-0.25-2.62-0.49-5.25-0.74-7.87c-0.16-1.66-0.31-3.32-0.47-4.99c-0.04-0.44-0.08-0.88-0.12-1.32
						c-0.07-0.66-0.39-1.28-0.63-1.89c-3.29-8.55-6.74-17.05-9.92-25.64c-2.05-5.53-4-11.09-5.89-16.67
						c-1.11-3.27-2.1-6.59-3.66-9.68c-1.53-3.01-3.43-5.82-5.48-8.5c-2.07-2.69-4.35-5.15-6.81-7.49c-2.48-2.36-5.06-4.62-7.48-7.04
						c-2.66-2.67-4.89-5.69-6.95-8.85c-2.86-4.39-5.37-9.04-7.35-13.9c-2.17-5.33-3.78-11-4.02-16.77
						c-0.06-1.37-0.03-2.74,0.08-4.11C280.12,645.68,279.12,645.69,279.07,646.33L279.07,646.33z"/>
				</g>
			</g>
		</g>
		<g>
			<g>
				<path class="st21" d="M355.11,643.25c3.08,6.37,7.58,12.04,13.1,16.47c1.55,1.24,3.16,2.39,4.85,3.43
					c0.5,0.31,0.96-0.48,0.46-0.79c-5.89-3.65-10.95-8.59-14.72-14.41c-1.08-1.66-2.04-3.39-2.9-5.16
					C355.64,642.27,354.86,642.73,355.11,643.25L355.11,643.25z"/>
			</g>
		</g>
		<line class="st22" x1="344.44" y1="640.32" x2="386.78" y2="754.35"/>
	</g>
</g>
<g id="L_LEg">
	<g>
		<path class="st23" d="M232.54,975.44c-0.66-0.2-1.31-0.42-1.96-0.66c-11.84-4.39-17.46-17.93-12.48-29.53l9.05-21.06
			c4.84-11.28,17.91-16.5,29.19-11.65l0,0c11.28,4.84,16.5,17.91,11.65,29.19l-9.05,21.08
			C254.55,973.03,243.21,978.64,232.54,975.44z"/>
		<path class="st19" d="M273.37,747.9l-54.89,175.66l57.21,25.86c0,0,74.95-167.17,71.04-187.89
			C337.98,714.99,293.62,716.68,273.37,747.9z"/>
		<line class="st22" x1="257.54" y1="944.5" x2="327.91" y2="745.76"/>
	</g>
</g>
<g id="R_Leg">
	<g>
		<path class="st23" d="M370.66,987.42c-0.93,0.11-1.85,0.17-2.75,0.2c-12.36,0.33-22.45-9.86-22.45-22.23V942.3
			c0-12.28,9.95-22.23,22.23-22.23h0c12.28,0,22.23,9.95,22.23,22.23v23.09C389.91,976.52,381.71,986.14,370.66,987.42z"/>
		<path class="st19" d="M337.98,770.77l1.03,180.27h58.23c0,0,26.46-182.97,13.93-199.93C398.64,734.15,349.35,735.34,337.98,770.77
			z"/>
		<line class="st22" x1="386.78" y1="754.35" x2="373.29" y2="949.42"/>
	</g>
</g>
<g id="L_Shoes">
	<g>
		<g>
			<path class="st24" d="M273.04,964.28c0,0,3.66-18.08,8.77-15.87C286.92,950.62,281.47,961.21,273.04,964.28"/>
			<path class="st24" d="M273.96,966.49c0,0,15.18-10.48,17.33-5.34C293.43,966.29,282.16,970.13,273.96,966.49"/>
			<g>
				<path class="st7" d="M218.14,936.22l-12.72,26.46l-3.48,11.19l81.4,32.84l4.27-8.89c0,0-10.7-26.31-24.88-37.13l5.62-5.59
					l-10.91-10.41l-7.19,9.5C250.25,954.19,223.74,928.03,218.14,936.22z"/>
				<path class="st25" d="M199.38,973.77l4.98-11.75l81.77,35c1.36,0.58,1.97,2.17,1.34,3.51l-4.04,7.23"/>
			</g>
			<line class="st26" x1="272.17" y1="964.84" x2="263.91" y2="964.22"/>
			<line class="st26" x1="276.17" y1="968.52" x2="267.93" y2="969.22"/>
		</g>
		<g>
			<g>
				<path class="st25" d="M272.59,976.8c-4.77,0.3-9.06,3.7-10.42,8.29c-0.21,0.7,0.88,1,1.09,0.3c1.21-4.09,5.07-7.19,9.33-7.46
					C273.31,977.88,273.32,976.76,272.59,976.8L272.59,976.8z"/>
			</g>
		</g>
		<g>
			<g>
				<path class="st25" d="M223.16,951.53c-3.03,1.4-4.79,4.96-4.12,8.22c0.67,3.29,3.93,5.74,7.24,5.74c3.42,0,6.5-2.77,7.09-6.1
					c0.61-3.4-1.53-6.86-4.77-8c-3.66-1.29-7.93,1.21-8.75,4.97c-0.15,0.71,0.93,1.01,1.09,0.3c0.61-2.81,3.56-4.91,6.44-4.42
					c2.84,0.49,5.07,3.25,4.97,6.13c-0.1,2.86-2.44,5.52-5.28,5.94c-2.78,0.41-5.76-1.4-6.72-4.03c-1.08-2.99,0.54-6.46,3.37-7.77
					C224.39,952.2,223.81,951.23,223.16,951.53L223.16,951.53z"/>
			</g>
		</g>
		<g>
			<g>
				<path class="st25" d="M263.73,964.11c-3.11-0.31-6.22-0.63-9.34-0.94c-0.48-0.05-0.75,0.65-0.4,0.96
					c4.5,3.93,10.45,6,16.42,5.66c-0.09-0.35-0.19-0.7-0.28-1.05c-3.61,1.82-7.22,3.64-10.83,5.46c-0.43,0.22-0.33,0.93,0.13,1.03
					c5.42,1.23,10.83,2.47,16.25,3.7c0.71,0.16,1.01-0.93,0.3-1.09c-5.42-1.23-10.83-2.47-16.25-3.7c0.04,0.34,0.09,0.69,0.13,1.03
					c3.61-1.82,7.22-3.64,10.83-5.46c0.49-0.25,0.27-1.08-0.28-1.05c-5.66,0.33-11.34-1.59-15.62-5.32
					c-0.13,0.32-0.27,0.64-0.4,0.96c3.11,0.31,6.22,0.63,9.34,0.94C264.45,965.31,264.45,964.18,263.73,964.11L263.73,964.11z"/>
			</g>
		</g>
	</g>
</g>
<g id="R_Shoes">
	<g>
		<g>
			<path class="st24" d="M404.83,968.56c0,0-3.16-18.17,2.4-17.97S411.56,962.63,404.83,968.56"/>
			<path class="st24" d="M406.48,970.29c0,0,10.34-15.28,14.2-11.27C424.55,963.02,415.45,970.69,406.48,970.29"/>
			<g>
				<path class="st7" d="M343.48,962.36l-2.24,29.27l0.82,11.69l87.77,1.02l0.74-9.83c0,0-19.52-20.63-36.67-25.55l3.2-7.24
					l-13.94-5.74l-3.25,11.46C379.92,967.44,345.73,952.69,343.48,962.36z"/>
				<path class="st25" d="M341.47,1004.28l-0.54-12.81l87.99,2.84c1.48,0.05,2.62,1.31,2.53,2.78l-0.68,7.94"/>
			</g>
			<line class="st26" x1="404.22" y1="969.4" x2="396.3" y2="971.82"/>
			<line class="st26" x1="409.28" y1="971.37" x2="401.86" y2="975.01"/>
		</g>
		<g>
			<g>
				<path class="st25" d="M408.88,980.42c-4.26,1.99-7.01,6.72-6.62,11.41c0.06,0.72,1.19,0.73,1.13,0
					c-0.36-4.33,2.12-8.6,6.06-10.44C410.11,981.09,409.53,980.12,408.88,980.42L408.88,980.42z"/>
			</g>
		</g>
		<g>
			<g>
				<path class="st25" d="M353.76,974.75c-2.36,2.44-2.77,6.56-0.79,9.36c1.93,2.73,5.77,3.78,8.84,2.51c3.15-1.3,4.87-4.9,4.27-8.2
					c-0.61-3.36-3.94-5.86-7.31-5.73c-3.97,0.15-6.98,4.03-6.36,7.9c0.11,0.72,1.2,0.41,1.09-0.3c-0.46-2.89,1.71-5.88,4.58-6.4
					c2.79-0.5,5.84,1.33,6.72,4.02c0.85,2.61-0.24,5.78-2.59,7.24c-2.35,1.46-5.67,1.02-7.64-0.9c-2.35-2.3-2.25-6.38,0-8.7
					C355.07,975.03,354.27,974.23,353.76,974.75L353.76,974.75z"/>
			</g>
		</g>
		<g>
			<g>
				<path class="st25" d="M396.14,971.76c-3.01,0.84-6.03,1.68-9.04,2.52c-0.57,0.16-0.51,0.91,0,1.09
					c5.63,2.03,11.92,1.73,17.36-0.76c-0.23-0.3-0.46-0.59-0.68-0.89c-2.7,3.01-5.4,6.02-8.1,9.02c-0.4,0.45,0,1.02,0.55,0.94
					c5.5-0.82,10.99-1.64,16.49-2.45c0.72-0.11,0.41-1.19-0.3-1.09c-5.5,0.82-10.99,1.64-16.49,2.45c0.18,0.31,0.37,0.63,0.55,0.94
					c2.7-3.01,5.4-6.02,8.1-9.02c0.44-0.49-0.11-1.15-0.68-0.89c-5.16,2.36-11.15,2.57-16.49,0.65c0,0.36,0,0.73,0,1.09
					c3.01-0.84,6.03-1.68,9.04-2.52C397.14,972.65,396.85,971.56,396.14,971.76L396.14,971.76z"/>
			</g>
		</g>
	</g>
</g>
<g id="HAir">
	<g>
		<path class="st21" d="M304.3,371.27c34.71,34.38,23.61,31.94,78.05,65.52c2.41,1.49,5.11,20.53,4.43,23.28
			c-0.66,2.69-5.08,23.04-5.96,25.67c-15.15,45.44-44.38,51.63-88.1,57.64c-14.01,1.92-45.77,3.85-67.51-23.67
			c-11.19-14.16-16.41-32.09-10.94-49.29c2.27-7.15,5.06-14.13,8.33-20.87c4.32-8.9,9.55-17.61,11.09-27.37
			c1.25-7.95,4.95-31.08,5.56-39.1c1.97-25.85,21.62-32.83,47.52-31.85"/>
	</g>
</g>
<g id="R_Arm">
	<g>
		<path class="st23" d="M377.86,472.7l-31.59,5.04l-1.77-44.01l27.48-2.09c0,0,31.06,3.99,22.53,28.5
			C390.97,470.31,377.86,472.7,377.86,472.7z"/>
		<polygon class="st27" points="358.85,431.66 352.09,476.24 354.42,432.64 		"/>
		<path class="st6" d="M352.94,480.72l-54.74,8.8c-15.75,3.31-35.48-10.1-34.64-26.18c0.33-6.42,3.19-13.29,10.59-19.89l0,0
			c6.47-4.57,14.03-7.34,21.92-8.05l57.95-5.22L352.94,480.72z"/>
		<g>
			<g>
				<path class="st3" d="M299.85,434.91c1.79-0.15,3.59-0.3,5.38-0.45c4.28-0.36,8.57-0.72,12.85-1.07
					c5.18-0.43,10.36-0.87,15.54-1.3c4.48-0.37,8.96-0.75,13.44-1.12c1.48-0.12,2.97-0.25,4.45-0.37c0.46-0.04,0.92-0.08,1.38-0.11
					c0.2-0.02,0.55,0.02,0.73-0.06c0.02-0.01,0.07-0.01,0.1-0.01c-0.08-0.08-0.17-0.17-0.25-0.25c-0.28,6.39-0.46,12.78-0.6,19.18
					c-0.16,7.1-0.26,14.2-0.26,21.3c0,3.36,0.02,6.72,0.1,10.09c0.06-0.08,0.12-0.16,0.18-0.24c-3.78,0.61-7.55,1.21-11.33,1.82
					c-7.67,1.23-15.33,2.46-23,3.7c-6.06,0.97-12.12,1.95-18.18,2.92c-1.85,0.3-3.68,0.61-5.55,0.74
					c-5.13,0.34-10.29-0.53-14.95-2.73c-5.21-2.46-10-6.55-13-11.51c-0.05-0.08-0.1-0.17-0.15-0.25c-0.16-0.28-0.59-0.03-0.43,0.25
					c0.71,1.28,1.64,2.46,2.58,3.57c2.21,2.63,4.84,4.93,7.77,6.74c4.02,2.5,8.6,4,13.32,4.39c3.1,0.26,6.17-0.01,9.24-0.51
					c5.4-0.87,10.8-1.74,16.2-2.6c7.85-1.26,15.69-2.52,23.54-3.78c4.62-0.74,9.28-1.37,13.87-2.23c0.07-0.01,0.14-0.02,0.21-0.03
					c0.1-0.02,0.19-0.14,0.18-0.24c-0.15-6.39-0.11-12.79-0.04-19.18c0.08-7.1,0.23-14.2,0.44-21.3c0.1-3.36,0.22-6.72,0.37-10.08
					c0.01-0.13-0.12-0.26-0.25-0.25c-1.79,0.15-3.59,0.3-5.38,0.45c-4.28,0.36-8.57,0.72-12.85,1.07
					c-5.18,0.43-10.36,0.87-15.54,1.3c-4.48,0.37-8.96,0.75-13.44,1.12c-1.48,0.12-2.97,0.25-4.45,0.37
					c-0.69,0.06-1.42,0.05-2.1,0.18c-0.03,0.01-0.06,0.01-0.1,0.01C299.53,434.44,299.53,434.94,299.85,434.91L299.85,434.91z"/>
			</g>
		</g>
	</g>
</g>
<g id="R_Hand">
	<g>
		<path class="st23" d="M356.92,457.75c2.22,9.83,12.05,16.04,21.84,13.64c3.41-0.84,6.86-2.06,10.31-3.35
			c26.94-10.1,54.42-25.08,78.29-41.14c6.15-10.73,7.43-19.71-9.41-23.78c-21.05,7.61-40.95,13.31-66.54,22.06
			c-6.86,2.34-14.83,4.74-21.13,8.3C357.46,440.72,354.66,447.49,356.92,457.75L356.92,457.75z"/>
	</g>
</g>
<g id="Neck">
	<g>
		<path class="st23" d="M261.27,396.75l5.3,46.71c0,0,5.6,14.8,16.73,12.98c0.09-0.01,0.18-0.03,0.27-0.05
			c9.35-1.64,15.37-12.08,13.59-23.31l-3.3-20.85C281.36,390.55,271.23,392.72,261.27,396.75z"/>
		<polygon class="st27" points="295.35,417.95 276.94,417.46 296.38,429.12 		"/>
	</g>
</g>
<g id="Face">
	<circle class="st3" cx="257.57" cy="398.98" r="2.87"/>
	<path class="st23" d="M297.47,352.78c2.25,2.45,22.79,32.4,11.09,55.36c-3.14,6.17-9.61,9.95-16.53,9.96
		c-11.35,0.01-29.84-2.64-37.32-18.85c0,0-25.07-6.58-20.19-32.43C239.39,340.97,271.22,324.18,297.47,352.78z"/>
	<path class="st28" d="M294.22,373.86c0,0-0.71,6.59,3.97,7.07c4.68,0.48,2.17,6.24-1.25,6.76"/>
	<path d="M292.66,363.49c0,0,0.26,1.67,2.51,0.82c1.71-0.65,4.58-1.34,5.65-1.51c0.61-0.1,1.11-0.56,1.19-1.1l0,0
		c0.06-0.43-0.16-0.83-0.58-1c-0.85-0.34-4.26-0.47-6.35,0.3C292.39,361.99,292.66,363.49,292.66,363.49z"/>
	<path d="M279.63,371.1c0,0,1.52,0.74,0.04,2.64c-1.12,1.44-2.62,3.99-3.1,4.96c-0.27,0.55-0.86,0.9-1.4,0.81l0,0
		c-0.43-0.07-0.74-0.4-0.78-0.85c-0.08-0.92,0.8-4.21,2.15-5.98C278.27,370.4,279.63,371.1,279.63,371.1z"/>
	<path class="st21" d="M268.48,349.99c5.67,17.01-2.02,36.49-11.41,51.77c-10.54-2.54-20.54-8.68-25.96-18.07
		c-5.42-9.39-5.41-22.16,1.49-30.52c1.63-1.97,3.58-3.67,5.03-5.78c0.77-1.12,1.56-2.22,2.48-3.21
		c11.14-11.96,19.94-10.86,26.94-10.97c12.31-0.2,34.96,7.53,34.51,25.78C287.14,344.01,281.63,341.78,268.48,349.99z"/>
	<g>
		
			<ellipse transform="matrix(0.5013 -0.8653 0.8653 0.5013 -218.098 414.1382)" class="st23" cx="250.21" cy="396.27" rx="6.79" ry="9.99"/>
		<path class="st21" d="M250.52,391.03c0,0-1.3-0.45-2.87-0.58c-3.71-0.3-5.7,4.3-3.02,6.88l2.69,2.58
			C247.31,399.91,241.47,392.4,250.52,391.03z"/>
	</g>
	<circle class="st29" cx="283.36" cy="377.97" r="9.72"/>
	<circle class="st29" cx="305.4" cy="369.16" r="9.72"/>
	<line class="st29" x1="275.59" y1="383.79" x2="253.62" y2="390.39"/>
	<line class="st29" x1="292.78" y1="373.55" x2="296.38" y2="371.86"/>
	<circle class="st3" cx="256.48" cy="402.55" r="2.63"/>
</g>
<g id="R_Hand_00000104667945201386989130000018184028644743409296_">
	<g>
		<path class="st23" d="M454.95,406.17c8.4-9.81,18.42-18.23,29.52-24.83c0.88-0.52,1.92-1.06,2.9-0.25
			c0.81,0.67,1.02,1.85,0.59,2.81c-1.85,4.1-4.44,7.87-7.62,11.06c6.46-1.61,10.88-5.31,16.31-9.17c3.57-2.55,8.62-5.46,12.39-7.16
			c2.36-1.07,4.82,1.43,3.69,3.75c-1.2,2.47-3.66,4.75-5.96,6.43c-3.95,2.9-7.9,5.79-11.86,8.69c6.59-3.42,13.44-6.35,20.47-8.75
			c1-0.34,2.15-0.67,3.02,0.34c0.74,0.86,1.07,2.46,0.14,3.11c-13.72,9.57-10.45,6.76-20.84,13.62c9.51-2.71,11.86-4.2,18.08-5.87
			c1.41-0.38,2.99-1.57,4.16-0.38c0.79,0.81,1.01,2.02,0.72,3.12c-0.57,2.13-3.32,3.36-5.15,4.37c-5.19,2.88-9.95,4.95-15.77,6.12
			c-0.03,0.01-0.02,0.03,0,0.03c5.63-0.54,20.64-2.33,18.55-0.33c0.04,1.96,2.48,2.82-5.75,5.41c-15.48,4.87-31.46,8.24-47.64,9.48
			c-1.34,0.1-2.76,0.17-3.92-0.49c-1.05-0.6-1.69-1.69-2.24-2.77c-2.78-5.43-4.17-11.55-4.02-17.65"/>
	</g>
</g>
<g id="Mouth">
	<path class="st30" d="M290.61,394.14c0,0,3.56,4.84,10.14,1.96"/>
</g>
<g id="R_Eyes_00000049191639049890935190000016743038694475026093_">
	<circle cx="300.66" cy="370.99" r="2.13"/>
</g>
<g id="L_Eyes_00000011727417684755254390000003770079199333007800_">
	<circle cx="284.27" cy="378.64" r="2.13"/>
</g>
<g id="Layer_1">
</g>
<g id="Body">
	<g>
		<g>
			<defs>
				<path id="XMLID_00000092444011225118329820000001572865696845407123_" d="M272.84,642.02c0,0,88.16,4.08,124.39-15.44
					L364.4,512.33l-26.75-57.86c-11.69-12.37-24.97-19.45-39.13-23.62c0,0-4.31,4.53-33.58-1.74c0,0-27.64,19.84-18.58,54.71
					l27.18,113.59C273.54,597.42,277.72,624.6,272.84,642.02z"/>
			</defs>
			<use xlink:href="#XMLID_00000092444011225118329820000001572865696845407123_"  style="overflow:visible;fill:#FFA8DC;"/>
			<clipPath id="XMLID_00000131329944771697068680000005362592512262450339_">
				<use xlink:href="#XMLID_00000092444011225118329820000001572865696845407123_"  style="overflow:visible;"/>
			</clipPath>
		</g>
		<path class="st31" d="M307.1,433.28c3.16,0,30.43,15.68,34.86,30.51c14.95,26.74,53.23,146.06,55.27,162.79"/>
	</g>
</g>
<g id="Dollar_00000029018963453502234500000018344122627867170965_">
	<g>
		<circle class="st9" cx="486.19" cy="429.08" r="69.33"/>
		<circle class="st8" cx="486.45" cy="428.84" r="59.09"/>
		<g>
			<text transform="matrix(1 0 0 1 449.6836 465.939)" class="st9 st4 st32">$</text>
		</g>
	</g>
</g>
<g id="L_Hand">
	<g>
		<path class="st23" d="M348.07,524.46c2.34,10.37,12.71,16.92,23.04,14.39c3.6-0.88,7.24-2.17,10.88-3.54
			c28.42-10.65,57.41-26.46,82.6-43.41c6.49-11.32,7.84-20.79-9.93-25.09c-22.21,8.03-43.2,14.04-70.21,23.28
			c-7.23,2.47-15.64,5-22.3,8.76C348.64,506.48,345.69,513.63,348.07,524.46L348.07,524.46z"/>
	</g>
</g>
<g id="L_Finger">
	<g>
		<path class="st23" d="M451.5,470.03c8.87-10.35,19.43-19.23,31.15-26.19c0.93-0.55,2.02-1.12,3.06-0.26
			c0.86,0.71,1.07,1.95,0.62,2.97c-1.95,4.33-4.69,8.3-8.04,11.67c6.81-1.7,11.48-5.6,17.2-9.68c3.77-2.69,9.1-5.76,13.07-7.55
			c2.49-1.13,5.09,1.51,3.9,3.96c-1.27,2.61-3.87,5.01-6.29,6.78c-4.17,3.06-8.34,6.11-12.51,9.17c6.96-3.61,14.18-6.7,21.6-9.23
			c1.06-0.36,2.27-0.71,3.19,0.36c0.79,0.91,1.13,2.6,0.14,3.28c-14.48,10.09-11.03,7.13-21.99,14.37
			c10.03-2.86,12.51-4.43,19.07-6.19c1.48-0.4,3.16-1.66,4.39-0.4c0.84,0.85,1.07,2.14,0.76,3.29c-0.6,2.25-3.5,3.54-5.43,4.62
			c-5.47,3.04-10.5,5.22-16.64,6.45c-0.03,0.01-0.02,0.04,0,0.03c5.94-0.57,21.77-2.46,19.58-0.35c0.05,2.06,2.62,2.97-6.07,5.7
			c-16.34,5.13-33.19,8.69-50.27,10c-1.41,0.11-2.91,0.18-4.14-0.52c-1.1-0.63-1.79-1.79-2.37-2.92c-2.93-5.73-4.4-12.19-4.24-18.62
			"/>
	</g>
</g>
<g id="Hair">
	<g>
		<path class="st21" d="M265.07,361.54c7.09,8.78,6.67,21.21,6.39,32.49s0.56,24.03,9.06,31.45c3.45,3.01,7.82,4.78,11.43,7.59
			c3.61,2.81,6.56,7.38,5.32,11.79c-3.59-7.93-17.35-9.14-23.96-14.8c-7.33-6.27-9.54-16.93-10.81-26.49
			c-1.27-9.56-0.04-20.36-8.65-24.72c2.65-3.1,6.72-4.91,10.8-4.82"/>
	</g>
</g>
<g id="L_Arm">
	<g>
		<path class="st23" d="M350.27,536.47l-27.85-15.75l26.05-35.52l22.5,12.94c0,0,22.09,25.03,0.14,38.88
			C362,542.77,350.27,536.47,350.27,536.47z"/>
		<polygon class="st27" points="360.98,491.53 327.91,523.18 356.9,490.53 		"/>
		<path class="st6" d="M325.78,527.21l-48.29-27.24c-14.38-7.23-21.45-30.01-10.78-42.06c4.26-4.82,10.78-8.41,20.68-8.95h0
			c7.9,0.46,15.55,3,22.16,7.36l48.57,32.04L325.78,527.21z"/>
		<g>
			<g>
				<path class="st3" d="M313.67,458.79c1.46,0.98,2.92,1.97,4.38,2.95c3.5,2.36,7.01,4.72,10.51,7.08
					c4.24,2.86,8.48,5.72,12.72,8.57c3.67,2.47,7.33,4.94,11,7.41c1.21,0.82,2.43,1.64,3.64,2.45c0.37,0.25,0.75,0.51,1.12,0.76
					c0.18,0.12,0.39,0.33,0.59,0.4c0.03,0.01,0.05,0.04,0.08,0.05c-0.03-0.2-0.05-0.39-0.08-0.59c-4.22,4.84-8.37,9.76-12.48,14.69
					c-4.54,5.45-9.05,10.94-13.47,16.49c-2.1,2.63-4.18,5.27-6.21,7.95c0.17-0.04,0.34-0.09,0.51-0.13c-3.33-1.88-6.66-3.76-10-5.64
					c-6.73-3.79-13.46-7.59-20.18-11.38c-5.35-3.02-10.7-6.04-16.05-9.05c-1.47-0.83-2.96-1.64-4.37-2.58
					c-4.36-2.9-7.99-6.81-10.36-11.5c-2.65-5.23-3.84-11.49-3.12-17.33c0.01-0.1,0-0.05,0.03-0.22c0.08-0.47-0.64-0.68-0.72-0.2
					c-0.25,1.49-0.27,3.03-0.22,4.53c0.1,3.52,0.75,7.03,1.97,10.33c1.66,4.5,4.37,8.55,7.9,11.8c2.22,2.04,4.73,3.68,7.35,5.16
					c4.8,2.71,9.6,5.42,14.4,8.13c6.89,3.88,13.77,7.77,20.66,11.65c4.05,2.28,8.06,4.63,12.14,6.85c0.06,0.03,0.12,0.07,0.18,0.1
					c0.19,0.11,0.39,0.03,0.51-0.13c3.87-5.09,7.89-10.07,11.93-15.02c4.47-5.48,8.99-10.91,13.56-16.31
					c2.17-2.56,4.36-5.12,6.57-7.65c0.17-0.19,0.13-0.45-0.08-0.59c-1.46-0.98-2.92-1.97-4.38-2.95c-3.5-2.36-7.01-4.72-10.51-7.08
					c-4.24-2.86-8.48-5.72-12.72-8.57c-3.67-2.47-7.33-4.94-11-7.41c-1.21-0.82-2.43-1.64-3.64-2.45c-0.56-0.38-1.12-0.84-1.71-1.16
					c-0.03-0.01-0.05-0.03-0.08-0.05C313.65,457.88,313.28,458.53,313.67,458.79L313.67,458.79z"/>
			</g>
		</g>
	</g>
</g>
<g id="Line">
	<line class="st33" x1="142.52" y1="1006.23" x2="955.09" y2="1006.23"/>
</g>
</svg>
