<?xml version="1.0" encoding="utf-8"?>
<svg version="1.1" xmlns="http://www.w3.org/2000/svg" xmlns:xlink="http://www.w3.org/1999/xlink" x="0px" y="0px"
	 viewBox="0 0 1920 1080" style="enable-background:new 0 0 1920 1080;" xml:space="preserve">
<style type="text/css">
	.st0{fill:#EDEEFF;}
	.st1{opacity:0.8;}
	.st2{fill:#B4C6FF;}
	.st3{fill:#FFFFFF;}
	.st4{font-family:'Anybody-Bold';}
	.st5{font-size:90.5551px;}
	.st6{opacity:0.72;}
	.st7{fill:#FDC93A;}
	.st8{fill:none;stroke:#FCAE1D;stroke-width:0.8609;stroke-miterlimit:10;}
	.st9{fill:#FCAE1D;}
	.st10{font-size:65.9146px;}
	.st11{fill:none;stroke:#FCAE1D;stroke-width:0.6407;stroke-miterlimit:10;}
	.st12{font-size:49.0564px;}
	.st13{fill:#444AB4;}
	.st14{fill:#F6AB78;}
	.st15{fill:none;stroke:#A96C42;stroke-width:1.2156;stroke-miterlimit:10;}
	.st16{fill:#897FD3;}
	.st17{fill:#DADBF0;}
	.st18{fill:none;stroke:#44555B;stroke-width:1.3312;stroke-miterlimit:10;}
	.st19{fill:none;stroke:#A5ABFF;stroke-miterlimit:10;}
	.st20{fill:none;stroke:#A96C42;stroke-miterlimit:10;}
	.st21{fill:#A4C4FF;}
	.st22{fill:none;stroke:#FEFEFE;stroke-width:13;stroke-linecap:round;stroke-miterlimit:10;}
	.st23{fill:none;stroke:#444AB4;stroke-linecap:round;stroke-miterlimit:10;}
	.st24{fill:none;stroke:#444AB4;stroke-linecap:round;stroke-miterlimit:10;stroke-dasharray:12.1399,12.1399;}
	.st25{fill:#1F2E48;}
	.st26{fill:#FF9A63;}
	.st27{opacity:0.08;}
	.st28{fill:none;stroke:#FEFEFE;stroke-width:4.2672;stroke-miterlimit:10;}
	.st29{fill:#A5ABFF;}
	.st30{fill:#FFA8DC;}
	.st31{fill:#FF9A63;stroke:#603913;stroke-width:1.107;stroke-miterlimit:10;}
</style>
<g id="Bg">
	<g>
		<path class="st0" d="M492.28,859.83C428.79,818.5,388.07,747.85,371.9,673.85c-16.82-77.01-7.94-161.57,35.01-227.67
			S529.58,336.3,607.75,346.5c42.87,5.59,85.52,26.3,127.55,16.16c61.91-14.93,88.47-85.49,125.58-137.24
			c70.51-98.33,212.56-139.35,323-89.92c12.64,5.66,25.14,12.59,33.97,23.26c23.42,28.27,13.85,71.76,30,104.72
			c12.63,25.77,39.53,41.74,66.91,50.32s56.29,11.23,84.02,18.6c77.25,20.54,143.13,79.88,171.6,154.58s18.82,162.83-25.15,229.58
			c-27.31,41.46-71.68,76.24-121.31,74.84c-23.8-0.67-46.88-9.55-70.68-9.43c-82.3,0.41-128.18,100.29-205.76,127.77
			c-66.78,23.66-139.05-11.49-199.32-48.75c-33.49-20.7-69.11-43.19-108.46-41.98c-45.82,1.41-83.61,34.21-124.74,54.45
			c-67.81,33.35-151.66,31.87-218.24-3.85"/>
	</g>
</g>
<g id="Dollar">
	<g class="st1">
		<circle class="st2" cx="459.76" cy="523.78" r="50.58"/>
		<g>
			<text transform="matrix(1 0 0 1 431.4639 554.5929)" class="st3 st4 st5">$</text>
		</g>
	</g>
</g>
<g id="Dollar_00000000190774312725120420000007426755800945455238_">
	<g>
		<circle class="st2" cx="823.35" cy="299.03" r="50.58"/>
		<g>
			<text transform="matrix(1 0 0 1 796.056 329.8401)" class="st3 st4 st5">$</text>
		</g>
	</g>
</g>
<g id="Dollar_00000115513875992859957170000002270161877719512237_">
	<g>
		<circle class="st2" cx="1028.89" cy="872.12" r="50.58"/>
		<g>
			<text transform="matrix(1 0 0 1 1001.5969 902.9364)" class="st3 st4 st5">$</text>
		</g>
	</g>
</g>
<g id="Dollar_00000117639638362109901500000008431062319627207556_">
	<g class="st6">
		<circle class="st2" cx="1520.37" cy="673.68" r="50.58"/>
		<g>
			<text transform="matrix(1 0 0 1 1493.0779 704.4907)" class="st3 st4 st5">$</text>
		</g>
	</g>
</g>
<g id="Dollar_00000097473157466249014490000011384314613550606721_">
	<g>
		
			<rect x="926.52" y="332.89" transform="matrix(0.7404 0.6722 -0.6722 0.7404 485.7592 -573.1957)" class="st7" width="116.69" height="18.64"/>
		
			<ellipse transform="matrix(0.6872 -0.7264 0.7264 0.6872 53.9307 820.4091)" class="st7" cx="979.71" cy="347.57" rx="18.98" ry="58.36"/>
		
			<ellipse transform="matrix(0.6872 -0.7264 0.7264 0.6872 64.9303 824.4974)" class="st7" cx="989.95" cy="336.85" rx="18.98" ry="58.36"/>
		<path class="st8" d="M1032.73,376.3c-7.2,7.62-32.03-4.17-55.44-26.32c-23.41-22.15-36.55-46.28-29.35-53.9"/>
		<g>
			<text transform="matrix(-0.2805 0.2798 -0.7062 -0.708 980.2976 312.7245)" class="st9 st4 st10">$</text>
		</g>
		<line class="st8" x1="947.32" y1="308" x2="936.46" y2="318.86"/>
		<line class="st8" x1="953.13" y1="320.07" x2="942.86" y2="330.28"/>
		<line class="st8" x1="959.58" y1="331.71" x2="949.3" y2="341.93"/>
		<line class="st8" x1="968.54" y1="342.2" x2="958.85" y2="351.78"/>
		<line class="st8" x1="975.24" y1="351.29" x2="965.54" y2="360.87"/>
		<line class="st8" x1="984.54" y1="358.09" x2="974.85" y2="367.67"/>
		<line class="st8" x1="992.37" y1="365.19" x2="982.67" y2="374.77"/>
		<line class="st8" x1="1002.21" y1="371.69" x2="992.52" y2="381.27"/>
		<line class="st8" x1="1012.18" y1="375.64" x2="1002.48" y2="385.22"/>
		<line class="st8" x1="1023.35" y1="379.38" x2="1013.65" y2="388.96"/>
	</g>
</g>
<g id="Dollar_00000178917098047759894620000009523065414444199042_">
	<g>
		
			<rect x="1238.45" y="166.36" transform="matrix(0.9938 -0.111 0.111 0.9938 -11.3134 143.3296)" class="st7" width="86.85" height="13.88"/>
		
			<ellipse transform="matrix(0.9959 -0.0906 0.0906 0.9959 -10.9281 116.9372)" class="st7" cx="1282.33" cy="178.82" rx="43.43" ry="14.13"/>
		
			<ellipse transform="matrix(0.9959 -0.0906 0.0906 0.9959 -9.9351 116.806)" class="st7" cx="1281.38" cy="167.82" rx="43.43" ry="14.13"/>
		<path class="st11" d="M1324.46,163.35c0.71,7.77-18.09,15.83-41.97,18c-23.89,2.17-43.83-2.36-44.53-10.13"/>
		<g>
			<text transform="matrix(0.0244 0.3954 -0.9981 0.0616 1263.1388 161.302)" class="st9 st4 st12">$</text>
		</g>
		<line class="st11" x1="1244.3" y1="177.43" x2="1245.02" y2="188.83"/>
		<line class="st11" x1="1253.9" y1="180.12" x2="1254.54" y2="190.88"/>
		<line class="st11" x1="1263.57" y1="182.25" x2="1264.22" y2="193.02"/>
		<line class="st11" x1="1273.84" y1="182.41" x2="1274.42" y2="192.53"/>
		<line class="st11" x1="1282.21" y1="183.14" x2="1282.79" y2="193.27"/>
		<line class="st11" x1="1290.58" y1="181.29" x2="1291.16" y2="191.42"/>
		<line class="st11" x1="1298.4" y1="180.42" x2="1298.98" y2="190.54"/>
		<line class="st11" x1="1306.87" y1="178.12" x2="1307.45" y2="188.25"/>
		<line class="st11" x1="1313.98" y1="174.5" x2="1314.56" y2="184.63"/>
		<line class="st11" x1="1321.57" y1="170.1" x2="1322.15" y2="180.23"/>
	</g>
</g>
<g id="Dollar_00000016065825891020160170000012123234797079443882_">
	<g>
		
			<rect x="883.36" y="738.19" transform="matrix(0.9938 -0.111 0.111 0.9938 -76.9676 107.4553)" class="st7" width="86.85" height="13.88"/>
		
			<ellipse transform="matrix(0.9959 -0.0906 0.0906 0.9959 -64.2072 87.1129)" class="st7" cx="927.25" cy="750.65" rx="43.43" ry="14.13"/>
		
			<ellipse transform="matrix(0.9959 -0.0906 0.0906 0.9959 -63.2142 86.9817)" class="st7" cx="926.3" cy="739.65" rx="43.43" ry="14.13"/>
		<path class="st11" d="M969.37,735.18c0.71,7.77-18.09,15.83-41.97,18s-43.83-2.36-44.53-10.13"/>
		<g>
			<text transform="matrix(0.0244 0.3954 -0.9981 0.0616 908.0524 733.1376)" class="st9 st4 st12">$</text>
		</g>
		<line class="st11" x1="889.21" y1="749.27" x2="889.93" y2="760.67"/>
		<line class="st11" x1="898.81" y1="751.96" x2="899.46" y2="762.72"/>
		<line class="st11" x1="908.48" y1="754.09" x2="909.13" y2="764.85"/>
		<line class="st11" x1="918.75" y1="754.24" x2="919.33" y2="764.37"/>
		<line class="st11" x1="927.12" y1="754.98" x2="927.7" y2="765.1"/>
		<line class="st11" x1="935.5" y1="753.13" x2="936.08" y2="763.25"/>
		<line class="st11" x1="943.31" y1="752.25" x2="943.89" y2="762.38"/>
		<line class="st11" x1="951.79" y1="749.95" x2="952.36" y2="760.08"/>
		<line class="st11" x1="958.9" y1="746.33" x2="959.47" y2="756.46"/>
		<line class="st11" x1="966.48" y1="741.94" x2="967.06" y2="752.06"/>
	</g>
</g>
<g id="Dollar_00000139257347506637659730000007780998258016047272_">
	<g>
		
			<rect x="1374.1" y="520.48" transform="matrix(0.8375 0.5464 -0.5464 0.8375 518.5119 -688.8597)" class="st7" width="86.85" height="13.88"/>
		
			<ellipse transform="matrix(0.5634 -0.8262 0.8262 0.5634 177.971 1400.7306)" class="st7" cx="1414.37" cy="531.97" rx="14.13" ry="43.43"/>
		
			<ellipse transform="matrix(0.5634 -0.8262 0.8262 0.5634 188.2183 1401.9368)" class="st7" cx="1420.63" cy="522.87" rx="14.13" ry="43.43"/>
		<path class="st11" d="M1456.72,546.82c-4.4,6.45-24.02,0.71-43.84-12.8c-19.82-13.52-32.32-29.7-27.92-36.14"/>
		<g>
			<text transform="matrix(-0.2326 0.3207 -0.8094 -0.5872 1410.6909 506.2777)" class="st9 st4 st12">$</text>
		</g>
		<line class="st11" x1="1385.9" y1="506.71" x2="1379.21" y2="515.97"/>
		<line class="st11" x1="1391.6" y1="514.89" x2="1385.25" y2="523.61"/>
		<line class="st11" x1="1397.7" y1="522.69" x2="1391.36" y2="531.41"/>
		<line class="st11" x1="1405.53" y1="529.34" x2="1399.54" y2="537.52"/>
		<line class="st11" x1="1411.52" y1="535.23" x2="1405.53" y2="543.41"/>
		<line class="st11" x1="1419.16" y1="539.12" x2="1413.17" y2="547.31"/>
		<line class="st11" x1="1425.75" y1="543.42" x2="1419.75" y2="551.6"/>
		<line class="st11" x1="1433.75" y1="547.04" x2="1427.76" y2="555.22"/>
		<line class="st11" x1="1441.54" y1="548.76" x2="1435.54" y2="556.95"/>
		<line class="st11" x1="1450.19" y1="550.19" x2="1444.2" y2="558.38"/>
	</g>
</g>
<g id="Line">
	<g>
		<path class="st13" d="M1016.48,184.48l49.78,40.21l-53.87-34.53C1008.38,187.38,1012.56,181.56,1016.48,184.48L1016.48,184.48z"/>
	</g>
	<g>
		<path class="st13" d="M1095.96,141.34l-2.94,63.92l-4.05-63.86C1088.84,136.53,1096,136.45,1095.96,141.34L1095.96,141.34z"/>
	</g>
	<g>
		<path class="st13" d="M1043.3,141.18l33.26,72.7l-39.49-69.51C1034.84,140.09,1041.13,136.85,1043.3,141.18L1043.3,141.18z"/>
	</g>
</g>
<g id="R_Hand">
	<path class="st14" d="M1462.45,982.35l-36.99-74.23c-12.72-24.83-23.24-50.72-31.44-77.38l0.26-36.03
		c-1.56-5.07-6.62-10.19-10.47-13.84c-12.99-12.32-43.14-44.1-94.9-32.94c-46.36,10-85.19,41.44-87.19,66.77
		c-0.54,6.78,11.5,18.78,14.03,25.1l7.59,18.97l7,26.25c6.01,22.52,9.8,45.57,11.34,68.83l-0.64,27.91L1462.45,982.35z"/>
</g>
<g id="R_Hand_00000032630069670808772640000008594343494509155462_">
	<g>
		<path class="st14" d="M1183.81,803.22c-24.33-22.62-54.12-62-61.54-94.37c-7.42-32.38,3.36-70.68,32.08-87.35
			c18.91-10.98,42.01-11.21,63.85-10.18c25.22,1.2,50.84,3.8,74.11,13.61c23.27,9.8,44.16,27.8,52.18,51.75
			c6.88,20.54,4.83,43.69,3.2,64.91c-1.89,24.59-2.11,56.85-13.15,79.37c-9.46,19.27-38.23,24.02-56.79,28.9
			c-17.08,4.5-40.93,10.64-52.03-3.67C1206.26,821.09,1198.31,816.7,1183.81,803.22z"/>
		<path class="st15" d="M1254.2,810.65c0,0-41,42.38-102.28-43.65"/>
	</g>
</g>
<g id="R_Finger">
	<g>
		<path class="st14" d="M1085.35,715.54c-2.52,3.39-7.82,2.63-11.64,0.83c-15.39-7.23-23.81-25.95-20.66-42.66
			c3.14-16.71,16.65-30.57,32.8-35.91c0.24,15.04,2.85,29.76,3.58,44.7C1089.83,690.89,1090.24,708.97,1085.35,715.54z"/>
		<path class="st14" d="M1082.61,424.86c-7.3-2.99-14.94-5.88-22.81-5.46c-7.88,0.41-16.07,5.02-18.23,12.6
			c-2.31,8.16,2.78,16.44,8.04,23.09c15.07,19.06,33.59,35.38,54.4,47.92c1.57,0.95,23.13-19.59,25.34-21.82
			c6.86-6.89,10.9-13.13,6.27-22.64C1127.21,441.22,1099.14,431.62,1082.61,424.86z"/>
		<path class="st14" d="M1078.47,498.49l-47.49,31.66c0,0-16.76,12.1-5.3,23.2c9.65,9.34,56.51,11.25,56.51,11.25L1078.47,498.49z"
			/>
		<path class="st14" d="M1082.2,572.98c0,0-38.56,6.52-44.84,28.86l-4.04,68.57c-0.38,6.38,4.07,12.18,10.39,13.12
			c7.22,1.08,17.07-2.07,26.39-20.24l12.1-20.93V572.98z"/>
	</g>
</g>
<g id="Phone">
	<g>
		<g>
			<g>
				<g>
					<g>
						<g>
							<g>
								<g>
									<path class="st16" d="M1103.3,705.2l167.9-0.1c20.19-0.01,36.56-16.39,36.55-36.58l-0.08-420.93
										c0-20.2-16.39-36.58-36.59-36.57l-167.9,0.1c-20.19,0.01-36.56,16.39-36.55,36.58l0.08,420.93
										C1066.71,688.84,1083.1,705.22,1103.3,705.2z"/>
								</g>
							</g>
						</g>
					</g>
				</g>
			</g>
			<g>
				<g>
					<g>
						<g>
							<g>
								<g>
									<g>
										<g>
											<g>
												<path class="st3" d="M1103.36,226.02l32.55-0.02c4.37,0,7.91,3.7,7.91,8.26l0,5.9c0,4.56,3.54,8.26,7.91,8.26
													l63.45-0.04c4.37,0,7.9-3.7,7.9-8.27l0-5.9c0-4.56,3.54-8.27,7.9-8.27l11.45-0.01l28.49-0.02
													c14.15-0.01,25.63,11.46,25.63,25.61l0.08,410.86c0,14.14-11.46,25.61-25.6,25.62l-167.56,0.1
													c-14.15,0.01-25.63-11.46-25.63-25.61l-0.08-410.86C1077.75,237.49,1089.21,226.02,1103.36,226.02z"/>
											</g>
										</g>
									</g>
								</g>
							</g>
						</g>
					</g>
				</g>
			</g>
			<g>
				<g>
					<path class="st17" d="M1103.36,226.02l32.55-0.02c4.37,0,7.91,3.7,7.91,8.26l0,5.9c0,4.56,3.54,8.26,7.91,8.26l63.45-0.04
						c4.37,0,7.9-3.7,7.9-8.27l0-5.9c0-4.56,3.54-8.27,7.9-8.27l11.45-0.01l28.49-0.02c14.15-0.01,25.63,11.46,25.63,25.61
						l0.08,20.16l-218.87-1.21v-18.85C1077.75,237.49,1089.21,226.02,1103.36,226.02z"/>
				</g>
			</g>
			<g>
				<g>
					<g>
						<path class="st18" d="M1160.99,269.69"/>
					</g>
				</g>
			</g>
		</g>
		<path class="st19" d="M1257.38,568h-132.43c-8.02,0-14.53-6.5-14.53-14.53v-27.04c0-8.02,6.5-14.53,14.53-14.53h132.43
			c8.02,0,14.53,6.5,14.53,14.53v27.04C1271.91,561.5,1265.41,568,1257.38,568z"/>
	</g>
	<g id="Layer_7">
		<path class="st20" d="M1070.56,632.22c0,0-19.47,23.96-16.62,50.93"/>
		<g>
			
				<rect x="1269.92" y="243.32" transform="matrix(-1 -4.492596e-11 4.492596e-11 -1 2542.6318 500.1318)" class="st16" width="2.79" height="13.49"/>
			
				<rect x="1265.55" y="246.96" transform="matrix(-1 -4.492596e-11 4.492596e-11 -1 2533.8884 503.7736)" class="st16" width="2.79" height="9.85"/>
			
				<rect x="1260.89" y="249.32" transform="matrix(-1 -4.460044e-11 4.460044e-11 -1 2524.5762 506.1345)" class="st16" width="2.79" height="7.49"/>
			
				<rect x="1256.23" y="252.46" transform="matrix(-1 -4.492596e-11 4.492596e-11 -1 2515.2612 508.9227)" class="st16" width="2.79" height="4"/>
		</g>
		<g>
			
				<rect x="1103.5" y="247.12" transform="matrix(-1 -4.491220e-11 4.491220e-11 -1 2224.7134 502.9525)" class="st16" width="17.72" height="8.71"/>
			
				<rect x="1119.16" y="248.7" transform="matrix(-1 -4.487090e-11 4.487090e-11 -1 2242.637 502.5442)" class="st16" width="4.32" height="5.14"/>
		</g>
	</g>
</g>
<g id="R_Thumb">
	<g>
		<g>
			<path class="st14" d="M1216.87,815.63"/>
			<path class="st14" d="M1251.91,751.64c-0.08-1.28-1.48-1.25-0.23-2.23c0.72-0.57,1.14-1.45,1.18-2.37
				c1.65-34.63,3.58-70.47,19.32-101.37c5.09-10,11.58-19.36,15.24-29.96c2.27-6.58,3.4-13.49,4.51-20.36
				c3.75-23.08,7.23-48.04-3.53-68.81c-14.97-28.91-8.71-67.45,15.24-89.73c2.16-2.01,5.02-3.17,7.96-3.03
				c6.6,0.32,8.65,6.67,9.99,12.12c14.4,58.36,32.2,115.89,53.28,172.18c3.61,9.63,7.32,19.25,9.81,29.23
				c3.61,14.44,4.61,29.38,5.59,44.23l5.36,80.9c0.05,0.83,0.1,1.65,0.13,2.48c3.02,77.8-106.14,99.08-133.87,26.33
				C1256.79,787.86,1253.15,771.54,1251.91,751.64z"/>
			<path class="st15" d="M1306.76,433.75c0,0-38.03,32.65-24.89,78.48c0,0,16.14,26.36,13.89,64.67l-4.42,21.97
				c-1.26,9.03-2.82,13.06-8.45,25.44c-8.01,17.63-26.66,45.4-28.29,93.59"/>
		</g>
		<path class="st15" d="M1321.59,445.91c0,0-15.94,13.59-7,38.64l7,26.32l15.42-7.27"/>
	</g>
</g>
<g id="Cricle">
	<circle class="st21" cx="1191.75" cy="420.85" r="70.13"/>
</g>
<g id="Mark">
	<polyline class="st22" points="1155.83,420.11 1187.76,445.78 1227.91,388.73 	"/>
</g>
<g id="Layer_13">
	<g>
		<g>
			<path class="st23" d="M806.56,601.51c-1.93-0.55-3.84-1.15-5.72-1.81"/>
			<path class="st24" d="M789.65,595.02c-52.65-25.75-81.89-95-59.55-150.05c24.63-60.7,106.26-90.07,163.92-58.99
				c16.82,9.07,32.47,24.67,32.61,43.78c0.14,19.11-23.63,36.47-38.86,24.92c-3.99-3.02-6.73-7.4-9.03-11.84
				c-25.59-49.35-3.4-113.77,39.73-148.85c40.01-32.55,93.32-43.79,145.19-43.82"/>
			<path class="st23" d="M1069.74,250.22c2,0.03,4,0.08,6,0.15"/>
		</g>
	</g>
</g>
<g id="Layer_1">
</g>
<g id="Layer_6">
	<rect x="267.08" y="983.13" class="st25" width="1349.62" height="3.33"/>
</g>
<g id="L_Hand">
	<path class="st26" d="M640.92,982.36c0,0,37.41-80.83,37.24-89.86c-2.68-137.82-155.95-26.28-155.95-26.28l-83.09,116.24
		L640.92,982.36z"/>
</g>
<g id="L_Hand_Part">
	<path class="st26" d="M522.21,910.31l-11.87-23.74c0,0,8.32-151.28,23.15-225.12c0.77-3.82,2.04-7.53,3.8-11l56.8-111.95
		l129.92,224.28l-42.4,113.62c0,0-10.17,59.35-30.52,71.22S569.7,986.62,522.21,910.31z"/>
</g>
<g id="Phone_00000162350264039982180820000004083907832646678660_">
	<g>
		<g>
			<g>
				<g>
					<g class="st27">
						<polygon class="st16" points="607.41,498.06 847.97,858.96 786.45,468.98 						"/>
					</g>
					<g>
						<g>
							<path class="st16" d="M838.26,881.84l-182.99,29.72c-11.57,1.88-22.47-5.98-24.35-17.54l-65.45-403.06
								c-1.88-11.57,5.98-22.47,17.54-24.35l182.99-29.72c11.57-1.88,22.47,5.98,24.35,17.54l65.45,403.06
								C857.69,869.06,849.83,879.96,838.26,881.84z"/>
						</g>
						<g>
							<path class="st3" d="M836.27,874.74l-181.82,29.53c-8.64,1.4-16.79-4.47-18.19-13.11l-65.01-400.34
								c-1.4-8.64,4.47-16.79,13.11-18.19l181.82-29.53c8.64-1.4,16.79,4.47,18.19,13.11l65.01,400.34
								C850.79,865.19,844.92,873.33,836.27,874.74z"/>
						</g>
						<g>
							<path class="st17" d="M573.33,503.59l213.12-34.61c0,0,1.38-30.14-26.33-25.64L586.96,472.2
								C586.96,472.2,565.19,475,573.33,503.59z"/>
						</g>
						<g>
							<path class="st3" d="M698.93,469.58l-50.52,8.2c-1.06,0.17-2.07-0.55-2.24-1.61l-0.07-0.41c-0.17-1.06,0.55-2.07,1.61-2.24
								l50.52-8.2c1.06-0.17,2.07,0.55,2.24,1.61l0.07,0.41C700.72,468.4,700,469.4,698.93,469.58z"/>
						</g>
						<g>
							<path class="st16" d="M708.7,456.93l-63.37,10.29c-1.97,0.32-3.83-1.02-4.16-2.99l-0.12-0.76c-0.32-1.97,1.02-3.83,2.99-4.16
								l63.37-10.29c1.97-0.32,3.83,1.02,4.16,2.99l0.12,0.76C712.01,454.75,710.67,456.61,708.7,456.93z"/>
						</g>
						<g>
							<g>
								
									<rect x="592.72" y="483.15" transform="matrix(0.9871 -0.1603 0.1603 0.9871 -70.758 101.5508)" class="st16" width="2.68" height="12.4"/>
							</g>
							<g>
								
									<rect x="597.12" y="485.8" transform="matrix(0.9871 -0.1603 0.1603 0.9871 -70.8581 102.2698)" class="st16" width="2.68" height="9.05"/>
							</g>
							<g>
								
									<rect x="601.7" y="487.24" transform="matrix(0.9871 -0.1603 0.1603 0.9871 -70.8559 103.0087)" class="st16" width="2.68" height="6.88"/>
							</g>
							<g>
								
									<rect x="606.32" y="489.39" transform="matrix(0.9871 -0.1603 0.1603 0.9871 -70.8842 103.7553)" class="st16" width="2.68" height="3.68"/>
							</g>
						</g>
						<g>
							<g>
								
									<rect x="749.3" y="459.17" transform="matrix(0.9871 -0.1603 0.1603 0.9871 -64.4454 127.4593)" class="st16" width="16.99" height="8.01"/>
							</g>
							<g>
								
									<rect x="747.22" y="462.01" transform="matrix(0.9871 -0.1603 0.1603 0.9871 -64.7466 126.1102)" class="st16" width="4.14" height="4.72"/>
							</g>
						</g>
						<g>
							<path class="st17" d="M637.84,893.08l210.12-34.12c0,0,4.13,13.88-17.24,16.68l-165.35,26.7
								C665.37,902.34,648.61,910.95,637.84,893.08z"/>
						</g>
						<g>
							
								<rect x="700.51" y="871.75" transform="matrix(0.9871 -0.1603 0.1603 0.9871 -130.1279 131.1261)" class="st13" width="94.36" height="0.74"/>
						</g>
					</g>
				</g>
				<g>
					<polyline class="st16" points="606.17,515.66 598.36,524.62 601.98,524.31 603.05,531.91 614.13,530.18 612.73,522.56 
						616.06,521.75 606.38,515.71 					"/>
				</g>
				<g>
					
						<rect x="639.82" y="510.25" transform="matrix(0.9871 -0.1603 0.1603 0.9871 -73.1911 117.4693)" class="st16" width="103.38" height="4.27"/>
				</g>
			</g>
			<path class="st16" d="M578.22,574.52l-0.56,0.11c-1.45,0.29-2.86-0.65-3.16-2.1l-2.95-14.69c-0.29-1.45,0.65-2.86,2.1-3.16
				l0.56-0.11c1.45-0.29,2.86,0.65,3.16,2.1l2.95,14.69C580.61,572.81,579.67,574.23,578.22,574.52z"/>
			<path class="st16" d="M592.75,663.39l-0.57,0.1c-1.46,0.25-2.85-0.72-3.1-2.18l-2.57-14.77c-0.25-1.46,0.72-2.85,2.18-3.1
				l0.57-0.1c1.46-0.25,2.85,0.72,3.1,2.18l2.57,14.77C595.18,661.75,594.21,663.13,592.75,663.39z"/>
			<path class="st16" d="M587.64,627.08l-0.56,0.1c-1.46,0.27-2.85-0.7-3.12-2.15l-4.35-23.66c-0.27-1.46,0.7-2.85,2.15-3.12
				l0.56-0.1c1.46-0.27,2.85,0.7,3.12,2.15l4.35,23.66C590.06,625.41,589.1,626.81,587.64,627.08z"/>
		</g>
		<circle class="st21" cx="733.08" cy="762.26" r="43.26"/>
		<path class="st19" d="M803.46,832.97l-117.63,21.75c-3.6,0.66-7.05-1.71-7.71-5.31l-2.75-14.87c-0.66-3.6,1.71-7.05,5.31-7.71
			l117.63-21.75c3.6-0.66,7.05,1.71,7.71,5.31l2.75,14.87C809.43,828.85,807.06,832.3,803.46,832.97z"/>
	</g>
</g>
<g id="Mark_00000086689915706006644990000001325970332279722661_">
	<polyline class="st28" points="704.32,762.97 729.34,783.08 760.79,738.39 	"/>
</g>
<g id="Card">
	<g>
		<g>
			<path class="st29" d="M943.18,662.76l-256.16,45.18c-13.21,2.33-25.82-6.49-28.15-19.71l-20.85-118.21
				c-2.33-13.21,6.49-25.82,19.71-28.15l256.16-45.18c13.21-2.33,25.82,6.49,28.15,19.71l20.85,118.21
				C965.21,647.83,956.39,660.43,943.18,662.76z"/>
			<path class="st3" d="M766.63,564.68l-103.84,18.32c-2.64,0.47-5.15-1.3-5.62-3.93l-1.44-8.16c-0.47-2.64,1.3-5.15,3.93-5.62
				l103.84-18.32c2.64-0.47,5.15,1.3,5.62,3.93l1.44,8.16C771.03,561.7,769.27,564.21,766.63,564.68z"/>
			
				<rect x="828.82" y="650.37" transform="matrix(0.9848 -0.1737 0.1737 0.9848 -101.6253 156.6653)" class="st30" width="31" height="17.24"/>
			
				<rect x="870.05" y="643.1" transform="matrix(0.9848 -0.1737 0.1737 0.9848 -99.7354 163.7167)" class="st13" width="31" height="17.24"/>
			
				<rect x="911.29" y="635.82" transform="matrix(0.9848 -0.1737 0.1737 0.9848 -97.8456 170.7681)" class="st3" width="31" height="17.24"/>
		</g>
		
			<rect x="670.04" y="646.09" transform="matrix(0.9846 -0.1748 0.1748 0.9846 -102.7552 132.2083)" class="st3" width="58.28" height="6.72"/>
		
			<rect x="732.12" y="635.07" transform="matrix(0.9846 -0.1748 0.1748 0.9846 -99.8727 142.8912)" class="st3" width="58.28" height="6.72"/>
		
			<rect x="794.21" y="624.04" transform="matrix(0.9846 -0.1748 0.1748 0.9846 -96.9903 153.5741)" class="st3" width="58.28" height="6.72"/>
		
			<rect x="856.3" y="613.02" transform="matrix(0.9846 -0.1748 0.1748 0.9846 -94.1078 164.257)" class="st3" width="58.28" height="6.72"/>
	</g>
</g>
<g id="L_Thumb">
	<path class="st31" d="M566.32,748.77l20.35-20.93l8.48-31.64c0,0,8.48-52.57,27.13-51.72c0,0,22.89,0,24.59,28.83
		c1.7,28.83,0.52,52.31-5.42,70.12c0,0,30.85,107.65-40.37,136.63"/>
	<path class="st31" d="M602.64,694.86l31.36,6.78c0,0,6.85-32.46-3.97-39.85c-10.82-7.39-18.15-1.7-21.37,8.48
		S602.64,694.86,602.64,694.86z"/>
</g>
<g id="Dollar_00000167376207262142959460000015559743766289463711_">
	<g>
		
			<rect x="1278.68" y="332.89" transform="matrix(0.865 -0.5018 0.5018 0.865 8.8064 717.1485)" class="st7" width="116.69" height="18.64"/>
		
			<ellipse transform="matrix(0.8751 -0.484 0.484 0.8751 -1.3129 692.4269)" class="st7" cx="1340.57" cy="348.76" rx="58.36" ry="18.98"/>
		
			<ellipse transform="matrix(0.8751 -0.484 0.484 0.8751 4.0981 687.3547)" class="st7" cx="1333.45" cy="335.74" rx="58.36" ry="18.98"/>
		<path class="st8" d="M1384.01,306.93c5.07,9.17-13.68,29.26-41.88,44.86c-28.2,15.6-55.18,20.81-60.26,11.64"/>
		<g>
			<text transform="matrix(0.1816 0.3521 -0.8888 0.4584 1307.5676 337.6324)" class="st9 st4 st10">$</text>
		</g>
		<line class="st8" x1="1293.05" y1="367.63" x2="1300.1" y2="381.26"/>
		<line class="st8" x1="1306.3" y1="365.75" x2="1312.93" y2="378.63"/>
		<line class="st8" x1="1319.36" y1="363.13" x2="1325.98" y2="376.02"/>
		<line class="st8" x1="1332.07" y1="357.77" x2="1338.26" y2="369.91"/>
		<line class="st8" x1="1342.76" y1="354.14" x2="1348.95" y2="366.29"/>
		<line class="st8" x1="1352.06" y1="347.33" x2="1358.25" y2="359.47"/>
		<line class="st8" x1="1361.2" y1="342.03" x2="1367.39" y2="354.17"/>
		<line class="st8" x1="1370.38" y1="334.62" x2="1376.57" y2="346.76"/>
		<line class="st8" x1="1377.16" y1="326.32" x2="1383.35" y2="338.46"/>
		<line class="st8" x1="1384.11" y1="316.81" x2="1390.3" y2="328.95"/>
	</g>
</g>
<g id="Dollar_00000108297416697775678040000000039498603297397161_">
	<g>
		
			<rect x="1044.14" y="639.68" transform="matrix(0.9511 -0.3089 0.3089 0.9511 -146.5478 372.2465)" class="st7" width="116.69" height="18.64"/>
		
			<ellipse transform="matrix(0.9572 -0.2893 0.2893 0.9572 -142.601 347.6572)" class="st7" cx="1104.58" cy="656.15" rx="58.36" ry="18.98"/>
		
			<ellipse transform="matrix(0.9572 -0.2893 0.2893 0.9572 -138.6667 345.8263)" class="st7" cx="1100.36" cy="641.93" rx="58.36" ry="18.98"/>
		<path class="st8" d="M1155.84,624.39c3.03,10.03-19.52,25.73-50.37,35.05s-58.32,8.75-61.36-1.28"/>
		<g>
			<text transform="matrix(0.1036 0.3824 -0.9652 0.2614 1074.6493 638.337)" class="st9 st4 st10">$</text>
		</g>
		<line class="st8" x1="1054.15" y1="664.62" x2="1058.19" y2="679.43"/>
		<line class="st8" x1="1067.51" y1="665.56" x2="1071.28" y2="679.55"/>
		<line class="st8" x1="1080.82" y1="665.75" x2="1084.59" y2="679.74"/>
		<line class="st8" x1="1094.38" y1="663.17" x2="1097.88" y2="676.34"/>
		<line class="st8" x1="1105.59" y1="661.88" x2="1109.09" y2="675.05"/>
		<line class="st8" x1="1116.11" y1="657.17" x2="1119.62" y2="670.34"/>
		<line class="st8" x1="1126.16" y1="653.91" x2="1129.66" y2="667.08"/>
		<line class="st8" x1="1136.69" y1="648.59" x2="1140.19" y2="661.76"/>
		<line class="st8" x1="1145.07" y1="641.9" x2="1148.57" y2="655.07"/>
		<line class="st8" x1="1153.86" y1="634.06" x2="1157.36" y2="647.23"/>
	</g>
</g>
</svg>
