<?xml version="1.0" encoding="utf-8"?>
<svg version="1.1" xmlns="http://www.w3.org/2000/svg" xmlns:xlink="http://www.w3.org/1999/xlink" x="0px" y="0px"
	 viewBox="0 0 1920 1080" style="enable-background:new 0 0 1920 1080;" xml:space="preserve">
<style type="text/css">
	.st0{fill:#EDEEFF;}
	.st1{fill:#A5ABFF;}
	.st2{fill:none;stroke:#A5ABFF;stroke-width:0.7273;stroke-miterlimit:10;}
	.st3{fill:none;stroke:#A5ABFF;stroke-miterlimit:10;}
	.st4{opacity:0.47;}
	.st5{fill:#B4C6FF;}
	.st6{fill:#FFFFFF;}
	.st7{font-family:'Anybody-Bold';}
	.st8{font-size:90.5551px;}
	.st9{fill:#FDC93A;}
	.st10{fill:none;stroke:#FCAE1D;stroke-width:0.6213;stroke-miterlimit:10;}
	.st11{fill:#FCAE1D;}
	.st12{font-size:55.0134px;}
	.st13{fill:none;stroke:#1F2E48;stroke-width:0.5;stroke-miterlimit:10;}
	.st14{fill:#83A4FF;}
	.st15{fill:#4A66B2;}
	.st16{fill:none;stroke:#FCAE1D;stroke-width:0.7667;stroke-miterlimit:10;}
	.st17{font-size:61.8346px;}
	.st18{fill:none;stroke:#FCAE1D;stroke-width:0.6766;stroke-miterlimit:10;}
	.st19{font-size:51.8028px;}
	.st20{fill:#A4C4FF;}
	.st21{fill:#FEFEFE;}
	.st22{fill:#444AB4;}
	.st23{fill:none;stroke:#091014;stroke-width:1.3467;stroke-miterlimit:10;}
	.st24{fill:#F6AB78;}
	.st25{fill:none;stroke:#D2D5DA;stroke-width:0.9971;stroke-miterlimit:10;}
	.st26{fill:#1F2E48;}
	.st27{fill:#D2D5DA;}
	.st28{fill:none;stroke:#FFFFFF;stroke-width:0.9971;stroke-miterlimit:10;}
	.st29{fill:#FFA8DC;}
	.st30{fill:none;stroke:#A96C42;stroke-width:0.8417;stroke-miterlimit:10;}
	.st31{fill:none;stroke:#1F2E48;stroke-width:0.8417;stroke-miterlimit:10;}
	.st32{fill:#091014;}
	.st33{fill:none;stroke:#35281F;stroke-width:0.2901;stroke-miterlimit:10;}
	.st34{fill:none;stroke:#000100;stroke-width:0.2901;stroke-miterlimit:10;}
	.st35{fill:#000100;}
	.st36{fill:#A96C42;}
	.st37{opacity:0.08;fill:#897FD3;}
	.st38{fill:#897FD3;}
	.st39{fill:#DADBF0;}
	.st40{fill:none;stroke:#444AB4;stroke-width:1.14;stroke-miterlimit:10;}
	.st41{fill:none;stroke:#FEFEFE;stroke-width:5;stroke-miterlimit:10;}
	.st42{fill:none;stroke:#1F2E48;stroke-width:2.1811;stroke-miterlimit:10;}
</style>
<g id="Bg">
	<g>
		<path class="st0" d="M1403.38,986.23c110.8-140.62,159.9-317.17,132.23-494.04c-16.78-107.24-68.39-218.24-166.43-264.81
			c-30.86-14.66-64.74-22.13-98.73-25.56c-52.41-5.3-106-1.14-156.26,14.63c-93.6,29.37-172.06,98.58-222.25,182.87
			c-19.82,33.29-35.76,69.21-60.28,99.22c-53.51,65.5-142.19,94.29-226.77,93.55c-34.62-0.31-69.21-4.97-103.77-2.95
			c-90.3,5.26-177.56,61-214.4,143.61s-17.77,192.64,49.86,252.71L1403.38,986.23"/>
	</g>
</g>
<g id="Wheel">
	<g>
		<g>
			<g>
				<path class="st1" d="M513.94,757.1c-25.75,0-46.7-20.95-46.7-46.7s20.95-46.7,46.7-46.7s46.7,20.95,46.7,46.7
					S539.69,757.1,513.94,757.1z M513.94,676.06c-18.93,0-34.34,15.4-34.34,34.34c0,18.93,15.4,34.34,34.34,34.34
					c18.93,0,34.34-15.4,34.34-34.34C548.28,691.46,532.87,676.06,513.94,676.06z"/>
			</g>
			<g>
				<rect x="504.21" y="649.97" class="st1" width="17.8" height="17.8"/>
			</g>
			<g>
				
					<rect x="471.29" y="662.55" transform="matrix(0.766 -0.6428 0.6428 0.766 -319.2604 465.7513)" class="st1" width="17.8" height="17.8"/>
			</g>
			<g>
				
					<rect x="454.15" y="693.36" transform="matrix(0.1736 -0.9848 0.9848 0.1736 -308.9438 1036.3342)" class="st1" width="17.8" height="17.8"/>
			</g>
			<g>
				
					<rect x="460.83" y="727.97" transform="matrix(-0.5 -0.866 0.866 -0.5 66.4464 1512.1036)" class="st1" width="17.8" height="17.8"/>
			</g>
			<g>
				
					<rect x="488.19" y="750.19" transform="matrix(-0.9397 -0.342 0.342 -0.9397 704.577 1642.4233)" class="st1" width="17.8" height="17.8"/>
			</g>
			<g>
				
					<rect x="523.43" y="749.63" transform="matrix(-0.9397 0.342 -0.342 -0.9397 1291.9979 1289.2473)" class="st1" width="17.8" height="17.8"/>
			</g>
			<g>
				
					<rect x="550.07" y="726.54" transform="matrix(-0.5 0.866 -0.866 -0.5 1475.3707 619.0844)" class="st1" width="17.8" height="17.8"/>
			</g>
			<g>
				
					<rect x="555.63" y="691.74" transform="matrix(0.1736 0.9848 -0.9848 0.1736 1156.5005 23.0139)" class="st1" width="17.8" height="17.8"/>
			</g>
			<g>
				
					<rect x="537.53" y="661.5" transform="matrix(0.766 0.6428 -0.6428 0.766 558.7634 -194.3934)" class="st1" width="17.8" height="17.8"/>
			</g>
		</g>
		<circle class="st2" cx="514.48" cy="710.19" r="26.19"/>
	</g>
</g>
<g id="Wheel_00000038413756174134207700000000096966097422009757_">
	<g>
		<g>
			<g>
				<path class="st1" d="M1294.15,367.32c-35.41,0-64.21-28.81-64.21-64.21s28.81-64.21,64.21-64.21s64.21,28.81,64.21,64.21
					S1329.56,367.32,1294.15,367.32z M1294.15,255.89c-26.03,0-47.21,21.18-47.21,47.21s21.18,47.21,47.21,47.21
					s47.21-21.18,47.21-47.21S1320.19,255.89,1294.15,255.89z"/>
			</g>
			<g>
				<rect x="1280.78" y="220.02" class="st1" width="24.48" height="24.48"/>
			</g>
			<g>
				
					<rect x="1235.51" y="237.33" transform="matrix(0.766 -0.6428 0.6428 0.766 131.4997 860.4247)" class="st1" width="24.48" height="24.48"/>
			</g>
			<g>
				
					<rect x="1211.95" y="279.68" transform="matrix(0.1736 -0.9848 0.9848 0.1736 724.1253 1446.8197)" class="st1" width="24.48" height="24.48"/>
			</g>
			<g>
				
					<rect x="1221.13" y="327.27" transform="matrix(-0.5 -0.866 0.866 -0.5 1556.0253 1577.3906)" class="st1" width="24.48" height="24.48"/>
			</g>
			<g>
				
					<rect x="1258.75" y="357.83" transform="matrix(-0.9397 -0.342 0.342 -0.9397 2338.752 1152.517)" class="st1" width="24.48" height="24.48"/>
			</g>
			<g>
				
					<rect x="1307.21" y="357.05" transform="matrix(-0.9397 0.342 -0.342 -0.9397 2685.6243 265.0359)" class="st1" width="24.48" height="24.48"/>
			</g>
			<g>
				
					<rect x="1343.83" y="325.31" transform="matrix(-0.5 0.866 -0.866 -0.5 2326.4324 -668.0668)" class="st1" width="24.48" height="24.48"/>
			</g>
			<g>
				
					<rect x="1351.48" y="277.45" transform="matrix(0.1736 0.9848 -0.9848 0.1736 1412.2059 -1103.6178)" class="st1" width="24.48" height="24.48"/>
			</g>
			<g>
				
					<rect x="1326.58" y="235.87" transform="matrix(0.766 0.6428 -0.6428 0.766 472.7081 -802.5318)" class="st1" width="24.48" height="24.48"/>
			</g>
		</g>
		<circle class="st3" cx="1294.89" cy="302.83" r="36.01"/>
	</g>
</g>
<g id="Dollar_1">
	<g class="st4">
		<circle class="st5" cx="807.13" cy="158.02" r="50.58"/>
		<g>
			<text transform="matrix(1 0 0 1 779.8374 188.8307)" class="st6 st7 st8">$</text>
		</g>
	</g>
</g>
<g id="Dollar_2">
	<g class="st4">
		<circle class="st5" cx="1356.39" cy="485.05" r="50.58"/>
		<g>
			<text transform="matrix(1 0 0 1 1329.0963 515.8609)" class="st6 st7 st8">$</text>
		</g>
	</g>
</g>
<g id="Dollar_3">
	<g class="st4">
		<circle class="st5" cx="1557.09" cy="825.23" r="50.58"/>
		<g>
			<text transform="matrix(1 0 0 1 1529.7892 856.0459)" class="st6 st7 st8">$</text>
		</g>
	</g>
</g>
<g id="Dollar_4">
	<g>
		<polygon class="st9" points="596.22,978.95 498.73,976.55 499.24,964.94 596.73,967.34 		"/>
		
			<ellipse transform="matrix(0.0378 -0.9993 0.9993 0.0378 -449.249 1486.5714)" class="st9" cx="547.34" cy="976.58" rx="11.83" ry="48.75"/>
		
			<ellipse transform="matrix(0.0378 -0.9993 0.9993 0.0378 -439.3329 1478.4125)" class="st9" cx="548.06" cy="967.35" rx="11.83" ry="48.75"/>
		<path class="st10" d="M596.66,968.83c-0.47,6.52-22.66,10.94-49.56,9.87s-48.33-7.23-47.86-13.75"/>
		<g>
			<text transform="matrix(-0.0327 0.2948 -0.9981 -0.0615 528.8323 959.8665)" class="st11 st7 st12">$</text>
		</g>
		<line class="st10" x1="505.29" y1="970.86" x2="504.26" y2="980.39"/>
		<line class="st10" x1="515.53" y1="974.24" x2="514.51" y2="983.23"/>
		<line class="st10" x1="525.94" y1="977.17" x2="524.92" y2="986.16"/>
		<line class="st10" x1="537.33" y1="978.53" x2="536.33" y2="986.99"/>
		<line class="st10" x1="546.51" y1="980.15" x2="545.51" y2="988.61"/>
		<line class="st10" x1="556.12" y1="979.62" x2="555.13" y2="988.08"/>
		<line class="st10" x1="564.94" y1="979.84" x2="563.95" y2="988.3"/>
		<line class="st10" x1="574.73" y1="978.95" x2="573.74" y2="987.41"/>
		<line class="st10" x1="583.22" y1="976.81" x2="582.23" y2="985.27"/>
		<line class="st10" x1="592.36" y1="974.08" x2="591.37" y2="982.54"/>
	</g>
</g>
<g id="Dollar_5">
	<g>
		<g>
			<polygon class="st9" points="601.85,960.91 504.36,958.51 504.87,946.9 602.36,949.3 			"/>
			
				<ellipse transform="matrix(0.0378 -0.9993 0.9993 0.0378 -425.7994 1474.8367)" class="st9" cx="552.97" cy="958.53" rx="11.83" ry="48.75"/>
			
				<ellipse transform="matrix(0.0378 -0.9993 0.9993 0.0378 -415.8833 1466.6779)" class="st9" cx="553.7" cy="949.3" rx="11.83" ry="48.75"/>
			<path class="st10" d="M602.29,950.78c-0.47,6.52-22.66,10.94-49.56,9.87s-48.33-7.23-47.86-13.75"/>
			<g>
				<text transform="matrix(-0.0327 0.2948 -0.9981 -0.0615 534.4634 941.8219)" class="st11 st7 st12">$</text>
			</g>
			<line class="st10" x1="510.93" y1="952.81" x2="509.89" y2="962.34"/>
			<line class="st10" x1="521.16" y1="956.19" x2="520.14" y2="965.19"/>
			<line class="st10" x1="531.57" y1="959.12" x2="530.55" y2="968.12"/>
			<line class="st10" x1="542.96" y1="960.49" x2="541.97" y2="968.95"/>
			<line class="st10" x1="552.14" y1="962.1" x2="551.15" y2="970.56"/>
			<line class="st10" x1="561.75" y1="961.58" x2="560.76" y2="970.03"/>
			<line class="st10" x1="570.57" y1="961.79" x2="569.58" y2="970.25"/>
			<line class="st10" x1="580.36" y1="960.91" x2="579.37" y2="969.37"/>
			<line class="st10" x1="588.85" y1="958.76" x2="587.86" y2="967.22"/>
			<line class="st10" x1="597.99" y1="956.03" x2="597" y2="964.49"/>
		</g>
		<path class="st13" d="M504.36,957.51c0,0,2.57,10.61,48.34,12.74c0,0,43.21,1.3,48.99-9.78"/>
	</g>
</g>
<g id="Dollar_6">
	<g>
		<g>
			<polygon class="st9" points="580.08,940.31 482.59,937.91 483.1,926.3 580.59,928.7 			"/>
			
				<ellipse transform="matrix(0.0378 -0.9993 0.9993 0.0378 -426.1622 1433.2667)" class="st9" cx="531.21" cy="937.94" rx="11.83" ry="48.75"/>
			
				<ellipse transform="matrix(0.0378 -0.9993 0.9993 0.0378 -416.2461 1425.1079)" class="st9" cx="531.93" cy="928.71" rx="11.83" ry="48.75"/>
			<path class="st10" d="M580.53,930.19c-0.47,6.52-22.66,10.94-49.56,9.87s-48.33-7.23-47.86-13.75"/>
			<g>
				<text transform="matrix(-0.0327 0.2948 -0.9981 -0.0615 512.695 921.2253)" class="st11 st7 st12">$</text>
			</g>
			<line class="st10" x1="489.16" y1="932.21" x2="488.12" y2="941.75"/>
			<line class="st10" x1="499.39" y1="935.6" x2="498.37" y2="944.59"/>
			<line class="st10" x1="509.8" y1="938.53" x2="508.78" y2="947.52"/>
			<line class="st10" x1="521.19" y1="939.89" x2="520.2" y2="948.35"/>
			<line class="st10" x1="530.37" y1="941.51" x2="529.38" y2="949.96"/>
			<line class="st10" x1="539.98" y1="940.98" x2="538.99" y2="949.44"/>
			<line class="st10" x1="548.8" y1="941.2" x2="547.81" y2="949.66"/>
			<line class="st10" x1="558.59" y1="940.31" x2="557.6" y2="948.77"/>
			<line class="st10" x1="567.08" y1="938.17" x2="566.09" y2="946.63"/>
			<line class="st10" x1="576.22" y1="935.44" x2="575.23" y2="943.89"/>
		</g>
		<path class="st13" d="M482.59,936.91c0,0,2.57,10.61,48.34,12.74c0,0,43.21,1.3,48.99-9.78"/>
	</g>
</g>
<g id="Dollar_7">
	<g>
		<g>
			<polygon class="st9" points="615.59,922.56 518.1,920.16 518.62,908.55 616.11,910.95 			"/>
			
				<ellipse transform="matrix(0.0378 -0.9993 0.9993 0.0378 -374.2543 1451.6759)" class="st9" cx="566.72" cy="920.19" rx="11.83" ry="48.75"/>
			
				<ellipse transform="matrix(0.0378 -0.9993 0.9993 0.0378 -364.3382 1443.5171)" class="st9" cx="567.44" cy="910.96" rx="11.83" ry="48.75"/>
			<path class="st10" d="M616.04,912.44c-0.47,6.52-22.66,10.94-49.56,9.87c-26.9-1.07-48.33-7.23-47.86-13.75"/>
			<g>
				<text transform="matrix(-0.0327 0.2948 -0.9981 -0.0615 548.2087 903.4744)" class="st11 st7 st12">$</text>
			</g>
			<line class="st10" x1="524.67" y1="914.46" x2="523.63" y2="924"/>
			<line class="st10" x1="534.9" y1="917.85" x2="533.89" y2="926.84"/>
			<line class="st10" x1="545.31" y1="920.78" x2="544.3" y2="929.77"/>
			<line class="st10" x1="556.7" y1="922.14" x2="555.71" y2="930.6"/>
			<line class="st10" x1="565.88" y1="923.75" x2="564.89" y2="932.21"/>
			<line class="st10" x1="575.49" y1="923.23" x2="574.5" y2="931.69"/>
			<line class="st10" x1="584.32" y1="923.44" x2="583.33" y2="931.9"/>
			<line class="st10" x1="594.11" y1="922.56" x2="593.12" y2="931.02"/>
			<line class="st10" x1="602.59" y1="920.41" x2="601.6" y2="928.87"/>
			<line class="st10" x1="611.74" y1="917.68" x2="610.74" y2="926.14"/>
		</g>
		<path class="st13" d="M518.1,919.16c0,0,2.57,10.61,48.34,12.74c0,0,43.21,1.3,48.99-9.78"/>
	</g>
</g>
<g id="Dollar_8">
	<g>
		<g>
			<polygon class="st9" points="566.61,898.9 469.12,896.5 469.64,884.89 567.13,887.29 			"/>
			
				<ellipse transform="matrix(0.0378 -0.9993 0.9993 0.0378 -397.7335 1379.9657)" class="st9" cx="517.74" cy="896.52" rx="11.83" ry="48.75"/>
			
				<ellipse transform="matrix(0.0378 -0.9993 0.9993 0.0378 -387.8174 1371.8069)" class="st9" cx="518.46" cy="887.29" rx="11.83" ry="48.75"/>
			<path class="st10" d="M567.06,888.77c-0.47,6.52-22.66,10.94-49.56,9.87c-26.9-1.07-48.33-7.23-47.86-13.75"/>
			<g>
				<text transform="matrix(-0.0327 0.2948 -0.9981 -0.0615 499.2304 879.8119)" class="st11 st7 st12">$</text>
			</g>
			<line class="st10" x1="475.69" y1="890.8" x2="474.65" y2="900.33"/>
			<line class="st10" x1="485.92" y1="894.18" x2="484.91" y2="903.18"/>
			<line class="st10" x1="496.33" y1="897.11" x2="495.32" y2="906.11"/>
			<line class="st10" x1="507.72" y1="898.48" x2="506.73" y2="906.94"/>
			<line class="st10" x1="516.9" y1="900.09" x2="515.91" y2="908.55"/>
			<line class="st10" x1="526.51" y1="899.57" x2="525.52" y2="908.02"/>
			<line class="st10" x1="535.34" y1="899.78" x2="534.35" y2="908.24"/>
			<line class="st10" x1="545.13" y1="898.9" x2="544.14" y2="907.36"/>
			<line class="st10" x1="553.62" y1="896.75" x2="552.62" y2="905.21"/>
			<line class="st10" x1="562.76" y1="894.02" x2="561.77" y2="902.48"/>
		</g>
		<path class="st13" d="M469.12,895.5c0,0,2.57,10.61,48.34,12.74c0,0,43.21,1.3,48.99-9.78"/>
	</g>
</g>
<g id="Dollar_9">
	<g>
		<g>
			<polygon class="st9" points="604.72,880.16 507.23,877.77 507.74,866.16 605.23,868.55 			"/>
			
				<ellipse transform="matrix(0.0378 -0.9993 0.9993 0.0378 -342.3521 1400.0184)" class="st9" cx="555.85" cy="877.79" rx="11.83" ry="48.75"/>
			
				<ellipse transform="matrix(0.0378 -0.9993 0.9993 0.0378 -332.436 1391.8596)" class="st9" cx="556.57" cy="868.56" rx="11.83" ry="48.75"/>
			<path class="st10" d="M605.17,870.04c-0.47,6.52-22.66,10.94-49.56,9.87c-26.9-1.07-48.33-7.23-47.86-13.75"/>
			<g>
				<text transform="matrix(-0.0327 0.2948 -0.9981 -0.0615 537.3344 861.079)" class="st11 st7 st12">$</text>
			</g>
			<line class="st10" x1="513.8" y1="872.07" x2="512.76" y2="881.6"/>
			<line class="st10" x1="524.03" y1="875.45" x2="523.01" y2="884.45"/>
			<line class="st10" x1="534.44" y1="878.38" x2="533.42" y2="887.38"/>
			<line class="st10" x1="545.83" y1="879.74" x2="544.84" y2="888.2"/>
			<line class="st10" x1="555.01" y1="881.36" x2="554.02" y2="889.82"/>
			<line class="st10" x1="564.62" y1="880.83" x2="563.63" y2="889.29"/>
			<line class="st10" x1="573.44" y1="881.05" x2="572.45" y2="889.51"/>
			<line class="st10" x1="583.23" y1="880.16" x2="582.24" y2="888.62"/>
			<line class="st10" x1="591.72" y1="878.02" x2="590.73" y2="886.48"/>
			<line class="st10" x1="600.86" y1="875.29" x2="599.87" y2="883.75"/>
		</g>
		<path class="st13" d="M507.23,876.77c0,0,2.57,10.61,48.34,12.74c0,0,43.21,1.3,48.99-9.78"/>
	</g>
</g>
<g id="Dollar_10">
	<g>
		<g>
			<polygon class="st9" points="601.63,865.22 504.14,862.82 504.66,851.21 602.15,853.61 			"/>
			
				<ellipse transform="matrix(0.0378 -0.9993 0.9993 0.0378 -330.3887 1382.5571)" class="st9" cx="552.76" cy="862.85" rx="11.83" ry="48.75"/>
			
				<ellipse transform="matrix(0.0378 -0.9993 0.9993 0.0378 -320.4727 1374.3983)" class="st9" cx="553.48" cy="853.62" rx="11.83" ry="48.75"/>
			<path class="st10" d="M602.08,855.1c-0.47,6.52-22.66,10.94-49.56,9.87c-26.9-1.07-48.33-7.23-47.86-13.75"/>
			<g>
				<text transform="matrix(-0.0327 0.2948 -0.9981 -0.0615 534.2485 846.1359)" class="st11 st7 st12">$</text>
			</g>
			<line class="st10" x1="510.71" y1="857.12" x2="509.67" y2="866.66"/>
			<line class="st10" x1="520.94" y1="860.51" x2="519.93" y2="869.5"/>
			<line class="st10" x1="531.35" y1="863.44" x2="530.34" y2="872.43"/>
			<line class="st10" x1="542.74" y1="864.8" x2="541.75" y2="873.26"/>
			<line class="st10" x1="551.92" y1="866.42" x2="550.93" y2="874.88"/>
			<line class="st10" x1="561.53" y1="865.89" x2="560.54" y2="874.35"/>
			<line class="st10" x1="570.36" y1="866.11" x2="569.37" y2="874.57"/>
			<line class="st10" x1="580.15" y1="865.22" x2="579.16" y2="873.68"/>
			<line class="st10" x1="588.63" y1="863.08" x2="587.64" y2="871.54"/>
			<line class="st10" x1="597.78" y1="860.35" x2="596.78" y2="868.81"/>
		</g>
		<path class="st13" d="M504.14,861.82c0,0,2.57,10.61,48.34,12.74c0,0,43.21,1.3,48.99-9.78"/>
	</g>
</g>
<g id="Dollar_11">
	<g>
		<g>
			<polygon class="st9" points="599.66,845.97 502.17,843.57 502.68,831.96 600.17,834.36 			"/>
			
				<ellipse transform="matrix(0.0378 -0.9993 0.9993 0.0378 -313.0519 1362.0621)" class="st9" cx="550.79" cy="843.6" rx="11.83" ry="48.75"/>
			
				<ellipse transform="matrix(0.0378 -0.9993 0.9993 0.0378 -303.1358 1353.9033)" class="st9" cx="551.51" cy="834.37" rx="11.83" ry="48.75"/>
			<path class="st10" d="M600.1,835.85c-0.47,6.52-22.66,10.94-49.56,9.87c-26.9-1.07-48.33-7.23-47.86-13.75"/>
			<g>
				<text transform="matrix(-0.0327 0.2948 -0.9981 -0.0615 532.274 826.8854)" class="st11 st7 st12">$</text>
			</g>
			<line class="st10" x1="508.74" y1="837.87" x2="507.7" y2="847.41"/>
			<line class="st10" x1="518.97" y1="841.26" x2="517.95" y2="850.25"/>
			<line class="st10" x1="529.38" y1="844.19" x2="528.36" y2="853.18"/>
			<line class="st10" x1="540.77" y1="845.55" x2="539.78" y2="854.01"/>
			<line class="st10" x1="549.95" y1="847.17" x2="548.96" y2="855.63"/>
			<line class="st10" x1="559.56" y1="846.64" x2="558.57" y2="855.1"/>
			<line class="st10" x1="568.38" y1="846.86" x2="567.39" y2="855.32"/>
			<line class="st10" x1="578.17" y1="845.97" x2="577.18" y2="854.43"/>
			<line class="st10" x1="586.66" y1="843.83" x2="585.67" y2="852.29"/>
			<line class="st10" x1="595.8" y1="841.1" x2="594.81" y2="849.56"/>
		</g>
		<path class="st13" d="M502.17,842.57c0,0,2.57,10.61,48.34,12.74c0,0,43.21,1.3,48.99-9.78"/>
	</g>
</g>
<g id="Dollar_12">
	<g>
		<g>
			<polygon class="st9" points="485.47,926.5 408.08,985.83 401.19,976.47 478.59,917.14 			"/>
			
				<ellipse transform="matrix(0.8017 -0.5978 0.5978 0.8017 -482.6323 456.0618)" class="st9" cx="445.94" cy="955.33" rx="48.75" ry="11.83"/>
			
				<ellipse transform="matrix(0.8017 -0.5978 0.5978 0.8017 -479.1046 451.4198)" class="st9" cx="440.71" cy="947.69" rx="48.75" ry="11.83"/>
			<path class="st10" d="M479.47,918.34c3.73,5.37-10.77,22.74-32.39,38.79c-21.62,16.05-42.16,24.71-45.89,19.34"/>
			<g>
				<text transform="matrix(0.1596 0.25 -0.8156 0.5786 421.0339 953.8764)" class="st11 st7 st12">$</text>
			</g>
			<line class="st10" x1="409.61" y1="977.27" x2="414.79" y2="985.34"/>
			<line class="st10" x1="419.7" y1="973.48" x2="424.56" y2="981.12"/>
			<line class="st10" x1="429.65" y1="969.22" x2="434.5" y2="976.86"/>
			<line class="st10" x1="439.37" y1="963.14" x2="443.91" y2="970.34"/>
			<line class="st10" x1="447.53" y1="958.63" x2="452.07" y2="965.84"/>
			<line class="st10" x1="454.68" y1="952.19" x2="459.22" y2="959.4"/>
			<line class="st10" x1="461.68" y1="946.82" x2="466.22" y2="954.03"/>
			<line class="st10" x1="468.75" y1="939.98" x2="473.29" y2="947.19"/>
			<line class="st10" x1="474.01" y1="932.99" x2="478.55" y2="940.19"/>
			<line class="st10" x1="479.41" y1="925.12" x2="483.95" y2="932.33"/>
		</g>
		<path class="st13" d="M407.45,985.05c0,0,8.66,6.65,45.63-20.42c0,0,34.45-26.11,32-38.36"/>
	</g>
</g>
<g id="W_B_Part">
	<g>
		<g>
			<g>
				<g>
					<g>
						<path class="st14" d="M1469.77,975.52l-469.36,0.01c-4.64,0-8.4-3.76-8.4-8.4L992,682.39c0-4.64,3.76-8.4,8.4-8.4l469.36-0.01
							c4.64,0,8.4,3.76,8.4,8.4l0.01,284.74C1478.17,971.76,1474.41,975.52,1469.77,975.52z"/>
					</g>
				</g>
			</g>
		</g>
		<g>
			<g>
				<g>
					<g>
						<g>
							<path class="st15" d="M1464.39,705.28l0.01,238.95c0,10.11-8.73,18.31-19.49,18.31l-29.42,0l-0.01-260.1l-398.41,0.01
								c-4.55,0-8.24-3.46-8.24-7.74l0,0c0-4.27,3.69-7.74,8.24-7.74l427.83-0.01C1455.66,686.97,1464.39,695.17,1464.39,705.28z"/>
						</g>
					</g>
				</g>
			</g>
		</g>
	</g>
</g>
<g id="Dollar_14">
	<g>
		<circle class="st11" cx="1348.35" cy="666.08" r="40.12"/>
		<circle class="st9" cx="1348.49" cy="661.09" r="40.12"/>
		<circle class="st16" cx="1348.35" cy="662.03" r="32.79"/>
		<g>
			<text transform="matrix(0.3962 0 0 1 1340.6685 683.8885)" class="st11 st7 st17">$</text>
		</g>
	</g>
</g>
<g id="Dollar_15">
	<g>
		<circle class="st11" cx="1424.5" cy="681.1" r="40.12"/>
		<circle class="st9" cx="1424.64" cy="676.11" r="40.12"/>
		<circle class="st16" cx="1424.5" cy="677.05" r="32.79"/>
		<g>
			<text transform="matrix(0.3962 0 0 1 1416.812 698.9071)" class="st11 st7 st17">$</text>
		</g>
	</g>
</g>
<g id="Dollar_16">
	<g>
		
			<rect x="1327.18" y="606.52" transform="matrix(0.7404 0.6722 -0.6722 0.7404 769.1467 -763.5956)" class="st9" width="91.71" height="14.65"/>
		
			<ellipse transform="matrix(0.6872 -0.7264 0.7264 0.6872 -20.8128 1187.7904)" class="st9" cx="1368.97" cy="618.07" rx="14.92" ry="45.87"/>
		
			<ellipse transform="matrix(0.6872 -0.7264 0.7264 0.6872 -12.1681 1191.0034)" class="st9" cx="1377.03" cy="609.63" rx="14.92" ry="45.87"/>
		<path class="st18" d="M1410.64,640.64c-5.66,5.98-25.17-3.28-43.57-20.68c-18.4-17.41-28.73-36.37-23.07-42.36"/>
		<g>
			<text transform="matrix(-0.2805 0.2798 -0.7062 -0.708 1369.424 590.6604)" class="st11 st7 st19">$</text>
		</g>
		<line class="st18" x1="1343.52" y1="586.97" x2="1334.99" y2="595.5"/>
		<line class="st18" x1="1348.09" y1="596.45" x2="1340.01" y2="604.48"/>
		<line class="st18" x1="1353.15" y1="605.6" x2="1345.08" y2="613.63"/>
		<line class="st18" x1="1360.2" y1="613.84" x2="1352.58" y2="621.37"/>
		<line class="st18" x1="1365.46" y1="620.99" x2="1357.84" y2="628.51"/>
		<line class="st18" x1="1372.78" y1="626.33" x2="1365.16" y2="633.86"/>
		<line class="st18" x1="1378.92" y1="631.91" x2="1371.3" y2="639.44"/>
		<line class="st18" x1="1386.66" y1="637.02" x2="1379.04" y2="644.55"/>
		<line class="st18" x1="1394.49" y1="640.12" x2="1386.87" y2="647.65"/>
		<line class="st18" x1="1403.27" y1="643.06" x2="1395.65" y2="650.59"/>
	</g>
</g>
<g id="W_F_Part">
	<g>
		<g>
			<g>
				<g>
					<g>
						<path class="st20" d="M1437.71,984.07H998.99c-4.93,0-8.92-4-8.92-8.93V695.27c0-4.93,4-8.92,8.92-8.92h438.73
							c4.93,0,8.93,4,8.93,8.93v279.87C1446.64,980.08,1442.64,984.07,1437.71,984.07z"/>
					</g>
				</g>
			</g>
		</g>
		<g>
			<g>
				<g>
					<g>
						<path class="st21" d="M1411.93,968.6h-18.04v-1.89h17.9L1411.93,968.6z M1380.47,968.6h-17.9v-1.89h17.9V968.6z
							 M1349.14,968.6h-17.9v-1.89h17.9V968.6z M1317.81,968.6h-17.9v-1.89h17.9V968.6z M1286.49,968.6h-17.9v-1.89h17.9V968.6z
							 M1255.16,968.6h-17.9v-1.89h17.9V968.6z M1223.84,968.6h-17.9v-1.89h17.9V968.6z M1192.51,968.6h-17.9v-1.89h17.9V968.6z
							 M1161.18,968.6h-17.9v-1.89h17.9V968.6z M1129.86,968.6h-17.9v-1.89h17.9V968.6z M1098.53,968.6h-17.9v-1.89h17.9V968.6z
							 M1067.21,968.6h-17.9v-1.89h17.9V968.6z M1035.88,968.6h-7.39c-3.77,0-7.42-0.92-10.54-2.67l1.26-1.57
							c2.75,1.54,5.96,2.35,9.28,2.35h7.39V968.6z M1424.86,964.23l-1.56-1.37c3.34-2.66,5.18-6.25,5.18-10.1v-2.89h2.26v2.89
							C1430.74,957.14,1428.65,961.21,1424.86,964.23z M1010.02,956.34c-0.32-1.17-0.49-2.38-0.49-3.58V941.2h2.26v11.56
							c0,1.06,0.14,2.12,0.43,3.16L1010.02,956.34z M1430.74,938.64h-2.26v-14.96h2.26V938.64z M1011.8,929.97h-2.26v-14.96h2.26
							V929.97z M1430.74,912.46h-2.26V897.5h2.26V912.46z M1011.8,903.79h-2.26v-14.96h2.26V903.79z M1430.74,886.27h-2.26v-14.96
							h2.26V886.27z M1011.8,877.6h-2.26v-14.96h2.26V877.6z M1430.74,860.09h-2.26v-14.96h2.26V860.09z M1011.8,851.42h-2.26
							v-14.96h2.26V851.42z M1430.74,833.9h-2.26v-14.96h2.26V833.9z M1011.8,825.23h-2.26v-14.96h2.26V825.23z M1430.74,807.72
							h-2.26v-14.96h2.26V807.72z M1011.8,799.05h-2.26v-14.96h2.26V799.05z M1430.74,781.53h-2.26v-14.96h2.26V781.53z
							 M1011.8,772.87h-2.26V757.9h2.26V772.87z M1430.74,755.35h-2.26v-14.96h2.26V755.35z M1011.8,746.68h-2.26v-14.96h2.26
							V746.68z M1430.74,729.16h-2.26v-11.5c0-1.09-0.15-2.17-0.44-3.21l2.2-0.43c0.33,1.19,0.5,2.41,0.5,3.64V729.16z
							 M1011.8,720.5h-2.26v-2.84c0-4.4,2.11-8.49,5.93-11.51l1.55,1.37c-3.37,2.66-5.23,6.26-5.23,10.14V720.5z M1421.02,706.03
							c-2.74-1.52-5.93-2.32-9.23-2.32h-7.46v-1.89h7.46c3.75,0,7.37,0.91,10.47,2.64L1421.02,706.03z M1390.91,703.71h-17.9v-1.89
							h17.9V703.71z M1359.58,703.71h-17.9v-1.89h17.9V703.71z M1328.25,703.71h-17.9v-1.89h17.9V703.71z M1296.93,703.71h-17.9
							v-1.89h17.9V703.71z M1265.6,703.71h-17.9v-1.89h17.9V703.71z M1234.28,703.71h-17.9v-1.89h17.9V703.71z M1202.95,703.71
							h-17.9v-1.89h17.9V703.71z M1171.62,703.71h-17.9v-1.89h17.9V703.71z M1140.3,703.71h-17.9v-1.89h17.9V703.71z
							 M1108.97,703.71h-17.9v-1.89h17.9V703.71z M1077.65,703.71h-17.9v-1.89h17.9V703.71z M1046.32,703.71h-17.83l-0.07-1.89h17.9
							V703.71z"/>
					</g>
				</g>
			</g>
		</g>
		<g>
			<g>
				<g>
					<g>
						<g>
							<path class="st14" d="M1475.7,774.07v84.13c0,10.57-9.11,19.13-20.36,19.13h-109.51c-24.77,0-44.85-18.86-44.85-42.13
								c0-11.64,5.02-22.17,13.13-29.79c8.12-7.62,19.33-12.34,31.71-12.34h109.51c0.57,0,1.13,0.02,1.7,0.08
								C1467.51,792.33,1475.7,784.09,1475.7,774.07z"/>
						</g>
					</g>
				</g>
			</g>
			<g>
				<g>
					<g>
						<g>
							<g>
								<g>
									<circle class="st6" cx="1348.42" cy="836.74" r="26.66"/>
								</g>
							</g>
						</g>
					</g>
				</g>
			</g>
		</g>
	</g>
</g>
<g id="L_Thigh">
	<path class="st22" d="M642.98,597.14l4.89,172.59c5.17,36.07,58.25,36.07,64.34,2.06l8.54-170.99L642.98,597.14z"/>
</g>
<g id="R_Thigh">
	<path class="st22" d="M713.84,605.47l16.18,171.9c7.52,35.65,56.17,32.32,60.03-2.01V604.06L713.84,605.47z"/>
	<polyline class="st23" points="710.38,631.91 721.28,644.26 722.28,671.46 	"/>
</g>
<g id="R_Leg">
	<g>
		<path class="st24" d="M777.99,960.84c-6.92,4.18-13.84,5.21-20.78,0.78c-4.16-2.66-6.64-7.31-6.64-12.25v-13.49
			c0-8.07,6.54-14.61,14.61-14.61h5.16c8.07,0,14.61,6.54,14.61,14.61v12.51C784.95,953.46,782.33,958.21,777.99,960.84z"/>
		<path class="st22" d="M743.13,938.73l-13.11-161.37c0,0-0.18-38.58,31.5-35.05c31.67,3.53,28.84,35.02,28.84,35.02l3.46,160.2
			L743.13,938.73z"/>
	</g>
</g>
<g id="L_Leg">
	<g>
		<path class="st24" d="M689.64,960.84c-6.92,4.18-13.84,5.21-20.78,0.78c-4.16-2.66-6.64-7.31-6.64-12.25v-13.49
			c0-8.07,6.54-14.61,14.61-14.61H682c8.07,0,14.61,6.54,14.61,14.61v12.51C696.61,953.46,693.99,958.21,689.64,960.84z"/>
		<path class="st22" d="M652.98,937.54l-4.26-167.81c0,0,2.32-31.54,34-28.01c31.67,3.53,28.84,35.62,28.84,35.62l-5.5,160.2H652.98
			z"/>
	</g>
</g>
<g id="L_Shoes">
	<g>
		<g>
			<path class="st25" d="M644.62,956.28c0,0,3.04-16-1.88-15.9C637.83,940.47,638.75,950.95,644.62,956.28"/>
			<path class="st25" d="M643.14,957.78c0,0-8.92-13.63-12.39-10.15C627.28,951.12,635.22,958.02,643.14,957.78"/>
			<g>
				<path class="st26" d="M698.88,951.65l1.58,25.88l-0.89,10.31l-77.52-0.31l-0.52-8.69c0,0,17.53-17.95,32.73-22.06l-2.73-6.44
					l12.39-4.87l2.71,10.16C666.63,955.63,697.03,943.07,698.88,951.65z"/>
				<path class="st27" d="M701.69,988.61l-0.15-11.27l-78.55,1.34c-1.3,0.02-2.33,1.12-2.27,2.42l0.45,6.21"/>
			</g>
			<line class="st28" x1="645.15" y1="957.03" x2="652.11" y2="959.27"/>
			<line class="st28" x1="640.65" y1="958.7" x2="647.16" y2="962.02"/>
		</g>
		<g>
			<g>
				<path class="st27" d="M640.37,967.56c3.45,1.68,5.58,5.49,5.2,9.3c-0.06,0.64,0.93,0.63,1,0c0.41-4.14-1.96-8.35-5.69-10.17
					C640.3,966.42,639.79,967.28,640.37,967.56L640.37,967.56z"/>
			</g>
		</g>
		<g>
			<g>
				<path class="st27" d="M688.92,963.15c1.74,1.86,1.96,4.93,0.47,7.01c-1.46,2.03-4.46,2.74-6.71,1.72
					c-2.24-1.02-3.5-3.72-3.01-6.1c0.5-2.49,2.92-4.29,5.44-4.22c2.86,0.08,5.18,2.98,4.69,5.8c-0.11,0.63,0.85,0.9,0.96,0.27
					c0.52-2.96-1.41-6.1-4.35-6.87c-2.91-0.77-6.19,0.91-7.35,3.66c-1.14,2.7-0.16,6.04,2.19,7.77c2.42,1.78,6.03,1.42,8.21-0.59
					c2.56-2.36,2.52-6.66,0.19-9.15C689.19,961.97,688.48,962.68,688.92,963.15L688.92,963.15z"/>
			</g>
		</g>
		<g>
			<g>
				<path class="st27" d="M651.97,960.18c2.65,0.78,5.3,1.57,7.95,2.35c0-0.32,0-0.64,0-0.96c-4.74,1.62-10.02,1.35-14.55-0.8
					c-0.51-0.24-0.99,0.35-0.6,0.78c2.34,2.69,4.69,5.39,7.03,8.08c0.16-0.28,0.32-0.56,0.49-0.83c-4.84-0.8-9.68-1.6-14.53-2.39
					c-0.63-0.1-0.9,0.86-0.27,0.96c4.84,0.8,9.68,1.6,14.53,2.39c0.49,0.08,0.83-0.44,0.49-0.83c-2.34-2.69-4.69-5.39-7.03-8.08
					c-0.2,0.26-0.4,0.52-0.6,0.78c4.77,2.27,10.31,2.62,15.32,0.91c0.46-0.16,0.49-0.82,0-0.96c-2.65-0.78-5.3-1.57-7.95-2.35
					C651.62,959.04,651.36,960,651.97,960.18L651.97,960.18z"/>
			</g>
		</g>
	</g>
</g>
<g id="R_Shoes">
	<g>
		<g>
			<path class="st25" d="M735.86,957.93c0,0,3.33-15.95-1.58-15.94C729.36,942.01,730.09,952.5,735.86,957.93"/>
			<path class="st25" d="M734.35,959.41c0,0-8.67-13.79-12.2-10.37C718.62,952.45,726.43,959.5,734.35,959.41"/>
			<g>
				<path class="st26" d="M790.2,954.31l1.1,25.91l-1.08,10.3l-77.51-1.74l-0.36-8.7c0,0,17.85-17.62,33.14-21.45l-2.61-6.49
					l12.48-4.64l2.52,10.21C757.88,957.69,788.51,945.7,790.2,954.31z"/>
				<path class="st27" d="M792.32,991.31l0.06-11.27l-78.56-0.12c-1.3,0-2.35,1.08-2.31,2.38l0.34,6.22"/>
			</g>
			<line class="st28" x1="736.38" y1="958.69" x2="743.29" y2="961.06"/>
			<line class="st28" x1="731.84" y1="960.28" x2="738.29" y2="963.72"/>
		</g>
		<g>
			<g>
				<path class="st27" d="M731.41,969.14c3.42,1.74,5.47,5.59,5.02,9.4c-0.07,0.64,0.92,0.63,1,0c0.49-4.13-1.81-8.38-5.51-10.26
					C731.34,967.98,730.84,968.84,731.41,969.14L731.41,969.14z"/>
			</g>
		</g>
		<g>
			<g>
				<path class="st27" d="M780.03,965.63c1.7,1.89,1.86,4.98,0.33,7.01c-1.5,2-4.51,2.66-6.75,1.58c-2.22-1.07-3.42-3.78-2.89-6.16
					c0.55-2.48,3.01-4.23,5.52-4.11c2.87,0.14,5.11,3.09,4.57,5.89c-0.12,0.63,0.84,0.9,0.96,0.27c0.58-2.96-1.31-6.12-4.23-6.95
					c-2.89-0.82-6.22,0.81-7.42,3.55c-1.17,2.68-0.25,6.03,2.06,7.79c2.4,1.82,6,1.53,8.22-0.44c2.6-2.32,2.63-6.61,0.34-9.14
					C780.31,964.44,779.6,965.15,780.03,965.63L780.03,965.63z"/>
			</g>
		</g>
		<g>
			<g>
				<path class="st27" d="M743.15,961.97c2.63,0.83,5.27,1.66,7.9,2.49c0-0.32,0-0.64,0-0.96c-4.77,1.54-10.04,1.16-14.53-1.08
					c-0.52-0.26-0.97,0.35-0.6,0.78c2.29,2.74,4.59,5.47,6.88,8.21c0.16-0.28,0.32-0.56,0.49-0.83c-4.83-0.89-9.65-1.77-14.48-2.66
					c-0.63-0.12-0.9,0.85-0.27,0.96c4.83,0.89,9.65,1.77,14.48,2.66c0.5,0.09,0.81-0.44,0.49-0.83c-2.29-2.74-4.59-5.47-6.88-8.21
					c-0.2,0.26-0.4,0.52-0.6,0.78c4.73,2.36,10.27,2.8,15.3,1.18c0.47-0.15,0.48-0.81,0-0.96c-2.63-0.83-5.27-1.66-7.9-2.49
					C742.8,960.82,742.54,961.78,743.15,961.97L743.15,961.97z"/>
			</g>
		</g>
	</g>
</g>
<g id="L_Arm">
	<g>
		<path class="st24" d="M626.44,457.14l-2.39,72.96c0,0,0.32,0.62,0.98,1.55c9.42,13.18,30.15,8.14,32.72-7.85l8.95-55.68
			C666.7,468.12,650.23,440.67,626.44,457.14z"/>
		<path class="st29" d="M638.94,392.2c0,0-11.44,4.02-14.14,18.92l-4.4,55.1l56.5,9.71c0,0-5.85-64.04-18.62-72.98
			C658.28,402.95,650.85,389.95,638.94,392.2z"/>
	</g>
</g>
<g id="L_Hand">
	<g>
		<path class="st24" d="M638.22,504.73l-38.04-45.13c0,0-16.92-15.62-18.57,4.97l32.57,60.22c0,0,9.63,20.17,31.19,11.77
			C645.38,536.56,646.14,522.78,638.22,504.73z"/>
		<path class="st30" d="M626.25,490.54c0,0,17.12,12.69,16.67,23.25"/>
	</g>
</g>
<g id="L_Finger">
	<g>
		<g>
			<path class="st22" d="M570.12,433.24l29.53,52.01c0.76,1.35,2.23,2.14,3.77,2.05l38.66-2.24c2.97-0.17,4.76-3.36,3.35-5.98
				l-28.79-53.79c-0.78-1.45-2.36-2.3-4-2.13l-39.39,4.01C570.32,427.48,568.67,430.68,570.12,433.24z"/>
			<circle class="st6" cx="600.06" cy="443.24" r="3.59"/>
			<polyline class="st31" points="574.64,431.11 611.46,426.89 641.24,480.86 			"/>
		</g>
		<g>
			<g>
				<path class="st24" d="M577.79,474.98c0,0-2.1,3.66,2,7.02l8.06,4.73c0,0,14.95-1.51,28.98-8.61c0,0,4.08-3.1,4.02-6.76
					c0,0,3.12-5.22-2.28-6.75c0,0,2.22-5.49-7.54-4.58c0,0,1.53-5.19-2.75-7.93h-26.84c0,0-7.02,0.92-5.49,7.93
					c0,0-4.88,1.83-3.66,7.63C572.3,467.66,572.91,473.45,577.79,474.98z"/>
				<polyline class="st30" points="590.43,469.41 600.32,469.41 618.58,465.45 				"/>
				<polyline class="st30" points="596.09,476.67 605.48,475.79 620.86,471.36 				"/>
				<polyline class="st30" points="610.2,459.19 596.09,460.95 592.15,460.95 				"/>
			</g>
			<path class="st30" d="M587.86,486.72c0,0,29.04-3.51,32.37-12.71"/>
		</g>
	</g>
</g>
<g id="Body">
	<g>
		<path class="st29" d="M640.86,612.7h154.65l-7.4-111.42l4.44-111.17l-14.2-5.65c-18.61-6.3-34.73-9.63-54.38-9.89l-35.51,0.42
			l-9.86,1.87c-11.77,2.23-23.21,5.97-33.92,11.34c-3.55,1.78-7.03,3.74-10.01,5.8l14.04,76.86l-1.79,93.34L640.86,612.7z"/>
		<path class="st24" d="M684.02,375.32c0,0,5.95,21.73,28.14,20.46c22.34-1.28,24.58-20.79,24.58-20.79L684.02,375.32z"/>
		<polyline class="st31" points="638.86,455.23 646.56,464.16 649.12,535.76 		"/>
	</g>
</g>
<g id="Neck">
	<g>
		<path class="st24" d="M731.91,375.6l-2.9-21.13l-2.68-15.04l-33.01,17.68l1.03,11.47l0.19,16.3
			C694.53,384.87,705.88,401.01,731.91,375.6z"/>
		<path class="st32" d="M693.38,381.99c10.7-5.34,23.26-12.41,25.45-23.3c-8.47,9.3-24.48,11.96-24.48,11.96L693.38,381.99z"/>
	</g>
</g>
<g id="Face">
	<g>
		<path class="st32" d="M671.3,291.38c-1.74,4.13-3.28,8.42-3.56,12.9c-0.28,4.47,0.83,9.19,3.85,12.51
			c0.83,0.91,1.91,1.75,3.14,1.7c2.29-0.09,3.28-2.9,3.6-5.17c0.78-5.57,1.07-11.21,0.86-16.83c-0.03-0.72-0.11-1.54-0.68-1.99
			c-0.49-0.38-1.18-0.35-1.8-0.26c-2.61,0.4-5.09,1.61-7.01,3.41"/>
	</g>
	<g>
		<g>
			<path class="st24" d="M714.92,367.31c-5.28,1.36-9.91,1.84-13.98,1.88c-29.23,0.27-26.57-25.58-26.86-40.23
				c-0.15-7.95-3.88-25.58-3.88-25.58c0.36-9,3.26-16.28,13.96-18.28c3.96-1.43,8.01-2.3,12.14-2.68
				c19.53-1.8,36.44,13.49,36.93,33.09l0.55,22.39C734.09,350.64,726.62,362.29,714.92,367.31L714.92,367.31z"/>
		</g>
	</g>
	<path class="st33" d="M693.35,329.23c0,0,0.44,5.28-3.31,5.57c-3.75,0.29-1.86,4.94,0.86,5.43"/>
	<path d="M710.75,316.45l-7.06-1.01c-0.48-0.07-0.82-0.52-0.75-1l0.14-0.97c0.07-0.48,0.52-0.82,1-0.75l7.06,1.01
		c0.48,0.07,0.82,0.52,0.75,1l-0.14,0.97C711.68,316.18,711.23,316.52,710.75,316.45z"/>
	<path d="M683.6,316.57l-6.64,1.94c-0.53,0.15-1.07-0.15-1.23-0.67l-0.22-0.74c-0.15-0.52,0.15-1.07,0.67-1.23l6.64-1.94
		c0.53-0.15,1.07,0.15,1.23,0.67l0.22,0.74C684.43,315.86,684.13,316.41,683.6,316.57z"/>
	<g>
		<path class="st32" d="M736.97,328.77c2.6-10.23,5.22-20.7,4.25-31.21c-0.36-3.92-1.58-8.28-5.06-10.1
			c-3.01-1.57-6.85-0.62-9.49,1.51c-4.14,3.35-5.72,9.09-5.33,14.4c0.39,5.31,2.46,10.33,4.5,15.25c2.58,6.21,5.16,12.41,7.74,18.62
			c4.98-12.12,7.61-25.2,7.7-38.31"/>
	</g>
	<g>
		
			<ellipse transform="matrix(0.2885 -0.9575 0.9575 0.2885 209.7095 938.6082)" class="st24" cx="736.37" cy="328.21" rx="7.19" ry="7.19"/>
		<line class="st34" x1="735.32" y1="333.1" x2="739.4" y2="324.53"/>
		<line class="st34" x1="733.87" y1="325.69" x2="736.97" y2="328.77"/>
	</g>
	<g>
		<path class="st32" d="M728.09,297.12c-8.22-6.17-18.35-11.95-28.27-9.24c-5.31,1.45-9.65,5.15-14.3,8.11s-10.34,5.27-15.57,3.53
			c-8.02-2.67-10.23-14.03-5.95-21.31s12.74-11.03,20.94-13.06c10.56-2.61,22.19-3.01,31.88,1.92c9.7,4.93,16.64,16.26,13.92,26.79"
			/>
	</g>
	<g>
		<g>
			<path class="st32" d="M738.65,277.88c-3.64,4.52-6.73,9.45-9.2,14.7c-0.37,0.78,0.79,1.46,1.16,0.68
				c2.41-5.15,5.42-10,8.99-14.43C740.14,278.17,739.2,277.21,738.65,277.88L738.65,277.88z"/>
		</g>
	</g>
	<g>
		<g>
			<path class="st32" d="M728.66,294.81c-5.36-5.34-13.21-7.94-20.72-7.14c-4.05,0.43-7.74,1.88-11.19,4.02
				c-1.95,1.21-3.81,2.55-5.74,3.8c-1.46,0.94-2.96,1.83-4.45,2.71c-1.8,1.06-3.65,2.08-5.58,2.86c-1.58,0.64-3.43,1.3-5.16,1.06
				c-0.85-0.12-1.21,1.18-0.36,1.3c3.31,0.47,6.72-1.28,9.54-2.8c3.3-1.77,6.46-3.79,9.56-5.88c3.5-2.36,7.04-4.52,11.23-5.38
				c3.64-0.75,7.46-0.62,11.05,0.31c4.09,1.05,7.88,3.12,10.87,6.1C728.33,296.38,729.28,295.42,728.66,294.81L728.66,294.81z"/>
		</g>
	</g>
	<path class="st6" d="M698.97,349.71c5.95-1.32,7.84-7.58,7.84-7.58l-13.1,7.67L698.97,349.71z"/>
</g>
<g id="R_Eyes">
	<circle class="st35" cx="705.06" cy="324.03" r="2.06"/>
</g>
<g id="Layer_44">
	<circle class="st35" cx="681.88" cy="325.86" r="2.06"/>
</g>
<g id="R_Arm">
	<g>
		<path class="st24" d="M756.91,450.19l-5.78,19.22c0,0-21.81,25.66-11.74,43.96c0,0,19.85,18.36,36.45-6.44l22.94-38.43
			L756.91,450.19z"/>
		<path class="st29" d="M787.06,388.61c0,0-12.09,0.97-18.49,14.69l-18.3,52.16l52.16,23.79c0,0,10.66-63.42,0.6-75.31
			C803.02,403.94,799.15,389.48,787.06,388.61z"/>
		<path class="st31" d="M758.74,431.29l-8.48,24.17l52.16,23.79c0,0,11.8-66.71-1.93-81.21"/>
	</g>
</g>
<g id="R_Finger">
	<g>
		<g>
			<g>
				<g>
					<path class="st24" d="M688.75,445.32l-16.54-17.68c0,0-4.67-0.38-6.06-0.93c-1.68-0.67-4.36-8.28-4.56-9.81
						c-0.19-1.53-3.4-4.71-2.47-5.87c0.93-1.17,4.57-1.79,4.15-3.22c-0.09-0.31-3.24-3.18-1.48-5.89c0.63-0.98,3.59-2.2,3.59-2.2
						l-1.34-7.49c0,0,2.74-9.49,7.37-6.89c0,0,17.45,9.69,19.31,11.38c1.86,1.69,11.62,25.83,13.39,30.37c0,0,4.85,11.27-0.79,17.17
						C697.67,450.16,688.75,445.32,688.75,445.32z"/>
				</g>
			</g>
			<g>
				<g>
					<g>
						<path class="st36" d="M704.11,427.07c0.03-0.01-0.11-0.46-0.41-1.3c-0.35-0.92-0.8-2.13-1.37-3.65
							c-1.22-3.15-3.02-7.71-5.37-13.31c-1.18-2.79-2.48-5.85-4.03-9.09c-0.4-0.81-0.8-1.63-1.29-2.44
							c-0.48-0.94-1.42-1.48-2.18-1.99c-1.61-1.04-3.3-2.05-5.03-3.07c-3.47-2.05-7.15-4.14-10.97-6.3
							c-0.98-0.49-1.83-1.19-3.15-1.46c-1.33-0.22-2.59,0.51-3.4,1.37c-1.66,1.78-2.58,3.98-3.33,6.26l-0.03,0.1l0.02,0.12
							c0.13,0.72,0.27,1.51,0.41,2.29c0.31,1.75,0.63,3.49,0.93,5.2l0.29-0.53c-0.91,0.39-1.77,0.81-2.62,1.34
							c-0.41,0.28-0.84,0.55-1.21,1.07c-0.26,0.46-0.5,0.96-0.55,1.5c-0.16,1.08,0.21,2.11,0.68,2.96c0.24,0.43,0.52,0.83,0.81,1.2
							l0.43,0.54l0.09,0.11c-0.02-0.02-0.02-0.08-0.02-0.03c0.01,0.05,0.02,0.09,0,0.13c-0.01,0.18-0.35,0.46-0.69,0.66
							c-0.35,0.21-0.75,0.4-1.15,0.59c-0.4,0.19-0.81,0.38-1.22,0.62c-0.4,0.27-0.84,0.44-1.17,1.11c-0.22,0.69,0.04,1.18,0.2,1.61
							c0.19,0.43,0.42,0.82,0.65,1.19c0.46,0.75,0.95,1.44,1.34,2.15c0.19,0.36,0.34,0.68,0.39,1.02c0.08,0.47,0.2,0.86,0.31,1.27
							c0.24,0.8,0.51,1.58,0.79,2.34c0.58,1.52,1.19,2.99,1.95,4.35c0.41,0.68,0.75,1.36,1.51,1.92c0.84,0.46,1.52,0.46,2.26,0.61
							c1.44,0.22,2.83,0.36,4.19,0.47l-0.24-0.12c5.09,5.34,9.24,9.7,12.21,12.81c1.41,1.45,2.53,2.6,3.37,3.46
							c0.78,0.78,1.2,1.18,1.23,1.16c0.03-0.03-0.34-0.47-1.07-1.3c-0.8-0.89-1.88-2.09-3.23-3.59c-2.91-3.16-6.98-7.6-11.97-13.03
							l-0.09-0.1l-0.15-0.01c-1.33-0.12-2.72-0.28-4.12-0.51c-0.66-0.13-1.49-0.24-1.95-0.52c-0.45-0.32-0.87-1.01-1.22-1.64
							c-0.72-1.31-1.31-2.76-1.86-4.25c-0.27-0.75-0.53-1.52-0.76-2.29c-0.11-0.38-0.23-0.79-0.28-1.15
							c-0.07-0.49-0.28-0.94-0.49-1.32c-0.42-0.77-0.91-1.47-1.35-2.19c-0.22-0.36-0.42-0.72-0.58-1.08
							c-0.16-0.35-0.26-0.76-0.18-0.92c0.04-0.14,0.43-0.44,0.76-0.62c0.36-0.21,0.76-0.39,1.16-0.58c0.41-0.19,0.82-0.38,1.24-0.63
							c0.39-0.27,0.91-0.52,1.13-1.25c0.06-0.18,0.04-0.36,0.01-0.54c0-0.07-0.06-0.22-0.14-0.34l-0.12-0.16l-0.42-0.53
							c-0.27-0.35-0.52-0.71-0.73-1.08c-0.41-0.74-0.69-1.58-0.56-2.36c0.03-0.4,0.22-0.76,0.41-1.11c0.17-0.26,0.55-0.54,0.91-0.77
							c0.76-0.48,1.62-0.89,2.47-1.26l0.36-0.15l-0.07-0.38c-0.31-1.71-0.62-3.45-0.93-5.2c-0.14-0.78-0.28-1.57-0.41-2.29
							l-0.01,0.22c0.69-2.13,1.63-4.3,3.08-5.85c0.73-0.76,1.65-1.25,2.58-1.1c0.88,0.15,1.86,0.84,2.82,1.34
							c3.83,2.14,7.51,4.22,10.99,6.23c1.74,1.01,3.43,2,5.02,3.02c0.8,0.53,1.57,0.96,1.94,1.72c0.47,0.76,0.87,1.57,1.27,2.36
							c1.57,3.19,2.9,6.24,4.13,9.01c2.36,5.5,4.27,9.97,5.65,13.18c0.64,1.49,1.15,2.67,1.53,3.58
							C703.88,426.66,704.08,427.08,704.11,427.07z"/>
					</g>
				</g>
			</g>
		</g>
		<g>
			<g>
				<g>
					<path class="st36" d="M664.78,400.52c0.03,0.16,1.59-0.2,4.1-0.33c1.26-0.09,2.67,0.17,4.43,0.34
						c1.79,0.12,3.67-0.36,5.54-0.78c3.73-1.09,7.18,0.04,9.14,1.53c2.01,1.48,2.43,3.12,2.6,3.03c0.09,0.03-0.1-1.81-2.17-3.57
						c-1.01-0.86-2.43-1.65-4.14-2.07c-1.7-0.49-3.75-0.32-5.64,0.13c-1.91,0.43-3.68,0.9-5.29,0.83c-1.61-0.11-3.22-0.32-4.52-0.13
						C666.23,399.82,664.75,400.43,664.78,400.52z"/>
				</g>
			</g>
		</g>
		<g>
			<g>
				<g>
					<path class="st36" d="M670.25,399.29c0.25,0.08,0.74-0.93,0.47-2.21c-0.27-1.29-1.13-2.01-1.32-1.84
						c-0.22,0.17,0.16,1,0.37,2.04C670,398.31,669.98,399.22,670.25,399.29z"/>
				</g>
			</g>
		</g>
		<g>
			<g>
				<g>
					<path class="st36" d="M662.22,408.97c0.02,0.25,5.43-0.32,11.65-2.68c1.56-0.59,2.96-1.26,4.25-1.2
						c1.28,0.04,2.37,0.73,3.08,1.43c1.43,1.48,1.83,2.84,1.99,2.76c0.08-0.01-0.05-1.45-1.49-3.23c-0.74-0.84-1.93-1.74-3.54-1.86
						c-1.61-0.11-3.14,0.63-4.64,1.18C667.42,407.7,662.17,408.68,662.22,408.97z"/>
				</g>
			</g>
		</g>
		<g>
			<g>
				<g>
					<path class="st36" d="M661.21,416.39c0.02,0.12,1.15,0.07,2.9-0.42c1.75-0.46,4.05-1.43,6.58-2.33
						c1.27-0.43,2.49-0.82,3.59-0.91c1.11-0.1,2.08,0.12,2.77,0.56c1.45,0.89,1.48,2.15,1.62,2.11c0.06,0,0.15-0.29,0.04-0.82
						c-0.11-0.52-0.5-1.26-1.28-1.85c-0.77-0.61-1.97-0.96-3.22-0.89c-1.26,0.05-2.56,0.44-3.86,0.88c-2.6,0.93-4.82,1.98-6.48,2.6
						C662.24,415.96,661.18,416.25,661.21,416.39z"/>
				</g>
			</g>
		</g>
		<g>
			<g>
				<g>
					<path class="st36" d="M666.71,421.34c-0.15,0.15,1.39,1.34,3.83,0.97l-0.54-0.34c0.11,0.42,0.22,0.82,0.33,1.24
						c0.77,2.73,1.6,4.88,1.86,4.8c0.26-0.08-0.15-2.34-0.92-5.06c-0.12-0.41-0.24-0.81-0.36-1.22l-0.13-0.43l-0.42,0.09
						C668.34,421.81,666.8,421.11,666.71,421.34z"/>
				</g>
			</g>
		</g>
	</g>
</g>
<g id="R_Hand">
	<g>
		<path class="st24" d="M766.1,490.41l-65.07-65.53c0,0-21.44-12.31-19.58,12.75l41.04,64.25c0,0,19.14,26.93,39.78,16.64
			C762.28,518.52,773.08,509.9,766.1,490.41z"/>
		<path class="st30" d="M739.93,462.29c0,0,14.94,13.71,17.86,19.44"/>
		<path class="st30" d="M690.6,450.19c0,0,39.63,74.55,59.66,68.98"/>
	</g>
</g>
<g id="Phone">
	<g>
		<g>
			<polygon class="st37" points="883.76,345.64 1159.66,952.14 1162.41,345.64 			"/>
			<g>
				<path class="st38" d="M1127.76,984.44H866.08c-24.39,0-44.15-19.77-44.15-44.15V336.1c0-24.39,19.77-44.15,44.15-44.15h261.68
					c24.39,0,44.15,19.77,44.15,44.15v604.19C1171.91,964.67,1152.14,984.44,1127.76,984.44z"/>
				<path class="st6" d="M1122.77,973.18H870.35c-21.89,0-39.64-17.75-39.64-39.64v-592.5c0-21.89,17.75-39.64,39.64-39.64h252.41
					c21.89,0,39.64,17.75,39.64,39.64v592.5C1162.41,955.43,1144.66,973.18,1122.77,973.18z"/>
				<path class="st39" d="M830.72,345.64h331.69c0,0,9.51-45.36-33.62-45.36l-269.67,1.12C859.12,301.4,825.41,300.28,830.72,345.64
					z"/>
				<path class="st6" d="M1029.58,324.99h-78.67c-1.64,0-2.97-1.33-2.97-2.97v-0.69c0-1.64,1.33-2.97,2.97-2.97h78.67
					c1.64,0,2.97,1.33,2.97,2.97v0.69C1032.56,323.66,1031.23,324.99,1029.58,324.99z"/>
				<path class="st38" d="M1049.22,308.22H947.1c-2.11,0-3.82-1.71-3.82-3.82v-4.67c0-2.11,1.71-3.82,3.82-3.82h102.11
					c2.11,0,3.82,1.71,3.82,3.82v4.67C1053.04,306.51,1051.33,308.22,1049.22,308.22z"/>
				<g>
					<rect x="863.6" y="319.62" class="st38" width="4.12" height="19.05"/>
					<rect x="870.04" y="324.77" class="st38" width="4.12" height="13.91"/>
					<rect x="876.9" y="328.1" class="st38" width="4.12" height="10.58"/>
					<rect x="883.76" y="332.53" class="st38" width="4.12" height="5.65"/>
				</g>
				<g>
					<rect x="1107.34" y="323.64" class="st38" width="26.1" height="12.3"/>
					<rect x="1104.01" y="325.87" class="st38" width="6.36" height="7.26"/>
				</g>
				<path class="st39" d="M832.64,952.14h327.02c0,0,2.84,22.07-30.25,21.04l-257.31-0.24C872.1,972.95,844.57,981.88,832.64,952.14
					z"/>
				<line class="st40" x1="931.88" y1="947.41" x2="1076.83" y2="947.41"/>
			</g>
		</g>
		<polyline class="st38" points="877.55,372.02 863.5,383.69 869.06,384.11 868.82,395.9 886.04,396 885.8,384.11 891.05,383.69 
			877.86,372.16 		"/>
		<rect x="928.34" y="384.8" class="st38" width="158.81" height="6.56"/>
	</g>
	<rect x="887.87" y="836.46" class="st1" width="237.98" height="2.51"/>
</g>
<g id="Card">
	<g>
		<g>
			<path class="st1" d="M1236.11,653.61l-348.32-0.39c-13.42-0.02-24.28-10.9-24.27-24.32l0.19-168.21
				c0.02-13.42,10.9-24.28,24.32-24.27l348.32,0.39c13.42,0.02,24.28,10.9,24.27,24.32l-0.19,168.21
				C1260.42,642.76,1249.53,653.62,1236.11,653.61z"/>
			<path class="st6" d="M1029.11,489.76l-138.35-0.15c-2.68,0-4.85-2.18-4.85-4.86l0.02-13.43c0-2.68,2.18-4.85,4.86-4.85
				l138.35,0.15c2.68,0,4.85,2.18,4.85,4.86l-0.02,13.43C1033.96,487.6,1031.79,489.77,1029.11,489.76z"/>
			
				<rect x="1084.95" y="615.53" transform="matrix(1 1.120354e-03 -1.120354e-03 1 0.7027 -1.2375)" class="st6" width="39.86" height="22.16"/>
			
				<rect x="1138.78" y="615.59" transform="matrix(1 1.120354e-03 -1.120354e-03 1 0.7028 -1.2978)" class="st6" width="39.86" height="22.16"/>
			
				<rect x="1192.62" y="615.65" transform="matrix(1 1.120354e-03 -1.120354e-03 1 0.7029 -1.3581)" class="st6" width="39.86" height="22.16"/>
		</g>
		<rect x="885.82" y="577.6" class="st6" width="74.93" height="8.64"/>
		<rect x="966.89" y="577.6" class="st6" width="74.93" height="8.64"/>
		<rect x="1047.97" y="577.6" class="st6" width="74.93" height="8.64"/>
		<rect x="1129.04" y="577.6" class="st6" width="74.93" height="8.64"/>
	</g>
</g>
<g id="Mark">
	<g>
		<circle class="st20" cx="998.62" cy="760.52" r="50.68"/>
		<polyline class="st41" points="963.74,762.52 993.06,786.09 1029.92,733.72 		"/>
	</g>
</g>
<g id="Dollar_13">
	<g>
		<circle class="st11" cx="1157.64" cy="942.71" r="40.12"/>
		<circle class="st9" cx="1157.78" cy="937.72" r="40.12"/>
		<circle class="st16" cx="1157.64" cy="938.66" r="32.79"/>
		<g>
			<text transform="matrix(0.3962 0 0 1 1149.9587 960.5157)" class="st11 st7 st17">$</text>
		</g>
	</g>
</g>
<g id="Layer_36">
	<line class="st42" x1="188.06" y1="986.41" x2="1756.74" y2="986.41"/>
</g>
</svg>
